<?xml version="1.0" encoding="UTF-8"?>
<svg width="140px" height="80px" viewBox="0 0 140 80" version="1.1" xmlns="http://www.w3.org/2000/svg" xmlns:xlink="http://www.w3.org/1999/xlink">
    <g id="J---Alert/Emergency" stroke="none" stroke-width="1" fill="none" fill-rule="evenodd">
        <g id="Alert/Emergency-1920" transform="translate(-994.000000, -1571.000000)">
            <g id="alert-emergency" transform="translate(994.000000, 1571.000000)">
                <path d="M0,80 L140,80 C140,73.3333333 140,70 140,70 C140,31.4824219 108.659932,0 70,0 C31.3400675,0 1.27380745e-13,31.3400675 1.27380745e-13,70 C4.2460248e-14,70 0,73.3333333 0,80 Z" id="Oval-3" fill="#FFFFFF"></path>
                <g id="Warning-Icon" transform="translate(45.000000, 28.000000)">
                    <path d="M26.3020615,0.805135775 L49.8459748,47.8929621 C50.2055731,48.6121589 49.9140611,49.4866952 49.1948642,49.8462937 C48.9927007,49.9473754 48.7697793,50 48.5437537,50 L1.45592735,50 C0.651840878,50 0,49.348159 0,48.5440726 C0,48.3180471 0.052624628,48.0951255 0.15370634,47.8929621 L23.6976196,0.805135775 C24.0572179,0.0859389715 24.9317543,-0.205573132 25.6509511,0.15402527 C25.9327129,0.29490619 26.1611805,0.52337394 26.3020615,0.805135775 Z" id="Triangle-3" stroke="#B01116" stroke-width="4" fill="#B01116"></path>
                    <g id="i" transform="translate(25.500000, 29.500000) scale(-1, 1) translate(-25.500000, -29.500000) translate(23.000000, 14.000000)" fill="#FFFFFF" stroke="#FFFFFF">
                        <path d="M2.86363636,0.738095238 C2.09169291,0.738095238 1.46590909,1.35394598 1.46590909,2.11363636 L1.46590909,18.103755 C1.46590909,18.8634454 2.09169291,19.4792961 2.86363636,19.4792961 C3.63557982,19.4792961 4.26136363,18.8634454 4.26136363,18.103755 L4.26136363,2.11363636 C4.26136363,1.35394598 3.63557982,0.738095238 2.86363636,0.738095238 Z" id="Rectangle-4-Copy-2"></path>
                        <path d="M2.25,26.3467909 C1.42157287,26.3467909 0.75,27.0077038 0.75,27.8229814 L0.75,28.7857143 C0.75,29.6009917 1.42157287,30.2619048 2.25,30.2619048 L3.47727273,30.2619048 C4.30569986,30.2619048 4.97727273,29.6009917 4.97727273,28.7857143 L4.97727273,27.8229814 C4.97727273,27.0077038 4.30569986,26.3467909 3.47727273,26.3467909 L2.25,26.3467909 Z" id="Rectangle-4-Copy-3"></path>
                    </g>
                </g>
            </g>
        </g>
    </g>
</svg>
