<?xml version="1.0" encoding="UTF-8"?>
<svg width="29px" height="27px" viewBox="0 0 29 27" version="1.1" xmlns="http://www.w3.org/2000/svg" xmlns:xlink="http://www.w3.org/1999/xlink">
    <title>calendar</title>
    <g id="Symbols" stroke="none" stroke-width="1" fill="none" fill-rule="evenodd">
        <g id="Icons-/-Monoline-/-Calendar-/-1" transform="translate(0.000000, -1.000000)" fill="#000300">
            <path d="M26.8193359,2.44433594 C27.4235056,2.44433594 27.9379862,2.65673616 28.362793,3.08154297 C28.7875998,3.50634978 29,4.02083031 29,4.625 L29,24.9165039 C29,25.5206736 28.7875998,26.0351541 28.362793,26.4599609 C27.9379862,26.8847677 27.4235056,27.097168 26.8193359,27.097168 L2.18066406,27.097168 C1.57649438,27.097168 1.06201384,26.8847677 0.637207031,26.4599609 C0.21240022,26.0351541 0,25.5206736 0,24.9165039 L0,4.625 C0,4.02083031 0.21240022,3.50634978 0.637207031,3.08154297 C1.06201384,2.65673616 1.57649438,2.44433594 2.18066406,2.44433594 L5.80566406,2.44433594 L5.80566406,1.72216797 C5.80566406,1.52392479 5.87646414,1.35400461 6.01806641,1.21240234 C6.15966868,1.07080007 6.32958885,1 6.52783203,1 C6.72607521,1 6.89599539,1.07080007 7.03759766,1.21240234 C7.17919993,1.35400461 7.25,1.52392479 7.25,1.72216797 L7.25,2.44433594 L21.75,2.44433594 L21.75,1.72216797 C21.75,1.52392479 21.8208001,1.35400461 21.9624023,1.21240234 C22.1040046,1.07080007 22.2739248,1 22.472168,1 C22.6704111,1 22.8403313,1.07080007 22.9819336,1.21240234 C23.1235359,1.35400461 23.1943359,1.52392479 23.1943359,1.72216797 L23.1943359,2.44433594 L26.8193359,2.44433594 Z M2.18066406,3.90283203 C1.97298073,3.90283203 1.79834055,3.9736321 1.65673828,4.11523438 C1.51513601,4.25683665 1.44433594,4.42675682 1.44433594,4.625 L1.44433594,8.25 L27.5556641,8.25 L27.5556641,4.625 C27.5556641,4.42675682 27.484864,4.25683665 27.3432617,4.11523438 C27.2016594,3.9736321 27.0270193,3.90283203 26.8193359,3.90283203 L23.1943359,3.90283203 L23.1943359,6.06933594 C23.1943359,6.26757912 23.1235359,6.43749929 22.9819336,6.57910156 C22.8403313,6.72070383 22.6704111,6.79150391 22.472168,6.79150391 C22.2739248,6.79150391 22.1040046,6.72070383 21.9624023,6.57910156 C21.8208001,6.43749929 21.75,6.26757912 21.75,6.06933594 L21.75,3.90283203 L7.25,3.90283203 L7.25,6.06933594 C7.25,6.26757912 7.17919993,6.43749929 7.03759766,6.57910156 C6.89599539,6.72070383 6.72607521,6.79150391 6.52783203,6.79150391 C6.32958885,6.79150391 6.15966868,6.72070383 6.01806641,6.57910156 C5.87646414,6.43749929 5.80566406,6.26757912 5.80566406,6.06933594 L5.80566406,3.90283203 L2.18066406,3.90283203 Z M26.8193359,25.652832 C27.0270193,25.652832 27.2016594,25.582032 27.3432617,25.4404297 C27.484864,25.2988274 27.5556641,25.1241872 27.5556641,24.9165039 L27.5556641,9.69433594 L1.44433594,9.69433594 L1.44433594,24.9165039 C1.44433594,25.1241872 1.51513601,25.2988274 1.65673828,25.4404297 C1.79834055,25.582032 1.97298073,25.652832 2.18066406,25.652832 L26.8193359,25.652832 Z" id="calendar"></path>
        </g>
    </g>
</svg>
