<?xml version="1.0" encoding="UTF-8"?>
<svg width="29px" height="23px" viewBox="0 0 29 23" version="1.1" xmlns="http://www.w3.org/2000/svg" xmlns:xlink="http://www.w3.org/1999/xlink">
  <path fill="#FFFFFF" d="M24.6687097,9.42032258 C24.1870283,9.3602462 23.7091581,9.27279285 23.2374194,9.1583871 C22.7906203,9.04430758 22.3528678,8.8973478 21.9277419,8.71870968 C21.5851353,8.59274745 21.2681877,8.40574834 20.9922581,8.16677419 C20.7611017,7.93255264 20.5880841,7.64739407 20.4870968,7.33419355 C20.4055973,7.07652408 20.3399901,6.8140952 20.2906452,6.5483871 C20.2516585,6.32510673 20.1921591,6.10589852 20.1129032,5.89354839 C20.0536463,5.76780025 19.9505261,5.66800657 19.8229032,5.61290323 C19.4803567,5.47283908 19.1306174,5.35105488 18.7751613,5.24806452 C18.4009677,5.14516129 17.9987097,5.06096774 17.5683871,4.98612903 C17.1380645,4.91129032 16.7077419,4.85516129 16.24,4.81774194 C15.7722581,4.78032258 15.3045161,4.7616129 14.8367742,4.7616129 C14.3690323,4.7616129 13.9012903,4.7616129 13.4522581,4.81774194 C13.0032258,4.87387097 12.5167742,4.91129032 12.1425806,4.98612903 C11.7683871,5.06096774 11.3193548,5.14516129 10.9451613,5.24806452 C10.5892499,5.339805 10.241851,5.46186407 9.90677419,5.61290323 C9.77591711,5.65796283 9.6704479,5.75662758 9.61677419,5.88419355 C9.53824974,6.09547601 9.48487164,6.31526822 9.45774194,6.53903226 C9.45774194,6.80096774 9.33612903,7.07225806 9.25193548,7.3716129 C9.14520193,7.68646874 8.96572057,7.97171591 8.72806452,8.20419355 C8.45757801,8.45738078 8.13963616,8.65450473 7.79258065,8.78419355 C7.38444971,8.91702864 6.96903648,9.02634791 6.5483871,9.1116129 C6.08989435,9.22457316 5.62417004,9.30584049 5.15451613,9.35483871 C4.71142414,9.41918856 4.26449508,9.45356772 3.81677419,9.45774194 C3.42421455,9.47268244 3.03133643,9.43810917 2.64741935,9.35483871 C2.36046082,9.2839681 2.09437646,9.14611717 1.87096774,8.95258065 C1.60050541,8.67866583 1.37620227,8.36274591 1.20677419,8.01709677 C1.04718255,7.65650143 0.955224868,7.26964498 0.935483871,6.87580645 C0.91526313,6.49073701 0.959528572,6.1049953 1.06645161,5.73451613 C1.21211683,5.23092595 1.48989802,4.775494 1.87096774,4.41548387 C2.24823769,4.05071611 2.6481739,3.71014544 3.0683871,3.39580645 C3.49717097,3.06017195 3.94373259,2.7478911 4.40612903,2.46032258 C4.89988869,2.17672769 5.40894452,1.92063826 5.93096774,1.69322581 C6.47354839,1.45935484 7.03483871,1.24419355 7.63354839,1.04774194 C8.23225806,0.851290323 8.72806452,0.757741935 9.35483871,0.617419355 C9.9816129,0.477096774 10.4867742,0.36483871 11.0948387,0.271290323 C11.7029032,0.177741935 12.3109677,0.112258065 12.9658065,0.065483871 C13.6206452,0.0187096774 14.2006452,0 14.8367742,0 C15.4729032,0 16.1090323,0 16.7077419,0.0748387097 C17.3064516,0.149677419 17.9519355,0.196451613 18.5787097,0.29 C19.2054839,0.383548387 19.7854839,0.495806452 20.3748387,0.626774194 C20.9641935,0.757741935 21.5254839,0.926129032 22.0680645,1.09451613 C22.6106452,1.26290323 23.2467742,1.51548387 23.7893548,1.75870968 C24.2938493,1.98475638 24.7843032,2.24091704 25.2580645,2.52580645 C26.180157,3.06424385 27.0344169,3.71122014 27.8025806,4.45290323 C28.150126,4.77801605 28.4243902,5.17346671 28.6070968,5.61290323 C28.7548293,6.00372649 28.8185789,6.42128628 28.7941935,6.8383871 C28.7742885,7.24029379 28.6757628,7.63439645 28.5041935,7.9983871 C28.3424344,8.34853816 28.117241,8.66571204 27.84,8.93387097 C27.6421411,9.13169566 27.3976247,9.27647514 27.1290323,9.35483871 C26.7497881,9.4492092 26.3597708,9.49324342 25.9690323,9.48580645 C25.5347011,9.48861817 25.1005609,9.46675499 24.6687097,9.42032258 Z M16.3896774,3.37709677 C17.3393109,3.44871131 18.2794417,3.6148011 19.196129,3.87290323 C19.599686,3.98730696 19.9963574,4.12473643 20.3841935,4.28451613 C20.809377,4.45748987 21.1467037,4.79481656 21.3196774,5.22 C21.4552633,5.56278516 21.5616628,5.91640692 21.6377419,6.27709677 C21.6377419,6.46419355 21.7125806,6.64193548 21.7593548,6.80096774 C21.8001669,6.94663285 21.8737651,7.08102956 21.9745161,7.19387097 C22.1403991,7.33237777 22.3354924,7.43152359 22.5451613,7.48387097 C22.8500618,7.60668684 23.1625323,7.70980212 23.4806452,7.79258065 C23.8748866,7.89613869 24.2746632,7.97734332 24.6780645,8.03580645 C25.0804855,8.09775384 25.4870326,8.1290267 25.8941935,8.12935484 C26.1294671,8.1387434 26.3650179,8.11989933 26.5958065,8.07322581 L26.8109677,7.9983871 C27.0700232,7.69456811 27.2499817,7.33143774 27.3348387,6.94129032 C27.4427561,6.38679234 27.2292959,5.81877104 26.7829032,5.47258065 C26.1275777,4.80356398 25.3886842,4.22188186 24.5845161,3.74193548 C23.6930481,3.22678302 22.7530311,2.80064199 21.7780645,2.46967742 C20.697665,2.1149696 19.5901173,1.84903302 18.4664516,1.67451613 C17.2619454,1.49309088 16.045512,1.40240561 14.8274194,1.40322581 C13.621759,1.4027247 12.4177875,1.49341346 11.2258065,1.67451613 C10.1104336,1.84451536 9.0118327,2.1105583 7.94225806,2.46967742 C6.95617708,2.80281542 6.00394845,3.22881244 5.0983871,3.74193548 C4.29455335,4.19697568 3.5525572,4.75347279 2.89064516,5.39774194 C2.70050533,5.58337314 2.55081119,5.80632186 2.45096774,6.05258065 C2.3579441,6.28066428 2.31950283,6.52732912 2.33870968,6.77290323 C2.35840565,6.99107415 2.41868704,7.20364535 2.51645161,7.39967742 C2.60712651,7.60457841 2.73387028,7.79152546 2.89064516,7.9516129 L3.10580645,8.02645161 C3.33969993,8.07351437 3.57839329,8.09235858 3.81677419,8.08258065 C4.22706634,8.08294967 4.63677591,8.05167413 5.04225806,7.98903226 C5.44257942,7.93059736 5.83924433,7.84939037 6.23032258,7.74580645 C6.54725081,7.66272381 6.85952228,7.56279693 7.16580645,7.44645161 C7.36285806,7.38372863 7.54675314,7.28543988 7.7083871,7.15645161 C7.81585827,7.04849486 7.89047139,6.91224481 7.92354839,6.76354839 C7.92354839,6.60451613 8.00774194,6.42677419 8.04516129,6.23967742 C8.13761976,5.87367959 8.26285693,5.51675365 8.41935484,5.17322581 C8.58468502,4.74302346 8.92463636,4.40307212 9.35483871,4.23774194 C9.73844923,4.07524898 10.1321756,3.93775724 10.5335484,3.82612903 C10.9674864,3.70255491 11.4078114,3.602623 11.8525806,3.52677419 C12.3323055,3.43906885 12.8163054,3.37661726 13.3025806,3.33967742 C13.8077419,3.33967742 14.3222581,3.27419355 14.8367742,3.27419355 C15.3512903,3.27419355 15.9032258,3.33967742 16.3896774,3.37709677 Z M5.74387097,22.2925806 C5.2837962,22.2976993 4.82786186,22.2052371 4.40612903,22.0212903 C3.99329235,21.8371323 3.61881418,21.5769017 3.30225806,21.2541935 C2.98620354,20.9255187 2.74383021,20.5332566 2.59129032,20.1035484 C2.42638952,19.6584436 2.35938354,19.1830203 2.39483871,18.7096774 C2.39483871,18.7096774 2.39483871,18.5132258 2.4416129,18.2045161 C2.49635178,17.8042756 2.57444199,17.4075774 2.67548387,17.0164516 C2.82473313,16.4546543 3.00588722,15.901822 3.21806452,15.3606452 C3.46981046,14.7087148 3.78305163,14.0822324 4.15354839,13.4896774 C4.38768208,13.1101902 4.64381867,12.744727 4.92064516,12.3951613 C5.21332483,12.0647556 5.52572332,11.7523571 5.85612903,11.4596774 C6.1692888,11.1591848 6.50043801,10.8780203 6.84774194,10.6177419 C7.202683,10.3582552 7.57115927,10.1178089 7.9516129,9.89741935 C8.440554,9.62999692 8.94684695,9.39560203 9.46709677,9.19580645 C10.0085925,8.98559676 10.5652402,8.81672612 11.1322581,8.69064516 C11.7274531,8.55213568 12.3303397,8.44905144 12.9377419,8.38193548 C14.2250635,8.24471834 15.5233236,8.24471834 16.8106452,8.38193548 C17.4211366,8.44905442 18.027136,8.55213678 18.6254839,8.69064516 C19.1921566,8.81803813 19.7487075,8.98687941 20.2906452,9.19580645 C20.8070919,9.39742405 21.3101557,9.63177056 21.7967742,9.89741935 C22.1772278,10.1178089 22.5457041,10.3582552 22.9006452,10.6177419 C23.2490952,10.8803127 23.5832298,11.1613605 23.9016129,11.4596774 C24.2138067,11.7559479 24.5104408,12.0681944 24.7903226,12.3951613 C25.0701954,12.7445968 25.3294527,13.1100559 25.5667742,13.4896774 C25.9376694,14.0820088 26.2509301,14.7085302 26.5022581,15.3606452 C26.7186374,15.9003021 26.8998761,16.4533926 27.0448387,17.0164516 C27.1504421,17.4065262 27.2285904,17.8035194 27.2787097,18.2045161 C27.2787097,18.5132258 27.2787097,18.6816129 27.2787097,18.7096774 C27.3072946,19.1697757 27.2436845,19.6309489 27.0916129,20.066129 C26.935797,20.4964079 26.6902587,20.8886314 26.3712903,21.2167742 C26.0563749,21.5414201 25.6815001,21.8019263 25.2674194,21.983871 C24.8489139,22.1676108 24.3960693,22.2600931 23.9390323,22.2551613 L5.74387097,22.2925806 Z M11.8058065,9.94419355 C10.9084216,10.129025 10.0356474,10.4178568 9.20516129,10.8048387 C8.42726523,11.1748425 7.70595466,11.6536163 7.06290323,12.2267742 C6.41803515,12.8033916 5.85748899,13.4678593 5.39774194,14.2006452 C5.04885257,14.7346402 4.76020952,15.3056514 4.53709677,15.9032258 C4.34656297,16.3861152 4.18414077,16.8796288 4.05064516,17.3812903 C3.96151356,17.7293469 3.89279431,18.082314 3.84483871,18.4383871 C3.84483871,18.7096774 3.84483871,18.85 3.84483871,18.8593548 C3.80048103,19.3941066 3.98785653,19.9221648 4.35935484,20.3093548 C4.54617238,20.4961416 4.76474154,20.6481898 5.00483871,20.7583871 C5.2539634,20.860885 5.52128488,20.9118034 5.79064516,20.9080645 L23.9951613,20.9080645 C24.5331917,20.9223075 25.0512964,20.7041582 25.4170968,20.3093548 C25.5995197,20.1193952 25.7397825,19.893062 25.8287097,19.6451613 C25.9219028,19.39427 25.9601836,19.1263045 25.9409677,18.8593548 C25.9409677,18.8593548 25.9409677,18.7096774 25.8941935,18.4383871 C25.8423087,18.0822732 25.7704752,17.7293525 25.6790323,17.3812903 C25.5447985,16.8809394 25.3855664,16.3876321 25.2019355,15.9032258 C24.9685388,15.3067917 24.6738402,14.7362051 24.3225806,14.2006452 C23.4030965,12.7289084 22.0820599,11.5506866 20.5151613,10.8048387 C19.6846752,10.4178568 18.811901,10.129025 17.9145161,9.94419355 C16.9064161,9.75121464 15.881869,9.6572195 14.8554839,9.66354839 C13.8322226,9.65782833 12.8108383,9.75182075 11.8058065,9.94419355 Z M13.2277419,19.1493548 C12.7273437,18.9237633 12.2736113,18.6064679 11.89,18.213871 C11.1025932,17.4274541 10.6586189,16.3612433 10.6551613,15.2483871 C10.661212,14.1333058 11.1046062,13.0651288 11.89,12.2735484 C12.2736113,11.8809515 12.7273437,11.5636561 13.2277419,11.3380645 C14.2728748,10.8886492 15.4568027,10.8886492 16.5019355,11.3380645 C17.0023337,11.5636561 17.4560662,11.8809515 17.8396774,12.2735484 C19.0595162,13.4780381 19.4292619,15.3008848 18.7751613,16.8854839 C18.5519292,17.3844712 18.234264,17.8355558 17.8396774,18.213871 C17.4560662,18.6064679 17.0023337,18.9237633 16.5019355,19.1493548 C15.4568027,19.5987702 14.2728748,19.5987702 13.2277419,19.1493548 Z M13.7796774,12.6851613 C13.4310974,12.824746 13.1132727,13.031332 12.8441935,13.2932258 C12.5860404,13.5474354 12.379552,13.8492263 12.236129,14.1819355 C12.0918955,14.5287022 12.0187302,14.9008914 12.0209677,15.2764516 C12.020947,15.6517994 12.0940278,16.0235585 12.236129,16.3709677 C12.379552,16.703677 12.5860404,17.0054678 12.8441935,17.2596774 C13.113023,17.5195744 13.4310784,17.7231299 13.7796774,17.8583871 C14.1235391,18.0013973 14.4924253,18.0745385 14.8648387,18.0735484 C15.2401865,18.0735692 15.6119456,18.0004883 15.9593548,17.8583871 C16.30491,17.717199 16.6218984,17.5143264 16.8948387,17.2596774 C17.1475442,17.0029282 17.3505345,16.7016145 17.4935484,16.3709677 C17.6400489,16.0248916 17.713307,15.6522307 17.7087097,15.2764516 C17.7152502,14.9004978 17.6419136,14.5274377 17.4935484,14.1819355 C17.3505345,13.8512887 17.1475442,13.5499751 16.8948387,13.2932258 C16.622273,13.0357292 16.3053318,12.8297175 15.9593548,12.6851613 C15.6119456,12.5430601 15.2401865,12.4699792 14.8648387,12.47 C14.4924253,12.4690098 14.1235391,12.5421511 13.7796774,12.6851613 Z"></path>
</svg>
