<?xml version="1.0" encoding="UTF-8"?>
<svg width="31px" height="26px" viewBox="0 0 31 26" version="1.1" xmlns="http://www.w3.org/2000/svg" xmlns:xlink="http://www.w3.org/1999/xlink">
  <g fill="#FFFFFF" transform="translate(-5.000000, -7.000000)" >
    <g transform="translate(0.068056, 0.000000)">
      <path d="M19.9011776,13.9070157 L19.9677007,15.0300621 L18.8589822,14.8925462 C14.8232466,14.365402 11.2975215,12.5776956 8.30398135,9.5752656 L6.84047283,8.08551026 L6.46350852,9.18563728 C5.66523114,11.6380038 6.17524169,14.2278861 7.83831955,15.9697539 C8.7252944,16.932365 8.52572506,17.0698809 6.99569343,16.4968981 C6.46350852,16.3135436 5.99784672,16.1760277 5.95349797,16.2447857 C5.79827737,16.4052208 6.33046229,18.4908783 6.75177535,19.3159736 C7.328309,20.4619392 8.50355069,21.5849856 9.78966423,22.2496456 L10.8762084,22.7767898 L9.59009489,22.7997092 C8.34833009,22.7997092 8.30398135,22.8226285 8.43702758,23.303934 C8.88051501,24.7936894 10.6322904,26.375122 12.583635,27.0627014 L13.9584461,27.5440069 L12.76103,28.2774249 C10.9870803,29.3317133 8.90268938,29.9276155 6.81829846,29.9734541 C5.82045174,29.9963734 5,30.0880507 5,30.1568086 C5,30.3860017 7.70527332,31.6694833 9.27965369,32.1737081 C14.0027948,33.6634635 19.6129108,33.0217227 23.8260414,30.477679 C26.8195815,28.6670533 29.8131217,25.0687211 31.2101071,21.5849856 C31.9640357,19.7285212 32.7179643,16.3364629 32.7179643,14.7091917 C32.7179643,13.6549033 32.7844874,13.5173874 34.0262522,12.2568252 C34.7580065,11.5234072 35.445412,10.7212312 35.5784582,10.4920381 C35.800202,10.0565712 35.7780276,10.0565712 34.6471346,10.4461995 C32.7623131,11.1337789 32.4962206,11.0421016 33.4275442,10.0107325 C34.1149497,9.27731453 34.9354015,7.94799438 34.9354015,7.55836606 C34.9354015,7.48960812 34.6027859,7.60420469 34.2258216,7.8104785 C33.8266829,8.03967163 32.939708,8.38346133 32.2744769,8.58973514 L31.0770608,8.97936346 L29.9905166,8.22302613 C29.3918086,7.8104785 28.5491825,7.35209224 28.1056951,7.21457637 C26.9748021,6.89370598 25.2452011,6.93954461 24.2251801,7.30625362 C21.4533836,8.3376227 19.7016083,10.996263 19.9011776,13.9070157 Z"></path>
    </g>
  </g>
</svg>
