<?xml version="1.0" encoding="UTF-8"?>
<svg id="Layer_1" data-name="Layer 1" xmlns="http://www.w3.org/2000/svg" viewBox="0 0 50 50">
    <title>twitter</title><path d="M44.66,0H5.34A5.34,5.34,0,0,0,0,5.34V44.66A5.34,5.34,0,0,0,5.34,50H44.66A5.34,5.34,0,0,0,50,44.66V5.34A5.34,5.34,0,0,0,44.66,0ZM39.17,17.75v.89a21.5,21.5,0,0,1-2.34,9.71,20.1,20.1,0,0,1-7,7.92,20.54,20.54,0,0,1-11.38,3.24A20.73,20.73,0,0,1,7.14,36.27H8.93a14.36,14.36,0,0,0,9-3.12,7,7,0,0,1-4.24-1.4,6.83,6.83,0,0,1-2.57-3.63A9.8,9.8,0,0,0,14.51,28a7.38,7.38,0,0,1-4.24-2.56,7.1,7.1,0,0,1-1.68-4.69v-.11a7.67,7.67,0,0,0,3.35,1,7.27,7.27,0,0,1-3.35-6.19,7,7,0,0,1,1-3.63,22,22,0,0,0,6.69,5.41,20,20,0,0,0,8.49,2.29A7.12,7.12,0,0,1,25.11,15a7.47,7.47,0,0,1,2.74-3.29,7.14,7.14,0,0,1,4.07-1.23,6.82,6.82,0,0,1,5.25,2.34,13.8,13.8,0,0,0,4.68-1.78,7.5,7.5,0,0,1-3.23,4A14.9,14.9,0,0,0,42.86,14,16.26,16.26,0,0,1,39.17,17.75Z"/>
</svg>
