<?xml version="1.0" encoding="UTF-8"?>
<svg width="50px" height="50px" viewBox="0 0 50 50" version="1.1" xmlns="http://www.w3.org/2000/svg" xmlns:xlink="http://www.w3.org/1999/xlink">
    <g fill="#C25421">
        <path d="M44.66,0 L5.34,0 C2.39079944,-1.80586452e-16 3.61172903e-16,2.39079944 0,5.34 L0,44.66 C3.61172903e-16,47.6092006 2.39079944,50 5.34,50 L44.66,50 C47.6092006,50 50,47.6092006 50,44.66 L50,5.34 C50,2.39079944 47.6092006,1.80586452e-16 44.66,0 L44.66,0 Z M39.17,17.75 L39.17,18.64 C39.1630467,22.0154797 38.3614174,25.3418989 36.83,28.35 C35.2450386,31.5672285 32.8281319,34.3017858 29.83,36.27 C26.4365901,38.4428638 22.4790213,39.5696232 18.45,39.51 C14.4462133,39.54491 10.5179901,38.4195834 7.14,36.27 L8.93,36.27 C12.1976018,36.2842707 15.3723575,35.1836887 17.93,33.15 C16.4017326,33.1587001 14.912609,32.6670083 13.69,31.75 C12.4523189,30.8606327 11.5476634,29.5828509 11.12,28.12 C12.2483846,28.2773572 13.395566,28.236749 14.51,28 C12.8439682,27.6605653 11.3462404,26.7562768 10.27,25.44 C9.1619109,24.1308963 8.56514802,22.4649333 8.59,20.75 L8.59,20.64 C9.61479582,21.2267765 10.7612413,21.568999 11.94,21.64 C9.83239324,20.2907584 8.56687544,17.9523837 8.59,15.45 C8.58554707,14.1713785 8.93139233,12.9159602 9.59,11.82 C11.4422067,14.0460604 13.7156745,15.8845448 16.28,17.23 C18.9050705,18.6137192 21.8051581,19.3959572 24.77,19.52 C24.3879106,18.0165249 24.5072963,16.4293977 25.11,15 C25.6827495,13.6594726 26.6352129,12.5158213 27.85,11.71 C29.0502792,10.8961998 30.4699047,10.4671729 31.92,10.48 C33.9292797,10.448446 35.8502063,11.3046304 37.17,12.82 C38.8254893,12.5170069 40.4115918,11.9137457 41.85,11.04 C41.2782386,12.7122457 40.1343165,14.1288675 38.62,15.04 C40.0767295,14.9033892 41.5053944,14.552962 42.86,14 C41.8417193,15.4420195 40.5954092,16.7085949 39.17,17.75 Z" id="Shape"></path>
    </g>
</svg>
