<?xml version="1.0" encoding="UTF-8"?>
<svg width="23px" height="28px" viewBox="0 0 23 28" version="1.1" xmlns="http://www.w3.org/2000/svg" xmlns:xlink="http://www.w3.org/1999/xlink">
  <g fill="#D0AE56" fill-rule="evenodd" transform="translate(-10.000000, -6.000000)" >
    <g transform="translate(0.159722, 0.000000)">
      <path d="M31.1133304,19.8799174 C32.18059,20.9587497 32.1921356,26.2846823 32.1921356,26.3154533 C32.1921356,26.3154533 32.1834896,31.6691123 31.1133304,32.7516958 C30.0504993,33.8282447 21.0917712,33.8514589 21.0917712,33.8514589 C21.0917712,33.8514589 12.1343083,33.8282447 11.068683,32.7517502 C10.0029523,31.6728635 10,26.3558469 10,26.3154533 C10,26.284791 10.0028996,20.9587497 11.068683,19.8799174 C12.1344138,18.8027161 21.0917712,18.7883636 21.0917712,18.7891791 C21.0917712,18.7883636 30.0504993,18.8027161 31.1133304,19.8799174 Z M15.100746,30.7548992 L15.100746,23.0175775 L16.6093757,23.0175775 L16.609323,21.702907 L12.1328322,21.702907 L12.1328322,23.0175775 L13.6414619,23.0175775 L13.6414619,30.7548992 L15.100746,30.7548992 Z M19.5815598,30.0205278 L19.5815598,30.7549536 L20.8753037,30.7549536 L20.8753564,24.0762402 L19.5816125,24.0762402 L19.5816125,29.1498073 C19.4582482,29.2942569 19.3261324,29.4125566 19.1794659,29.5069354 C19.0342756,29.6004987 18.9123347,29.6476881 18.8179135,29.6476881 C18.6973961,29.6476881 18.6088268,29.6132202 18.5522057,29.5413488 C18.499855,29.4709996 18.4722825,29.3572123 18.4722825,29.1985189 L18.4722825,24.0761314 L17.1784859,24.0761314 L17.1784859,29.6597029 C17.1784859,30.0588012 17.2554568,30.3543874 17.4050229,30.5543987 C17.5588593,30.7549536 17.7810205,30.8522681 18.0816288,30.8522681 C18.3255633,30.8522681 18.5753497,30.7834956 18.8338349,30.6396984 C19.0936908,30.4988913 19.3405776,30.2930085 19.5815598,30.0205278 Z M24.3863368,30.8394378 C24.7696625,30.8394378 25.0643661,30.7152123 25.2661775,30.4622489 C25.4693069,30.2098834 25.5710561,29.8474819 25.5711616,29.375153 L25.5711616,25.6693173 C25.5711616,25.1227793 25.4636659,24.7057946 25.2458804,24.4205923 C25.0309945,24.1375646 24.7187879,23.9952897 24.307837,23.9952897 C24.1076072,23.9952897 23.9085373,24.0477526 23.7111544,24.1540374 C23.5165656,24.2587457 23.3321517,24.4152101 23.1564894,24.617396 L23.1564894,21.702907 L21.8483003,21.702907 L21.8483003,30.7549536 L23.1564894,30.7549536 L23.1564894,30.2429378 C23.3248237,30.448005 23.5122426,30.5977825 23.7096255,30.6950426 C23.9071138,30.7924115 24.1322274,30.8394378 24.3863368,30.8394378 Z M27.5834763,28.8338884 L27.5834763,27.5754319 L30.0590399,27.5753776 L30.0590399,25.8729711 C30.0590399,25.2395567 29.9006696,24.7543975 29.5827165,24.4175478 C29.2647634,24.0798827 28.8087898,23.9107511 28.2164302,23.9107511 C27.6355634,23.9107511 27.165092,24.0926586 26.7992693,24.4572348 C26.4333412,24.8211042 26.2489273,25.2957708 26.2489273,25.8729711 L26.2489273,28.8721075 C26.2489273,29.5158513 26.4173671,30.0205822 26.7499763,30.3865718 C27.08248,30.7548992 27.539877,30.9368611 28.1192676,30.9368611 C28.7638726,30.9368611 29.2489474,30.7655005 29.5712236,30.421094 C29.8978227,30.0729907 30.0590926,29.5572236 30.0590926,28.8721618 L30.0590926,28.5292232 L28.7276014,28.5292232 L28.7276014,28.8338884 C28.7276014,29.2270065 28.6826314,29.4800243 28.5983851,29.5953339 C28.5127155,29.7105891 28.3630967,29.7683255 28.1483162,29.7683255 C27.9420764,29.7683255 27.796886,29.7015644 27.7097929,29.5660852 C27.6257048,29.4290837 27.5834763,29.1857974 27.5834763,28.8338884 Z M24.1017026,25.2290641 C24.193066,25.3457872 24.2381415,25.5172022 24.2381415,25.7426022 L24.2381415,29.1909621 C24.2381415,29.4057608 24.1989179,29.5570061 24.1250048,29.6506238 C24.0509862,29.7464705 23.934739,29.7936599 23.7764742,29.7936599 C23.6661844,29.7936599 23.5631172,29.768108 23.4642675,29.7210274 C23.3641526,29.6745447 23.26098,29.5929418 23.1564894,29.4851891 L23.1564894,25.324204 C23.2450059,25.2321086 23.3335752,25.1639884 23.4235679,25.1204959 C23.513666,25.0755899 23.6050821,25.0553658 23.6979744,25.0553658 C23.8721606,25.0553658 24.0072815,25.1137546 24.1017026,25.2290641 Z M27.717121,25.263532 C27.8072191,25.1384366 27.955309,25.0793411 28.1614434,25.0793411 C28.3575084,25.0793411 28.5041221,25.1384366 28.5912152,25.263532 C28.6813134,25.3803638 28.7277595,25.582441 28.7277595,25.8617174 L28.7277595,26.5362322 L27.5835817,26.5362322 L27.5835817,25.8617174 C27.5835817,25.5823866 27.6271283,25.3802007 27.717121,25.263532 Z M12.9620869,6 L14.6144308,6 L15.6802142,9.98587323 L15.7833342,9.98587323 L16.7967141,6 L18.4650849,6 L16.5557847,11.8343059 L16.5557847,15.9714244 L14.9149336,15.9714244 L14.9149336,12.0207258 L12.9620869,6 Z M20.7534405,8.42949292 C21.355975,8.42949292 21.8511721,8.60759484 22.2373974,8.96401615 C22.6206703,9.31962198 22.8138356,9.77852257 22.8138356,10.3393044 L22.8138356,14.1394645 C22.8138356,14.7683122 22.6250988,15.2609739 22.2490484,15.6196242 C21.8685696,15.977459 21.3502286,16.1571919 20.6866972,16.1571919 C20.0507383,16.1571919 19.5396725,15.9714788 19.1562942,15.6032601 C18.7758681,15.2333561 18.5828082,14.7355297 18.5828082,14.1104333 L18.5827028,10.2980953 C18.5827028,9.72687519 18.778715,9.2731937 19.1722155,8.93628966 C19.5642927,8.59862451 20.092756,8.42949292 20.7534405,8.42949292 Z M20.6836922,14.8828063 C20.8812333,14.8828063 21.0365458,14.8259942 21.1541637,14.7143815 C21.2704108,14.6005398 21.328508,14.445652 21.328508,14.2494463 L21.328508,10.2418812 C21.328508,10.0810131 21.2688819,9.95145976 21.1498406,9.85186186 C21.0307993,9.75307944 20.8754341,9.7043678 20.6836922,9.7043678 C20.5051302,9.7043678 20.361416,9.75307944 20.2495974,9.85186186 C20.1392548,9.95145976 20.0826337,10.0809044 20.0826337,10.2418812 L20.0826337,14.2495006 C20.082581,14.4508711 20.1363025,14.6058132 20.2393697,14.7173716 C20.3424896,14.8281688 20.4906323,14.8828063 20.6836922,14.8828063 Z M26.6964379,15.9714788 L26.6964379,15.1592013 C26.4306774,15.4578863 26.1505244,15.6877987 25.8585622,15.8434476 C25.5681815,15.999912 25.2864469,16.0778724 25.0134111,16.0778724 C24.6737374,16.0778724 24.4224749,15.9677819 24.2512409,15.7491776 C24.081325,15.5298121 23.9956554,15.2019328 23.9956554,14.7631475 L23.9956554,8.6150973 L25.4505109,8.6150973 L25.4505109,14.2547197 C25.4505109,14.4291792 25.483988,14.554927 25.5449321,14.6327786 C25.6044527,14.710739 25.7046204,14.7503172 25.8411646,14.7503172 C25.9471314,14.7503172 26.0836757,14.697963 26.247687,14.595375 C26.4102749,14.4920803 26.5613171,14.3601891 26.6963325,14.19856 L26.6963325,8.6150973 L28.1542458,8.6150973 L28.1542458,15.9714788 L26.6964379,15.9714788 Z"></path>
    </g>
  </g>
</svg>
