<svg xmlns="http://www.w3.org/2000/svg" viewBox="0 0 279.81 49.45"><defs><style>.cls-1{fill:#fff;}.cls-2{fill:none;stroke:#fff;stroke-miterlimit:10;stroke-width:0.5px;}</style></defs><title>corona-virus-utah-gov</title><g id="Layer_2" data-name="Layer 2"><g id="Layer_1-2" data-name="Layer 1"><path class="cls-1" d="M83.33,3a7,7,0,0,0-5.56,2.34,9.48,9.48,0,0,0-2,6.43,9.67,9.67,0,0,0,2,6.48,7,7,0,0,0,5.6,2.29,19,19,0,0,0,5.1-.81V22a15.57,15.57,0,0,1-5.48.83,9.27,9.27,0,0,1-7.28-2.86q-2.56-2.87-2.57-8.14A12.79,12.79,0,0,1,74.31,6a8.86,8.86,0,0,1,3.56-3.83A10.79,10.79,0,0,1,83.36.82,13.26,13.26,0,0,1,89.24,2l-1,2.14A11.36,11.36,0,0,0,83.33,3Z"/><path class="cls-1" d="M110.44,11.78q0,5.13-2.59,8.07a9.12,9.12,0,0,1-7.21,2.93,9.25,9.25,0,0,1-7.29-2.88c-1.71-1.93-2.57-4.64-2.57-8.15s.86-6.18,2.58-8.09S97.51.79,100.66.79a9.12,9.12,0,0,1,7.2,2.92Q110.44,6.64,110.44,11.78Zm-17,0c0,2.89.62,5.09,1.85,6.58a6.58,6.58,0,0,0,5.38,2.25A6.51,6.51,0,0,0,106,18.37q1.81-2.24,1.81-6.59T106,5.24A6.48,6.48,0,0,0,100.66,3a6.63,6.63,0,0,0-5.4,2.24C94,6.75,93.41,8.92,93.41,11.78Z"/><path class="cls-1" d="M117.44,13.61v8.88H115V1.12h5.86q3.93,0,5.81,1.51a5.45,5.45,0,0,1,1.88,4.53c0,2.83-1.43,4.73-4.3,5.73l5.81,9.6h-2.94l-5.18-8.88Zm0-2.14h3.4a5.92,5.92,0,0,0,3.86-1,3.9,3.9,0,0,0,1.23-3.14,3.57,3.57,0,0,0-1.25-3,6.71,6.71,0,0,0-4-.94h-3.23Z"/><path class="cls-1" d="M151.57,11.78q0,5.13-2.6,8.07a9.1,9.1,0,0,1-7.21,2.93,9.25,9.25,0,0,1-7.29-2.88c-1.71-1.93-2.56-4.64-2.56-8.15s.85-6.18,2.57-8.09S138.63.79,141.79.79A9.1,9.1,0,0,1,149,3.71C150.7,5.66,151.57,8.35,151.57,11.78Zm-17,0c0,2.89.61,5.09,1.85,6.58a7.53,7.53,0,0,0,10.73,0q1.81-2.24,1.82-6.59c0-2.88-.61-5.06-1.81-6.54A6.45,6.45,0,0,0,141.79,3a6.6,6.6,0,0,0-5.4,2.24C135.15,6.75,134.54,8.92,134.54,11.78Z"/><path class="cls-1" d="M172.77,22.49h-2.84L158.25,4.56h-.12q.24,3.15.24,5.79V22.49h-2.3V1.12h2.81L170.53,19h.12c0-.26-.07-1.1-.13-2.53s-.1-2.45-.08-3.06V1.12h2.33Z"/><path class="cls-1" d="M192.24,22.49l-2.66-6.79H181l-2.63,6.79h-2.51L184.32,1h2.09l8.4,21.46Zm-3.43-9-2.49-6.62q-.48-1.26-1-3.09a28.54,28.54,0,0,1-.92,3.09l-2.52,6.62Z"/><path class="cls-1" d="M208.44,1.12H213l-7.26,21.37h-4.94L193.56,1.12h4.57l4,12.72c.23.75.46,1.62.7,2.62s.39,1.7.44,2.09a38.71,38.71,0,0,1,1.1-4.71Z"/><path class="cls-1" d="M215.92,22.49V1.12h4.53V22.49Z"/><path class="cls-1" d="M230.08,14.29v8.2h-4.53V1.12h6.22c2.91,0,5,.53,6.45,1.59a5.66,5.66,0,0,1,2.09,4.81,5.7,5.7,0,0,1-1,3.36,6.79,6.79,0,0,1-2.94,2.3q4.83,7.21,6.29,9.31h-5l-5.1-8.2Zm0-3.68h1.46a5.56,5.56,0,0,0,3.17-.72,2.56,2.56,0,0,0,1-2.25,2.33,2.33,0,0,0-1-2.16,6.34,6.34,0,0,0-3.24-.65h-1.37Z"/><path class="cls-1" d="M262.11,1.12V15a7.93,7.93,0,0,1-1.06,4.15A6.9,6.9,0,0,1,258,21.83a10.9,10.9,0,0,1-4.74,1,9,9,0,0,1-6.4-2.11,7.49,7.49,0,0,1-2.28-5.78V1.12h4.52V14.2a5.5,5.5,0,0,0,1,3.63A4.13,4.13,0,0,0,253.37,19a4,4,0,0,0,3.22-1.16,5.49,5.49,0,0,0,1-3.65v-13Z"/><path class="cls-1" d="M279.81,16.56a5.52,5.52,0,0,1-2.08,4.56,9,9,0,0,1-5.79,1.66,13.6,13.6,0,0,1-6.06-1.28V17.29a26.53,26.53,0,0,0,3.67,1.36,10.89,10.89,0,0,0,2.74.39,3.88,3.88,0,0,0,2.28-.57,2.1,2.1,0,0,0,.45-2.81,3.81,3.81,0,0,0-1-.94,24.44,24.44,0,0,0-2.77-1.45,12.67,12.67,0,0,1-2.94-1.77,6.6,6.6,0,0,1-1.56-2,5.63,5.63,0,0,1-.59-2.63,5.53,5.53,0,0,1,1.92-4.46A8,8,0,0,1,273.37.82a12.71,12.71,0,0,1,3.18.39,21,21,0,0,1,3.16,1.11l-1.46,3.52a23.16,23.16,0,0,0-2.83-1,9.32,9.32,0,0,0-2.2-.27,2.9,2.9,0,0,0-2,.6,2,2,0,0,0-.69,1.56,1.86,1.86,0,0,0,.28,1,3,3,0,0,0,.88.87,31,31,0,0,0,2.88,1.5A11.39,11.39,0,0,1,278.7,13,5.6,5.6,0,0,1,279.81,16.56Z"/><path class="cls-1" d="M83.39,30.75v8.81A4.83,4.83,0,0,1,82,43.22a5.4,5.4,0,0,1-3.87,1.33,5.18,5.18,0,0,1-3.8-1.34A5,5,0,0,1,73,39.52V30.75h1.58v8.88a3.51,3.51,0,0,0,.93,2.62,3.75,3.75,0,0,0,2.74.91,3.63,3.63,0,0,0,2.65-.91,3.55,3.55,0,0,0,.93-2.63V30.75Z"/><path class="cls-1" d="M91.36,44.36H89.78V32.16H85.47V30.75h10.2v1.41H91.36Z"/><path class="cls-1" d="M105.13,44.36,103.44,40H98l-1.67,4.33h-1.6l5.38-13.66h1.33l5.35,13.66ZM103,38.61l-1.59-4.22c-.2-.53-.41-1.19-.63-2a16.76,16.76,0,0,1-.59,2l-1.6,4.22Z"/><path class="cls-1" d="M119.15,44.36h-1.58V38H110.4v6.4h-1.58V30.75h1.58v5.79h7.17V30.75h1.58Z"/><path class="cls-1" d="M122.43,43.38a1.4,1.4,0,0,1,.29-1,1,1,0,0,1,.81-.32,1.11,1.11,0,0,1,.84.32,1.36,1.36,0,0,1,.31,1,1.34,1.34,0,0,1-.31.93,1.1,1.1,0,0,1-.84.32,1.09,1.09,0,0,1-.79-.29A1.3,1.3,0,0,1,122.43,43.38Z"/><path class="cls-1" d="M133.38,37.23H138v6.62a13.8,13.8,0,0,1-2.2.52,16.3,16.3,0,0,1-2.58.18,6.26,6.26,0,0,1-4.82-1.84,7.22,7.22,0,0,1-1.72-5.15,7.74,7.74,0,0,1,.85-3.72A5.82,5.82,0,0,1,130,31.4a8,8,0,0,1,3.76-.84,10.35,10.35,0,0,1,4.06.8l-.62,1.39a9.09,9.09,0,0,0-3.55-.78,5.11,5.11,0,0,0-3.88,1.48,5.76,5.76,0,0,0-1.39,4.11,5.85,5.85,0,0,0,1.34,4.18,5.17,5.17,0,0,0,3.95,1.42,12.13,12.13,0,0,0,2.77-.32V38.65h-3.05Z"/><path class="cls-1" d="M153,37.54a7.5,7.5,0,0,1-1.65,5.14,5.81,5.81,0,0,1-4.6,1.87,5.88,5.88,0,0,1-4.64-1.84,7.53,7.53,0,0,1-1.63-5.19,7.43,7.43,0,0,1,1.64-5.15,5.91,5.91,0,0,1,4.65-1.83,5.8,5.8,0,0,1,4.58,1.86A7.49,7.49,0,0,1,153,37.54Zm-10.85,0a6.48,6.48,0,0,0,1.18,4.19,4.82,4.82,0,0,0,6.84,0,6.55,6.55,0,0,0,1.15-4.2,6.5,6.5,0,0,0-1.15-4.17,4.13,4.13,0,0,0-3.4-1.42,4.21,4.21,0,0,0-3.44,1.43A6.44,6.44,0,0,0,142.12,37.54Z"/><path class="cls-1" d="M163.48,30.75h1.71l-4.91,13.61h-1.56l-4.88-13.61h1.68l3.12,8.81a24.75,24.75,0,0,1,.86,2.95,26.22,26.22,0,0,1,.87-3Z"/><line class="cls-2" x1="58.49" y1="44.31" x2="58.49" y2="2.97"/><circle class="cls-1" cx="48.74" cy="24.63" r="2.24"/><path class="cls-1" d="M47.6,26.06a3.06,3.06,0,0,0-2-.6,4,4,0,0,0-2.56,1.06l-.19-3.12a4.24,4.24,0,0,0,2.67.76,2.62,2.62,0,0,0,1.88-.79Z"/><circle class="cls-1" cx="1.89" cy="24.4" r="1.89"/><path class="cls-1" d="M2.94,25.53a2.61,2.61,0,0,1,1.61-.64,3.44,3.44,0,0,1,2.23.73l0-2.64a3.64,3.64,0,0,1-2.2.81,2.25,2.25,0,0,1-1.64-.54Z"/><circle class="cls-1" cx="42.52" cy="39.85" r="2.24"/><path class="cls-1" d="M40.71,40.12a3.07,3.07,0,0,0-1-1.78,4.05,4.05,0,0,0-2.59-1l2-2.39a4.32,4.32,0,0,0,1.44,2.37,2.65,2.65,0,0,0,1.91.71Z"/><circle class="cls-1" cx="8.48" cy="7.64" r="2.24"/><path class="cls-1" d="M8.38,9.47a3.11,3.11,0,0,1,1.86.86,4,4,0,0,1,1.21,2.49l2.21-2.2a4.31,4.31,0,0,1-2.5-1.21,2.65,2.65,0,0,1-.88-1.84Z"/><circle class="cls-1" cx="23.29" cy="47.21" r="2.24"/><path class="cls-1" d="M22.07,45.85A3.16,3.16,0,0,0,23,44a4,4,0,0,0-.61-2.7l3.1.34a4.29,4.29,0,0,0-1.19,2.5,2.65,2.65,0,0,0,.46,2Z"/><circle class="cls-1" cx="24.87" cy="2.24" r="2.24"/><path class="cls-1" d="M23.51,3.46a3.14,3.14,0,0,1,.71,1.92A4,4,0,0,1,23.31,8h3.12a4.27,4.27,0,0,1-.91-2.62,2.64,2.64,0,0,1,.68-1.92Z"/><circle class="cls-1" cx="9.65" cy="38.76" r="1.27"/><path class="cls-1" d="M9.46,37.74a1.72,1.72,0,0,0,1-.62A2.24,2.24,0,0,0,11,35.63l1.4,1.09a2.49,2.49,0,0,0-1.32.86,1.48,1.48,0,0,0-.37,1.1Z"/><circle class="cls-1" cx="41.26" cy="7.64" r="2.24"/><path class="cls-1" d="M39.44,7.54a3.11,3.11,0,0,1-.86,1.87,4.06,4.06,0,0,1-2.5,1.21l2.21,2.2a4.25,4.25,0,0,1,1.21-2.49,2.65,2.65,0,0,1,1.84-.88Z"/><circle class="cls-1" cx="44.25" cy="32.09" r="1.29"/><path class="cls-1" d="M43.29,32.53a1.81,1.81,0,0,0-.86-.82,2.3,2.3,0,0,0-1.59-.12l.72-1.65A2.44,2.44,0,0,0,42.73,31a1.51,1.51,0,0,0,1.18.08Z"/><circle class="cls-1" cx="4.68" cy="18.27" r="1.13"/><path class="cls-1" d="M5.2,19a1.62,1.62,0,0,1,1-.23,2.1,2.1,0,0,1,1.25.63l.2-1.56a2.09,2.09,0,0,1-1.36.28,1.33,1.33,0,0,1-.92-.46Z"/><circle class="cls-1" cx="33.13" cy="45.1" r="1.79"/><path class="cls-1" d="M31.76,44.59a2.51,2.51,0,0,0,0-1.64,3.19,3.19,0,0,0-1.45-1.68l2.33-.92a3.43,3.43,0,0,0,.09,2.22,2.12,2.12,0,0,0,1.07,1.23Z"/><circle class="cls-1" cx="16.34" cy="3.69" r="1.79"/><path class="cls-1" d="M15.68,5a2.54,2.54,0,0,1,1.1,1.23,3.27,3.27,0,0,1,.09,2.21l2.32-.92a3.45,3.45,0,0,1-1.44-1.68,2.11,2.11,0,0,1-.06-1.63Z"/><circle class="cls-1" cx="16.28" cy="43.39" r="1.79"/><path class="cls-1" d="M15.66,42.06a2.45,2.45,0,0,0,1.14-1.19A3.21,3.21,0,0,0,17,38.66l2.29,1a3.35,3.35,0,0,0-1.5,1.63,2.11,2.11,0,0,0-.12,1.63Z"/><circle class="cls-1" cx="32.95" cy="4.82" r="1.16"/><path class="cls-1" d="M32.05,5.12A1.67,1.67,0,0,1,32,6.19a2.09,2.09,0,0,1-1,1.06l1.49.65a2.24,2.24,0,0,1,.11-1.44,1.43,1.43,0,0,1,.72-.78Z"/><circle class="cls-1" cx="3.97" cy="33.06" r="1.68"/><path class="cls-1" d="M4.45,31.77a2.34,2.34,0,0,0,1.54,0,2.94,2.94,0,0,0,1.58-1.36l.87,2.19a3.23,3.23,0,0,0-2.09.08,2,2,0,0,0-1.16,1Z"/><circle class="cls-1" cx="46.43" cy="17.72" r="1.79"/><path class="cls-1" d="M45.28,16.82a2.59,2.59,0,0,1-1.42.85,3.32,3.32,0,0,1-2.19-.33l.46,2.45a3.39,3.39,0,0,1,1.92-1.1,2.16,2.16,0,0,1,1.62.25Z"/><path class="cls-1" d="M24.87,5.14A18.69,18.69,0,1,0,43.56,23.83,18.69,18.69,0,0,0,24.87,5.14Zm4.39,2.3a1,1,0,1,1-1,1A1,1,0,0,1,29.26,7.44Zm-2.69,5.38a1.7,1.7,0,1,1-1.7,1.7A1.7,1.7,0,0,1,26.57,12.82Zm-2.24,7.62a1.7,1.7,0,1,1-1.7,1.69A1.69,1.69,0,0,1,24.33,20.44Zm-14.17.7a.7.7,0,1,1,.7-.7A.7.7,0,0,1,10.16,21.14Zm1.29-5a1.7,1.7,0,1,1,1.7,1.69A1.7,1.7,0,0,1,11.45,16.15Zm2.21,16a1.7,1.7,0,1,1,1.69-1.7A1.7,1.7,0,0,1,13.66,32.18Zm-.51-8.67a2.37,2.37,0,1,1,2.37,2.36A2.37,2.37,0,0,1,13.15,23.51Zm4.29,14.54a1,1,0,1,1,1-1A1,1,0,0,1,17.44,38.05ZM19.5,12a1,1,0,1,1,1,1A1,1,0,0,1,19.5,12Zm1.55,16.09a1,1,0,0,1,0-2,1,1,0,1,1,0,2Zm2.78,9.67a1.7,1.7,0,1,1,1.7-1.7A1.7,1.7,0,0,1,23.83,37.75Zm4.31-7a2.61,2.61,0,1,1,2.6-2.61A2.61,2.61,0,0,1,28.14,30.78Zm3.3,5.64a1,1,0,1,1,1-1A1,1,0,0,1,31.44,36.42Zm3.37-23.86a1.7,1.7,0,1,1-1.7,1.69A1.69,1.69,0,0,1,34.81,12.56Zm-.49,6.88a1,1,0,1,1,0,2,1,1,0,0,1,0-2Zm.3,15.16a.7.7,0,1,1,.7-.7A.7.7,0,0,1,34.62,34.6Zm.68-4.12a1.7,1.7,0,1,1,1.7-1.7A1.7,1.7,0,0,1,35.3,30.48Zm4.46-8.64a.7.7,0,1,1,.7-.7A.7.7,0,0,1,39.76,21.84Z"/></g></g></svg>