<?xml version="1.0" encoding="utf-8"?>
<!-- Generator: Adobe Illustrator 24.1.0, SVG Export Plug-In . SVG Version: 6.00 Build 0)  -->
<svg version="1.1" id="Layer_1" xmlns="http://www.w3.org/2000/svg" xmlns:xlink="http://www.w3.org/1999/xlink" x="0px" y="0px"
	 viewBox="0 0 68 65" style="enable-background:new 0 0 68 65;" xml:space="preserve">
<style type="text/css">
	.st0{fill:none;stroke:#F5871F;stroke-width:1.4813;stroke-linecap:round;stroke-linejoin:round;stroke-dasharray:4.3999,4.3999;}
	.st1{fill:#5AA7C1;}
</style>
<g>
	<circle class="st0" cx="34.15" cy="32.77" r="25.22"/>
</g>
<path class="st1" d="M36.29,5.19L36.29,5.19c0.89-1.18,0.65-2.86-0.53-3.75C34.57,0.54,32.89,0.78,32,1.97
	c-0.72,0.95-0.72,2.27,0,3.22h0c-1.18,0-2.14,0.96-2.14,2.14v1.85c-0.01,0.74,0.58,1.35,1.32,1.37c0.1,0,0.19-0.01,0.29-0.03v4.32
	c0,0.3,0.24,0.54,0.54,0.54h4.29c0.3,0,0.54-0.24,0.54-0.54v-4.32c0.1,0.02,0.19,0.03,0.29,0.03c0.74-0.02,1.32-0.63,1.32-1.37V7.33
	C38.43,6.15,37.47,5.19,36.29,5.19z M34.15,1.97c0.89,0,1.61,0.72,1.61,1.61s-0.72,1.61-1.61,1.61c-0.89,0-1.61-0.72-1.61-1.61
	C32.54,2.69,33.26,1.97,34.15,1.97z M37.36,9.18c0,0.15-0.11,0.28-0.26,0.29c-0.15,0-0.27-0.11-0.27-0.26c0,0,0,0,0-0.01V7.33h-0.54
	h-0.54v6.97h-1.07v-3.75v-0.54h-1.07v0.54v3.75h-1.07V7.33H32h-0.54v1.88c0,0.07-0.03,0.14-0.08,0.19
	c-0.05,0.05-0.12,0.08-0.19,0.08c-0.15-0.01-0.27-0.14-0.26-0.29V7.33c0-0.59,0.48-1.07,1.07-1.07h4.29c0.59,0,1.07,0.48,1.07,1.07
	V9.18z"/>
<path class="st1" d="M11.43,17.07L11.43,17.07c-0.58-1.36-2.16-1.99-3.52-1.41c-1.36,0.58-2,2.15-1.42,3.52
	c0.47,1.1,1.6,1.75,2.79,1.61l0,0c-0.59,1.03-0.24,2.34,0.78,2.93l1.6,0.92c0.64,0.38,1.46,0.18,1.84-0.46
	c0.05-0.08,0.09-0.17,0.12-0.26l3.74,2.16c0.26,0.15,0.58,0.06,0.73-0.2l2.14-3.71c0.15-0.26,0.06-0.58-0.2-0.73l-3.74-2.16
	c0.07-0.07,0.12-0.15,0.17-0.24c0.35-0.65,0.11-1.46-0.53-1.82l-1.6-0.92C13.33,15.69,12.02,16.04,11.43,17.07z M7.57,17.31
	c0.44-0.77,1.43-1.03,2.2-0.59s1.03,1.43,0.59,2.2c-0.44,0.77-1.43,1.03-2.2,0.59C7.39,19.07,7.12,18.08,7.57,17.31z M15.42,18.13
	c0.13,0.07,0.19,0.24,0.12,0.37c-0.07,0.13-0.23,0.18-0.36,0.11c0,0,0,0,0,0l-1.62-0.94l-0.27,0.46l-0.27,0.46l6.04,3.48l-0.54,0.93
	l-3.25-1.88l-0.46-0.27l-0.54,0.93l0.46,0.27l3.25,1.88l-0.54,0.93l-6.04-3.48l-0.27,0.46l-0.27,0.46l1.62,0.94
	c0.06,0.04,0.11,0.1,0.13,0.17c0.02,0.07,0.01,0.14-0.03,0.21c-0.09,0.13-0.26,0.16-0.39,0.08l-1.6-0.92
	c-0.51-0.3-0.69-0.95-0.39-1.46l2.14-3.71c0.3-0.51,0.95-0.69,1.46-0.39L15.42,18.13z"/>
<path class="st1" d="M9.28,44.54L9.28,44.54c-1.47-0.18-2.8,0.87-2.98,2.34c-0.18,1.47,0.87,2.81,2.34,2.98
	c1.18,0.14,2.32-0.51,2.79-1.61l0,0c0.59,1.02,1.9,1.38,2.93,0.78l1.6-0.92c0.65-0.36,0.88-1.18,0.52-1.82
	c-0.05-0.09-0.1-0.17-0.17-0.24l3.74-2.16c0.26-0.15,0.34-0.48,0.2-0.73l-2.14-3.71c-0.15-0.26-0.48-0.34-0.73-0.2l-3.74,2.16
	c-0.03-0.09-0.07-0.18-0.12-0.27c-0.39-0.63-1.21-0.83-1.84-0.46l-1.6,0.92C9.04,42.2,8.69,43.51,9.28,44.54z M7.57,48
	c-0.44-0.77-0.18-1.75,0.59-2.2c0.77-0.44,1.75-0.18,2.2,0.59c0.44,0.77,0.18,1.75-0.59,2.2C9,49.04,8.01,48.77,7.57,48z
	 M12.2,41.61c0.13-0.08,0.3-0.04,0.39,0.08c0.08,0.13,0.04,0.29-0.09,0.37c0,0,0,0,0,0L10.87,43l0.27,0.46l0.27,0.46l6.04-3.48
	l0.54,0.93l-3.25,1.88l-0.46,0.27l0.54,0.93l0.46-0.27l3.25-1.88l0.54,0.93l-6.04,3.48l0.27,0.46l0.27,0.46l1.62-0.94
	c0.06-0.04,0.14-0.05,0.21-0.03c0.07,0.02,0.13,0.07,0.16,0.13c0.06,0.14,0.01,0.3-0.12,0.37l-1.6,0.92
	c-0.51,0.3-1.17,0.12-1.46-0.39L10.21,44c-0.3-0.51-0.12-1.17,0.39-1.46L12.2,41.61z"/>
<path class="st1" d="M32,60.13L32,60.13c-0.89,1.18-0.65,2.86,0.53,3.75c1.18,0.89,2.86,0.65,3.75-0.53c0.72-0.95,0.72-2.27,0-3.22
	h0c1.18,0,2.14-0.96,2.14-2.14v-1.85c0.01-0.74-0.58-1.35-1.32-1.37c-0.1,0-0.19,0.01-0.29,0.03v-4.32c0-0.3-0.24-0.54-0.54-0.54H32
	c-0.3,0-0.54,0.24-0.54,0.54v4.32c-0.1-0.02-0.19-0.03-0.29-0.03c-0.74,0.02-1.32,0.63-1.32,1.37v1.85
	C29.86,59.17,30.82,60.13,32,60.13z M34.15,63.35c-0.89,0-1.61-0.72-1.61-1.61s0.72-1.61,1.61-1.61c0.89,0,1.61,0.72,1.61,1.61
	C35.75,62.63,35.03,63.35,34.15,63.35z M30.93,56.14c0-0.15,0.11-0.28,0.26-0.29c0.15,0,0.27,0.11,0.27,0.26c0,0,0,0,0,0.01v1.88H32
	h0.54v-6.97h1.07v3.75v0.54h1.07v-0.54v-3.75h1.07v6.97h0.54h0.54v-1.88c0-0.07,0.03-0.14,0.08-0.19c0.05-0.05,0.12-0.08,0.19-0.08
	c0.15,0.01,0.27,0.14,0.26,0.29v1.85c0,0.59-0.48,1.07-1.07,1.07H32c-0.59,0-1.07-0.48-1.07-1.07V56.14z"/>
<path class="st1" d="M56.87,48.25L56.87,48.25c0.58,1.36,2.16,1.99,3.52,1.41c1.36-0.58,2-2.15,1.42-3.52
	c-0.47-1.1-1.6-1.75-2.79-1.61l0,0c0.59-1.03,0.24-2.34-0.78-2.93l-1.6-0.92c-0.64-0.38-1.46-0.18-1.84,0.46
	c-0.05,0.08-0.09,0.17-0.12,0.26l-3.74-2.16c-0.26-0.15-0.58-0.06-0.73,0.2l-2.14,3.71c-0.15,0.26-0.06,0.58,0.2,0.73l3.74,2.16
	c-0.07,0.07-0.12,0.15-0.17,0.24c-0.35,0.65-0.11,1.46,0.53,1.82l1.6,0.92C54.96,49.63,56.27,49.28,56.87,48.25z M60.72,48
	c-0.44,0.77-1.43,1.03-2.2,0.59c-0.77-0.44-1.03-1.43-0.59-2.2c0.44-0.77,1.43-1.03,2.2-0.59C60.9,46.25,61.17,47.23,60.72,48z
	 M52.87,47.18c-0.13-0.07-0.19-0.24-0.12-0.37c0.07-0.13,0.23-0.18,0.36-0.11c0,0,0,0,0,0l1.62,0.94l0.27-0.46l0.27-0.46l-6.04-3.48
	l0.54-0.93l3.25,1.88l0.46,0.27l0.54-0.93l-0.46-0.27l-3.25-1.88l0.54-0.93l6.04,3.48l0.27-0.46L57.42,43l-1.62-0.94
	c-0.06-0.04-0.11-0.1-0.13-0.17c-0.02-0.07-0.01-0.14,0.03-0.21c0.09-0.13,0.26-0.16,0.39-0.08l1.6,0.92
	c0.51,0.3,0.69,0.95,0.39,1.46l-2.14,3.71c-0.3,0.51-0.95,0.69-1.46,0.39L52.87,47.18z"/>
<path class="st1" d="M59.01,20.78L59.01,20.78c1.47,0.18,2.8-0.87,2.98-2.34c0.18-1.47-0.87-2.81-2.34-2.98
	c-1.18-0.14-2.32,0.51-2.79,1.61l0,0c-0.59-1.02-1.9-1.38-2.93-0.78l-1.6,0.92c-0.65,0.36-0.88,1.18-0.52,1.82
	c0.05,0.09,0.1,0.17,0.17,0.24l-3.74,2.16c-0.26,0.15-0.34,0.48-0.2,0.73l2.14,3.71c0.15,0.26,0.48,0.34,0.73,0.2l3.74-2.16
	c0.03,0.09,0.07,0.18,0.12,0.27c0.39,0.63,1.21,0.83,1.84,0.46l1.6-0.92C59.25,23.12,59.6,21.81,59.01,20.78z M60.72,17.32
	c0.44,0.77,0.18,1.75-0.59,2.2s-1.75,0.18-2.2-0.59c-0.44-0.77-0.18-1.75,0.59-2.2C59.3,16.28,60.28,16.55,60.72,17.32z
	 M56.09,23.71c-0.13,0.08-0.3,0.04-0.39-0.08c-0.08-0.13-0.04-0.29,0.09-0.37c0,0,0,0,0,0l1.62-0.94l-0.27-0.46l-0.27-0.46
	l-6.04,3.48l-0.54-0.93l3.25-1.88l0.46-0.27l-0.54-0.93l-0.46,0.27l-3.25,1.88l-0.54-0.93l6.04-3.48l-0.27-0.46l-0.27-0.46
	l-1.62,0.94c-0.06,0.04-0.14,0.05-0.21,0.03c-0.07-0.02-0.13-0.07-0.16-0.13c-0.06-0.14-0.01-0.3,0.12-0.37l1.6-0.92
	c0.51-0.3,1.17-0.12,1.46,0.39l2.14,3.71c0.3,0.51,0.12,1.17-0.39,1.46L56.09,23.71z"/>
</svg>
