<?xml version="1.0" encoding="utf-8"?>
<!-- Generator: Adobe Illustrator 24.1.0, SVG Export Plug-In . SVG Version: 6.00 Build 0)  -->
<svg version="1.1" id="Layer_1" xmlns="http://www.w3.org/2000/svg" xmlns:xlink="http://www.w3.org/1999/xlink" x="0px" y="0px"
	 viewBox="0 0 68 65" style="enable-background:new 0 0 68 65;" xml:space="preserve">
<style type="text/css">
	.st0{fill:#5AA7C1;}
	.st1{fill:none;stroke:#F5871F;stroke-width:1.8648;stroke-linecap:round;stroke-linejoin:round;stroke-dasharray:6.647,6.647;}
</style>
<g>
	<path class="st0" d="M28.73,16.61c0,2.98,2.43,5.4,5.41,5.4c2.98,0,5.41-2.42,5.41-5.4c0-2.98-2.43-5.41-5.41-5.41
		C31.16,11.19,28.73,13.62,28.73,16.61z M34.14,12.94c2.02,0,3.66,1.64,3.66,3.66c0,2.01-1.64,3.65-3.66,3.65
		c-2.02,0-3.66-1.64-3.66-3.65C30.48,14.59,32.12,12.94,34.14,12.94z"/>
	<path class="st0" d="M44.52,35.69v-9.07c0-1.94-1.58-3.52-3.52-3.52H27.28c-1.93,0-3.51,1.58-3.51,3.52v9.07
		c0,1.94,1.57,3.52,3.51,3.52h1.15v14.65c0,0.48,0.39,0.87,0.87,0.87c0.48,0,0.87-0.39,0.87-0.87V31.54c0-0.48-0.39-0.87-0.87-0.87
		c-0.48,0-0.87,0.39-0.87,0.87v5.92h-1.15c-0.97,0-1.76-0.79-1.76-1.77v-9.07c0-0.97,0.79-1.77,1.76-1.77H41
		c0.98,0,1.77,0.79,1.77,1.77v9.07c0,0.98-0.79,1.77-1.77,1.77h-1.24v-5.92c0-0.48-0.39-0.87-0.87-0.87c-0.48,0-0.88,0.39-0.88,0.87
		v22.31c0,0.48,0.39,0.87,0.88,0.87c0.48,0,0.87-0.39,0.87-0.87V39.2H41C42.94,39.2,44.52,37.63,44.52,35.69z"/>
	<path class="st0" d="M34.14,40.81c-0.48,0-0.88,0.39-0.88,0.87v12.17c0,0.48,0.39,0.87,0.88,0.87c0.48,0,0.87-0.39,0.87-0.87V41.68
		C35.02,41.2,34.63,40.81,34.14,40.81z"/>
</g>
<g>
	<circle class="st1" cx="34.15" cy="32.96" r="31.75"/>
</g>
</svg>
