<?xml version="1.0" encoding="utf-8"?>
<!-- Generator: Adobe Illustrator 24.1.0, SVG Export Plug-In . SVG Version: 6.00 Build 0)  -->
<svg version="1.1" id="Layer_1" xmlns="http://www.w3.org/2000/svg" xmlns:xlink="http://www.w3.org/1999/xlink" x="0px" y="0px"
	 viewBox="0 0 68 65" style="enable-background:new 0 0 68 65;" xml:space="preserve">
<style type="text/css">
	.st0{fill:#F5871F;}
	.st1{fill:#5AA7C1;}
</style>
<g>
	<path class="st0" d="M17.91,53c-4.24-1.07-7.66-3.99-9.4-8c-1.74-4.01-1.52-8.5,0.59-12.33l1.6-2.9l14.45,6.8l1.49,11.32
		l-4.96,6.06L17.91,53z"/>
	<path class="st1" d="M60.88,22.13l0.45-0.2c0.76-0.33,1.11-1.22,0.77-1.98c-0.32-0.74-1.17-1.08-1.91-0.8c0-0.01,0-0.01-0.01-0.02
		c-1.8-5.33-5.11-9.85-9.58-13.07c-4.48-3.23-9.82-4.94-15.44-4.94c-5.04,0-10.04,1.67-14.08,4.69c-4.18,3.12-6.95,7.44-7.82,12.16
		c-0.2,1.09,0.12,2.25,0.42,3.37c0.2,0.74,0.48,1.75,0.36,2.14c-0.14,0.43-0.95,1.82-2.05,3.6l-1.29-0.61
		c-0.72-0.34-1.57-0.06-1.96,0.63l-2.28,4.13C3.9,35.9,3.63,41.36,5.75,46.23c2.11,4.87,6.28,8.41,11.42,9.72l4.7,1.19
		c0.12,0.03,0.25,0.05,0.37,0.05c0.44,0,0.87-0.2,1.16-0.55l1.3-1.59l0.82,0.29c0.95,0.33,1.59,1.24,1.59,2.24v4.97
		c0,0.83,0.67,1.5,1.5,1.5c0.83,0,1.5-0.67,1.5-1.5v-4.97c0-2.21-1.35-4.19-3.39-5l2.25-2.75l21.51-1.71
		c-1.77,2.34-2.74,5.2-2.74,8.13v6.3c0,0.83,0.67,1.5,1.5,1.5c0.83,0,1.5-0.67,1.5-1.5v-6.3c0-2.45,0.87-4.83,2.45-6.72
		c0.47-0.56,0.94-1.14,1.41-1.74l2.33-0.19c0.83-0.07,1.45-0.79,1.38-1.62c-0.06-0.79-0.72-1.39-1.5-1.38
		c0.69-1.13,1.33-2.36,1.89-3.72c1.1-2.66,1.97-6.62,2.31-10.6C61.28,27.26,61.23,24.47,60.88,22.13z M16.58,20.56
		c-0.2-0.72-0.44-1.62-0.37-2.04c0.73-3.97,3.1-7.62,6.67-10.29c3.53-2.64,7.89-4.09,12.28-4.09c4.98,0,9.71,1.51,13.68,4.37
		c3.96,2.86,6.9,6.86,8.49,11.59c0.03,0.09,0.06,0.18,0.09,0.27l-8.8,3.87c-0.63-0.48-1.37-0.83-2.18-1.03
		c-1.59-0.39-3.24-0.12-4.62,0.76c-1.39,0.88-2.33,2.25-2.66,3.85l-0.13,0.64l-12.48,5.49l-11.82-5.56c1.93-3.12,2.11-3.75,2.2-4.05
		C17.28,23.12,16.93,21.82,16.58,20.56z M17.91,53.03c-4.24-1.07-7.66-3.99-9.4-8c-1.74-4.01-1.52-8.5,0.59-12.33l1.6-2.9l14.45,6.8
		l1.49,11.32l-4.96,6.06L17.91,53.03z M58.02,30.02c-0.32,3.69-1.1,7.32-2.09,9.71c-0.82,1.98-1.84,3.66-2.92,5.17l-23.5,1.87
		l-1.35-10.25l10.46-4.6c0.2,0.41,0.57,0.73,1.05,0.83c0.21,0.04,0.42,0.04,0.61,0c0.57-0.12,1.04-0.56,1.16-1.17l0.65-3.15
		c0.16-0.8,0.63-1.48,1.32-1.92c0.69-0.44,1.51-0.57,2.3-0.38c1.34,0.33,2.27,1.52,2.27,2.89v2.95c0,2.37-1.43,4.46-3.64,5.32
		c-0.65,0.26-1.41,0.01-1.79-0.58c-0.35-0.54-0.98-0.78-1.57-0.65c-0.18,0.04-0.35,0.1-0.51,0.21c-0.7,0.45-0.9,1.38-0.44,2.08
		c0.85,1.3,2.29,2.05,3.78,2.05c0.54,0,1.09-0.1,1.62-0.31c1.64-0.64,3.03-1.75,4.03-3.21c0.99-1.46,1.52-3.16,1.52-4.92v-2.95
		c0-0.83-0.17-1.62-0.47-2.34l7.48-3.29C58.23,25.31,58.23,27.57,58.02,30.02z"/>
</g>
</svg>
