<?xml version="1.0" encoding="utf-8"?>
<!-- Generator: Adobe Illustrator 24.1.0, SVG Export Plug-In . SVG Version: 6.00 Build 0)  -->
<svg version="1.1" id="Layer_1" xmlns="http://www.w3.org/2000/svg" xmlns:xlink="http://www.w3.org/1999/xlink" x="0px" y="0px"
	 viewBox="0 0 68 65" style="enable-background:new 0 0 68 65;" xml:space="preserve">
<style type="text/css">
	.st0{fill:#FFFFFF;}
	.st1{fill:#F5871F;}
	.st2{fill:#5AA7C1;}
</style>
<path id="XMLID_5_" class="st0" d="M37.32,5.87c0,2.3-1.87,4.17-4.17,4.17c-2.3,0-4.17-1.87-4.17-4.17s1.87-4.17,4.17-4.17
	C35.45,1.7,37.32,3.57,37.32,5.87z"/>
<g>
	<path class="st1" d="M20.42,30.74l-3.44-3.87c-0.47-0.52-0.42-1.33,0.1-1.79c0.52-0.47,1.33-0.42,1.79,0.1l1.63,1.83l4.19-4.29
		c0.49-0.5,1.29-0.51,1.79-0.02C26.99,23.2,27,24,26.51,24.5L20.42,30.74z"/>
</g>
<g>
	<path class="st1" d="M20.42,41.83l-3.44-3.87c-0.47-0.52-0.42-1.33,0.1-1.79c0.52-0.47,1.33-0.42,1.79,0.1l1.63,1.83l4.19-4.29
		c0.49-0.5,1.29-0.51,1.79-0.02c0.5,0.49,0.51,1.29,0.02,1.79L20.42,41.83z"/>
</g>
<g>
	<path class="st1" d="M20.42,52.92l-3.44-3.87c-0.47-0.52-0.42-1.33,0.1-1.79c0.52-0.47,1.33-0.42,1.79,0.1l1.63,1.83l4.19-4.29
		c0.49-0.5,1.29-0.51,1.79-0.02c0.5,0.49,0.51,1.29,0.02,1.79L20.42,52.92z"/>
</g>
<path class="st1" d="M47.17,28H31.64c-0.7,0-1.27-0.57-1.27-1.27c0-0.7,0.57-1.27,1.27-1.27h15.52c0.7,0,1.27,0.57,1.27,1.27
	C48.43,27.44,47.87,28,47.17,28z"/>
<path class="st1" d="M47.17,40.07H31.64c-0.7,0-1.27-0.57-1.27-1.27s0.57-1.27,1.27-1.27h15.52c0.7,0,1.27,0.57,1.27,1.27
	S47.87,40.07,47.17,40.07z"/>
<path class="st1" d="M47.17,52.97H31.64c-0.7,0-1.27-0.57-1.27-1.27s0.57-1.27,1.27-1.27h15.52c0.7,0,1.27,0.57,1.27,1.27
	S47.87,52.97,47.17,52.97z"/>
<path class="st2" d="M51.64,10.94h-6.33V6.27h-6.75c0.01-0.13,0.02-0.26,0.02-0.4c0-3-2.44-5.44-5.44-5.44s-5.44,2.44-5.44,5.44
	c0,0.14,0.01,0.27,0.02,0.4h-6.75v4.66h-6.33c-2.39,0-4.33,1.94-4.33,4.33v44.74c0,2.39,1.94,4.33,4.33,4.33h36.98
	c2.39,0,4.33-1.94,4.33-4.33V15.26C55.96,12.88,54.02,10.94,51.64,10.94z M33.15,2.97c1.6,0,2.9,1.3,2.9,2.9
	c0,0.14-0.03,0.27-0.05,0.4h-5.71c-0.02-0.13-0.05-0.26-0.05-0.4C30.24,4.27,31.55,2.97,33.15,2.97z M23.52,8.81h19.25v4.66H23.52
	V8.81z M53.43,60.01c0,0.99-0.8,1.79-1.79,1.79H14.66c-0.99,0-1.79-0.8-1.79-1.79V15.26c0-0.99,0.8-1.79,1.79-1.79h6.33V16h24.33
	v-2.53h6.33c0.99,0,1.79,0.8,1.79,1.79V60.01z"/>
</svg>
