<?xml version="1.0" encoding="utf-8"?>
<!-- Generator: Adobe Illustrator 24.1.0, SVG Export Plug-In . SVG Version: 6.00 Build 0)  -->
<svg version="1.1" id="Layer_1" xmlns="http://www.w3.org/2000/svg" xmlns:xlink="http://www.w3.org/1999/xlink" x="0px" y="0px"
	 viewBox="0 0 68 65" style="enable-background:new 0 0 68 65;" xml:space="preserve">
<style type="text/css">
	.st0{fill:#F5871F;}
	.st1{fill:#5AA7C1;}
</style>
<g>
	<path class="st0" d="M34.04,40.71c0.06,0.08,0.11,0.5,0.12,0.64c0.03,0.28,0.28,0.5,0.56,0.5c0.29,0,0.53-0.21,0.56-0.5
		c0.02-0.14,0.07-0.55,0.12-0.64c0.08-0.06,0.5-0.11,0.64-0.12c0.28-0.03,0.5-0.28,0.5-0.56c0-0.29-0.21-0.53-0.5-0.56
		c-0.14-0.02-0.55-0.07-0.64-0.12c-0.06-0.08-0.11-0.5-0.12-0.64c-0.03-0.28-0.28-0.5-0.56-0.5c-0.29,0-0.53,0.21-0.56,0.5
		c-0.02,0.14-0.07,0.55-0.12,0.64c-0.08,0.06-0.5,0.11-0.64,0.12c-0.28,0.03-0.5,0.28-0.5,0.56c0,0.29,0.21,0.53,0.5,0.56
		C33.54,40.6,33.96,40.65,34.04,40.71z"/>
	<g>
		<path class="st1" d="M52.26,54.55c-0.13-0.21-0.35-0.34-0.6-0.34c-0.24,0-0.47,0.13-0.6,0.34c-0.02,0.04-0.53,0.88-1.04,1.87
			c-0.98,1.9-1.1,2.62-1.1,3c0,1.51,1.23,2.74,2.74,2.74c1.51,0,2.74-1.23,2.74-2.74c0-0.38-0.11-1.09-1.1-3
			C52.78,55.43,52.28,54.59,52.26,54.55z M51.66,60.77c-0.74,0-1.35-0.6-1.35-1.35c0-0.45,0.62-1.81,1.35-3.12
			c0.72,1.31,1.35,2.66,1.35,3.12C53,60.16,52.4,60.77,51.66,60.77z"/>
		<path class="st1" d="M56.56,52.18c-0.13-0.21-0.35-0.34-0.6-0.34c-0.24,0-0.47,0.13-0.6,0.34c-0.01,0.02-0.32,0.54-0.64,1.14
			c-0.61,1.19-0.69,1.66-0.69,1.93c0,1.06,0.86,1.92,1.92,1.92s1.92-0.86,1.92-1.92c0-0.28-0.08-0.75-0.69-1.93
			C56.88,52.71,56.57,52.2,56.56,52.18z M55.96,55.79c-0.29,0-0.53-0.24-0.53-0.53c0.01-0.18,0.23-0.69,0.53-1.29
			c0.31,0.6,0.52,1.11,0.53,1.29C56.5,55.55,56.26,55.79,55.96,55.79z"/>
		<path class="st1" d="M66.55,56.32c0,0,0-0.01,0-0.01c-0.38-2.86-2.29-5.3-4.97-6.36c-0.02-0.01-0.04-0.02-0.06-0.02l-4.67-1.36
			l-0.12-0.69c-0.01-0.05-0.02-0.1-0.02-0.15c-0.12-0.74-0.26-1.67,0.06-2.17c0.83-1.27,1.12-2.63,1.27-3.54
			c0.23-1.43,0.14-3.68-0.64-5.25c-0.7-1.43-1.74-2.55-2.99-3.25c-1.29-0.72-2.79-0.98-4.34-0.73c-1.4,0.22-2.71,0.89-3.69,1.9
			c-1.02,1.04-1.6,2.37-1.63,3.73c-0.01,0.33,0.15,0.69,0.34,1.11c0.06,0.12,0.14,0.31,0.18,0.43c-0.25,0.76-0.7,2.44-0.76,2.65
			c-0.05,0.19-0.02,0.4,0.09,0.57c0.11,0.17,0.29,0.28,0.49,0.3l0.6,0.08l-0.01,0.21c-0.02,0.33,0.1,0.66,0.33,0.9
			c0.23,0.24,0.54,0.38,0.87,0.38c0.07,0,0.13-0.01,0.2-0.03c0.37-0.11,0.81-0.13,0.97-0.07l-0.56,0.44
			C47.18,45.6,47,45.94,47,46.32c-0.01,0.38,0.16,0.73,0.46,0.96c0.33,0.26,0.75,0.53,1.28,0.53c0.08,0,0.2,0,0.32,0.01
			c0.14,0,0.27,0.01,0.36,0.01c0.12,0,0.37,0.33,0.54,0.95l-2.11,0.7c-1.37,0.45-2.58,1.27-3.52,2.34l0.41-1.54l1.07-1.06
			c0.68-0.67,0.84-1.73,0.37-2.57c-0.09-0.17-0.25-0.29-0.43-0.34l0.12-0.11c0.28-0.27,0.29-0.71,0.02-0.98
			c-0.24-0.25-0.62-0.28-0.9-0.09c-0.03,0.02-0.06,0.04-0.08,0.07l-5.84,5.59c-0.07,0.07-0.15,0.06-0.2,0.04
			c-0.05-0.02-0.11-0.07-0.12-0.17l-0.03-0.78c-0.03-0.61-0.4-1.15-0.96-1.39l-0.79-0.34c-0.07-0.03-0.1-0.09-0.11-0.12
			c-0.01-0.03-0.02-0.09,0.02-0.16l0.36-0.56c0.35-0.55,0.33-1.25-0.05-1.78l-0.37-0.51c-0.05-0.07-0.04-0.14-0.02-0.19
			c0.02-0.05,0.06-0.1,0.15-0.11l6.75-0.88c0.11-0.01,0.22-0.06,0.31-0.12c0.21-0.14,0.33-0.39,0.29-0.66
			c-0.05-0.38-0.4-0.65-0.78-0.6l-6.75,0.88c-0.56,0.07-1.03,0.43-1.25,0.94c-0.22,0.52-0.16,1.1,0.17,1.56l0.37,0.51
			c0.05,0.06,0.05,0.15,0.01,0.21l-0.36,0.56c-0.25,0.39-0.32,0.87-0.18,1.32c0.14,0.45,0.46,0.81,0.89,0.99l0.79,0.34
			c0.07,0.03,0.11,0.09,0.12,0.17l0.03,0.78c0.03,0.63,0.41,1.16,0.99,1.4c0.2,0.08,0.4,0.12,0.6,0.12c0.18,0,0.35-0.03,0.52-0.09
			l-2.44,6.88c-0.01,0.03-0.02,0.07-0.03,0.1c-0.13,0.68,0.01,1.59,0.4,2.5c0.54,1.29,1.23,1.86,1.59,2.08
			c0.38,0.24,0.88,0.35,1.42,0.35c1.11,0,2.4-0.47,3.3-1.3l1.89-1.65l-0.18,2.55c-0.03,0.38,0.26,0.72,0.65,0.74
			c0.02,0,0.03,0,0.05,0c0.36,0,0.67-0.28,0.69-0.65l0.3-4.23c0.02-0.28-0.13-0.55-0.38-0.67c-0.25-0.13-0.56-0.09-0.77,0.1
			l-3.16,2.76c0,0-0.01,0.01-0.01,0.01c-0.45,0.42-1.08,0.74-1.73,0.87c-0.66,0.14-1.12,0.05-1.32-0.07
			c-0.37-0.23-0.77-0.78-1.04-1.44c-0.26-0.61-0.38-1.26-0.32-1.66l3.24-9.14l3.3-3.16c0.01,0.06,0.04,0.12,0.07,0.18
			c0.16,0.3,0.11,0.67-0.13,0.91l-1.21,1.19c-0.09,0.09-0.15,0.2-0.18,0.32l-2,7.62c-0.09,0.35,0.1,0.71,0.43,0.83
			c0.08,0.03,0.16,0.04,0.24,0.04c0.26,0,0.51-0.15,0.63-0.4l1.99-4.21c0.82-1.33,2.08-2.33,3.57-2.82l2.7-0.89c0,0,0.01,0,0.01,0
			c0.01,0,0.03-0.01,0.04-0.02c0.01,0,0.02-0.01,0.03-0.01c0.01-0.01,0.02-0.01,0.04-0.02c0.01,0,0.02-0.01,0.03-0.01
			c0.01-0.01,0.02-0.01,0.03-0.02c0.01-0.01,0.02-0.01,0.03-0.02c0.01-0.01,0.02-0.01,0.02-0.02c0.01-0.01,0.02-0.02,0.03-0.02
			c0.01-0.01,0.01-0.01,0.02-0.02c0.01-0.01,0.02-0.02,0.03-0.03c0.01-0.01,0.01-0.01,0.02-0.02c0.01-0.01,0.02-0.02,0.02-0.03
			c0.01-0.01,0.01-0.02,0.02-0.03c0.01-0.01,0.01-0.02,0.02-0.03c0.01-0.01,0.01-0.02,0.02-0.03c0.01-0.01,0.01-0.02,0.01-0.03
			c0.01-0.01,0.01-0.02,0.01-0.03c0-0.01,0.01-0.02,0.01-0.03c0-0.01,0.01-0.02,0.01-0.04c0-0.01,0.01-0.02,0.01-0.03
			c0-0.01,0.01-0.02,0.01-0.04c0-0.01,0-0.02,0.01-0.03c0-0.01,0-0.02,0-0.03c0-0.01,0-0.02,0-0.04c0-0.01,0-0.02,0-0.03
			c0-0.01,0-0.03,0-0.04c0-0.01,0-0.02,0-0.03c0-0.01,0-0.03,0-0.04c0,0,0-0.01,0-0.01c-0.05-0.34-0.19-1-0.48-1.57
			c-0.48-0.93-1.11-1.13-1.55-1.13c-0.08,0-0.2,0-0.32-0.01c-0.14,0-0.27-0.01-0.36-0.01c-0.06,0-0.15-0.04-0.23-0.09l0.62-0.48
			c0.13-0.1,0.21-0.24,0.25-0.39c0.19-0.81-0.09-1.27-0.35-1.52c-0.54-0.51-1.42-0.45-1.95-0.36l0.03-0.6
			c0.02-0.36-0.24-0.68-0.61-0.73l-0.45-0.06c0.2-0.73,0.46-1.65,0.58-1.95c0.03-0.09,0.05-0.19,0.05-0.28
			c-0.01-0.3-0.16-0.63-0.34-1.01c-0.07-0.16-0.19-0.42-0.22-0.53c0.04-1,0.48-1.98,1.24-2.76c0.77-0.79,1.8-1.32,2.91-1.49
			c1.24-0.19,2.43,0.01,3.45,0.57c1,0.56,1.84,1.48,2.42,2.65c0.6,1.22,0.71,3.18,0.51,4.41c-0.14,0.85-0.39,1.97-1.06,3.01
			c-0.61,0.95-0.42,2.17-0.27,3.15c0.01,0.05,0.02,0.1,0.02,0.15c0,0.01,0,0.01,0,0.02l0.2,1.12c0.05,0.26,0.24,0.47,0.49,0.54
			l5.05,1.47c2.2,0.88,3.76,2.89,4.08,5.24l0.84,7.31c0.04,0.35,0.34,0.62,0.69,0.62c0.03,0,0.05,0,0.08,0
			c0.38-0.04,0.66-0.39,0.61-0.77L66.55,56.32z"/>
		<path class="st1" d="M42.71,39.64c0.13,0,0.26-0.04,0.37-0.11c0.32-0.21,0.42-0.64,0.21-0.96l-1.85-2.92
			c-0.21-0.32-0.64-0.42-0.96-0.21c-0.32,0.21-0.42,0.64-0.21,0.96l1.85,2.92C42.26,39.52,42.48,39.64,42.71,39.64z"/>
		<path class="st1" d="M38.73,38.62c-0.34-0.19-0.76-0.06-0.94,0.27c-0.19,0.34-0.06,0.76,0.27,0.94l2.9,1.59
			c0.11,0.06,0.22,0.09,0.33,0.09c0.25,0,0.48-0.13,0.61-0.36c0.19-0.34,0.06-0.76-0.27-0.94L38.73,38.62z"/>
		<path class="st1" d="M62.12,58.18c-0.38,0.01-0.69,0.33-0.68,0.71l0.1,4.84c0.01,0.38,0.32,0.68,0.7,0.68c0.01,0,0.01,0,0.02,0
			c0.38-0.01,0.69-0.33,0.68-0.71l-0.1-4.84C62.82,58.48,62.5,58.17,62.12,58.18z"/>
		<path class="st0" d="M62.33,43.06c-0.04-0.35-0.34-0.61-0.69-0.61c-0.35,0-0.65,0.26-0.69,0.61c-0.05,0.45-0.11,0.72-0.15,0.78
			c-0.07,0.05-0.33,0.1-0.78,0.15c-0.35,0.04-0.61,0.34-0.61,0.69c0,0.35,0.26,0.65,0.61,0.69c0.45,0.05,0.72,0.11,0.78,0.15
			c0.05,0.07,0.1,0.33,0.15,0.78c0.04,0.35,0.34,0.61,0.69,0.61c0.35,0,0.65-0.26,0.69-0.61c0.05-0.45,0.11-0.72,0.15-0.78
			c0.07-0.05,0.33-0.1,0.78-0.15c0.35-0.04,0.61-0.34,0.61-0.69c0-0.35-0.26-0.65-0.61-0.69c-0.45-0.05-0.72-0.11-0.78-0.15
			C62.44,43.78,62.39,43.51,62.33,43.06z"/>
		<path class="st0" d="M63.38,31.96c0.07,0.07,0.11,0.4,0.13,0.57c0.02,0.18,0.17,0.31,0.35,0.31c0.18,0,0.32-0.13,0.35-0.31
			c0.02-0.18,0.06-0.5,0.13-0.57c0.07-0.07,0.4-0.11,0.57-0.13c0.18-0.02,0.31-0.17,0.31-0.35c0-0.18-0.13-0.32-0.31-0.35
			c-0.18-0.02-0.5-0.06-0.57-0.13c-0.07-0.07-0.11-0.4-0.13-0.57c-0.02-0.18-0.17-0.31-0.35-0.31c-0.18,0-0.32,0.13-0.35,0.31
			c-0.02,0.18-0.06,0.5-0.13,0.57c-0.07,0.07-0.4,0.11-0.57,0.13c-0.18,0.02-0.31,0.17-0.31,0.35c0,0.18,0.13,0.32,0.31,0.35
			C62.98,31.85,63.31,31.89,63.38,31.96z"/>
	</g>
</g>
<g>
	<path class="st1" d="M8.47,42.39c0.09,0.18,0.25,0.32,0.44,0.38l0.58,0.17l-0.16,0.74c-0.07,0.31,0.08,0.63,0.37,0.77l1.04,0.54
		l-0.6,0.48c-0.25,0.2-0.33,0.54-0.2,0.84c0.3,0.67,0.87,1.19,1.56,1.43l0.69,0.24c0.51,0.18,0.85,0.66,0.85,1.2v0.22l-4.89,1.93
		c-2.73,1.08-4.66,3.55-5.04,6.46L2.3,64.11c-0.05,0.38,0.22,0.74,0.61,0.79c0.03,0,0.06,0.01,0.09,0.01c0.35,0,0.65-0.26,0.7-0.61
		l0.82-6.32c0.31-2.4,1.91-4.45,4.16-5.34l5.32-2.1c0,0,0,0,0,0c0.27-0.1,0.46-0.36,0.46-0.66v-0.7c0-1.13-0.72-2.15-1.79-2.52
		l-0.69-0.24c-0.16-0.06-0.31-0.15-0.44-0.26l0.73-0.59h1.62c0.86,0,1.56,0.7,1.56,1.56v7.45l-0.56,0.46V54
		c0-0.55-0.28-1.04-0.75-1.32c-0.47-0.28-1.04-0.29-1.52-0.03c-1.5,0.82-2.79,2.22-3.75,4.06C8.01,58.4,7.53,60.28,7.53,62v0.78
		c0,0.51,0.22,1,0.62,1.33c0.32,0.27,0.72,0.41,1.13,0.41c0.1,0,0.19-0.01,0.29-0.02l2.43-0.4c0,0,0,0,0,0
		c1.69-0.28,2.92-1.65,2.92-3.27v-3.98l1.26-1.03l1.31,1.08v3.94c0,1.61,1.23,2.98,2.92,3.27c0,0,0,0,0,0l2.43,0.4
		c0.1,0.02,0.19,0.02,0.29,0.02c0.41,0,0.81-0.14,1.13-0.41c0.39-0.33,0.62-0.82,0.62-1.33V62c0-1.72-0.48-3.59-1.36-5.28
		c-0.95-1.84-2.25-3.24-3.75-4.06c-0.48-0.26-1.05-0.25-1.52,0.03c-0.47,0.28-0.75,0.77-0.75,1.32v1.07l-0.61-0.5v-7.45
		c0-1.64-1.33-2.97-2.97-2.97h-1.7l-1.38-0.71L11,42.59c0.08-0.36-0.14-0.72-0.49-0.82l-0.44-0.13c0.31-0.7,0.72-1.57,0.88-1.86
		c0.05-0.08,0.08-0.18,0.09-0.28c0.03-0.3-0.07-0.65-0.18-1.06c-0.05-0.17-0.13-0.45-0.14-0.56c0.19-0.99,0.78-1.9,1.66-2.56
		c0.89-0.67,2-1.04,3.13-1.04c1.26,0,2.42,0.38,3.35,1.11c0.91,0.71,1.61,1.76,2,3.02c0.41,1.31,0.22,3.28-0.17,4.47
		c-0.27,0.83-0.69,1.9-1.53,2.84c-0.73,0.82-1.14,1.88-1.14,2.97v1.03c-0.07,0.33,0.1,0.67,0.43,0.8l5.2,2.06
		c2.24,0.89,3.82,2.92,4.14,5.3l0.85,6.34c0.05,0.35,0.35,0.61,0.7,0.61c0.03,0,0.06,0,0.09-0.01c0.38-0.05,0.65-0.4,0.6-0.79
		L29.2,57.7c-0.39-2.89-2.31-5.35-5.02-6.42l-4.74-1.88v-0.7c0-0.75,0.28-1.47,0.78-2.03c1.02-1.14,1.53-2.45,1.82-3.33
		c0.46-1.39,0.71-3.65,0.18-5.33c-0.48-1.53-1.34-2.81-2.48-3.7c-1.18-0.92-2.63-1.41-4.21-1.41c-1.43,0-2.84,0.47-3.98,1.32
		c-1.18,0.88-1.96,2.11-2.21,3.47C9.28,38,9.39,38.38,9.51,38.83c0.04,0.13,0.09,0.33,0.12,0.46C9.26,40,8.55,41.61,8.46,41.81
		C8.38,42,8.38,42.21,8.47,42.39z M13.5,60.83c0,0.92-0.73,1.71-1.74,1.88l-2.43,0.4c-0.13,0.02-0.23-0.04-0.27-0.08
		C9.01,63,8.93,62.92,8.93,62.78V62c0-1.47,0.44-3.16,1.2-4.64c0.81-1.56,1.94-2.8,3.17-3.47c0.02-0.01,0.04-0.02,0.06-0.02
		c0.02,0,0.05,0.01,0.07,0.02c0.04,0.03,0.07,0.06,0.07,0.11V60.83z M18.94,53.89c0.04-0.03,0.09-0.03,0.13,0
		c1.24,0.67,2.36,1.91,3.17,3.47c0.76,1.47,1.2,3.16,1.2,4.64v0.78c0,0.14-0.07,0.22-0.12,0.26c-0.04,0.04-0.14,0.1-0.27,0.08
		l-2.43-0.4h0c-1.01-0.17-1.74-0.96-1.74-1.88V54C18.88,53.95,18.9,53.92,18.94,53.89z"/>
	<path class="st0" d="M7.81,43.59c0,0.23,0.19,0.42,0.42,0.42c0.23,0,0.42-0.19,0.42-0.42c0-0.23-0.19-0.42-0.42-0.42
		C8,43.17,7.81,43.36,7.81,43.59z"/>
	<path class="st0" d="M9.44,45.18c0-0.23-0.19-0.42-0.42-0.42c-0.23,0-0.42,0.19-0.42,0.42s0.19,0.42,0.42,0.42
		C9.25,45.6,9.44,45.41,9.44,45.18z"/>
	<path class="st0" d="M6.71,42.63c-0.23,0-0.42,0.19-0.42,0.42s0.19,0.42,0.42,0.42c0.23,0,0.42-0.19,0.42-0.42
		S6.94,42.63,6.71,42.63z"/>
	<path class="st0" d="M5.71,41.19c-0.23,0-0.42,0.19-0.42,0.42c0,0.23,0.19,0.42,0.42,0.42c0.23,0,0.42-0.19,0.42-0.42
		C6.13,41.38,5.95,41.19,5.71,41.19z"/>
	<path class="st0" d="M4.47,44.44c-0.23,0-0.42,0.19-0.42,0.42c0,0.23,0.19,0.42,0.42,0.42c0.23,0,0.42-0.19,0.42-0.42
		C4.89,44.62,4.7,44.44,4.47,44.44z"/>
	<path class="st0" d="M7.1,44.85c0,0.23,0.19,0.42,0.42,0.42c0.23,0,0.42-0.19,0.42-0.42c0-0.23-0.19-0.42-0.42-0.42
		C7.29,44.43,7.1,44.62,7.1,44.85z"/>
	<path class="st0" d="M4.83,43.39c0,0.23,0.19,0.42,0.42,0.42c0.23,0,0.42-0.19,0.42-0.42c0-0.23-0.19-0.42-0.42-0.42
		C5.02,42.97,4.83,43.16,4.83,43.39z"/>
	<path class="st0" d="M3.01,42.72c0,0.23,0.19,0.42,0.42,0.42c0.23,0,0.42-0.19,0.42-0.42c0-0.23-0.19-0.42-0.42-0.42
		C3.2,42.3,3.01,42.49,3.01,42.72z"/>
	<path class="st0" d="M5.82,45.51c0,0.23,0.19,0.42,0.42,0.42c0.23,0,0.42-0.19,0.42-0.42c0-0.23-0.19-0.42-0.42-0.42
		C6.01,45.09,5.82,45.28,5.82,45.51z"/>
	<path class="st0" d="M4.98,39.89c0,0.23,0.19,0.42,0.42,0.42c0.23,0,0.42-0.19,0.42-0.42c0-0.23-0.19-0.42-0.42-0.42
		C5.17,39.47,4.98,39.66,4.98,39.89z"/>
	<path class="st0" d="M0.67,39.2c0,0.23,0.19,0.42,0.42,0.42c0.23,0,0.42-0.19,0.42-0.42c0-0.23-0.19-0.42-0.42-0.42
		C0.86,38.78,0.67,38.96,0.67,39.2z"/>
	<path class="st0" d="M3.72,41.21c0,0.23,0.19,0.42,0.42,0.42c0.23,0,0.42-0.19,0.42-0.42c0-0.23-0.19-0.42-0.42-0.42
		C3.91,40.79,3.72,40.98,3.72,41.21z"/>
	<path class="st0" d="M2.81,39.8c-0.23,0-0.42,0.19-0.42,0.42c0,0.23,0.19,0.42,0.42,0.42c0.23,0,0.42-0.19,0.42-0.42
		C3.23,39.99,3.04,39.8,2.81,39.8z"/>
	<path class="st0" d="M1.09,40.46c-0.23,0-0.42,0.19-0.42,0.42c0,0.23,0.19,0.42,0.42,0.42c0.23,0,0.42-0.19,0.42-0.42
		C1.51,40.65,1.32,40.46,1.09,40.46z"/>
	<path class="st0" d="M2.9,44.38c0-0.23-0.19-0.42-0.42-0.42c-0.23,0-0.42,0.19-0.42,0.42c0,0.23,0.19,0.42,0.42,0.42
		C2.71,44.8,2.9,44.61,2.9,44.38z"/>
	<path class="st0" d="M3.43,39.28c0.23,0,0.42-0.19,0.42-0.42c0-0.23-0.19-0.42-0.42-0.42c-0.23,0-0.42,0.19-0.42,0.42
		C3.01,39.1,3.2,39.28,3.43,39.28z"/>
	<path class="st0" d="M1.33,42.46c0,0.23,0.19,0.42,0.42,0.42c0.23,0,0.42-0.19,0.42-0.42c0-0.23-0.19-0.42-0.42-0.42
		C1.52,42.04,1.33,42.23,1.33,42.46z"/>
	<path class="st0" d="M12.46,56.44c0.26,0,0.47-0.21,0.47-0.47c0-0.26-0.21-0.47-0.47-0.47c-0.26,0-0.47,0.21-0.47,0.47
		C11.99,56.22,12.2,56.44,12.46,56.44z"/>
	<path class="st0" d="M10.98,58.63c0-0.26-0.21-0.47-0.47-0.47c-0.26,0-0.47,0.21-0.47,0.47c0,0.26,0.21,0.47,0.47,0.47
		C10.77,59.1,10.98,58.89,10.98,58.63z"/>
	<path class="st0" d="M12.68,59.17c-0.26,0-0.47,0.21-0.47,0.47c0,0.26,0.21,0.47,0.47,0.47c0.26,0,0.47-0.21,0.47-0.47
		C13.15,59.38,12.94,59.17,12.68,59.17z"/>
	<path class="st0" d="M11.21,59.83c-0.26,0-0.47,0.21-0.47,0.47c0,0.26,0.21,0.47,0.47,0.47c0.26,0,0.47-0.21,0.47-0.47
		C11.68,60.05,11.47,59.83,11.21,59.83z"/>
	<path class="st0" d="M11.35,56.68c-0.26,0-0.47,0.21-0.47,0.47c0,0.26,0.21,0.47,0.47,0.47c0.26,0,0.47-0.21,0.47-0.47
		C11.83,56.89,11.61,56.68,11.35,56.68z"/>
	<path class="st0" d="M12.86,58.15c0-0.26-0.21-0.47-0.47-0.47c-0.26,0-0.47,0.21-0.47,0.47s0.21,0.47,0.47,0.47
		C12.65,58.62,12.86,58.41,12.86,58.15z"/>
	<path class="st0" d="M19.92,56.77c0.26,0,0.47-0.21,0.47-0.47c0-0.26-0.21-0.47-0.47-0.47s-0.47,0.21-0.47,0.47
		C19.45,56.55,19.66,56.77,19.92,56.77z"/>
	<path class="st0" d="M19.59,58.44c0.26,0,0.47-0.21,0.47-0.47c0-0.26-0.21-0.47-0.47-0.47c-0.26,0-0.47,0.21-0.47,0.47
		C19.11,58.23,19.33,58.44,19.59,58.44z"/>
	<path class="st0" d="M21.16,57.72c0.26,0,0.47-0.21,0.47-0.47c0-0.26-0.21-0.47-0.47-0.47c-0.26,0-0.47,0.21-0.47,0.47
		C20.69,57.51,20.9,57.72,21.16,57.72z"/>
	<path class="st0" d="M20.83,59.53c0.26,0,0.47-0.21,0.47-0.47c0-0.26-0.21-0.47-0.47-0.47c-0.26,0-0.47,0.21-0.47,0.47
		C20.36,59.32,20.57,59.53,20.83,59.53z"/>
	<path class="st0" d="M19.69,59.63c-0.26,0-0.47,0.21-0.47,0.47c0,0.26,0.21,0.47,0.47,0.47c0.26,0,0.47-0.21,0.47-0.47
		C20.16,59.84,19.95,59.63,19.69,59.63z"/>
	<path class="st0" d="M22.14,60.19c0.26,0,0.47-0.21,0.47-0.47c0-0.26-0.21-0.47-0.47-0.47c-0.26,0-0.47,0.21-0.47,0.47
		C21.67,59.98,21.88,60.19,22.14,60.19z"/>
</g>
<path class="st0" d="M47.42,3.79h-1.76V2.16c0-0.47-0.34-0.85-0.82-0.85c-0.47,0-0.82,0.38-0.82,0.85v1.63h-1.45
	c-0.47,0-0.85,0.42-0.85,0.9c0,0.47,0.38,0.9,0.85,0.9h1.45V7c0,0.47,0.34,0.85,0.82,0.85c0.47,0,0.82-0.38,0.82-0.85V5.58h1.76
	c0.47,0,0.85-0.42,0.85-0.9C48.27,4.21,47.89,3.79,47.42,3.79z"/>
<g>
	<path class="st0" d="M32.89,22.22l-1.07-0.61l0.03-14.42l-0.2-0.24c-0.21-0.25-0.53-0.39-0.85-0.39c-0.46,0-0.85,0.33-0.98,0.64
		l-0.07,0.16l0,14.23l-1.1,0.61c-1.38,0.76-2.24,2.22-2.24,3.8c0,2.39,1.94,4.33,4.33,4.33c2.39,0,4.33-1.94,4.33-4.33
		C35.08,24.44,34.24,22.99,32.89,22.22z M30.75,28.61c-1.45,0-2.62-1.18-2.62-2.62c0-0.96,0.52-1.84,1.36-2.3l1.28-0.71l1.28,0.73
		c0.82,0.47,1.33,1.34,1.33,2.28C33.37,27.44,32.2,28.61,30.75,28.61z"/>
	<path class="st1" d="M37.73,12.67c0.47,0,0.85-0.34,0.85-0.82c0-0.47-0.38-0.82-0.85-0.82h-2.79l0.01-2.61h2.78
		c0.47,0,0.85-0.38,0.85-0.86c0-0.47-0.38-0.86-0.85-0.86h-2.78l0-1.69c0-2.21-1.86-4.01-4.15-4.01c-2.25,0-4.15,1.87-4.15,4.08
		l0,14.46c-2.15,1.39-3.47,3.78-3.47,6.36c0,4.17,3.39,7.56,7.56,7.56c4.17,0,7.56-3.39,7.56-7.56c0-2.54-1.29-4.88-3.39-6.28
		l0.01-2.9h2.8c0.47,0,0.85-0.42,0.85-0.9c0-0.47-0.38-0.9-0.85-0.9h-2.79l0-2.28H37.73z M36.61,25.92c0,3.23-2.63,5.86-5.86,5.86
		c-3.23,0-5.86-2.63-5.86-5.86c0-2.13,1.16-4.1,3.03-5.13l0.44-0.24l0-15.45c0-1.26,1.14-2.37,2.45-2.37c1.33,0,2.45,1.05,2.45,2.3
		l-0.03,15.56l0.43,0.25C35.47,21.88,36.61,23.83,36.61,25.92z"/>
</g>
</svg>
