<?xml version="1.0" encoding="utf-8"?>
<!-- Generator: Adobe Illustrator 24.1.0, SVG Export Plug-In . SVG Version: 6.00 Build 0)  -->
<svg version="1.1" id="Layer_1" xmlns="http://www.w3.org/2000/svg" xmlns:xlink="http://www.w3.org/1999/xlink" x="0px" y="0px"
	 viewBox="0 0 68 65" style="enable-background:new 0 0 68 65;" xml:space="preserve">
<style type="text/css">
	.st0{fill:#F5871F;}
	.st1{fill:#5AA7C1;}
</style>
<g>
	<path class="st0" d="M35.06,10.66h-2.45V8.4c0-0.66-0.48-1.19-1.13-1.19c-0.66,0-1.13,0.53-1.13,1.19v2.26h-2.01
		c-0.66,0-1.19,0.59-1.19,1.24c0,0.66,0.53,1.24,1.19,1.24h2.01v1.97c0,0.66,0.48,1.19,1.13,1.19c0.66,0,1.13-0.53,1.13-1.19v-1.97
		h2.45c0.66,0,1.19-0.59,1.19-1.24C36.25,11.25,35.72,10.66,35.06,10.66z"/>
	<path class="st1" d="M46.42,65.19H17.88c-2.19,0-4.03-1.88-4.03-4.12V5.03c0-2.22,1.81-4.03,4.03-4.03h28.54
		c2.22,0,4.03,1.81,4.03,4.03v56.05C50.45,63.31,48.6,65.19,46.42,65.19z M17.88,3.48c-0.86,0-1.55,0.7-1.55,1.55v56.05
		c0,0.87,0.73,1.64,1.55,1.64h28.54c0.83,0,1.55-0.76,1.55-1.64V5.03c0-0.86-0.7-1.55-1.55-1.55H17.88z"/>
	<rect x="19.39" y="50.57" class="st1" width="25.52" height="2.48"/>
	<path class="st1" d="M34.47,59.04h-4.64c-0.68,0-1.24-0.56-1.24-1.24s0.56-1.24,1.24-1.24h4.64c0.68,0,1.24,0.56,1.24,1.24
		S35.15,59.04,34.47,59.04z"/>
	<g>
		<path class="st1" d="M35.08,45.64c-0.36,0-0.64-0.08-0.79-0.14c-2.85-0.97-5.7-3.51-8.45-7.56c-0.07-0.1-0.12-0.18-0.15-0.22
			c-0.01-0.02-0.02-0.03-0.03-0.05c-0.02-0.03-0.05-0.07-0.09-0.14c-3.52-5.02-4.16-8.59-4.07-10.71c0-0.37,0.14-1.45,1.5-2.28
			c3.05-2.18,3.85-2.23,4.21-2.19c0.54,0.03,1.25,0.35,1.65,1.21c0.01,0.01,0.01,0.02,0.01,0.03l1.56,3.65
			c0.28,0.52,0.49,1.56-0.31,2.53l-1.02,1.24c0.42,0.75,1.15,2.03,1.78,2.87c0.02,0.02,0.03,0.05,0.05,0.07
			c0.56,0.89,1.48,2.04,2.03,2.7l1.52-0.5c1.2-0.39,2.09,0.17,2.48,0.62l2.84,2.77c0.01,0.01,0.02,0.02,0.02,0.03
			c0.66,0.69,0.7,1.47,0.53,1.98c-0.09,0.32-0.43,1.07-3.36,3.34C36.26,45.48,35.58,45.64,35.08,45.64z M35.12,43.57
			C35.12,43.57,35.12,43.57,35.12,43.57C35.12,43.57,35.12,43.57,35.12,43.57z M35.12,43.57C35.12,43.57,35.12,43.57,35.12,43.57
			C35.12,43.57,35.12,43.57,35.12,43.57z M35.12,43.57C35.12,43.57,35.12,43.57,35.12,43.57C35.12,43.57,35.12,43.57,35.12,43.57z
			 M35.04,43.53c0.05,0.01,0.28,0.01,0.67-0.29c0.99-0.77,2.16-1.78,2.56-2.24l-2.82-2.75c-0.06-0.06-0.06-0.04-0.09-0.09
			c-0.04-0.03-0.1-0.04-0.22,0l-2.19,0.73c-0.4,0.13-0.85,0.01-1.13-0.31c-0.07-0.08-1.73-2-2.65-3.46
			c-1.03-1.38-2.22-3.63-2.27-3.72c-0.2-0.38-0.15-0.83,0.12-1.16l1.47-1.78c0.08-0.1,0.09-0.16,0.08-0.2
			c-0.04-0.05-0.02-0.04-0.05-0.12l-1.54-3.6c-0.57,0.26-1.83,1.07-2.79,1.75c-0.02,0.02-0.05,0.03-0.07,0.04
			c-0.42,0.25-0.5,0.48-0.52,0.52c0,0.02,0,0.04,0,0.05c-0.11,2.53,1.2,5.87,3.69,9.43c0.05,0.07,0.09,0.13,0.11,0.16
			c0.04,0.06,0.1,0.14,0.18,0.26c1.71,2.52,4.39,5.75,7.4,6.76C35.01,43.52,35.03,43.53,35.04,43.53z M38.39,40.85L38.39,40.85
			L38.39,40.85z M38.38,40.84C38.38,40.84,38.38,40.84,38.38,40.84C38.38,40.84,38.38,40.84,38.38,40.84z M38.38,40.84
			C38.38,40.84,38.38,40.84,38.38,40.84C38.38,40.84,38.38,40.84,38.38,40.84z M35.35,38.13L35.35,38.13L35.35,38.13L35.35,38.13z
			 M35.35,38.13L35.35,38.13L35.35,38.13z M23.6,26.76C23.6,26.76,23.6,26.76,23.6,26.76C23.6,26.76,23.6,26.76,23.6,26.76z
			 M23.6,26.76C23.6,26.76,23.6,26.76,23.6,26.76C23.6,26.76,23.6,26.76,23.6,26.76z M27.16,24.46
			C27.16,24.46,27.16,24.46,27.16,24.46C27.16,24.46,27.16,24.46,27.16,24.46z M27.16,24.46C27.16,24.46,27.16,24.46,27.16,24.46
			C27.16,24.46,27.16,24.46,27.16,24.46z"/>
	</g>
	<g>
		<path class="st0" d="M41.75,34.83c-0.58,0-1.05-0.47-1.05-1.05c0-3.75-2.38-7.14-5.92-8.42c-0.55-0.2-0.83-0.8-0.63-1.35
			c0.2-0.55,0.8-0.83,1.35-0.63c4.37,1.58,7.3,5.76,7.31,10.4C42.8,34.36,42.33,34.83,41.75,34.83
			C41.75,34.83,41.75,34.83,41.75,34.83z"/>
		<path class="st0" d="M37.1,34.62c-0.56,0-1.03-0.44-1.05-1.01c-0.07-1.76-1.19-3.29-2.84-3.89c-0.55-0.2-0.83-0.8-0.63-1.35
			c0.2-0.55,0.8-0.83,1.35-0.63c2.46,0.9,4.12,3.17,4.23,5.78c0.02,0.58-0.43,1.07-1.01,1.09C37.13,34.62,37.11,34.62,37.1,34.62z"
			/>
	</g>
</g>
</svg>
