<?xml version="1.0" encoding="UTF-8"?>
<svg width="18px" height="29px" viewBox="0 0 18 29" version="1.1" xmlns="http://www.w3.org/2000/svg" xmlns:xlink="http://www.w3.org/1999/xlink">
  <path fill="#FFFFFF" d="M8.381,28.9323333 C8.28301989,28.8844322 8.19710928,28.8150428 8.12966667,28.7293333 C8.12966667,28.7293333 7.98466667,28.5263333 7.743,28.217 C7.50133333,27.9076667 7.192,27.463 6.77633333,26.9023333 C6.36066667,26.3416667 5.974,25.6843333 5.50033333,24.969 C5.02666667,24.2536667 4.53366667,23.3546667 4.031,22.417 C3.741,21.8756667 3.46066667,21.3246667 3.19966667,20.7833333 C2.93866667,20.242 2.68733333,19.7006667 2.45533333,19.169 C2.22333333,18.6373333 2.001,18.096 1.798,17.574 C1.595,17.052 1.41133333,16.53 1.23733333,16.0176667 C1.06333333,15.5053333 0.850666667,14.732 0.686333333,14.0843333 C0.522,13.4366667 0.396333333,12.8373333 0.29,12.2283333 C0.178184016,11.6368654 0.0975173016,11.0399317 0.0483333333,10.44 C1.15315743e-15,9.831 1.15315743e-15,9.26066667 1.15315743e-15,8.7 C-0.00930608136,7.53770845 0.221041228,6.38597191 0.676666667,5.31666667 C1.11731393,4.28261935 1.75416375,3.34375828 2.552,2.552 C3.34660363,1.76004962 4.28491092,1.12685623 5.31666667,0.686333333 C7.47981176,-0.226764564 9.92018824,-0.226764564 12.0833333,0.686333333 C13.1150891,1.12685623 14.0533964,1.76004962 14.848,2.552 C15.6434016,3.34746533 16.2769872,4.2896367 16.7136667,5.32633333 C17.1713077,6.39194543 17.404924,7.54028442 17.4,8.7 C17.4,9.251 17.4,9.82133333 17.3226667,10.4013333 C17.2734827,11.001265 17.192816,11.5981987 17.081,12.1896667 C16.9746667,12.7986667 16.8393333,13.4173333 16.6846667,14.0456667 C16.53,14.674 16.3366667,15.312 16.1336667,15.979 C15.9306667,16.646 15.776,17.0133333 15.573,17.5353333 C15.37,18.0573333 15.1476667,18.589 14.9156667,19.1303333 C14.6836667,19.6716667 14.442,20.2033333 14.1713333,20.7446667 C13.9006667,21.286 13.63,21.837 13.34,22.3783333 C12.8373333,23.345 12.3733333,24.1666667 11.8706667,24.9303333 C11.368,25.694 10.9716667,26.361 10.5946667,26.8636667 C10.2176667,27.3663333 9.90833333,27.8303333 9.628,28.1783333 C9.34766667,28.5263333 9.26066667,28.6616667 9.24133333,28.6906667 C9.17389072,28.7763762 9.08798011,28.8457655 8.99,28.8936667 C8.78697641,28.9842373 8.55502359,28.9842373 8.352,28.8936667 L8.381,28.9323333 Z M5.87733333,2.02033333 C4.13605152,2.75942036 2.74975369,4.14571819 2.01066667,5.887 C1.6339603,6.7766388 1.44316277,7.73391608 1.45,8.7 C1.4497686,9.89476454 1.56959272,11.0865288 1.80766667,12.2573333 C2.05778081,13.4298265 2.38062713,14.5856163 2.77433333,15.718 C3.15133333,16.8296667 3.57666667,17.9026667 4.031,18.9176667 C4.48533333,19.9326667 4.93966667,20.851 5.394,21.6726667 C5.72266667,22.2816667 6.04166667,22.8616667 6.36066667,23.403 C6.67966667,23.9443333 6.989,24.447 7.32733333,24.9013333 C7.66566667,25.3556667 7.888,25.7713333 8.13933333,26.1386667 C8.39066667,26.506 8.60333333,26.8056667 8.787,27.0473333 C8.97066667,26.796 9.18333333,26.4866667 9.43466667,26.0806667 C9.686,25.6746667 9.95666667,25.3073333 10.2466667,24.853 C10.5366667,24.3986667 10.846,23.8863333 11.2133333,23.345 C11.5806667,22.8036667 11.861,22.2236667 12.18,21.6146667 C12.6246667,20.7833333 13.079,19.865 13.543,18.8596667 C14.0182991,17.8173223 14.4346226,16.7490812 14.79,15.66 C15.1837031,14.5308974 15.5065529,13.3783237 15.7566667,12.209 C15.9371052,11.0486166 16.0018674,9.87318266 15.95,8.7 C15.9551035,7.7299909 15.7609841,6.76926423 15.3796667,5.87733333 C14.6405796,4.13605152 13.2542818,2.74975369 11.513,2.01066667 C9.70547301,1.2630746 7.67519366,1.2630746 5.86766667,2.01066667 L5.87733333,2.02033333 Z M7.00833333,12.7116667 C6.48889678,12.4827245 6.01929166,12.1543293 5.626,11.745 C5.21788635,11.3469507 4.88975731,10.8744449 4.65933333,10.353 C4.44798203,9.82786091 4.34284396,9.26602936 4.35,8.7 C4.34714919,8.11590039 4.46222478,7.53723458 4.68833333,6.99866667 C4.91898944,6.48019686 5.24716688,6.01090313 5.655,5.61633333 C6.05354604,5.21318858 6.5219027,4.88566644 7.03733333,4.64966667 C8.12,4.19855556 9.338,4.19855556 10.4206667,4.64966667 C10.9360973,4.88566644 11.404454,5.21318858 11.803,5.61633333 C12.2108331,6.01090313 12.5390106,6.48019686 12.7696667,6.99866667 C12.9759518,7.5413227 13.071277,8.11984792 13.05,8.7 C13.0518407,9.27774934 12.9367535,9.849897 12.7116667,10.382 C12.4812427,10.9034449 12.1531136,11.3759507 11.745,11.774 C11.3517083,12.1833293 10.8821032,12.5117245 10.3626667,12.7406667 C9.28269607,13.2050625 8.05930393,13.2050625 6.97933333,12.7406667 L7.00833333,12.7116667 Z M7.57866667,6.032 C7.21844771,6.17176578 6.88979048,6.38210641 6.612,6.65066667 C6.34253272,6.92963719 6.12921628,7.25781632 5.98366667,7.61733333 C5.68769304,8.33894123 5.68769304,9.14805877 5.98366667,9.86966667 C6.12412388,10.2318145 6.33806106,10.5609486 6.612,10.8363333 C6.89308939,11.1006906 7.22088252,11.3104782 7.57866667,11.455 C8.29414257,11.7647181 9.10585743,11.7647181 9.82133333,11.455 C10.1791175,11.3104782 10.5069106,11.1006906 10.788,10.8363333 C11.0619389,10.5609486 11.2758761,10.2318145 11.4163333,9.86966667 C11.712307,9.14805877 11.712307,8.33894123 11.4163333,7.61733333 C11.2707837,7.25781632 11.0574673,6.92963719 10.788,6.65066667 C10.5102095,6.38210641 10.1815523,6.17176578 9.82133333,6.032 C9.10402677,5.73124891 8.29597323,5.73124891 7.57866667,6.032 Z"></path>
</svg>
