<?xml version="1.0" encoding="UTF-8"?>
<svg width="50px" height="50px" viewBox="0 0 50 50" version="1.1" xmlns="http://www.w3.org/2000/svg" xmlns:xlink="http://www.w3.org/1999/xlink">
    <g fill="#C25421">
        <path d="M44.66,0 L5.34,0 C2.39079944,-1.80586452e-16 3.61172903e-16,2.39079944 0,5.34 L0,44.66 C3.61172903e-16,47.6092006 2.39079944,50 5.34,50 L27.34,50 L27.34,30.25 L20.54,30.25 L20.54,22.66 L27.34,22.66 L27.34,17.08 C27.1873894,14.3817609 28.1489949,11.7391532 30,9.77 C31.898353,7.95771768 34.4588731,7.00656402 37.08,7.14 C39.0222701,7.11579768 40.9638103,7.22941621 42.89,7.48 L42.89,14.17 L38.89,14.17 C37.7930796,14.0596212 36.701309,14.4235447 35.89,15.17 C35.3854118,15.9685247 35.1505514,16.907966 35.22,17.85 L35.22,22.65 L42.92,22.65 L41.92,30.24 L35.16,30.24 L35.16,50 L44.66,50 C47.6092006,50 50,47.6092006 50,44.66 L50,5.34 C50,2.39079944 47.6092006,1.80586452e-16 44.66,0 L44.66,0 Z" id="Path"></path>
    </g>
</svg>
