<?xml version="1.0" standalone="no"?><?xml-stylesheet type="text/css" href="../../../css/svg/oregon-gov-color.css"?><!DOCTYPE svg PUBLIC "-//W3C//DTD SVG 1.1//EN" "http://www.w3.org/Graphics/SVG/1.1/DTD/svg11.dtd"><svg width="145px" height="40px" viewBox="0 0 145 40" version="1.1" baseProfile="tiny" xmlns="http://www.w3.org/2000/svg" xmlns:xlink="http://www.w3.org/1999/xlink" style="border-bottom-color:rgb(255, 255, 255);border-left-color:rgb(255, 255, 255);border-right-color:rgb(255, 255, 255);border-top-color:rgb(255, 255, 255);color:rgb(255, 255, 255);font-size:18px;height:40px;outline-color:rgb(255, 255, 255);width:145px;column-rule-color:rgb(255, 255, 255);perspective-origin:72.5px 20px;-webkit-text-emphasis-color:rgb(255, 255, 255);-webkit-text-fill-color:rgb(255, 255, 255);-webkit-text-stroke-color:rgb(255, 255, 255);transform-origin:72.5px 20px;"><path fill="#AE9F76" class="svg-logo-path" fill-rule="evenodd" d="M32.7 24.1c.1-.2.6 0 .8-.1 0 .2-.5.1-.8.1zm-.8.1c.1-.2.5 0 .7-.1 0 .2-.4.1-.7.1zm4.2-.3c.5.1 1.3.1 2 .1-.6.1-1.7.1-2-.1zm-2.3.1c.6-.1 1.3-.1 2.1-.2-.6.3-1.3.4-2.1.2zm-6.1 2c.5-1.5 2.4-1.6 4.2-1.8-1.7.4-3.7.3-4.2 1.8z" style="border-bottom-color:rgb(255, 255, 255);border-left-color:rgb(255, 255, 255);border-right-color:rgb(255, 255, 255);border-top-color:rgb(255, 255, 255);color:rgb(255, 255, 255);font-size:18px;height:auto;outline-color:rgb(255, 255, 255);overflow-x:visible;overflow-y:visible;width:auto;column-rule-color:rgb(255, 255, 255);perspective-origin:0px 0px;-webkit-text-emphasis-color:rgb(255, 255, 255);-webkit-text-fill-color:rgb(255, 255, 255);-webkit-text-stroke-color:rgb(255, 255, 255);transform-origin:0px 0px;fill:rgb(174, 159, 118);fill-rule:evenodd;"/><path fill="#AE9F76" class="svg-logo-path" fill-rule="evenodd" d="M67.6 22.9h.9c.4.2 1.4.2 1.9.1h.3c.6-.1 1.3.2 1.7 0h1.1v.1c.2 0 .2.1.5.1h.6c.4-.1 1 .1 1.2-.1h.2c.2 0 .6.1.7-.1h.2c.2-.1.6.1.7-.1h2.6c.1.2.6.4.7.2h.2c.3-.1.8.1 1-.1.8 0 1.7 0 2.4.1h2.1c.1 0 .5.1.5-.1h.2c0 .2.3 0 .4.1h.1c.2.2.9-.1 1 .2 0 .1-.1.1-.2.1 0-.2-.3 0-.4-.1-.5 0-.9.1-.8.5-.1.1-.2.1-.4.1-.3 0-.7-.1-.8.1.2.3 1 .3 1.2 0h.1c.2 0 .2-.1.3-.1 0-.2-.2-.2-.1-.3h.1c0 .1-.1.1-.1.2.2.1.3.3.6.2h.1c.1.1.4.2.6.2h.4c.1 0 .2 0 .2-.1.2.3.3-.3 0-.2 0-.1-.1-.1-.2-.1h-.1c-.4-.2.2-.3.4-.5h.2c.2 0 .6.1.6-.1h.2c.3.3 1.4.2 1.8.1h.1c.5-.1.5 0 1 .1.1 0 .3 0 .3-.1.1-.1.5 0 .6-.2h.9c.2.2.8 0 1.1.1v.1h-.4c-.9.1-.1.5.3.2h.1c.3.1.6.1 1 .1.1-.3-.2-.2-.2-.3h.3c-.1.3.5.3.6.2h.3c.4-.1 1 .1 1.2-.1h.6c.3.2.9 0 1.2.2h.2c.3-.1.7.1.9-.1h.2c0 .1.2 0 .2.2h-.3c-.5.1.1.4.2.1.3.3.9-.3 1.7-.1h.3c.2.2.5.2.6 0-.4.3.2.2.5.3.2-.2-.2-.2-.2-.3 0 0 .1 0 .1-.1h.6c.1.2.5 0 .7.1h.1c.1.2.6 0 .8.1h1.9v.1c.3 0 .3-.1.6-.1 0 .1 0 .2-.1.2.3-.1.7 0 .9-.2h.6c.7-.1 1.2.1 1.8.1h.2c.1.2.6 0 .8.1h.2c0 .2-.4-.1-.4.2.3.1 1 .1 1.3 0 .1 0 .1.1.2.1.8-.3 1.8-.1 2.7-.1h.1c.1 0 .4.1.4-.1h2.1c.2.2.7 0 1 .1h.2c.1.2.6 0 .8.1h.4c0 .1.2 0 .2.2h-.9c.6.5 2 .3 3.1.3-.4.3.6.2.7.2-.1-.3-.7-.1-.8-.4.6.2 1.4.5 2.2.2h.3c.4 0 .8 0 1.1-.2h.2c.1.2.6 0 .9.1h.3v.1c-.4 0-1 .1-1.3-.1 0 .1.1.2.2.2-.3.2-.9 0-1.3.1h-.7c-.3 0-.8-.1-.8.2.5.2 1.8 0 2.6.2.1-.2-.4.1-.3-.2h.6c.4.6 1.2 0 1.7 0 0-.2-.2-.1-.2-.2h.2c.4.2.7.1 1.3.1 0 .2-.3.1-.2.2.2 0 .6.1.6-.2-.1-.1-.2-.1-.3-.1 0-.2.6.1.6-.2h.2c0 .2.5-.1.5.2-.3 0-.7-.1-.7.2.4.2.9 0 1.4 0h.4c.7.2 1.8 0 2.7.1h2.5v.1c.1 0 .3 0 .3.1h-.9c-.2 0-.6-.1-.7.1h-.2c-.3.1-.9 0-1 .2h-.1c-.1 0-.5-.1-.5.1h-.6c0-.1-.4-.1-.4 0h-.2c0-.3-.6-.3-.8-.1h-.2c-.2 0-.6-.1-.6.1h-.2c-.2 0-.6-.1-.7.1-.1.1-.2.1-.3 0-.2-.2-.7 0-1-.1h-.6c-.2 0-.5-.1-.6.1h-1.3c-.6-.1-1.2-.2-1.9-.2h-1.5c-.4-.2-1.2-.4-1.8-.2.2.1.9.5 1 .2h.2c0 .3-.1.3-.6.2h-.2c-1.3-.1-2.5-.3-3.9-.2h-.8c0-.3.4-.2.4-.5 0-.2-.3 0-.4-.1h-.2c0-.2-.3 0-.4-.1h-.2c0-.2-.3 0-.4-.1h-.2c.1-.1-.4-.1-.3 0h-.1c-.9.2-1.9.3-2.8.1h-.2c-.2 0-.6-.1-.7.1h-.2c-.4.1-.7-.2-.9 0h-.2c-.2 0-.5-.1-.6.1h-.6c-.1.3.4.4.4.2h.1c0 .1-.1.1-.1.2.5.1 1.1-.1 1.4.1-.2 0-.6-.1-.6.1h-.1c-.2.1-.6 0-.7.2h-2c-.2-.2-.7 0-1-.1h-.2c-.9-.3-2.2-.5-3.2-.3h-.1c-.3.1-.9 0-1 .4h-.8c-.5.1-1.1-.1-1.4.1h-.3c-.6.1-.9-.1-1.4-.1-.2 0-.1.3-.3.4h-.1c-.1 0-.5-.1-.5.1h-.2c-.6-.1-1.7-.1-2.3 0h-1.5c.2-.3.9-.1 1-.5h-.4V26c.2 0 .4 0 .5.1.1.3.5-.1.2-.2h-.2c0-.2-.3 0-.4-.1h-.1c-.1-.2-.5 0-.6-.1h-.2c-.1-.1-.4-.2-.5 0H96c-.3 0-.8-.1-1 .1-.1.3.5.1.4.4-.1 0-.3.1-.3.2h-.7c0-.1-.2-.1-.3-.1H94c0-.2-.3 0-.4-.1h-.2c-.3 0-.3.1-.4.2h-.3c-.2 0-.5 0-.6-.1h-.6c-.6 0-.5-.6-1.2-.4h-.1c.1-.1-.4-.1-.3 0h-.1c-.3.2-.9.1-1.3.2h-.7c0-.2-.4 0-.6-.1h-.4c0-.1-.5-.1-.5 0h-.1c-.3.4-.8.1-1.4.2h-.3c-.1 0-.3 0-.3.1-.1.1-.5 0-.5.2-.3.1-.3-.1-.6-.1h-.2c-.1-.2-.5 0-.6-.1h-.1c0-.1-.6-.1-.6 0v.1c-.9-.2-.7.3-1.4.2-.3 0-.6-.1-.8-.2 0-.1-.2-.1-.3-.1H79c-.1-.1-.7-.1-.8 0H78c-.5.1-.6 0-.7-.2h-.1c0-.1-.6-.1-.6 0h-.2c-.3.1-.8-.1-1 .1h-.6c-.7.1-1.6-.1-2.1.1h-.2c-.2.1-.3.2-.6.2h-.2c-.7-.2-1.3.3-1.8.1 0-.1-.1-.2-.3-.2-.3 0-.5 0-.7.2h-.2c-.2-.2-.2-.2-.2-.4h-1.9c-.1-.2-.5 0-.7-.1h-.2c-.6.1-1.4-.1-1.9.1h-.1c-.2 0-.3 0-.3.2v.1c.2 0 .2-.1.4-.1 0 .1-.1.1-.2.2-.1 0-.1 0-.1.1-.2.1-.8.1-1 0-.3-.3-.7.1-1 .1h-.1c-.1-.2-.6-.4-.9-.2h-.2c-.4 0-1-.2-1.4 0h-.1c-.4-.2-1.4-.4-2-.2h-.1c-.2.1-.7 0-.9.2h-.2c-.2 0-.5-.1-.6.1h-.2c-.2 0-.5-.1-.6.1h-1v.3H53c-.2.1-.7-.1-.8.1H52c-.7-.2-1.6 0-2.1.2H48c0-.1-.4-.1-.4 0h-.1c-.3 0-.5 0-.6.2h-.5c0-.2.3-.1.2-.2h-.5c.4-.1.9-.2 1.4-.2.5.1.9 0 1.2-.2 0-.2-.5-.2-.6-.1h-.2c-.2 0-.5-.1-.6.1h-.2c-.1 0-.5-.1-.5.1h-.2c-.1 0-.5-.1-.5.1h-.2c-.1 0-.4-.1-.4.1h-.2c-.3-.1-.6-.3-1-.3H44c-.5-.3-.9.1-1.3.2 0 .2 0 .3.2.2.1.2-.4-.1-.3.2-.2 0-.2.2-.5.2h-.2c0 .3.4.3.6.2h.3c.2.2.6.1 1 0h.1c.2 0 .3-.1.3-.2h.1c0 .2-.2.1-.2.3 1.6.3 3 .6 4.4 1h.3c.5.3 1.5.6 1.4 1.1 0-.2-.1-.3-.3-.2 0 .2.1.3.3.3.3.2.1.3.1.6-.2-.1 0-.3 0-.5-.2-.1-.3.1-.6-.1h-.1c-.4 0 .4.5.6.6.1 0 .1.1.2.2v.3c-.2-.6-.4 1.3-1 1.4l-.3.3H49c0 .4 0 .4.2.2v.3c.2.1.2-.2.3-.2 0 .1-.1.1-.2.2-.2 0-.2.2-.4.2-.4.1-.8.2-1.1.4-.1.1-.2.1-.4.1-.3 0-.5 0-.6.2h-.1c-.1 0-.3 0-.3.1h-.1c-.1 0-.3 0-.3.1h-.2c-.1 0-.3 0-.3.1h-.1c-.1 0-.4-.1-.4.1h-.1c-.1 0-.4-.1-.4.1h-.1c-.1 0-.4-.1-.4.1h-.2c-.1 0-.3 0-.3.1h-.2c-.1 0-.4-.1-.4.1h-.1c-.3 0-.4-.1-.6-.1H42c-.1 0-.3 0-.3.1h-.1c-.5.2-1.3.2-1.9.3h-.1c-.1 0-.3 0-.3.1h-.1c-.4.1-.1-.5-.5-.2h-.5c-.1 0-.3 0-.3.1h-.1c-.2 0-.4 0-.6.2h-.1c-.3 0-.6.1-.8.2h-.1c-.1 0-.3 0-.3.1h-.1c-.6.4-1-.3-1.9.1h-.5c-.1.1-.3.2-.5.3-.1.1-.1 0-.2 0 0-.1-.6-.1-.6 0h-.2c-.3.1-.9-.1-1 .1-.2 0-.2.2-.4.2h-.6c-.3.1-.7-.1-.9.1h-.3c-.2 0-.6-.1-.6.1-.3.1-1.1-.1-1.5.1-.1 0-.4-.1-.4.1h-2.7c-1 .2-1.4-.2-2.2-.1h-.7c0-.2 0-.5-.1-.6h.3c.2 0 .5.1.6-.1h.1c.2 0 .5.1.6-.1h.1c.4 0 .8 0 1-.2h.1c.8.6 3 1.1 3.9.3 0-.5-.2-.7-.6-.8v-.1c.9-.1 1.7.1 2.5-.2-.1.2-.2.1-.1.2.3 0 .5-.1.6-.2.1 0 .3 0 .3-.1h.1c2.4-.4 4.7-.8 7-1.3h.1c.7-.1 1.5-.2 2.1-.4h.1c.1 0 .4.1.4-.1h.1c1.1-.1 2.1-.3 3.1-.6h.2c.2 0 .6.1.6-.1h.2c.5-.2 1-.2 1.4-.5.2 0 .2-.4 0-.4h-.1c-.1-.1-.2-.2-.4-.2h-.1c-.1-.1-.3-.2-.5-.2-.3 0-.3-.1-.5-.2 0-.1.2 0 .2-.2.2 0 .2.1.3.1 0 .1.1.2.3.2 0-.2 0-.3-.2-.2h-.1c0-.1-.2-.4-.3-.2h-1.7c-.3 0-.3-.1-.6-.1h-.2c-.9.2-1.6-.4-2.3-.1H39c-1.3.1-1.6-.2-2.7-.2h-.2c-.4-.1-1-.1-1.4-.2h-.2c0-.2-.3 0-.5-.1h-.2c0-.2-.3 0-.5-.1h-.1c.4-.9.2-1.1-.2-1.1h-.1c0-.1-.2-.1-.3-.1h-.2c0-.2-.3 0-.5-.1h-.2c.1-.1-.4-.1-.3 0h-.1c-.4-.1.1.3-.2.2h-.2c0-.2-.3 0-.5-.1h-.1c0-.2-.3 0-.4-.1h-.1c0-.1-.2-.1-.3-.1-.2 0-.3 0-.4-.1-.1-.1-.3-.1-.4-.2-.3.1-.2-.1-.4-.2-.5-.4-.7-1.1-1-1.7v-.2c0-.1 0-.2.1-.2-.1.5.2 0 0-.1v-.2c.5-1.3 2.3-1.3 3.8-1.6h.1c.2 0 .6.1.6-.1h.1c.2 0 .6.1.7-.1h.2c.7.1 1.3 0 1.9-.2h.2c.3.2 1.3.2 1.8.1h.3c.2 0 .6.1.7-.1h.1c.7-.2 1.3.2 2.1-.2h.2c.3 0 .5 0 .6-.2h1.6c-.1.3-.2 0-.5.1.3.4 2.1.2 1.7-.2v-.1h.2c.3.5 1.5.2 2 .1h.1c.2 0 .7 0 .4.2 0-.1-.1-.1-.2-.1s-.3 0-.3.1h-.1c-.5 0-.1.6.1.2.1-.1.2-.1.3-.1 0 .1-.1.1-.2.2.4 0 .5.3.9.2h.1c.2-.1.6.1.6-.2h.1c0 .2.1.2.2.1-.1-.1 0-.2-.2-.2-.3.1-.4-.2-.5.1-.3-.4.6-.2.8-.4h.1c.6-.1 1.4.1 1.9-.1h.4c.2-.1.7.1.8-.1h.2c.2-.1.7.1.8-.1h.2c.2-.1.7.1.8-.1h2.8c.6-.1 1.3.1 1.8-.1H59c.6-.1 1.3.1 1.8-.1H62c.5-.1 1.2.1 1.5-.1h.9c.4.1 1.1-.1 1.4.1-.3 0 0 .5 0 .1.7.4 1.3.1 1.8 0zm22.3.8c0 .2.5-.1.5.2 0 .2-.3.1-.2.2 0 0 .4.2.4 0h.1c.2 0 .4 0 .6-.2h-.6v-.2h.2c-.3.3.5.1.7.2 0 .1-.1.1-.2.2h.7c.2 0 .3 0 .4-.1 0 .1.5.1.3-.1 0-.1-.1-.1-.2-.1 0-.1.1-.2-.1-.2h-.6v-.1c.5 0 .9 0 1.3.1v.1s.1 0 .1.1h.2v-.3h-.3c-.5-.1-1.5-.1-2 0h-1v-.1c-.3-.1-.5 0-.4.2l.1.1zm21.6.2c.4 0 .8 0 1-.2-.4 0-.9-.1-1 .2zm-1.2-.3h-.4c-.7 0 .6.4.6 0h-.2zm-71.4 3.5c.2.2.5.1.6-.2-.2-.1-.6 0-.6.2zm-10.8 7.5c-.5-.1-.1.3 0 0zm-15.2 1.9h-.4c-.6.1-1.2-.2-1.7 0h-.1c-.1 0-.3 0-.3.1-.3.2-.8 0-1.2.1-.5.1-1.1-.1-1.4.1h-.2c-.2 0-.6-.1-.7.1h-.2c-.7 0-1.5-.1-1.9.1h-.9v-.1h.2c.2 0 .6.1.6-.1h.2c.2 0 .6.1.7-.1h.2c.2 0 .6.1.7-.1h.2c.3-.1.7.1.9-.1h.1c.2 0 .5.1.6-.1h.2c.2-.1.7.1.8-.1h.3c.2 0 .6.1.7-.1h.2c.6-.1 1.3 0 1.9-.2h.2c.2 0 .6.1.7-.1h.2c.2 0 .6.1.7-.1h.2c.2 0 .6.1.6-.1h.2c.2 0 .6.1.6-.1h.2c.2 0 .5 0 .6-.1.3.2.8.3 1 .6h-.1c-.5.1-1.3-.1-1.7.1h-.2c-.2 0-.6-.1-.6.1h-.2c-.2 0-.5-.1-.6.1H14c-.5.1-.8.1-1.1.1z" style="border-bottom-color:rgb(255, 255, 255);border-left-color:rgb(255, 255, 255);border-right-color:rgb(255, 255, 255);border-top-color:rgb(255, 255, 255);color:rgb(255, 255, 255);font-size:18px;height:auto;outline-color:rgb(255, 255, 255);overflow-x:visible;overflow-y:visible;width:auto;column-rule-color:rgb(255, 255, 255);perspective-origin:0px 0px;-webkit-text-emphasis-color:rgb(255, 255, 255);-webkit-text-fill-color:rgb(255, 255, 255);-webkit-text-stroke-color:rgb(255, 255, 255);transform-origin:0px 0px;fill:rgb(174, 159, 118);fill-rule:evenodd;"/><path fill="#8B9C43" class="svg-logo-tree" fill-rule="evenodd" d="M20.9 2.1c-.1 0-.2 0-.2.1.3.6.7 1.5 1.4 1.4 0 0 .1 0 .1.1-.1.6-.9.5-1 1 1.1 1.2-.3 3.3.4 4.7.9-.4 1.8.1 2.4.1.1 0 .1.1.2.1v.2h-.1c-.2 0-.7.4-.8.7.7.6 2 1.1 1.6 2.6-.8-.1-1.6-1.5-2.3-.6 1.1 1.2 3.2 1.4 5.4 1.6-.5.7-.1 2.5.3 2.3.2 0 .1.5-.1.5.1-.3-.2 0-.4 0-.7-.1-1.4-1-1.8-.1.8 0 1.4 1.3 1.7 1.5.1 0 .1-.2 0-.2.2 0 .2.4.1.5-.2-.1-.6.5-1.2.5-.5 0-.7-.2-1-.4-.2.2-.2.5-.4.7-.7.1-1-.2-1.5-.3-.1.1-.1.4-.1.6-.2.1-.6.1-1 .1.5.8-.3 1.1-.7 1.4.5.3.9-.2 1.1-.4 1 0 1.6.4 1.5 1.4-.3.1-.6.1-.7.4 1 .7 3.4-.1 3.7 1.2-.1.6-.9.5-1.1 1 .6.1.9.6 1.1 1.1-1.3 1.4-1.9 3.6-4.3 3.9-.3-.5-.5-1.1-1-1.4-1.5 2.2 2.4 1.9 4.3 2 0-.1-.2-.1-.2-.2h.2c.1.2.1.5.1.8-.2-.1 0-.5-.1-.6-.2.4 0 1 .2 1.2 1.2 0 2 .4 2.9.7.1 0 0-.1 0-.2.2-.1.2.4.1.4v-.2c-.2.1-.1.6-.2.8-1.5.3-3-.2-4.4 0 .8 1.1 2.7 1.2 3.2 2.6-2.5.7-4.5-.9-6.4-1.5-.2 1.2 0 2.7.2 3.8-.9 0-1.9.1-2.7-.1 0-.5 0-1-.2-1.3-1.7.5-2.1-1-3.5-1 .7-1.1 2.1.4 3.1-.1-.1-.3-.6-.2-.6-.6.3-.8 1.4-.8 1.4-1.9-1.3-.7-1.5 1.1-2.3 1.5-1-.2-2.2-.3-3.3-.5 0 .3.5.1.7.2v.1H14v-.1c-.2 0-.2-.1-.2-.2v-.1c.1 0 .1 0 .1-.1h.1c.1.1.5-.2.5-.4-.2-.3-1.3.6-1.7-.1.1-.4.8-.2 1-.6-.6-.2-1.8-.1-2.3-.6-.1.3.3.1.2.3-.2 0-.5-.4-.2-.5.6.2.9-1 1-1.3v-.1c.1 0 .3 0 .3.1-.3.1 1.8 1.1 2.4 1 .3 0 .6-.4 1-.6.9-.5 2.3-.6 3.5-.9 0-.6-.1-1.2-.5-1.4-.2.1-.4.8-.2.6-.3.4-.8-.1-1-.3.3.1.3.3.6.4-.3-.3-.6-.5-1-.7-.3 0-.1.5-.2.7-.1.1-.3.2-.5.3-.1 0-.2-.1-.2-.2.1 0 .1.1.2.1-.3-.5-1.5-.2-.3-.1-.3 0-.6.1-.7-.1 0-.3 0-.5-.1-.7.2.3.2.3.2.2.3 0 .3.3.3.6.5-1-1-.7-1.4-1 .5-1.1-.9-1.4-1.3-1.6h-.1c0-.2 0-.4.2-.4 0 .1-.1.1-.1.2.8-.9 3.1-.2 3.9-1.2 0-.3 0-.5-.1-.6 1-.3 1.6-1 2.4-1.4-1.2-.3-2.6.9-3.9.6-.3-.1-1-.7-1-1 0-1.2 2.6-.5 3.1-1.4-.3-.2-.9 0-1.2-.2v-.6c-.9-.2-.8.7-1.7.5 0 .1.2.1.2.2-.1 0-.3 0-.3-.1v-.2h.1c.5-.1 0-1.1.1-1.8.3 0 .5-.1.7-.2-.2-.5-.9-.9-.6-1.7 1.2 0 2.4 0 3.2.5.3-.3.5-.7.9-1h.9c.1-.4.2-1 0-1.3-.4-.1-.4.4-.7.4-.8-.1-.9-.7-1.6-.9-.3.4-1 .5-1.4.9.1.2.2-.3.4-.2-.2.1-.2.3-.5.3-.4-.4-1.4-.2-1.9-.6-.1-.2-.1-.6-.1-.9 1.6.2 2.2-.6 3.2-1 .6.5 1.5.7 2.5.5.5-.2.3-1.1.3-1.8-1.4.7-4.4 1.6-5.7.2 0-.7.9-.6 1.3-.6.1 0 .2 0 .2-.1 0 .3-.2.1-.2.2.7.4-.2-1.8 1.3-1.3.3.2.2.8.6 1 .2-.1 0-.6.2-.6.4-.1.4.1.6.2.5-1.2-1.8-.6-1.7-1.5.1-.8 2.1-.5 2.9-.9.5-.2.7-.5.8-1.2-.5-.5-2-.1-2.5-.6 0 .1.1.1.2.2-.1-.1-.3-.1-.2-.4h.1c.3-.2 1.4-.4 2-.6.1-.7-.4-.8-.6-1.2-.1.2.4.3.4.6-.2-.2-.5-.3-.6-.6 0-.3.3-.3.5-.5-.1.2-.4.3-.5.5 1.1-.3 1-2.2 1-3.2 0-.1.1-.2.2-.2.1.1.1.1.1.2z" style="border-bottom-color:rgb(255, 255, 255);border-left-color:rgb(255, 255, 255);border-right-color:rgb(255, 255, 255);border-top-color:rgb(255, 255, 255);color:rgb(255, 255, 255);font-size:18px;height:auto;outline-color:rgb(255, 255, 255);overflow-x:visible;overflow-y:visible;width:auto;column-rule-color:rgb(255, 255, 255);perspective-origin:0px 0px;-webkit-text-emphasis-color:rgb(255, 255, 255);-webkit-text-fill-color:rgb(255, 255, 255);-webkit-text-stroke-color:rgb(255, 255, 255);transform-origin:0px 0px;fill:rgb(139, 156, 67);fill-rule:evenodd;"/><path fill="#FFF" class="svg-logo-oregon-gov" d="M31.5 13.2c0-1.8.7-3.4 2-4.7 1.3-1.3 2.9-2 4.8-2 1.8 0 3.4.7 4.7 2 1.3 1.3 2 2.9 2 4.7 0 1.9-.7 3.4-2 4.7-1.3 1.3-2.9 1.9-4.8 1.9-1.7 0-3.2-.6-4.5-1.7-1.5-1.2-2.2-2.8-2.2-4.9zm1.5 0c0 1.6.5 2.8 1.6 3.8 1 1 2.2 1.5 3.6 1.5 1.5 0 2.7-.5 3.7-1.5s1.5-2.3 1.5-3.8-.5-2.8-1.5-3.8-2.2-1.5-3.7-1.5-2.7.5-3.7 1.5c-1 1.1-1.5 2.3-1.5 3.8zm17.1 2.1l3.1 4.3h-1.9l-2.9-4.1h-.3v4.1h-1.5v-10h1.8c1.3 0 2.3.2 2.9.7.7.6 1 1.3 1 2.2 0 .7-.2 1.3-.6 1.8-.4.6-.9.9-1.6 1zm-1.9-1.1h.5c1.4 0 2.2-.5 2.2-1.6 0-1-.7-1.5-2.1-1.5h-.5v3.1zM60.3 11h-4v2.4h3.9v1.4h-3.9v3.4h4v1.4h-5.5v-10h5.5V11zm7.3 3.2h4.2v.3c0 .8-.1 1.4-.3 2-.2.5-.5 1-.9 1.5-.9 1-2.1 1.6-3.6 1.6-1.4 0-2.6-.5-3.6-1.5s-1.5-2.2-1.5-3.7.5-2.7 1.5-3.7 2.3-1.5 3.7-1.5c.8 0 1.5.2 2.2.5.7.3 1.3.8 1.9 1.6l-1.1 1c-.8-1.1-1.8-1.6-3-1.6-1.1 0-2 .4-2.7 1.1-.7.7-1.1 1.6-1.1 2.7s.4 2 1.2 2.8c.8.7 1.6 1 2.4 1 .7 0 1.4-.3 2-.8.6-.5.9-1.1 1-1.8h-2.5v-1.5zm5.5.2c0-1.4.5-2.6 1.6-3.6 1-1 2.3-1.5 3.7-1.5 1.4 0 2.7.5 3.7 1.5s1.5 2.3 1.5 3.7c0 1.4-.5 2.7-1.5 3.7s-2.3 1.5-3.8 1.5c-1.3 0-2.5-.4-3.5-1.3-1.1-1.1-1.7-2.4-1.7-4zm1.6 0c0 1.1.4 2 1.1 2.7.7.7 1.6 1.1 2.6 1.1 1.1 0 1.9-.4 2.7-1.1.7-.7 1.1-1.6 1.1-2.7s-.4-2-1.1-2.7c-.7-.7-1.6-1.1-2.6-1.1s-1.9.4-2.6 1.1c-.9.7-1.2 1.6-1.2 2.7zm10.4 4.7V9.2l7.3 7V9.8H94v9.8l-7.3-7v6.5h-1.6zm11.1-.4c0-.2.1-.5.3-.6.2-.2.4-.3.6-.3.2 0 .5.1.6.3.2.2.3.4.3.6 0 .3-.1.5-.3.6-.2.2-.4.3-.6.3-.3 0-.5-.1-.6-.3-.2-.1-.3-.3-.3-.6zm8.9-4.5h4.2v.3c0 .8-.1 1.4-.3 2-.2.5-.5 1-.9 1.5-.9 1-2.1 1.6-3.6 1.6-1.4 0-2.6-.5-3.6-1.5s-1.5-2.2-1.5-3.7.5-2.7 1.5-3.7 2.3-1.5 3.7-1.5c.8 0 1.5.2 2.2.5.7.3 1.3.8 1.9 1.6l-1.1 1c-.8-1.1-1.8-1.6-3-1.6-1.1 0-2 .4-2.7 1.1-.7.7-1.1 1.6-1.1 2.7s.4 2 1.2 2.8c.8.7 1.6 1 2.4 1 .7 0 1.4-.3 2-.8.6-.5.9-1.1 1-1.8h-2.5v-1.5zm5.5.2c0-1.4.5-2.6 1.6-3.6 1-1 2.3-1.5 3.7-1.5 1.4 0 2.7.5 3.7 1.5s1.5 2.3 1.5 3.7c0 1.4-.5 2.7-1.5 3.7s-2.3 1.5-3.8 1.5c-1.3 0-2.5-.4-3.5-1.3-1.1-1.1-1.7-2.4-1.7-4zm1.6 0c0 1.1.4 2 1.1 2.7.7.7 1.6 1.1 2.6 1.1 1.1 0 1.9-.4 2.7-1.1.7-.7 1.1-1.6 1.1-2.7s-.4-2-1.1-2.7c-.7-.7-1.6-1.1-2.6-1.1s-1.9.4-2.6 1.1c-.9.7-1.2 1.6-1.2 2.7zm10.9-5l2.8 6.6 2.8-6.6h1.7l-4.5 10.2-4.4-10.2h1.6z" style="border-bottom-color:rgb(255, 255, 255);border-left-color:rgb(255, 255, 255);border-right-color:rgb(255, 255, 255);border-top-color:rgb(255, 255, 255);color:rgb(255, 255, 255);font-size:18px;height:auto;outline-color:rgb(255, 255, 255);overflow-x:visible;overflow-y:visible;width:auto;column-rule-color:rgb(255, 255, 255);perspective-origin:0px 0px;-webkit-text-emphasis-color:rgb(255, 255, 255);-webkit-text-fill-color:rgb(255, 255, 255);-webkit-text-stroke-color:rgb(255, 255, 255);transform-origin:0px 0px;fill:rgb(255, 255, 255);"/></svg>