<?xml version="1.0" encoding="utf-8"?>
<!-- Generator: Adobe Illustrator 24.1.0, SVG Export Plug-In . SVG Version: 6.00 Build 0)  -->
<svg version="1.1" id="Layer_1" xmlns="http://www.w3.org/2000/svg" xmlns:xlink="http://www.w3.org/1999/xlink" x="0px" y="0px"
	 viewBox="0 0 68 65" style="enable-background:new 0 0 68 65;" xml:space="preserve">
<style type="text/css">
	.st0{fill:#5AA7C1;}
	.st1{fill:#F5871F;}
</style>
<desc>Created with Sketch.</desc>
<path class="st0" d="M62.58,39.25L62.58,39.25c2.24-2.99,1.64-7.24-1.35-9.49c-2.99-2.25-7.24-1.65-9.49,1.35
	c-1.81,2.41-1.81,5.73,0,8.14h0c-2.99,0-5.42,2.43-5.42,5.42v4.68c-0.03,1.87,1.46,3.42,3.33,3.46c0.25,0,0.49-0.02,0.73-0.07v10.91
	c0,0.75,0.61,1.36,1.36,1.36h10.84c0.75,0,1.36-0.61,1.36-1.36V52.73c0.24,0.05,0.49,0.07,0.74,0.07c1.86-0.06,3.33-1.59,3.33-3.45
	v-4.68C68,41.68,65.57,39.25,62.58,39.25z M57.16,31.12c2.25,0,4.07,1.82,4.07,4.07s-1.82,4.07-4.07,4.07
	c-2.24,0-4.06-1.82-4.07-4.07C53.09,32.94,54.91,31.12,57.16,31.12z M65.29,49.35c0.01,0.39-0.28,0.71-0.66,0.75
	c-0.37,0.01-0.68-0.29-0.69-0.66c0,0,0-0.01,0-0.01v-4.74h-1.36h-1.36v17.62h-2.71V52.8v-1.36H55.8v1.36v9.49h-2.71V44.67h-1.36
	h-1.36v4.74c0,0.18-0.07,0.36-0.2,0.48c-0.13,0.13-0.31,0.2-0.49,0.19c-0.38-0.03-0.68-0.36-0.66-0.75v-4.68
	c0-1.5,1.21-2.71,2.71-2.71h10.84c1.5,0,2.71,1.21,2.71,2.71V49.35z"/>
<path class="st0" d="M16.26,10.85L16.26,10.85c2.24-2.99,1.64-7.24-1.35-9.49c-2.99-2.25-7.24-1.65-9.49,1.35
	c-1.81,2.41-1.81,5.73,0,8.14h0C2.43,10.85,0,13.28,0,16.27v4.68c-0.03,1.87,1.46,3.42,3.33,3.46c0.25,0,0.49-0.02,0.73-0.07v10.91
	c0,0.75,0.61,1.36,1.36,1.36h10.84c0.75,0,1.36-0.61,1.36-1.36V24.33c0.24,0.05,0.49,0.07,0.74,0.07c1.86-0.06,3.33-1.59,3.33-3.45
	v-4.68C21.68,13.28,19.26,10.85,16.26,10.85z M10.84,2.72c2.25,0,4.07,1.82,4.07,4.07s-1.82,4.07-4.07,4.07
	c-2.24,0-4.06-1.82-4.07-4.07C6.78,4.54,8.6,2.72,10.84,2.72z M18.97,20.94c0.01,0.39-0.28,0.71-0.66,0.75
	c-0.37,0.01-0.68-0.29-0.69-0.66c0,0,0-0.01,0-0.01v-4.74h-1.36h-1.36v17.62H12.2V24.4v-1.36H9.49v1.36v9.49H6.78V16.27H5.42H4.07
	v4.74c0,0.18-0.07,0.36-0.2,0.48c-0.13,0.13-0.31,0.2-0.49,0.19c-0.38-0.03-0.68-0.36-0.66-0.75v-4.68c0-1.5,1.21-2.71,2.71-2.71
	h10.84c1.5,0,2.71,1.21,2.71,2.71V20.94z"/>
<g>
	<path class="st1" d="M23.52,36.44c0.24,0.24,0.62,0.24,0.86,0c0.11-0.11,0.18-0.27,0.18-0.43v-0.61h1.81
		c0.34,0,0.61-0.27,0.61-0.61v-2.43c0-0.34-0.27-0.61-0.61-0.61h-1.81v-0.61c0-0.34-0.27-0.61-0.61-0.61
		c-0.16,0-0.32,0.06-0.43,0.18l-2.43,2.43c-0.24,0.24-0.24,0.62,0,0.86c0,0,0,0,0,0L23.52,36.44z M23.17,32.28
		c0.12,0.31,0.41,0.52,0.74,0.52h2.36v1.59h-2.36c-0.33,0-0.63,0.21-0.74,0.52l-1.31-1.31L23.17,32.28z"/>
</g>
<g>
	<path class="st1" d="M42.09,37.56c-0.24-0.24-0.62-0.24-0.86,0c-0.11,0.11-0.18,0.27-0.18,0.43v0.61h-1.81
		c-0.34,0-0.61,0.27-0.61,0.61v2.43c0,0.34,0.27,0.61,0.61,0.61l1.81,0v0.61c0,0.34,0.27,0.61,0.61,0.61c0.16,0,0.32-0.06,0.43-0.18
		l2.43-2.43c0.24-0.24,0.24-0.62,0-0.86c0,0,0,0,0,0L42.09,37.56z M42.44,41.73c-0.12-0.31-0.41-0.52-0.74-0.52h-2.36l0-1.59h2.36
		c0.33,0,0.63-0.21,0.74-0.52l1.31,1.31L42.44,41.73z"/>
</g>
<g>
	<path class="st1" d="M34.14,29.01V28c0-1.29-0.44-1.89-1.45-1.89c-1.01,0-1.59,0.6-1.59,1.89v4.63c0.88-0.88,1.43-1.32,2.8-1.32
		c1.97,0,3.62,1.15,3.62,4.06v2.35c0,4.16-1.42,6.03-4.82,6.03s-4.82-1.7-4.82-5.43v-9.48c0-3.73,1.42-5.43,4.82-5.43
		c2.68-0.05,4.41,1.86,4.41,4.38v1.21H34.14z M31.1,39.17c0,1.29,0.58,1.89,1.59,1.89c1.01,0,1.59-0.6,1.59-1.89v-3.29
		c0-1.29-0.58-1.89-1.43-1.89c-0.6,0-1.34,0.58-1.75,0.9V39.17z"/>
	<path class="st1" d="M43.43,26.93l-1.89,3.4h-1.45l1.34-3.4H40.2V23.7h3.23V26.93z"/>
</g>
</svg>
