<?xml version="1.0" encoding="UTF-8"?>
<svg width="60px" height="65px" viewBox="0 0 60 65" version="1.1" xmlns="http://www.w3.org/2000/svg" xmlns:xlink="http://www.w3.org/1999/xlink">
    <!-- Generator: Sketch 63.1 (92452) - https://sketch.com -->
    <title>icon-touch</title>
    <desc>Created with Sketch.</desc>
    <g id="Mockups" stroke="none" stroke-width="1" fill="none" fill-rule="evenodd">
        <g id="home-v2" transform="translate(-821.000000, -520.000000)">
            <g id="icon-touch" transform="translate(821.000000, 520.000000)">
                <path d="M17.6871084,61.3572123 C9.03022939,61.3572123 1.98731555,54.3142985 1.98731555,45.6574195 C1.98731555,37.0005404 9.03022939,29.9576266 17.6871084,29.9576266 C26.3439875,29.9576266 33.3869013,37.0005404 33.3869013,45.6574195 C33.3869013,54.3142985 26.3439875,61.3572123 17.6871084,61.3572123 M17.6871084,27.970311 C7.9344236,27.970311 0,35.9047346 0,45.6574195 C0,55.4101043 7.9344236,63.3445279 17.6871084,63.3445279 C27.4397933,63.3445279 35.3742169,55.4101043 35.3742169,45.6574195 C35.3742169,35.9047346 27.4397933,27.970311 17.6871084,27.970311" id="Fill-1" fill="#5BA8C2"></path>
                <path d="M19.2350642,50.5192399 C17.9535764,50.9272937 16.5899143,50.8119537 15.3950316,50.1941664 C14.2002831,49.5765134 13.3177161,48.5305315 12.9096648,47.2490358 C12.5016135,45.9674058 12.6169528,44.6036011 13.2347363,43.4089796 C13.8523855,42.2142239 14.898361,41.3315172 16.1798489,40.9234634 C16.6833673,40.7631421 17.1995072,40.6836529 17.7132302,40.6836529 C18.5069095,40.6836529 19.2945465,40.873514 20.0198816,41.2485368 C21.21463,41.8661898 22.097197,42.9121718 22.5052483,44.1938018 C22.9134339,45.4752975 22.7979603,46.8391022 22.1803111,48.0338579 C21.5625276,49.2284794 20.5165521,50.1111861 19.2350642,50.5192399 M26.6574624,41.7444048 L24.0210401,42.5838758 C23.5007377,41.5314487 22.7296161,40.6338378 21.766889,39.9587162 L23.0522707,37.4723943 C23.3077895,36.9784062 23.1143042,36.3708236 22.6201848,36.1154375 C22.1261997,35.8597829 21.5186208,36.0535379 21.2632363,36.5475261 L19.9722151,39.0445898 C18.8697113,38.6679557 17.6998031,38.5734279 16.5501699,38.767183 L15.6932487,36.0759614 C15.5246036,35.5459883 14.9583804,35.2532745 14.428142,35.4219206 C13.8981721,35.590701 13.6053258,36.157062 13.7741052,36.6870351 L14.6310263,39.3782567 C13.5810227,39.8848664 12.6810003,40.6384031 11.9991693,41.5831436 L9.5021209,40.2921146 C9.00800152,40.0365942 8.40055693,40.2303493 8.14503813,40.7242031 C7.88965361,41.2183255 8.08313894,41.8259081 8.57725832,42.0812942 L11.063565,43.3665495 C10.6684038,44.4741625 10.5581668,45.6521342 10.7422531,46.8117106 L8.10569656,47.6511816 C7.57572668,47.819962 7.28288038,48.3863229 7.45165975,48.9162961 C7.58794539,49.344625 7.98418079,49.6181379 8.41089584,49.6181379 C8.51213661,49.6181379 8.6151229,49.6026966 8.71676648,49.5703369 L11.3361363,48.7363711 C11.8427429,49.8125643 12.6062111,50.7346128 13.5692068,51.4296067 L12.3218239,53.8423474 C12.0664393,54.3363355 12.2597904,54.9439181 12.7539098,55.1993042 C12.9017428,55.2758394 13.0597804,55.312093 13.2155354,55.312093 C13.5800828,55.312093 13.9320085,55.1135041 14.1108583,54.7673499 L15.3531388,52.3646797 C16.1117732,52.6352385 16.9030356,52.7740762 17.6995345,52.7740762 C18.0879822,52.7740762 18.4773697,52.7405081 18.864609,52.6752517 L19.6808458,55.2387802 C19.8172658,55.6672434 20.2135012,55.940622 20.6402162,55.940622 C20.741457,55.940622 20.844309,55.9251807 20.9459526,55.8929553 C21.4759225,55.7241749 21.7687688,55.1576797 21.5999894,54.6278409 L20.7838868,52.0644466 C21.8626246,51.5440068 22.781982,50.7620044 23.4701238,49.780876 L25.8719737,51.0226271 C26.0198067,51.0990281 26.1779786,51.1352816 26.3335993,51.1352816 C26.6982809,51.1352816 27.0500724,50.9366928 27.2290564,50.5905385 C27.484441,50.0965504 27.2910899,49.4889678 26.7969705,49.2335817 L24.3843789,47.9861912 C24.7681271,46.8623313 24.8579548,45.6686497 24.6490282,44.4976602 L27.2685323,43.6635601 C27.7983679,43.4947797 28.0913485,42.9284187 27.9225691,42.3984456 C27.7537897,41.8684725 27.187298,41.5758929 26.6574624,41.7444048" id="Fill-3" fill="#FF8800"></path>
                <path d="M15.8799776,44.3844721 C16.3127602,44.2466969 16.5518499,43.7841565 16.4142121,43.351224 C16.2763112,42.9184231 15.8137904,42.6793233 15.3810077,42.8170984 C14.9482251,42.9548736 14.7090038,43.417414 14.8467731,43.8502149 C14.9846741,44.2830159 15.4471949,44.5222473 15.8799776,44.3844721" id="Fill-5" fill="#5BA8C2"></path>
                <path d="M20.5274297,42.5285637 C20.3896556,42.0957659 19.9271188,41.8566678 19.4941896,41.994442 C19.061392,42.1322162 18.822294,42.5947532 18.9600682,43.0275511 C19.0978423,43.4604805 19.5603791,43.6995786 19.9933083,43.5618044 C20.4261059,43.4240302 20.6652039,42.9613616 20.5274297,42.5285637" id="Fill-7" fill="#5BA8C2"></path>
                <path d="M17.8488775,44.4624106 C17.4160797,44.6001847 17.1769816,45.0627215 17.3147558,45.4956507 C17.45253,45.9284483 17.915067,46.1675463 18.3478649,46.0297721 C18.7807943,45.891998 19.0198924,45.4293296 18.8821182,44.996532 C18.7442125,44.5637344 18.2816754,44.3246364 17.8488775,44.4624106" id="Fill-9" fill="#5BA8C2"></path>
                <path d="M20.3168461,46.9303792 C19.8840483,47.0681533 19.6449502,47.5306901 19.7827244,47.9636193 C19.9204986,48.3964169 20.3830357,48.6355149 20.8158335,48.4977408 C21.2487629,48.3599666 21.4878611,47.8974298 21.3500869,47.4645006 C21.2123127,47.031703 20.749644,46.7926051 20.3168461,46.9303792" id="Fill-11" fill="#5BA8C2"></path>
                <path d="M16.2036317,46.9303792 C15.7708361,47.0681533 15.5317392,47.5306901 15.6693811,47.9636193 C15.8072862,48.3964169 16.2698209,48.6355149 16.7026165,48.4977408 C17.1354122,48.3599666 17.3745091,47.8974298 17.2368672,47.4645006 C17.0989621,47.031703 16.6364274,46.7926051 16.2036317,46.9303792" id="Fill-13" fill="#5BA8C2"></path>
                <path d="M33.2540859,59.0009284 C33.0476257,58.515055 32.4671223,58.281041 31.9578716,58.4778457 C31.4486209,58.6747769 31.2030182,59.2283612 31.4096111,59.7142346 L33.3999083,64.3970469 C33.5567437,64.7659766 33.9291947,64.9898656 34.3224775,64.9898656 C34.4469374,64.9898656 34.5735203,64.9674641 34.6959899,64.9201297 C35.2053733,64.7230719 35.4508433,64.1696141 35.2443832,63.6837407 L33.2540859,59.0009284 Z" id="Fill-15" fill="#5BA8C2"></path>
                <path d="M59.9115758,63.5951346 L52.4723864,46.8782153 C52.1423177,46.116434 52.1672112,45.254394 52.5353444,44.5233904 L55.9108432,38.0122538 C56.3606375,37.1191718 56.6281432,36.1607038 56.7059847,35.1630041 L57.4144601,26.0253269 C57.4741253,25.2598469 57.4184114,24.4919893 57.2485038,23.741568 L54.9667361,13.7409261 C54.8484593,13.2229888 54.3436097,12.8909065 53.8230864,12.9878629 L53.2183995,13.1006705 C51.5972961,13.3134726 50.168623,14.1546419 49.1929052,15.4717429 C48.210997,16.7970337 47.8213948,18.4234969 48.0973301,20.0601313 L49.1653775,26.0685213 L47.6290962,28.9924037 L35.6303229,2.72343096 C35.1603768,1.64581487 34.3010919,0.815080914 33.2095998,0.383532523 C32.1149467,-0.04894052 30.9178221,-0.0282018921 29.838711,0.442049798 C28.9630938,0.82366697 28.2504036,1.46418676 27.7821698,2.27867325 C26.5590981,0.829214883 24.4866198,0.283670085 22.6626809,1.07860679 C20.8390054,1.8735435 19.8223254,3.7652498 20.0445224,5.65101192 C19.1313676,5.43873819 18.1783042,5.52433457 17.302687,5.90595174 C16.2235758,6.37633552 15.3916869,7.23996068 14.9603322,8.33765493 C14.5288458,9.43561337 14.5495244,10.6362082 15.0185486,11.7184476 C15.0224999,11.7272978 15.0264513,11.736148 15.0305343,11.7448662 L15.0510813,11.7889853 C14.2061529,11.6378707 13.3354091,11.7381294 12.5302576,12.089101 C10.302755,13.0599858 9.27804063,15.667505 10.2461191,17.9015968 C10.2488851,17.9079373 10.251651,17.9142778 10.2545487,17.9204861 L13.461852,24.916801 C13.6897127,25.4139997 14.2763551,25.6318213 14.7719849,25.403168 C15.2677465,25.1746468 15.4848068,24.5863038 15.2569462,24.0892372 L12.0543844,17.1030936 C11.7993912,16.5085422 11.7892494,15.8499257 12.0259348,15.2474487 C12.2639372,14.6419336 12.7226879,14.1656056 13.3177598,13.9061747 C13.9129634,13.6468758 14.5731008,13.6353837 15.1768657,13.874076 C15.7804988,14.1126363 16.25545,14.5727168 16.5141311,15.1696458 C16.5190044,15.1808738 16.5240095,15.1921017 16.5294096,15.2031975 L21.3713827,25.3277428 C21.3991738,25.3858638 21.4334187,25.438569 21.4704296,25.4885002 L21.7630923,26.1133009 C21.9951677,26.6083861 22.583654,26.8213203 23.0773082,26.5885721 C23.5710941,26.355824 23.7832811,25.7657638 23.5512057,25.2705465 L16.8252333,10.9163778 C16.571689,10.3227511 16.562074,9.66545549 16.7983642,9.06429946 C17.0363667,8.45878437 17.4951173,7.98245639 18.0901893,7.7230254 C18.6853929,7.46372651 19.3455302,7.4522344 19.9492951,7.69092676 C20.5529283,7.92948703 21.0278794,8.38956755 21.2865606,8.98649659 C21.2899851,8.99468636 21.293673,9.00287614 21.2974926,9.01093382 L30.3284138,28.3967956 C30.3406629,28.4232142 30.3560732,28.4471231 30.370298,28.4719566 C30.3801764,28.4889966 30.3884742,28.5073575 30.3991428,28.523605 C30.4161336,28.5493632 30.4356268,28.5723474 30.4545933,28.5961242 C30.4653936,28.6095977 30.4747451,28.62426 30.4860723,28.637073 C30.5070144,28.6607177 30.530459,28.6814563 30.5533768,28.7027233 C30.564704,28.7132908 30.5749775,28.7253113 30.5866998,28.7352183 C30.6117249,28.7563532 30.6387258,28.7744499 30.6655949,28.7928109 C30.6769221,28.8006044 30.6873273,28.8098509 30.6990496,28.817116 C30.7267089,28.8345523 30.7560806,28.8486863 30.7853205,28.8632165 C30.7973062,28.8691607 30.8086334,28.8766901 30.8208826,28.882238 C30.8510445,28.8957115 30.8825235,28.9058826 30.9138708,28.9161859 C30.9262517,28.9204129 30.937974,28.9259608 30.9504866,28.9295273 C30.9869706,28.9400948 31.0243766,28.9472278 31.0617827,28.9535683 C31.069817,28.9548892 31.0774563,28.957399 31.0854907,28.9585878 C31.1311945,28.9650604 31.1774252,28.9683627 31.224051,28.9683627 C31.2589546,28.9683627 31.2939898,28.9665134 31.329025,28.9626827 C31.3404839,28.9614939 31.3518111,28.958852 31.36327,28.9571348 C31.3868463,28.9537004 31.4104226,28.9507943 31.433999,28.9455106 C31.4461164,28.9428687 31.4581021,28.9386417 31.4702196,28.9354715 C31.4928739,28.9296594 31.51566,28.9241115 31.5381826,28.9165822 C31.5526709,28.9116947 31.5668957,28.9048259 31.581384,28.899278 C31.6006138,28.8917487 31.6201071,28.8850119 31.6392053,28.8761617 C31.6396004,28.8758975 31.6398638,28.8757654 31.6402589,28.8755012 C31.6406541,28.8753691 31.6410492,28.875237 31.6415761,28.8749728 C31.6577766,28.8674435 31.6729234,28.8584612 31.6884653,28.8500072 C31.7021633,28.8427421 31.7165198,28.8360054 31.729691,28.8280798 C31.7448378,28.8189653 31.7590626,28.8086621 31.7735508,28.7988872 C31.7864586,28.7903011 31.7998931,28.7822434 31.812274,28.7729969 C31.8262354,28.7626936 31.8388797,28.7512015 31.8521825,28.7402378 C31.8640366,28.7304629 31.8764174,28.7210843 31.8877446,28.710781 C31.9003889,28.699421 31.9117161,28.6868722 31.9235701,28.6749838 C31.9343704,28.66402 31.9458293,28.6535847 31.9561028,28.6422247 C31.9671665,28.62994 31.9770449,28.6167307 31.9874501,28.6039177 C31.9971967,28.5918972 32.0076019,28.580273 32.0168217,28.5678562 C32.0264367,28.554779 32.0348662,28.5409092 32.0436908,28.5275678 C32.0523838,28.5144906 32.0617353,28.5018096 32.0697697,28.4883361 C32.0780675,28.4745984 32.0849165,28.4600682 32.0925558,28.4459342 C32.0999316,28.4320644 32.107966,28.4185909 32.1146833,28.404457 C32.1212688,28.3907193 32.1265373,28.3763211 32.1324643,28.3621871 C32.1387865,28.3471285 32.1457672,28.3320699 32.1514307,28.316615 C32.1563041,28.3031415 32.159992,28.2892717 32.1643385,28.275534 C32.1694752,28.2590224 32.1752705,28.2426428 32.179617,28.225867 C32.1833049,28.2118651 32.185544,28.1973349 32.1885733,28.1832009 C32.1921296,28.1664251 32.1963443,28.1497813 32.1991103,28.1327413 C32.2013493,28.118079 32.2022713,28.1032845 32.2039836,28.0886222 C32.2058275,28.0715822 32.2084618,28.0548063 32.2095155,28.0377663 C32.2104374,28.023104 32.2099106,28.0083095 32.210174,27.9935151 C32.2104374,27.9762109 32.2113594,27.9590388 32.2108326,27.9416025 C32.2103057,27.9265439 32.2081983,27.9114852 32.2070129,27.8964266 C32.2055641,27.8793866 32.2049056,27.8622145 32.2026665,27.8451745 C32.2004274,27.828927 32.1966077,27.8128116 32.1937101,27.7966963 C32.1906807,27.780713 32.1884416,27.7647297 32.184622,27.7488786 C32.180539,27.7315743 32.1748754,27.7144022 32.1697386,27.697098 C32.1653921,27.6825678 32.1618359,27.6679054 32.1568309,27.6535073 C32.1506405,27.6355426 32.1427378,27.6181063 32.1354937,27.6004058 C32.1300935,27.5871965 32.1256153,27.5735909 32.1194249,27.5605137 L32.1185029,27.5584002 C32.1183712,27.5582681 32.1183712,27.558136 32.1183712,27.558136 L32.1162638,27.5535128 L22.1860174,6.09114636 C21.6596988,4.86135894 22.225004,3.42973315 23.4501831,2.89568046 C24.6789184,2.36043893 26.1124648,2.92711863 26.6464227,4.15915164 C26.6497155,4.16654886 26.6530083,4.17394608 26.6564328,4.1812112 L27.3541078,5.68905475 C27.4079778,5.88032566 27.4742286,6.0692189 27.5544408,6.25454562 C27.557997,6.26273539 27.5616849,6.27092517 27.5655046,6.27898285 L36.5964258,25.6648446 C36.6035382,25.6801674 36.6120994,25.6944335 36.6198704,25.7092279 C36.6276414,25.7238902 36.6347538,25.739081 36.6431833,25.7532149 C36.6526665,25.7691982 36.6633351,25.7839926 36.6736086,25.7991833 C36.6817747,25.8113359 36.6892823,25.824281 36.6979752,25.8359052 C36.7094341,25.8513601 36.7220784,25.8656262 36.7341958,25.8802886 C36.7428888,25.8907239 36.7509232,25.9016876 36.7600113,25.9117267 C36.7726556,25.9257286 36.7863535,25.9382775 36.7996564,25.9514868 C36.8092713,25.9609975 36.8183594,25.9710366 36.8285012,25.980151 C36.841804,25.9923036 36.8560289,26.0031352 36.8699903,26.0143631 C36.8809223,26.0232134 36.8913275,26.0327241 36.9026547,26.041178 C36.9162209,26.0512171 36.9305775,26.0599353 36.9445389,26.0693139 C36.9570515,26.0776357 36.9691689,26.086486 36.9819449,26.0942795 C36.9948526,26.102073 37.0084189,26.1085456 37.0217217,26.1158107 C37.0364734,26.1237363 37.05083,26.1323223 37.0657133,26.1394554 C37.0774356,26.1450033 37.0896848,26.1494944 37.1015388,26.1546461 C37.118793,26.1620433 37.1357838,26.1698368 37.1533014,26.1763093 C37.1637066,26.180008 37.1743752,26.1826498 37.1849121,26.1862163 C37.2045371,26.1925568 37.2240304,26.1992936 37.2439188,26.2045773 C37.2526118,26.2068229 37.2615681,26.2080117 37.2702611,26.2099931 C37.2923886,26.2152768 37.3145161,26.2204285 37.3370387,26.223995 C37.3448097,26.2251838 37.3525807,26.2255801 37.3602199,26.2266368 C37.3840597,26.2298071 37.4078995,26.2329773 37.4318709,26.2344303 C37.4392468,26.2348266 37.4466226,26.2345624 37.4541301,26.2348266 C37.4786285,26.2357513 37.5029951,26.2365438 37.5276251,26.2356192 C37.5356595,26.235355 37.5435622,26.2341662 37.5514648,26.2336378 C37.575568,26.2321848 37.5998029,26.2307317 37.6237744,26.2274294 C37.6336527,26.2261085 37.6433994,26.2235987 37.653146,26.2220136 C37.6754052,26.218315 37.6976644,26.2147485 37.719792,26.2094647 C37.7324362,26.2064266 37.7450805,26.2019354 37.7577248,26.1983689 C37.7766913,26.1929531 37.7957894,26.1881977 37.8146241,26.1815931 C37.8309563,26.1759131 37.8468934,26.1686479 37.8630939,26.1620433 C37.8777139,26.155967 37.8925973,26.1509475 37.9072172,26.1440786 C37.9076124,26.1439465 37.9077441,26.1438144 37.9081392,26.1436823 C37.908666,26.1434181 37.9090612,26.1432861 37.909588,26.1430219 C37.9261837,26.1352284 37.9417256,26.1259818 37.9577944,26.1173958 C37.9709655,26.1102628 37.9847952,26.1037902 37.9977029,26.0962609 C38.0133766,26.0867502 38.0279965,26.0761827 38.0430116,26.0660116 C38.0553925,26.0576897 38.0683002,26.0498962 38.080286,26.0410459 C38.0950376,26.0300822 38.1086039,26.0179296 38.122697,26.0061733 C38.1336291,25.9970589 38.1452197,25.9884729 38.1557566,25.9788301 C38.1694545,25.9664133 38.1818354,25.9530719 38.1946114,25.9398626 C38.2043581,25.9299556 38.2147633,25.920577 38.223983,25.9102737 C38.2361005,25.8969323 38.2469008,25.8826662 38.2580963,25.8686644 C38.266921,25.8577006 38.2764042,25.8472653 38.284702,25.8359052 C38.2949755,25.8220355 38.3040636,25.807241 38.3135468,25.7928429 C38.3215812,25.7806903 38.3302741,25.768934 38.3377817,25.7563852 C38.3462112,25.7422512 38.3534553,25.7274568 38.3610946,25.7127944 C38.3683387,25.6993209 38.3761097,25.6862437 38.3826952,25.672506 C38.3894125,25.6582399 38.3949444,25.6435776 38.4010031,25.6290473 C38.4070618,25.6142529 38.4139108,25.5998547 38.4194427,25.5847961 C38.4247112,25.5702659 38.4286625,25.5553393 38.4331407,25.540677 C38.438014,25.52509 38.4435459,25.5097672 38.4476289,25.4940481 C38.4514486,25.4788574 38.4540828,25.4632704 38.4572439,25.4478155 C38.4605367,25.4322285 38.464488,25.4167736 38.4671222,25.4009224 C38.469493,25.3855996 38.470415,25.3701447 38.4721273,25.3548219 C38.4739712,25.3384424 38.4764737,25.3221949 38.4775274,25.3058153 C38.4784494,25.2906246 38.4779226,25.2754339 38.478186,25.2602432 C38.4784494,25.2433353 38.4793714,25.2266915 38.4787128,25.2097836 C38.478186,25.1936682 38.4760786,25.177685 38.4747615,25.1615696 C38.4733127,25.1454542 38.4727858,25.1293389 38.4705467,25.1132235 C38.4683076,25.096844 38.4646197,25.0804644 38.4615903,25.0640848 C38.458561,25.0483658 38.4563219,25.0325146 38.452634,25.0167955 C38.4486826,24.9997555 38.4428873,24.9829796 38.4378823,24.9660717 C38.4335358,24.9511452 38.4299796,24.9362187 38.4248429,24.9214242 C38.4189159,24.9042521 38.4112766,24.8872121 38.4041642,24.8701721 C38.3986323,24.8563023 38.393759,24.8423004 38.3874368,24.8285627 L38.3863832,24.826185 C38.3863832,24.826185 38.3863832,24.826185 38.3863832,24.826053 L38.3853295,24.8238074 L29.2232238,5.02158796 C29.1179864,4.5506758 29.1539436,4.0592892 29.3343882,3.60026543 C29.5722589,2.99488243 30.0310095,2.51855445 30.6262132,2.25925556 C31.2211534,1.99982457 31.8815542,1.98833246 32.4851873,2.22689273 C33.0889522,2.46558509 33.5637717,2.9257977 33.8224528,3.52259465 C33.8249553,3.52853884 33.8275895,3.53435094 33.8302238,3.54029513 L46.1194206,30.4449002 C46.1627536,30.5398752 46.2199164,30.6241506 46.2864306,30.6977265 C41.2674375,32.8359187 39.3622326,36.634522 38.6557329,39.5272304 C37.8551912,42.804594 38.3925736,45.5834381 38.4158865,45.7000764 C38.5227044,46.2358463 39.0417789,46.5827229 39.5761319,46.4767842 C40.1106166,46.3707134 40.4583346,45.8497379 40.353624,45.3134396 C40.3487507,45.2886061 39.8756435,42.7909884 40.5913631,39.9309071 C41.5261186,36.1954443 43.9795061,33.5937372 47.8834309,32.1980408 C48.1166917,32.1145579 48.3101757,31.9464033 48.4255548,31.7267323 L51.0713726,26.6913406 C51.1738441,26.496239 51.2084842,26.2726053 51.1698927,26.0555762 L50.0438923,19.7210482 C49.8600232,18.630619 50.1210752,17.5412466 50.77871,16.6534484 C51.3868213,15.8326215 52.2575652,15.2877371 53.2502737,15.1010895 L55.3222251,24.1819666 C55.447746,24.7360975 55.4889717,25.3042302 55.4447167,25.8711741 L54.7362413,35.0089834 C54.6786834,35.7476485 54.4805895,36.4573851 54.1526282,37.1084723 L50.7771295,43.619741 C50.1379342,44.888628 50.0955232,46.3641087 50.6643845,47.6768507 L58.1075253,64.4026201 C58.2713742,64.7711601 58.6321316,64.9899064 59.0101432,64.9899064 C59.1446205,64.9899064 59.2813369,64.9621668 59.4121263,64.9035174 C59.9103904,64.6805441 60.1339045,64.094843 59.9115758,63.5951346" id="Fill-18" fill="#5BA8C2"></path>
            </g>
        </g>
    </g>
</svg>