<?xml version="1.0" encoding="utf-8"?>
<!-- Generator: Adobe Illustrator 24.1.0, SVG Export Plug-In . SVG Version: 6.00 Build 0)  -->
<svg version="1.1" id="Layer_1" xmlns="http://www.w3.org/2000/svg" xmlns:xlink="http://www.w3.org/1999/xlink" x="0px" y="0px"
	 viewBox="0 0 68 65" style="enable-background:new 0 0 68 65;" xml:space="preserve">
<style type="text/css">
	.st0{fill:#F5871F;}
	.st1{fill:#7FD1ED;}
	.st2{fill:#4293D0;}
	.st3{fill:#5AA7C1;}
</style>
<rect x="54.19" y="32.38" class="st0" width="11.28" height="16.14"/>
<path class="st1" d="M40.43,42.26c-0.48,0-0.91-0.3-1.07-0.75c-0.42-1.18-1.71-1.79-2.89-1.38c-0.28,0.1-0.53,0.25-0.75,0.45
	c-0.46,0.42-1.18,0.38-1.6-0.09c-0.42-0.46-0.38-1.18,0.09-1.6c1.86-1.66,4.72-1.51,6.38,0.36c0.39,0.44,0.7,0.95,0.89,1.51
	c0.21,0.59-0.1,1.23-0.69,1.44C40.68,42.24,40.56,42.26,40.43,42.26L40.43,42.26z"/>
<path class="st0" d="M54.18,29.31h-1.13c-0.62,0-1.13-0.51-1.13-1.13c0-0.62,0.51-1.13,1.13-1.13h1.13c0.62,0,1.13,0.51,1.13,1.13
	C55.31,28.8,54.8,29.31,54.18,29.31z"/>
<path class="st2" d="M62.09,29.31H58.7c-0.62,0-1.13-0.51-1.13-1.13c0-0.62,0.51-1.13,1.13-1.13h3.39c0.62,0,1.13,0.51,1.13,1.13
	C63.22,28.8,62.71,29.31,62.09,29.31z"/>
<path class="st2" d="M66.61,54.17H56.44c-0.62,0-1.13-0.51-1.13-1.13c0-0.62,0.51-1.13,1.13-1.13h10.17c0.62,0,1.13,0.51,1.13,1.13
	C67.74,53.66,67.23,54.17,66.61,54.17z"/>
<path class="st2" d="M51.92,54.17h-3.39c-0.62,0-1.13-0.51-1.13-1.13c0-0.62,0.51-1.13,1.13-1.13h3.39c0.62,0,1.13,0.51,1.13,1.13
	C53.05,53.66,52.54,54.17,51.92,54.17z"/>
<path class="st3" d="M64.35,22.67v-3.53c0-0.62-0.51-1.13-1.13-1.13h-2.26v-6.78h1.13c0.62,0,1.13-0.51,1.13-1.13V4.17
	c0-1.72-1.39-3.1-3.11-3.11h-5.08c-1.39,0-2.61,0.92-2.99,2.26h-9.16c-0.39,0-0.75,0.2-0.96,0.53l-5.87,6.63
	c-0.41,0.47-0.37,1.18,0.1,1.59c0.03,0.03,0.07,0.06,0.11,0.09l3.72,2.56c0.46,0.32,1.08,0.25,1.46-0.16l4.18-4.46h6.29
	c0,0.62,0.51,1.13,1.13,1.13h1.13v6.78h-2.26c-0.62,0-1.13,0.51-1.13,1.13v3.53c-1.99,0.52-3.39,2.32-3.39,4.38v27.11
	c-2.5,0-4.52,2.02-4.52,4.52s2.02,4.52,4.52,4.52c2.5,0,4.52-2.02,4.52-4.52h14.69c0.62,0,1.13-0.51,1.13-1.13v-30.5
	C67.73,24.99,66.34,23.19,64.35,22.67L64.35,22.67z M65.48,47.39H55.31V33.83h10.17V47.39z M54.18,4.17c0-0.47,0.38-0.85,0.85-0.85
	h5.08c0.47,0,0.85,0.38,0.85,0.85v4.8h-6.78V4.17z M45.14,7.84c-0.31,0-0.61,0.13-0.82,0.36l-3.86,4.11l-1.87-1.29l4.82-5.44h8.51
	v2.26H45.14z M56.44,11.23h2.26v6.78h-2.26V11.23z M53.05,20.27h9.04v2.26h-9.04V20.27z M47.4,60.94c-1.25,0-2.26-1.01-2.26-2.26
	s1.01-2.26,2.26-2.26c1.25,0,2.26,1.01,2.26,2.26C49.66,59.93,48.65,60.94,47.4,60.94z M51.31,56.42c-0.4-0.68-0.97-1.25-1.65-1.65
	v-0.61h2.26c0.62,0,1.13-0.51,1.13-1.13c0-0.62-0.51-1.13-1.13-1.13h-2.26V27.05c0-1.25,1.01-2.26,2.26-2.26h11.3
	c1.25,0,2.26,1.01,2.26,2.26v4.52h-11.3c-0.62,0-1.13,0.51-1.13,1.13v15.82c0,0.62,0.51,1.13,1.13,1.13h11.3v2.26h-9.04
	c-0.62,0-1.13,0.51-1.13,1.13c0,0.62,0.51,1.13,1.13,1.13h9.04v2.26H51.31z"/>
<path class="st3" d="M35.21,24.8c1.67,1.12,3.94,0.67,5.05-1.01c0.78-1.17,0.82-2.69,0.09-3.9L38.2,16.3
	c-0.32-0.54-1.01-0.71-1.55-0.39c-0.16,0.1-0.29,0.23-0.39,0.39l-2.16,3.59C33.11,21.56,33.59,23.72,35.21,24.8z M36.05,21.06
	l1.19-1.98l1.19,1.98c0.39,0.66,0.18,1.51-0.48,1.9c-0.66,0.39-1.51,0.18-1.9-0.48C35.78,22.04,35.78,21.49,36.05,21.06L36.05,21.06
	z"/>
<path class="st3" d="M28.62,31.57c1.87,0,3.39-1.52,3.39-3.39c0-1.87-1.52-3.39-3.39-3.39c-1.87,0-3.39,1.52-3.39,3.39
	C25.24,30.05,26.75,31.57,28.62,31.57z M28.62,27.05c0.62,0,1.13,0.51,1.13,1.13c0,0.62-0.51,1.13-1.13,1.13
	c-0.62,0-1.13-0.51-1.13-1.13C27.49,27.56,28,27.05,28.62,27.05z"/>
<path class="st3" d="M18.03,27.05c2.5,0,4.52-2.02,4.52-4.52s-2.02-4.52-4.52-4.52s-4.52,2.02-4.52,4.52
	C13.51,25.03,15.53,27.05,18.03,27.05z M18.03,20.27c1.25,0,2.26,1.01,2.26,2.26s-1.01,2.26-2.26,2.26c-1.25,0-2.26-1.01-2.26-2.26
	C15.77,21.28,16.78,20.27,18.03,20.27z"/>
<g>
	<path class="st3" d="M43.52,33.46c-2.65-3.47-7.62-4.13-11.09-1.48c-0.53,0.4-1,0.87-1.41,1.39c-0.86-0.5-1.83-0.76-2.82-0.76
		c-0.06,0-0.11,0.01-0.17,0.01c-0.02-0.04-0.04-0.08-0.06-0.12c-0.84-1.67-2.75-2.51-4.55-2c-3.39,0.97-6.48,2.8-8.94,5.32
		L1.47,31.03c-0.59-0.22-1.24,0.08-1.45,0.67c-0.05,0.13-0.07,0.26-0.07,0.39V51.3c0,0.49,0.31,0.92,0.77,1.07l6.53,2.17l2.59,2.59
		c0.94,0.94,2.12,1.59,3.41,1.89c0.08,0.02,0.17,0.03,0.25,0.03v2.41c0,1.87,1.52,3.39,3.39,3.39c1.16,0,2.24-0.59,2.86-1.57
		c1.57,0.89,3.55,0.39,4.52-1.13c1.57,0.89,3.55,0.39,4.52-1.13c1.63,0.92,3.69,0.35,4.61-1.28c0.1-0.17,0.18-0.35,0.25-0.54h1.32
		c1.87,0,3.39-1.52,3.39-3.39c0-0.43-0.08-0.85-0.24-1.25c1.81-0.49,2.87-2.36,2.38-4.16c-0.03-0.12-0.07-0.24-0.12-0.36
		c1.8-0.49,2.87-2.35,2.38-4.15c-0.14-0.5-0.38-0.96-0.72-1.35C45.51,41.89,46.17,36.93,43.52,33.46z M2.21,33.71l10.66,3.93
		l-0.93,1.12l-9.73-1.95V33.71z M18.03,61.46c0,0.62-0.51,1.13-1.13,1.13c-0.62,0-1.13-0.51-1.13-1.13v-5.65
		c0-0.62,0.51-1.13,1.13-1.13c0.62,0,1.13,0.51,1.13,1.13V61.46z M22.55,60.33c0,0.62-0.51,1.13-1.13,1.13
		c-0.62,0-1.13-0.51-1.13-1.13v-5.65c0-0.62,0.51-1.13,1.13-1.13c0.62,0,1.13,0.51,1.13,1.13V60.33z M27.07,59.2
		c0,0.62-0.51,1.13-1.13,1.13c-0.62,0-1.13-0.51-1.13-1.13v-5.65c0-0.62,0.51-1.13,1.13-1.13c0.62,0,1.13,0.51,1.13,1.13V59.2z
		 M31.58,58.07c0,0.62-0.51,1.13-1.13,1.13c-0.62,0-1.13-0.51-1.13-1.13v-4.52c0-0.62,0.51-1.13,1.13-1.13s1.13,0.51,1.13,1.13
		V58.07z M34.97,56.94h-1.13v-2.26h1.13c0.62,0,1.13,0.51,1.13,1.13S35.6,56.94,34.97,56.94z M39.49,47.91H29.32
		c-0.62,0-1.13,0.51-1.13,1.13c0,0.62,0.51,1.13,1.13,1.13h7.91c0.62,0,1.13,0.51,1.13,1.13c0,0.62-0.51,1.13-1.13,1.13h-3.58
		c-0.62-1.76-2.56-2.69-4.32-2.07c-0.42,0.15-0.8,0.38-1.13,0.67c-1.39-1.25-3.53-1.13-4.78,0.26c-0.12,0.14-0.24,0.29-0.34,0.44
		c-1.57-0.89-3.55-0.39-4.52,1.13c-1.63-0.92-3.69-0.35-4.61,1.28c-0.29,0.51-0.44,1.08-0.44,1.67v0.94
		c-0.78-0.22-1.49-0.64-2.07-1.22l-2.78-2.78c-0.12-0.12-0.28-0.22-0.44-0.27l-6.01-2V39.12l9.95,1.99
		c0.41,0.08,0.82-0.07,1.09-0.38l1.85-2.22c2.33-2.8,5.45-4.83,8.95-5.83c0.87-0.25,1.77,0.25,2.02,1.12
		c0.22,0.75-0.14,1.56-0.84,1.91c-1.55,0.78-2.8,2.03-3.58,3.58l-0.11,0.21c-0.28,0.56-0.05,1.24,0.5,1.52
		c0.16,0.08,0.33,0.12,0.5,0.12h14.69c0.62,0,1.13,0.51,1.13,1.13c0,0.62-0.51,1.13-1.13,1.13h-7.91c-0.62,0-1.13,0.51-1.13,1.13
		c0,0.62,0.51,1.13,1.13,1.13h10.17c0.62,0,1.13,0.51,1.13,1.13C40.62,47.4,40.12,47.91,39.49,47.91z M42.18,40.99
		c-0.4,0.72-0.94,1.34-1.6,1.82c0.32-1.84-0.91-3.58-2.75-3.9c-0.19-0.03-0.39-0.05-0.59-0.05H24.67c0.45-0.47,0.98-0.85,1.56-1.14
		c0.92-0.46,1.63-1.27,1.95-2.25c0.06-0.19,0.11-0.39,0.15-0.6c0.82,0.03,1.6,0.36,2.19,0.92c0.45,0.43,1.17,0.41,1.6-0.04
		c0.07-0.07,0.12-0.15,0.17-0.23c1.51-2.73,4.95-3.72,7.68-2.21C42.7,34.83,43.69,38.26,42.18,40.99z"/>
	<path class="st3" d="M35.73,34c-0.56,0.2-1.07,0.5-1.51,0.89c-0.46,0.42-0.5,1.13-0.09,1.6c0.42,0.46,1.13,0.5,1.6,0.09v0
		c0.93-0.83,2.36-0.75,3.19,0.18c0.2,0.22,0.35,0.47,0.45,0.75c0.21,0.59,0.85,0.9,1.44,0.69c0.59-0.21,0.9-0.85,0.69-1.44
		C40.66,34.4,38.08,33.17,35.73,34z"/>
</g>
<path class="st0" d="M58.7,29.31h3.39c0.62,0,1.13-0.51,1.13-1.13c0-0.62-0.51-1.13-1.13-1.13H58.7c-0.62,0-1.13,0.51-1.13,1.13
	C57.57,28.8,58.08,29.31,58.7,29.31z"/>
</svg>
