<?xml version="1.0" encoding="utf-8"?>
<!-- Generator: Adobe Illustrator 24.1.0, SVG Export Plug-In . SVG Version: 6.00 Build 0)  -->
<svg version="1.1" id="Layer_1" xmlns="http://www.w3.org/2000/svg" xmlns:xlink="http://www.w3.org/1999/xlink" x="0px" y="0px"
	 viewBox="0 0 68 65" style="enable-background:new 0 0 68 65;" xml:space="preserve">
<style type="text/css">
	.st0{fill:#5AA7C1;}
	.st1{fill:#F5871F;}
</style>
<g id="path5079_1_">
	<path class="st0" d="M48.17,65.1c-0.35,0-0.7-0.18-0.9-0.49c-0.6-0.94-1.77-2.39-2.49-2.68c-0.42-0.17-0.95-0.26-1.62-0.38
		c-1.3-0.23-3.08-0.54-5.39-1.68c-2.66-1.32-8.55-6.47-10.49-8.56c-2.03-2.18-1.72-4.46-0.58-5.67c1.08-1.14,3.18-1.58,5.24,0.13
		c1.35,1.13,2.61,2.1,3.71,2.87L25.6,31.25c-0.83-1.44-0.91-2.97-0.2-4.19c0.59-1.03,1.67-1.68,2.84-1.75
		c-0.91-2.14-0.05-4.02,1.4-4.86c1.45-0.83,3.51-0.64,4.91,1.22c0.65-0.98,1.75-1.59,2.94-1.59l0,0c1.41,0,2.7,0.83,3.53,2.27
		l0.69,1.19c0.65-0.96,1.74-1.55,2.91-1.55c1.41,0,2.7,0.83,3.53,2.27l6.79,11.75c5.18,8.98,4.93,12.22,4.77,14.15
		c-0.02,0.22-0.03,0.42-0.03,0.61c0.01,1.65,1.5,4.45,2.07,5.39c0.15,0.25,0.2,0.54,0.12,0.82c-0.07,0.28-0.25,0.52-0.5,0.66
		l-12.66,7.31C48.54,65.06,48.36,65.1,48.17,65.1z M29.09,46.79c-0.35,0-0.64,0.13-0.84,0.34c-0.47,0.5-0.49,1.57,0.6,2.73
		c2.03,2.19,7.68,7.01,9.87,8.1c2.04,1.01,3.57,1.28,4.81,1.49c0.76,0.14,1.42,0.25,2.04,0.5c1.13,0.45,2.24,1.76,2.91,2.67
		l10.88-6.28c-0.71-1.32-1.84-3.7-1.84-5.55c0-0.24,0.02-0.49,0.04-0.78c0.13-1.58,0.36-4.51-4.49-12.91L46.3,25.33
		c-0.45-0.77-1.04-1.2-1.68-1.2c-0.49,0-0.94,0.26-1.19,0.69c-0.32,0.55-0.25,1.28,0.2,2.05c0,0.01,0.01,0.01,0.01,0.02l5.21,9.02
		c0.3,0.51,0.12,1.17-0.39,1.46c-0.51,0.3-1.17,0.12-1.46-0.39l-7.83-13.56c-0.45-0.77-1.04-1.2-1.68-1.2
		c-0.49,0-0.94,0.26-1.19,0.69c-0.32,0.55-0.25,1.28,0.2,2.05c0,0,0,0.01,0.01,0.01l7.82,13.55c0.3,0.51,0.12,1.17-0.39,1.46
		c-0.51,0.3-1.17,0.12-1.46-0.39l-9.4-16.28c-0.71-1.23-1.7-1.4-2.37-1.02c-0.66,0.38-1.01,1.32-0.3,2.56l9.4,16.28
		c0.3,0.51,0.12,1.17-0.39,1.46c-0.51,0.3-1.17,0.12-1.46-0.39l-7.82-13.54c-0.01-0.01-0.01-0.02-0.02-0.03
		c-0.45-0.77-1.04-1.2-1.68-1.2c-0.49,0-0.95,0.26-1.19,0.69c-0.32,0.55-0.25,1.28,0.2,2.05l12.01,20.8
		c0.22,0.38,0.18,0.86-0.09,1.21c-0.28,0.35-0.74,0.48-1.16,0.35c-2.02-0.64-5.27-3.13-7.64-5.11
		C30.02,46.97,29.51,46.79,29.09,46.79z"/>
</g>
<g id="rect5105_1_">
	<path class="st0" d="M22.53,63.78c-0.09,0-0.19-0.01-0.28-0.04c-0.27-0.07-0.51-0.25-0.65-0.5L2.34,29.87
		c-0.3-0.51-0.12-1.17,0.39-1.46L47.22,2.72c0.25-0.14,0.54-0.18,0.81-0.11c0.27,0.07,0.51,0.25,0.65,0.5l19.26,33.37
		c0.3,0.51,0.12,1.17-0.39,1.46l-9.63,5.56c-0.51,0.3-1.17,0.12-1.46-0.39c-0.3-0.51-0.12-1.17,0.39-1.46l8.7-5.02L47.37,5.11
		L4.73,29.73l18.19,31.51l10.44-6.03c0.51-0.3,1.17-0.12,1.46,0.39c0.3,0.51,0.12,1.17-0.39,1.46l-11.37,6.56
		C22.91,63.73,22.72,63.78,22.53,63.78z"/>
</g>
<g id="path5112_2_">
	<path class="st1" d="M10.89,20.69c-0.59,0-1.07-0.48-1.07-1.07c0-3.34-2.72-6.06-6.07-6.06c-0.59,0-1.07-0.48-1.07-1.07
		c0-0.59,0.48-1.07,1.07-1.07c3.34,0,6.07-2.72,6.07-6.07c0-0.59,0.48-1.07,1.07-1.07c0.59,0,1.07,0.48,1.07,1.07
		c0,3.34,2.72,6.07,6.06,6.07c0.59,0,1.07,0.48,1.07,1.07c0,0.59-0.48,1.07-1.07,1.07c-3.34,0-6.06,2.72-6.06,6.06
		C11.96,20.21,11.48,20.69,10.89,20.69z M7.8,12.49c1.29,0.73,2.36,1.8,3.09,3.09c0.73-1.29,1.8-2.36,3.09-3.09
		c-1.29-0.73-2.36-1.8-3.09-3.09C10.15,10.69,9.09,11.75,7.8,12.49z"/>
</g>
<g id="path5125_1_">
	<path class="st1" d="M23.73,13.56c-0.59,0-1.07-0.48-1.07-1.07c0-2.56-2.08-4.64-4.64-4.64c-0.59,0-1.07-0.48-1.07-1.07
		c0-0.59,0.48-1.07,1.07-1.07c2.56,0,4.64-2.08,4.64-4.64c0-0.59,0.48-1.07,1.07-1.07c0.59,0,1.07,0.48,1.07,1.07
		c0,2.56,2.08,4.64,4.64,4.64c0.59,0,1.07,0.48,1.07,1.07c0,0.59-0.48,1.07-1.07,1.07c-2.56,0-4.64,2.08-4.64,4.64
		C24.8,13.08,24.32,13.56,23.73,13.56z M21.67,6.78c0.82,0.53,1.53,1.23,2.06,2.06c0.53-0.82,1.23-1.53,2.06-2.06
		c-0.82-0.53-1.53-1.23-2.06-2.06C23.2,5.55,22.5,6.25,21.67,6.78z"/>
</g>
</svg>
