<?xml version="1.0" encoding="utf-8"?>
<!-- Generator: Adobe Illustrator 24.1.0, SVG Export Plug-In . SVG Version: 6.00 Build 0)  -->
<svg version="1.1" id="Layer_1" xmlns="http://www.w3.org/2000/svg" xmlns:xlink="http://www.w3.org/1999/xlink" x="0px" y="0px"
	 viewBox="0 0 68 65" style="enable-background:new 0 0 68 65;" xml:space="preserve">
<style type="text/css">
	.st0{fill:#F5871F;}
	.st1{fill:#5AA7C1;}
</style>
<path class="st0" d="M57.66,64.45c-0.03,0-0.06,0-0.09,0c-0.56-0.05-0.97-0.54-0.92-1.1c0.07-0.85,0.15-1.41,0.22-1.85
	c0.14-0.97,0.15-1.08-0.28-2.54c-1.15-3.9,1.39-6.53,1.8-6.91c1.42-1.61,2.99-5.41,3.48-6.75c0.19-0.53,0.78-0.8,1.3-0.61
	c0.53,0.19,0.8,0.78,0.61,1.3c-0.08,0.21-1.93,5.24-3.9,7.44c-0.02,0.03-0.05,0.05-0.08,0.08c-0.08,0.08-2.11,1.99-1.26,4.87
	c0.54,1.82,0.52,2.18,0.34,3.4c-0.06,0.41-0.13,0.94-0.2,1.74C58.62,64.05,58.18,64.45,57.66,64.45z"/>
<path class="st0" d="M17.98,65C16.2,65,4.4,61.1,2.21,56.98c-0.12-0.23-0.15-0.49-0.09-0.73c0.31-1.19,3.17-11.72,7.7-14.28
	c1.06-0.6,2.14-0.74,3.21-0.43c0.19,0.06,0.36,0.17,0.49,0.32c0.29,0.35,7.11,8.65,5.44,22.24c-0.05,0.44-0.42,0.81-0.85,0.89
	C18.08,65,18.03,65,17.98,65z M4.2,56.35c1.99,2.85,10.06,5.7,12.86,6.45c0.97-10.8-3.84-17.95-4.9-19.37
	c-0.43-0.05-0.88,0.04-1.34,0.31C7.75,45.47,5.11,53.06,4.2,56.35z"/>
<path class="st0" d="M11.69,43.41c-0.42,0-0.81-0.26-0.96-0.68c-0.19-0.53,0.09-1.11,0.62-1.3l7.81-2.76
	c0.53-0.19,1.11,0.09,1.3,0.62c0.19,0.53-0.09,1.11-0.62,1.3l-7.81,2.76C11.91,43.39,11.8,43.41,11.69,43.41z"/>
<path class="st0" d="M38.99,49.41c-9.43,0-10.47-9.7-10.48-9.8c-0.05-0.56,0.36-1.05,0.91-1.11c0.55-0.05,1.05,0.35,1.11,0.91
	c0.03,0.33,0.9,7.97,8.46,7.97c0,0,0,0,0.01,0c7.81,0,9.54-4.65,9.56-4.69c0.19-0.53,0.77-0.81,1.3-0.62
	c0.53,0.19,0.81,0.77,0.62,1.3C50.38,43.61,48.23,49.41,38.99,49.41C39,49.41,38.99,49.41,38.99,49.41z"/>
<path class="st1" d="M55.38,44.47c-1.82,0-11.23-0.67-17.33-2.4c-6.66-1.89-11.79-1.76-12.81-1.39c-1.42,0.52-5.7,0.01-7.3-0.2
	c-1.11,0.31-3.87,0.97-5.31,0.14c-0.48-0.28-0.8-0.7-0.93-1.21c-0.03-0.13-0.04-0.26-0.02-0.38c0.04-0.26,0.33-1.59,2.49-2.35
	c0.53-0.18,1.11,0.09,1.3,0.62c0.19,0.53-0.09,1.11-0.62,1.3c-0.39,0.14-0.65,0.29-0.83,0.42c0.7,0.06,2.21-0.14,3.55-0.54
	c0.14-0.04,0.29-0.05,0.43-0.03c2.6,0.36,5.84,0.59,6.54,0.33c1.71-0.62,7.54-0.5,14.06,1.35c6.18,1.75,16,2.38,16.81,2.33
	c0.56-0.09,1.03,0.29,1.13,0.84c0.09,0.55-0.32,1.08-0.88,1.17C55.61,44.46,55.52,44.47,55.38,44.47z"/>
<path class="st1" d="M56.44,49.41c-0.69,0-1.87-0.14-2.99-0.97c-1.37-1.02-2.22-2.72-2.52-5.06c-0.07-0.56,0.32-1.07,0.88-1.14
	c0.55-0.07,1.07,0.32,1.14,0.88c0.22,1.75,0.79,2.98,1.69,3.66c0.97,0.73,2.02,0.59,2.06,0.58c0.04-0.01,0.08-0.01,0.12-0.01
	c5.77-0.23,6.28-4.16,6.74-7.62c0.08-0.64,0.16-1.23,0.27-1.76c0.16-0.81-0.01-1.52-0.52-2.18c-0.94-1.2-2.64-1.75-3.19-1.77
	c-1.47-0.07-3.4-1.06-3.81-1.28c-3.75-1.49-12.8-1.03-12.89-1.03c-0.08,0.01-10.15,0.75-15.71,0.81c-4.13,0.03-7.06-1.44-9.17-2.53
	c-0.81-0.42-1.51-0.78-2.05-0.92c-0.59-0.16-1.4-0.28-1.88,0.06c-0.44,0.31-0.49,0.94-0.49,0.95c-0.04,0.55-0.52,0.98-1.07,0.95
	c-0.56-0.03-0.98-0.5-0.96-1.05c0.01-0.16,0.1-1.6,1.31-2.48c0.91-0.66,2.12-0.79,3.62-0.4c0.75,0.2,1.54,0.61,2.45,1.08
	c2.02,1.05,4.52,2.35,8.22,2.31c5.5-0.06,15.51-0.8,15.61-0.81c0.42-0.02,9.69-0.49,13.83,1.19c0.04,0.01,0.07,0.03,0.1,0.05
	c0.51,0.28,2.05,1.02,2.98,1.06c1.16,0.05,3.39,0.88,4.7,2.55c0.87,1.12,1.19,2.44,0.91,3.83c-0.1,0.49-0.17,1.04-0.25,1.62
	c-0.45,3.39-1.19,9.07-8.62,9.39C56.85,49.39,56.68,49.41,56.44,49.41z"/>
<path class="st1" d="M11.55,34.05c-0.41,0-0.8-0.26-0.95-0.67c-0.6-1.64-0.5-2.86,0.29-3.63c1.36-1.32,4.01-0.36,4.53-0.15
	c0.52,0.21,0.77,0.8,0.57,1.32c-0.21,0.52-0.8,0.77-1.32,0.57c-0.93-0.37-2.13-0.51-2.36-0.28c-0.05,0.05-0.17,0.45,0.21,1.48
	c0.19,0.53-0.08,1.11-0.61,1.3C11.79,34.03,11.67,34.05,11.55,34.05z"/>
<path class="st1" d="M11.74,36.94c-0.24,0-0.48-0.08-0.67-0.26c-1.19-1.06-1.62-2.06-1.25-2.97c0.66-1.66,3.7-1.74,4.99-1.7
	c0.56,0.02,1,0.49,0.98,1.05c-0.02,0.56-0.5,1.01-1.05,0.98c-1.18-0.04-2.53,0.15-2.97,0.4c0.07,0.13,0.25,0.36,0.64,0.71
	c0.42,0.37,0.46,1.01,0.09,1.43C12.3,36.83,12.02,36.94,11.74,36.94z M11.72,34.34L11.72,34.34L11.72,34.34z"/>
<path class="st1" d="M12.26,39.75c-0.71,0-1.28-0.17-1.71-0.51c-0.78-0.61-0.9-1.59-0.94-1.91c-0.2-1.69,2.26-2.56,3.74-2.93
	c0.54-0.14,1.09,0.19,1.23,0.74c0.14,0.54-0.2,1.09-0.74,1.23c-0.88,0.22-1.87,0.64-2.18,0.91c0.05,0.28,0.12,0.34,0.13,0.35
	c0.02,0.01,0.21,0.15,0.95,0.05c0.55-0.08,1.07,0.31,1.14,0.87c0.08,0.56-0.31,1.07-0.87,1.14C12.75,39.73,12.5,39.75,12.26,39.75z"
	/>
<path class="st1" d="M24.29,36.19"/>
<path class="st0" d="M4.9,64.02c-0.48,0-0.91-0.34-1-0.83c-0.28-1.47-0.04-4.49-0.01-4.83c0.05-0.56,0.53-0.98,1.09-0.93
	c0.56,0.05,0.97,0.54,0.93,1.09c-0.07,0.85-0.21,3.27-0.01,4.29C6,63.37,5.64,63.9,5.09,64C5.03,64.01,4.96,64.02,4.9,64.02z"/>
<path class="st1" d="M19.5,39.64"/>
<path class="st1" d="M47.33,26.61c-1.3,0-2.46-0.35-2.65-0.42c-0.53-0.17-0.83-0.74-0.66-1.28c0.17-0.53,0.75-0.83,1.28-0.66
	c0.56,0.18,2.38,0.57,3.33,0.07c0.5-0.26,1.11-0.07,1.37,0.42c0.26,0.5,0.07,1.11-0.42,1.37C48.89,26.49,48.08,26.61,47.33,26.61z"
	/>
<path class="st1" d="M57.24,33.09c-0.03,0-0.06,0-0.1,0c-0.56-0.05-0.97-0.55-0.92-1.11c0.01-0.15,0.34-3.66,0.71-6.13
	c0.4-2.72,1.12-4.13,2.39-5.92c1.11-1.58,2.46-6.53,0.51-10.81c-1.77-3.9-5.69-6.19-11.64-6.81C32.73,0.71,28.2,15.69,28.02,16.33
	c-0.03,0.09-1.25,3.8,0.72,9.45c0.18,0.53-0.1,1.11-0.62,1.29c-0.53,0.18-1.11-0.1-1.29-0.62c-2.22-6.37-0.8-10.57-0.74-10.74
	C26.12,15.59,31.25-1.49,48.4,0.3c8.38,0.87,11.85,4.82,13.28,7.99c2.23,4.91,0.9,10.55-0.7,12.82c-1.11,1.57-1.69,2.72-2.04,5.05
	c-0.36,2.41-0.69,5.98-0.7,6.02C58.2,32.7,57.75,33.09,57.24,33.09z"/>
<path class="st1" d="M44.76,22.52c-0.56,0-1.01-0.45-1.01-1.01c0-0.56,0.45-1.02,1.01-1.02c1.24,0,4.8-0.37,6.32-2.04
	c0.38-0.41,1.02-0.44,1.43-0.07c0.41,0.38,0.45,1.02,0.07,1.43C50.14,22.49,44.98,22.52,44.76,22.52z"/>
<path class="st1" d="M61.38,17.68c-4.67,0-8.98-3.48-11.26-6.51c-1.67-2.21-2.68-4.08-2.72-4.16c-0.26-0.49-0.08-1.11,0.42-1.37
	c0.49-0.26,1.11-0.08,1.37,0.42c0.01,0.02,0.97,1.81,2.55,3.89c2.2,2.9,6.14,5.78,9.83,5.7c0.01,0,0.02,0,0.03,0
	c0.55,0,1,0.44,1.02,0.99c0.01,0.56-0.43,1.03-0.99,1.04C61.53,17.68,61.46,17.68,61.38,17.68z"/>
<path class="st1" d="M34.27,17.48c-1.14,0-2.26-0.1-3.35-0.31c-0.55-0.11-0.91-0.65-0.79-1.2c0.11-0.55,0.64-0.91,1.2-0.79
	c8.11,1.64,19.63-4.63,19.74-4.69c0.49-0.27,1.11-0.09,1.38,0.4s0.09,1.11-0.4,1.38C51.61,12.5,42.48,17.48,34.27,17.48z"/>
<path class="st1" d="M34.86,28.27c-0.09,0-0.17-0.01-0.25-0.01c-1.23-0.14-2-1.22-2.08-1.34c-0.04-0.06-0.08-0.13-0.11-0.2
	c-1.2-3.09-2.32-7.26-0.89-9.53c0.57-0.9,1.49-1.43,2.65-1.51c1.31-0.1,2.38,0.24,3.13,1c1.18,1.18,1.08,2.89,1.07,3.08
	c-0.04,0.56-0.53,0.97-1.09,0.93c-0.56-0.04-0.97-0.53-0.93-1.08c0.02-0.27-0.04-1.06-0.49-1.5c-0.32-0.31-0.83-0.45-1.54-0.4
	c-0.67,0.05-0.94,0.33-1.09,0.57c-0.73,1.15-0.34,4.05,1.01,7.58c0.14,0.16,0.38,0.37,0.57,0.39c0.15,0,0.32-0.12,0.44-0.23
	c0.41-0.38,1.05-0.36,1.43,0.04c0.38,0.41,0.36,1.05-0.04,1.44C36,28.11,35.35,28.27,34.86,28.27z"/>
<path class="st1" d="M52.95,32.03c-0.23,0-0.47-0.08-0.66-0.24c-0.43-0.36-0.48-1-0.12-1.43c1.13-1.34,0-4.63-0.49-5.68
	c-0.24-0.51-0.02-1.11,0.49-1.35c0.51-0.24,1.11-0.02,1.35,0.49c0.25,0.53,2.37,5.28,0.2,7.85C53.52,31.9,53.24,32.03,52.95,32.03z"
	/>
<path class="st1" d="M58.49,24.62c-0.23,0-0.46-0.08-0.65-0.24c-1.75-1.46-2.74-3.54-2.78-3.63c-0.24-0.51-0.02-1.11,0.49-1.35
	c0.51-0.24,1.11-0.02,1.35,0.48c0.01,0.02,0.85,1.77,2.24,2.94c0.43,0.36,0.49,1,0.13,1.43C59.07,24.49,58.78,24.62,58.49,24.62z"/>
<path class="st1" d="M57.3,28.16c-0.18,0-0.36-0.05-0.52-0.15l-1.32-0.8c-0.48-0.29-0.63-0.91-0.34-1.39
	c0.29-0.48,0.92-0.63,1.39-0.34l1.32,0.8c0.48,0.29,0.63,0.91,0.34,1.39C57.98,27.99,57.65,28.16,57.3,28.16z"/>
</svg>
