<?xml version="1.0" encoding="utf-8"?>
<!-- Generator: Adobe Illustrator 23.0.2, SVG Export Plug-In . SVG Version: 6.00 Build 0)  -->
<svg version="1.1" id="Layer_1" xmlns="http://www.w3.org/2000/svg" xmlns:xlink="http://www.w3.org/1999/xlink" x="0px" y="0px"
	 viewBox="0 0 290 60" style="enable-background:new 0 0 290 60;" xml:space="preserve">
<style type="text/css">
	.st0{enable-background:new    ;}
	.st1{fill:#FFFFFF;}
	.st2{clip-path:url(#SVGID_2_);}
	.st3{fill:#68674E;}
	.st4{fill:#809EAD;}
	.st5{fill:#C674B0;}
	.st6{fill:#1490D0;}
	.st7{fill:#92278F;}
	.st8{fill:#DC1E35;}
	.st9{fill:#E11F8F;}
	.st10{fill:#00A851;}
	.st11{fill:#8DC63F;}
	.st12{fill:#F7941D;}
	.st13{fill:#9E1F63;}
	.st14{fill:#86D0CD;}
	.st15{fill:#CDDC29;}
	.st16{fill:#6FC066;}
	.st17{fill:#0078AF;}
	.st18{fill:#00A79D;}
	.st19{fill:#27AAE1;}
	.st20{fill:#00B2B0;}
	.st21{fill:#AB69AB;}
	.st22{fill:#009AA6;}
	.st23{fill:#005DA6;}
	.st24{fill:#1F3D7B;}
	.st25{fill:none;stroke:#939598;stroke-width:4.348984e-02;stroke-miterlimit:10;}
</style>
<title>Census_Complete Count Committee Logo_v5</title>
<g class="st0">
	<path class="st1" d="M171.6,8.5h2.1l3.5,5.4l3.5-5.4h2.1V20h-2v-8.2l-3.6,5.4h-0.1l-3.6-5.4V20h-2V8.5z"/>
	<path class="st1" d="M189.8,8.4h1.9l5,11.5h-2.1l-1.2-2.8H188l-1.2,2.8h-2.1L189.8,8.4z M192.7,15.4l-2-4.6l-2,4.6H192.7z"/>
	<path class="st1" d="M198.7,8.5h2v5.8l5.4-5.8h2.5l-4.8,4.9l5,6.5h-2.4l-3.9-5.2l-1.8,1.8V20h-2V8.5z"/>
	<path class="st1" d="M210.6,8.5h8.5v1.8h-6.5v3h5.7v1.8h-5.7v3.1h6.6V20h-8.6V8.5z"/>
	<path class="st1" d="M226.4,8.5h1.9l6.1,7.9V8.5h2V20h-1.7l-6.3-8.1V20h-2V8.5z"/>
	<path class="st1" d="M238.8,14.3L238.8,14.3c0-3.3,2.4-6,5.9-6c2.1,0,3.4,0.7,4.5,1.8l-1.3,1.5c-0.9-0.9-1.9-1.4-3.2-1.4
		c-2.2,0-3.8,1.8-3.8,4v0c0,2.2,1.6,4.1,3.8,4.1c1.4,0,2.3-0.6,3.3-1.5l1.3,1.3c-1.2,1.2-2.5,2-4.6,2
		C241.3,20.2,238.8,17.6,238.8,14.3z"/>
</g>
<g class="st0">
	<path class="st1" d="M180.3,31.5L180.3,31.5c0-3.3,2.4-6,5.9-6c2.1,0,3.4,0.7,4.5,1.8l-1.3,1.5c-0.9-0.9-1.9-1.4-3.2-1.4
		c-2.2,0-3.8,1.8-3.8,4v0c0,2.2,1.6,4.1,3.8,4.1c1.4,0,2.3-0.6,3.3-1.5l1.3,1.3c-1.2,1.2-2.5,2-4.6,2
		C182.7,37.4,180.3,34.8,180.3,31.5z"/>
</g>
<g class="st0">
	<path class="st1" d="M192,31.5L192,31.5c0-3.3,2.5-6,6-6c3.5,0,6,2.7,6,5.9v0c0,3.2-2.5,5.9-6,5.9S192,34.7,192,31.5z M201.9,31.5
		L201.9,31.5c0-2.3-1.6-4.1-3.9-4.1s-3.9,1.8-3.9,4v0c0,2.2,1.6,4.1,3.9,4.1C200.3,35.5,201.9,33.7,201.9,31.5z"/>
	<path class="st1" d="M206.2,32.3v-6.6h2v6.5c0,2.1,1.1,3.3,2.9,3.3c1.8,0,2.9-1.1,2.9-3.2v-6.6h2v6.5c0,3.4-1.9,5.1-4.9,5.1
		C208.1,37.4,206.2,35.6,206.2,32.3z"/>
	<path class="st1" d="M218.8,25.7h1.9l6.1,7.9v-7.9h2v11.5h-1.7l-6.3-8.1v8.1h-2V25.7z"/>
	<path class="st1" d="M234.5,27.6h-3.6v-1.9h9.3v1.9h-3.6v9.6h-2V27.6z"/>
</g>
<g class="st0">
	<path class="st1" d="M158.4,48L158.4,48c0-1.9,1.4-3.4,3.3-3.4c1.2,0,1.9,0.4,2.5,1l-0.5,0.5c-0.5-0.5-1.2-0.9-2-0.9
		c-1.4,0-2.5,1.2-2.5,2.7v0c0,1.5,1.1,2.7,2.5,2.7c0.9,0,1.5-0.3,2.1-0.9l0.5,0.5c-0.7,0.7-1.4,1.1-2.6,1.1
		C159.8,51.3,158.4,49.8,158.4,48z"/>
	<path class="st1" d="M169.7,44.7h4.7v0.7h-4v2.2h3.5v0.7h-3.5v2.3h4v0.7h-4.7V44.7z"/>
	<path class="st1" d="M180.1,44.7h0.7l4.1,5.2v-5.2h0.7v6.5h-0.6l-4.2-5.3v5.3h-0.7V44.7z"/>
	<path class="st1" d="M191.2,50.2l0.5-0.5c0.7,0.6,1.3,0.9,2.2,0.9c0.9,0,1.5-0.5,1.5-1.1v0c0-0.6-0.3-0.9-1.7-1.2
		c-1.5-0.3-2.2-0.8-2.2-1.9v0c0-1,0.9-1.8,2.1-1.8c0.9,0,1.6,0.3,2.3,0.8l-0.4,0.6c-0.6-0.5-1.2-0.7-1.9-0.7c-0.8,0-1.4,0.5-1.4,1v0
		c0,0.6,0.3,1,1.8,1.3c1.5,0.3,2.1,0.8,2.1,1.8v0c0,1.1-0.9,1.8-2.2,1.8C192.9,51.3,192,50.9,191.2,50.2z"/>
	<path class="st1" d="M201.7,48.5v-3.8h0.7v3.7c0,1.4,0.7,2.2,2,2.2c1.2,0,2-0.7,2-2.1v-3.8h0.7v3.7c0,1.9-1.1,2.9-2.7,2.9
		C202.8,51.3,201.7,50.3,201.7,48.5z"/>
	<path class="st1" d="M212.6,50.2l0.5-0.5c0.7,0.6,1.3,0.9,2.2,0.9c0.9,0,1.4-0.5,1.4-1.1v0c0-0.6-0.3-0.9-1.7-1.2
		c-1.5-0.3-2.2-0.8-2.2-1.9v0c0-1,0.9-1.8,2.1-1.8c0.9,0,1.6,0.3,2.3,0.8l-0.4,0.6c-0.6-0.5-1.2-0.7-1.9-0.7c-0.8,0-1.4,0.5-1.4,1v0
		c0,0.6,0.3,1,1.8,1.3c1.4,0.3,2.1,0.8,2.1,1.8v0c0,1.1-0.9,1.8-2.2,1.8C214.2,51.3,213.4,50.9,212.6,50.2z"/>
</g>
<g class="st0">
	<path class="st1" d="M225.5,50.6l2.4-2.1c1-0.9,1.4-1.4,1.4-2c0-0.8-0.6-1.2-1.3-1.2c-0.7,0-1.2,0.4-1.7,1.1l-0.5-0.4
		c0.6-0.9,1.2-1.4,2.3-1.4c1.2,0,2,0.8,2,1.8v0c0,0.9-0.5,1.5-1.6,2.5l-1.7,1.5h3.4v0.7h-4.5V50.6z"/>
</g>
<g class="st0">
	<path class="st1" d="M235.4,48L235.4,48c0-1.8,1.1-3.4,2.8-3.4s2.7,1.5,2.7,3.3v0c0,1.8-1.1,3.4-2.8,3.4
		C236.5,51.3,235.4,49.8,235.4,48z M240.1,48L240.1,48c0-1.4-0.8-2.7-2-2.7c-1.2,0-2,1.2-2,2.7v0c0,1.4,0.8,2.7,2,2.7
		C239.4,50.6,240.1,49.4,240.1,48z"/>
</g>
<g class="st0">
	<path class="st1" d="M246,50.6l2.4-2.1c1-0.9,1.4-1.4,1.4-2c0-0.8-0.6-1.2-1.3-1.2c-0.7,0-1.2,0.4-1.7,1.1l-0.5-0.4
		c0.6-0.9,1.2-1.4,2.3-1.4c1.2,0,2,0.8,2,1.8v0c0,0.9-0.5,1.5-1.6,2.5l-1.7,1.5h3.4v0.7H246V50.6z"/>
	<path class="st1" d="M255.9,48L255.9,48c0-1.8,1.1-3.4,2.8-3.4s2.7,1.5,2.7,3.3v0c0,1.8-1.1,3.4-2.8,3.4
		C257,51.3,255.9,49.8,255.9,48z M260.6,48L260.6,48c0-1.4-0.8-2.7-2-2.7c-1.2,0-2,1.2-2,2.7v0c0,1.4,0.8,2.7,2,2.7
		C259.9,50.6,260.6,49.4,260.6,48z"/>
</g>
<g>
	<defs>
		<polygon id="SVGID_1_" points="74.2,3.2 66.3,3.3 53.9,3.3 52.6,6.7 49.7,8.8 47.5,11.6 46.1,12.4 43.9,10.9 41.8,11.6 41,12.4 
			39.6,14.5 38.1,14.5 37.4,13.1 32.3,15.2 30.9,18 28,18 26.6,19.4 22.2,22.2 17.9,21.5 14.3,23.6 13.5,24.4 12.8,27.2 8.5,27.9 
			7.8,33.1 13.6,33.1 21.4,33.1 27.9,33.1 30.2,32.8 37.4,30.7 51.2,30.7 59.1,31.4 62.7,31.4 64.2,34.2 65.6,32.8 68.5,35.7 
			68.5,38.5 83,38.5 87.3,39.2 90.5,42.3 97.4,49 104.7,56.2 106.9,58.3 111.2,56.9 117,57.6 117.7,56.2 121.3,48.4 124.2,45.6 
			130.8,41.3 137.3,39.9 140.9,40.6 144.5,35.7 143.8,33.6 141.6,32.8 138,35 135.1,35.7 132.9,33.5 131.6,32.3 134.7,32.9 
			136.6,34.1 140.2,31.6 140.9,27.9 138.7,27.2 136.4,26 134,24.2 136.7,25.1 139.1,25.5 138.6,23.6 139.2,23.6 139.8,23.6 
			140.5,26.5 147.4,26.5 151.7,21.5 153.2,21.5 153.9,18.7 151,13.7 148.9,15.9 148.1,19.2 147.4,16.6 148.1,13.8 146,13.8 
			142.4,14.5 137.3,14.5 136.1,12.4 136.1,8.9 136.5,7.7 137.3,8.8 137.3,12.3 138.7,13.4 140.4,13.4 141.1,12.5 142,12.8 
			146.4,11.3 146.4,11.3 147.7,11.1 147.4,10.2 146.3,8 148.8,10.2 149.8,10.9 151.1,10.7 151.7,11.6 153.2,10.9 150.8,3.2 
			143.8,3.2 139.4,3.2 133,3.2 116.2,3.2 108.9,3.2 101,3.2 95.1,3.2 89.3,3.2 80.8,3.2 		"/>
	</defs>
	<clipPath id="SVGID_2_">
		<use xlink:href="#SVGID_1_"  style="overflow:visible;"/>
	</clipPath>
	<g class="st2">
		<path class="st3" d="M22,13.8c-0.5-0.8-2.8-4.4-2.8-4.4c-0.2-0.6-0.9-1-1.5-0.9L14.4,9c-0.6,0.1-1.1,0.6-1.2,1.2
			c0,0-0.7,2.2-1.1,3.7c-0.8-1.4-2-3.3-2-3.3C9.9,10,9.2,9.7,8.6,9.8l-4.2,0.6c-0.7,0.1-1.2,0.6-1.3,1.2c0,0-1.1,4.1-1.4,5
			C1.3,17.5,2.7,17.9,3,17s1.1-3.1,1.2-3.6c0.2-0.5,0.4-0.5,0.5-0.1c0.1,0.5,1.5,10.8,1.7,12c0.2,1.2,2.2,1,2-0.3
			c-0.2-1.3-0.7-5.2-0.8-5.9c-0.1-0.6,0.3-0.7,0.3,0c0.1,0.7,0.6,4.7,0.8,5.9c0.2,1.3,2.2,1,2-0.3c-0.2-1.3-1.6-11.5-1.7-12
			c-0.1-0.5,0.1-0.5,0.5-0.1c0.3,0.5,1.6,2.4,2.2,3.2c0.2,0.3,0.5,0.4,0.8,0.3c0.2-0.1,0.4-0.2,0.5-0.5c0.3-0.9,1-3.2,1.2-3.7
			c0.2-0.5,0.4-0.5,0.4-0.1c0,0.1-0.1,1.3-0.3,2.6c-0.3,1.8-0.8,3.8-0.8,3.8l1.9-0.3l0.8,6c0,0.5,0.5,0.9,1,0.8c0.5,0,0.9-0.5,0.8-1
			c0,0,0-0.1,0-0.1c-0.2-1.3-0.8-5.9-0.8-5.9l0.3,0c0,0,0.6,4.7,0.8,5.9c0,0.5,0.5,0.9,1,0.8s0.9-0.5,0.8-1c0,0,0-0.1,0-0.1
			c-0.1-0.6-0.5-3.3-0.8-5.9l1.9-0.3c0,0-1-1.8-1.7-3.4c-0.6-1.2-1-2.4-1-2.5c-0.2-0.4,0.1-0.5,0.4-0.1s1.7,2.5,2.2,3.3
			C21.5,15.4,22.5,14.6,22,13.8z"/>
		<path class="st3" d="M16.1,8.4c1-0.1,1.7-1.1,1.6-2.1c-0.1-1-1.1-1.7-2.1-1.6c-1,0.1-1.7,1.1-1.6,2.1c0,0,0,0,0,0
			C14.2,7.9,15.1,8.6,16.1,8.4C16.1,8.4,16.1,8.4,16.1,8.4z"/>
		<path class="st3" d="M6.4,9.8c1-0.1,1.7-1.1,1.6-2.1C7.9,6.7,6.9,6,5.9,6.2c-1,0.1-1.7,1.1-1.6,2.1c0,0,0,0,0,0
			C4.5,9.2,5.4,9.9,6.4,9.8z"/>
		<path class="st4" d="M42.5,11c-0.5-0.8-2.8-4.4-2.8-4.4c-0.2-0.6-0.9-1-1.5-0.9l-3.3,0.5c-0.6,0.1-1.1,0.6-1.2,1.2
			c0,0-0.7,2.2-1.1,3.7c-0.8-1.4-2-3.3-2-3.3C30.3,7.2,29.7,6.9,29,7l-4.2,0.6c-0.7,0.1-1.2,0.6-1.3,1.2c0,0-1.1,4.1-1.4,5
			s1.1,1.3,1.4,0.4c0.3-0.9,1-3.1,1.2-3.6c0.2-0.5,0.4-0.5,0.5-0.1s1.5,10.8,1.7,12c0.2,1.2,2.2,1,2-0.3s-0.7-5.2-0.8-5.9
			c-0.1-0.6,0.3-0.7,0.3,0s0.6,4.7,0.8,5.9c0.2,1.3,2.2,1,2-0.3s-1.6-11.5-1.7-12c-0.1-0.5,0.1-0.5,0.5-0.1c0.3,0.5,1.6,2.4,2.2,3.2
			c0.2,0.3,0.5,0.4,0.8,0.3c0.2-0.1,0.4-0.2,0.5-0.5c0.3-0.9,1-3.2,1.2-3.7C34.8,8.5,35.1,8.6,35,9c0,0.1-0.1,1.3-0.3,2.6
			c-0.3,1.8-0.8,3.8-0.8,3.8l1.9-0.3l0.8,6c0,0.5,0.5,0.9,1,0.8c0.5,0,0.9-0.5,0.8-1c0,0,0-0.1,0-0.1c-0.2-1.3-0.8-5.9-0.8-5.9
			l0.3,0c0,0,0.6,4.7,0.8,5.9c0,0.5,0.5,0.9,1,0.8s0.9-0.5,0.8-1c0,0,0-0.1,0-0.1c-0.1-0.6-0.5-3.3-0.8-5.9l1.9-0.3
			c0,0-1-1.8-1.7-3.4c-0.6-1.2-1-2.5-1-2.5c-0.2-0.4,0.1-0.5,0.4-0.1c0.3,0.5,1.7,2.5,2.2,3.3C42,12.5,43,11.7,42.5,11z"/>
		<path class="st4" d="M36.6,5.6c1-0.1,1.7-1.1,1.6-2.1c-0.1-1-1.1-1.7-2.1-1.6c-1,0.1-1.7,1.1-1.6,2.1c0,0,0,0,0,0
			C34.7,5.1,35.6,5.8,36.6,5.6C36.6,5.6,36.6,5.6,36.6,5.6z"/>
		<path class="st4" d="M26.9,7c1-0.1,1.7-1.1,1.6-2.1c-0.1-1-1.1-1.7-2.1-1.6c-1,0.1-1.7,1.1-1.6,2.1c0,0,0,0,0,0
			C25,6.4,25.9,7.1,26.9,7z"/>
		<path class="st5" d="M42.5,11c-0.5-0.8-2.8-4.4-2.8-4.4c-0.2-0.6-0.9-1-1.5-0.9l-3.3,0.5c-0.6,0.1-1.1,0.6-1.2,1.2
			c0,0-0.7,2.2-1.1,3.7c-0.8-1.4-2-3.3-2-3.3C30.3,7.2,29.7,6.9,29,7l-4.2,0.6c-0.7,0.1-1.2,0.6-1.3,1.2c0,0-1.1,4.1-1.4,5
			s1.1,1.3,1.4,0.4c0.3-0.9,1-3.1,1.2-3.6c0.2-0.5,0.4-0.5,0.5-0.1s1.5,10.8,1.7,12c0.2,1.2,2.2,1,2-0.3s-0.7-5.2-0.8-5.9
			c-0.1-0.6,0.3-0.7,0.3,0s0.6,4.7,0.8,5.9c0.2,1.3,2.2,1,2-0.3s-1.6-11.5-1.7-12c-0.1-0.5,0.1-0.5,0.5-0.1c0.3,0.5,1.6,2.4,2.2,3.2
			c0.2,0.3,0.5,0.4,0.8,0.3c0.2-0.1,0.4-0.2,0.5-0.5c0.3-0.9,1-3.2,1.2-3.7C34.8,8.5,35.1,8.6,35,9c0,0.1-0.1,1.3-0.3,2.6
			c-0.3,1.8-0.8,3.8-0.8,3.8l1.9-0.3l0.8,6c0,0.5,0.5,0.9,1,0.8c0.5,0,0.9-0.5,0.8-1c0,0,0-0.1,0-0.1c-0.2-1.3-0.8-5.9-0.8-5.9
			l0.3,0c0,0,0.6,4.7,0.8,5.9c0,0.5,0.5,0.9,1,0.8s0.9-0.5,0.8-1c0,0,0-0.1,0-0.1c-0.1-0.6-0.5-3.3-0.8-5.9l1.9-0.3
			c0,0-1-1.8-1.7-3.4c-0.6-1.2-1-2.5-1-2.5c-0.2-0.4,0.1-0.5,0.4-0.1c0.3,0.5,1.7,2.5,2.2,3.3C42,12.5,43,11.7,42.5,11z"/>
		<path class="st5" d="M36.6,5.6c1-0.1,1.7-1.1,1.6-2.1c-0.1-1-1.1-1.7-2.1-1.6c-1,0.1-1.7,1.1-1.6,2.1c0,0,0,0,0,0
			C34.7,5.1,35.6,5.8,36.6,5.6C36.6,5.6,36.6,5.6,36.6,5.6z"/>
		<path class="st5" d="M26.9,7c1-0.1,1.7-1.1,1.6-2.1c-0.1-1-1.1-1.7-2.1-1.6c-1,0.1-1.7,1.1-1.6,2.1c0,0,0,0,0,0
			C25,6.4,25.9,7.1,26.9,7z"/>
		<path class="st6" d="M63,8.1c-0.5-0.8-2.8-4.4-2.8-4.4c-0.2-0.6-0.9-1-1.5-0.9l-3.3,0.5c-0.6,0.1-1.1,0.6-1.2,1.2
			c0,0-0.7,2.2-1.1,3.7c-0.8-1.4-2-3.3-2-3.3c-0.3-0.6-0.9-0.9-1.6-0.8l-4.2,0.6C44.6,4.8,44.1,5.3,44,6c0,0-1.1,4.1-1.4,5
			c-0.3,0.9,1.1,1.3,1.4,0.4c0.3-0.9,1-3.1,1.2-3.6c0.2-0.5,0.4-0.5,0.5-0.1c0.1,0.5,1.5,10.8,1.7,12s2.2,1,2-0.3
			c-0.2-1.3-0.7-5.2-0.8-5.9c-0.1-0.6,0.3-0.7,0.3,0c0.1,0.7,0.6,4.7,0.8,5.9s2.2,1,2-0.3S50,7.6,50,7.1c-0.1-0.5,0.1-0.5,0.5-0.1
			c0.3,0.5,1.6,2.4,2.2,3.2c0.2,0.3,0.5,0.4,0.8,0.3c0.2-0.1,0.4-0.2,0.5-0.5c0.3-0.9,1-3.2,1.2-3.7c0.2-0.5,0.4-0.5,0.4-0.1
			c0,0.1-0.1,1.3-0.3,2.6c-0.3,1.8-0.8,3.8-0.8,3.8l1.9-0.3l0.8,6c0,0.5,0.5,0.9,1,0.8c0.5,0,0.9-0.5,0.8-1c0,0,0-0.1,0-0.1
			c-0.2-1.3-0.8-5.9-0.8-5.9l0.3,0c0,0,0.6,4.7,0.8,5.9c0,0.5,0.5,0.9,1,0.8s0.9-0.5,0.8-1c0,0,0-0.1,0-0.1
			c-0.1-0.6-0.5-3.3-0.8-5.9l1.9-0.3c0,0-1-1.8-1.7-3.4c-0.6-1.2-1-2.5-1-2.5c-0.2-0.4,0.1-0.5,0.4-0.1c0.3,0.5,1.7,2.5,2.2,3.3
			C62.4,9.7,63.5,8.9,63,8.1z"/>
		<path class="st6" d="M57.1,2.8c1-0.1,1.7-1.1,1.6-2.1c-0.1-1-1.1-1.7-2.1-1.6c-1,0.1-1.7,1.1-1.6,2.1C55.1,2.2,56.1,2.9,57.1,2.8
			C57.1,2.8,57.1,2.8,57.1,2.8z"/>
		<path class="st6" d="M47.4,4.1c1-0.1,1.7-1.1,1.6-2.1c-0.1-1-1.1-1.7-2.1-1.6c-1,0.1-1.7,1.1-1.6,2.1c0,0,0,0,0,0
			C45.5,3.6,46.4,4.3,47.4,4.1z"/>
		<path class="st7" d="M48-7.5c-0.7,0.1-1.2,0.6-1.3,1.3c0,0-1.2,4.2-1.5,5.1s1.1,1.3,1.4,0.4c0.3-0.9,1.1-3.1,1.3-3.7
			s0.4-0.6,0.5-0.1C48.4-4,49.9,6.5,50,7.8s2.2,1,2-0.3c-0.2-1.3-0.7-5.3-0.8-6.1c-0.1-0.7,0.3-0.7,0.3,0s0.7,4.8,0.8,6.1
			c0.2,1.3,2.2,1,2-0.3S52.8-4.6,52.7-5.1s0.1-0.5,0.5-0.1c0.3,0.5,1.7,2.4,2.2,3.2c0.5,0.8,1.7,0,1.2-0.7c-0.5-0.8-2.8-4.6-2.8-4.6
			c-0.3-0.6-0.9-1-1.6-0.9L48-7.5z"/>
		<path class="st7" d="M48-9.7c-0.1-1,0.6-2,1.6-2.1s2,0.6,2.1,1.6c0.1,1-0.6,2-1.6,2.1C49.1-8,48.1-8.7,48-9.7
			C48-9.7,48-9.7,48-9.7z"/>
		<path class="st8" d="M37.9-6.1c-0.7,0.1-1.2,0.6-1.3,1.3c0,0-1.2,4.2-1.5,5.1s1.1,1.3,1.4,0.4c0.3-0.9,1.1-3.1,1.3-3.7
			s0.4-0.6,0.5-0.1c0.1,0.5,1.5,11,1.7,12.3c0.2,1.3,2.2,1,2-0.3c-0.2-1.3-0.7-5.3-0.8-6.1c-0.1-0.7,0.3-0.7,0.3,0
			c0.1,0.7,0.7,4.8,0.8,6.1s2.2,1,2-0.3c-0.2-1.3-1.6-11.8-1.7-12.3c-0.1-0.5,0.1-0.5,0.5-0.1c0.3,0.5,1.7,2.4,2.2,3.2
			s1.7,0,1.2-0.7s-2.8-4.6-2.8-4.6c-0.3-0.6-0.9-1-1.6-0.9L37.9-6.1z"/>
		<path class="st8" d="M37.9-8.3c-0.1-1,0.6-2,1.6-2.1s2,0.6,2.1,1.6S41-6.9,40-6.8c0,0,0,0,0,0C39-6.6,38-7.3,37.9-8.3z"/>
		<path class="st9" d="M27.7-4.7c-0.7,0.1-1.2,0.6-1.3,1.3c0,0-1.2,4.2-1.5,5.1s1.1,1.3,1.4,0.4c0.3-0.9,1.1-3.1,1.3-3.7
			s0.4-0.6,0.5-0.1c0.1,0.5,1.5,11,1.7,12.3s2.2,1,2-0.3C31.7,9,31.1,5,31,4.2c-0.1-0.7,0.3-0.7,0.3,0c0.1,0.7,0.7,4.8,0.8,6.1
			s2.2,1,2-0.3C34,8.7,32.6-1.8,32.5-2.3c-0.1-0.5,0.1-0.5,0.5-0.1s1.7,2.4,2.2,3.2c0.5,0.8,1.7,0,1.2-0.7s-2.8-4.6-2.8-4.6
			c-0.3-0.6-0.9-1-1.6-0.9L27.7-4.7z"/>
		<path class="st9" d="M27.8-7c-0.1-1,0.6-2,1.6-2.1c1-0.1,2,0.6,2.1,1.6c0.1,1-0.6,2-1.6,2.1C28.9-5.2,27.9-5.9,27.8-7
			C27.8-7,27.8-7,27.8-7z"/>
		<path class="st10" d="M17.7-3.3c-0.7,0.1-1.2,0.6-1.3,1.3c0,0-1.2,4.2-1.5,5.1c-0.3,0.9,1.1,1.3,1.4,0.4c0.3-0.9,1.1-3.1,1.3-3.7
			S18-0.8,18-0.3c0.1,0.5,1.5,11,1.7,12.3s2.2,1,2-0.3S21,6.4,20.9,5.6c-0.1-0.7,0.3-0.7,0.3,0c0.1,0.7,0.7,4.8,0.8,6.1s2.2,1,2-0.3
			S22.5-0.4,22.4-0.9c-0.1-0.5,0.1-0.5,0.5-0.1s1.7,2.4,2.2,3.2c0.5,0.8,1.7,0,1.2-0.7s-2.8-4.6-2.8-4.6c-0.3-0.6-0.9-1-1.6-0.9
			L17.7-3.3z"/>
		<path class="st10" d="M17.7-5.5c-0.1-1,0.6-2,1.6-2.1s2,0.6,2.1,1.6c0.1,1-0.6,2-1.6,2.1C18.8-3.8,17.8-4.5,17.7-5.5z"/>
		<path class="st11" d="M7.6-2C6.9-1.9,6.4-1.4,6.3-0.7c0,0-1.2,4.2-1.5,5.1C4.5,5.3,5.9,5.8,6.2,4.9c0.3-0.9,1.1-3.1,1.3-3.7
			c0.2-0.6,0.4-0.6,0.5-0.1c0.1,0.5,1.5,11,1.7,12.3c0.2,1.3,2.2,1,2-0.3S10.9,7.8,10.8,7c-0.1-0.7,0.3-0.7,0.3,0s0.7,4.8,0.8,6.1
			c0.2,1.3,2.2,1,2-0.3C13.8,11.5,12.4,1,12.3,0.5s0.1-0.5,0.5-0.1c0.3,0.5,1.7,2.4,2.2,3.2c0.5,0.8,1.7,0,1.2-0.7s-2.8-4.6-2.8-4.6
			c-0.3-0.6-0.9-1-1.6-0.9L7.6-2z"/>
		<ellipse transform="matrix(0.9906 -0.1371 0.1371 0.9906 0.6936 1.2523)" class="st11" cx="9.4" cy="-4.4" rx="1.9" ry="1.9"/>
		<path class="st12" d="M-2.5-0.6C-3.2-0.5-3.7,0-3.8,0.7c0,0-1.2,4.2-1.5,5.1c-0.3,0.9,1.1,1.3,1.4,0.4s1.1-3.1,1.3-3.7
			C-2.4,2-2.2,2-2.2,2.5s1.5,11,1.7,12.3s2.2,1,2-0.3S0.8,9.2,0.7,8.4C0.6,7.7,1,7.7,1.1,8.4c0.1,0.7,0.7,4.8,0.8,6.1s2.2,1,2-0.3
			C3.8,12.9,2.3,2.4,2.2,1.9C2.2,1.4,2.4,1.3,2.7,1.8S4.4,4.2,4.9,5s1.7,0,1.2-0.7S3.4-0.3,3.4-0.3c-0.3-0.6-0.9-1-1.6-0.9L-2.5-0.6
			z"/>
		<path class="st13" d="M61.5-0.5c-0.1,0-0.1,0.2-0.1,0.5c0.1,0.7,0.7,4.8,0.8,6.1c0.2,1.3-1.9,1.6-2,0.3C60,5.1,58.6-5.4,58.5-5.9
			s-0.3-0.5-0.5,0.1s-1,2.8-1.3,3.7s-1.7,0.5-1.4-0.4s1.4-5.1,1.4-5.1c0.1-0.6,0.6-1.1,1.2-1.2l2.2-0.3L61.5-0.5z"/>
		<path class="st13" d="M59.7-13.3c-1,0.1-1.7,1.1-1.6,2.1c0.1,1,1.1,1.7,2.1,1.6L59.7-13.3z"/>
		<path class="st14" d="M45.9,35c0.3-0.9,1.5-5,1.5-5c0.1-0.6,0.6-1.2,1.2-1.2l3.3-0.5c0.6-0.1,1.3,0.3,1.5,0.9c0,0,1.2,1.9,2.1,3.3
			c0.4-1.5,1-3.7,1-3.7c0.1-0.7,0.6-1.2,1.3-1.2l4.2-0.6c0.7-0.1,1.3,0.2,1.6,0.8c0,0,2.2,3.7,2.7,4.4c0.5,0.8-0.7,1.6-1.2,0.8
			c-0.5-0.8-1.8-2.7-2.2-3.2c-0.3-0.5-0.5-0.4-0.5,0.1c0.1,0.5,1.5,10.8,1.7,12c0.2,1.2-1.8,1.5-2,0.3s-0.7-5.2-0.8-5.9
			c-0.1-0.6-0.4-0.6-0.3,0c0.1,0.7,0.7,4.7,0.8,5.9c0.2,1.3-1.8,1.5-2,0.3s-1.6-11.5-1.7-12s-0.3-0.5-0.5,0.1
			c-0.2,0.5-0.9,2.7-1.2,3.6c-0.1,0.3-0.4,0.5-0.7,0.5c-0.2,0-0.5-0.1-0.6-0.3c-0.5-0.8-1.9-2.8-2.2-3.3c-0.3-0.5-0.6-0.4-0.4,0.1
			c0,0.1,0.4,1.3,1,2.4c0.8,1.6,1.8,3.5,1.8,3.5l-1.9,0.3c0,0,0.7,5.4,0.8,6c0.1,0.5-0.2,1-0.7,1.1c-0.5,0.1-1-0.2-1.1-0.7
			c0,0,0-0.1,0-0.1c-0.2-1.3-0.8-5.9-0.8-5.9l-0.3,0c0,0,0.7,4.7,0.8,5.9c0.1,0.5-0.2,1-0.7,1.1c-0.5,0.1-1-0.2-1.1-0.7
			c0,0,0-0.1,0-0.1c-0.1-0.6-0.5-3.3-0.8-5.9l-1.9,0.3c0,0,0.5-2,0.8-3.7c0.2-1.3,0.3-2.6,0.3-2.7c0.1-0.4-0.2-0.5-0.4,0.1
			c-0.2,0.5-0.9,2.8-1.2,3.7C46.9,36.4,45.6,35.9,45.9,35z"/>
		<path class="st14" d="M50.2,28.3c-1,0.1-1.9-0.6-2.1-1.6s0.6-1.9,1.6-2.1c1-0.1,1.9,0.6,2.1,1.6c0,0,0,0,0,0
			C51.9,27.2,51.2,28.1,50.2,28.3z"/>
		<path class="st14" d="M59.8,26.9c-1,0.1-1.9-0.6-2.1-1.6c-0.1-1,0.6-1.9,1.6-2.1c1-0.1,1.9,0.6,2.1,1.6c0,0,0,0,0,0
			C61.5,25.9,60.8,26.8,59.8,26.9z"/>
		<path class="st15" d="M26.7,37.7c0.3-0.9,1.5-5,1.5-5c0.1-0.6,0.6-1.2,1.2-1.2l3.3-0.5c0.6-0.1,1.3,0.2,1.5,0.9
			c0,0,1.2,1.9,2.1,3.3c0.4-1.5,1-3.7,1-3.7c0.1-0.7,0.6-1.2,1.3-1.2l4.2-0.6c0.7-0.1,1.3,0.2,1.6,0.8c0,0,2.2,3.7,2.7,4.4
			c0.5,0.8-0.7,1.6-1.2,0.8c-0.5-0.8-1.8-2.7-2.2-3.2s-0.5-0.4-0.5,0.1s1.5,10.8,1.7,12c0.2,1.2-1.8,1.5-2,0.3s-0.7-5.2-0.8-5.9
			c-0.1-0.6-0.4-0.6-0.3,0s0.7,4.7,0.8,5.9c0.2,1.3-1.8,1.5-2,0.3S39,33.6,39,33.1s-0.3-0.5-0.5,0.1c-0.2,0.5-0.9,2.7-1.2,3.6
			c-0.1,0.3-0.4,0.5-0.7,0.5c-0.2,0-0.5-0.1-0.6-0.3c-0.5-0.8-1.9-2.8-2.2-3.3c-0.3-0.5-0.6-0.4-0.4,0.1c0,0.1,0.4,1.3,1,2.4
			c0.8,1.6,1.8,3.5,1.8,3.5l-1.9,0.3l0.8,6c0.1,0.5-0.2,1-0.7,1.1s-1-0.2-1.1-0.7c0,0,0-0.1,0-0.1c-0.2-1.3-0.8-5.9-0.8-5.9l-0.3,0
			c0,0,0.7,4.7,0.8,5.9c0.1,0.5-0.2,1-0.7,1.1c-0.5,0.1-1-0.2-1.1-0.7c0,0,0-0.1,0-0.1c-0.1-0.6-0.5-3.3-0.8-5.9l-1.9,0.3
			c0,0,0.5-2,0.8-3.7c0.2-1.3,0.3-2.6,0.3-2.7c0.1-0.4-0.2-0.5-0.4,0.1c-0.2,0.5-0.9,2.8-1.2,3.7C27.7,39,26.5,38.6,26.7,37.7z"/>
		<path class="st15" d="M31,30.9c-1,0.1-1.9-0.6-2.1-1.6c-0.1-1,0.6-1.9,1.6-2.1c1-0.1,1.9,0.6,2.1,1.6c0,0,0,0,0,0
			C32.7,29.9,32,30.8,31,30.9z"/>
		<path class="st15" d="M40.7,29.6c-1,0.1-1.9-0.6-2.1-1.6c-0.1-1,0.6-1.9,1.6-2.1c1-0.1,1.9,0.6,2.1,1.6c0,0,0,0,0,0
			C42.4,28.5,41.7,29.4,40.7,29.6z"/>
		<path class="st16" d="M5,40.7c0.3-0.9,1.5-5,1.5-5c0.1-0.6,0.6-1.2,1.2-1.2L11,34c0.6-0.1,1.3,0.2,1.5,0.9c0,0,1.2,1.9,2.1,3.3
			c0.4-1.5,1-3.7,1-3.7c0.1-0.7,0.6-1.2,1.3-1.2l4.2-0.6c0.7-0.1,1.3,0.2,1.6,0.8c0,0,2.2,3.7,2.7,4.4c0.5,0.8-0.7,1.6-1.2,0.8
			c-0.5-0.8-1.8-2.7-2.2-3.2c-0.3-0.5-0.5-0.4-0.5,0.1c0.1,0.5,1.5,10.8,1.7,12c0.2,1.3-1.8,1.5-2,0.3c-0.2-1.3-0.7-5.2-0.8-5.9
			c-0.1-0.6-0.4-0.6-0.3,0c0.1,0.7,0.7,4.7,0.8,5.9s-1.8,1.5-2,0.3c-0.2-1.2-1.6-11.5-1.7-12c-0.1-0.5-0.3-0.5-0.5,0.1
			s-0.9,2.7-1.2,3.6c-0.1,0.3-0.4,0.5-0.7,0.5c-0.2,0-0.5-0.1-0.6-0.3c-0.5-0.8-1.9-2.8-2.2-3.3c-0.3-0.5-0.6-0.4-0.4,0.1
			c0,0.1,0.4,1.3,1,2.4c0.8,1.6,1.8,3.5,1.8,3.5l-1.9,0.3l0.8,6c0.1,0.5-0.2,1-0.7,1.1c-0.5,0.1-1-0.2-1.1-0.7c0,0,0-0.1,0-0.1
			c-0.2-1.3-0.8-5.9-0.8-5.9l-0.3,0c0,0,0.7,4.7,0.8,5.9c0.1,0.5-0.2,1-0.7,1.1c-0.5,0.1-1-0.2-1.1-0.7c0,0,0-0.1,0-0.1
			c-0.1-0.6-0.5-3.3-0.8-5.9l-1.9,0.3c0,0,0.5-2,0.8-3.7c0.2-1.3,0.3-2.6,0.3-2.7c0.1-0.4-0.2-0.5-0.4,0.1c-0.2,0.5-0.9,2.8-1.2,3.7
			C5.9,42,4.7,41.6,5,40.7z"/>
		<path class="st16" d="M9.2,33.9c-1,0.1-1.9-0.6-2.1-1.6c-0.1-1,0.6-1.9,1.6-2.1c1-0.1,1.9,0.6,2.1,1.6c0,0,0,0,0,0
			C10.9,32.9,10.2,33.8,9.2,33.9C9.2,33.9,9.2,33.9,9.2,33.9z"/>
		<path class="st16" d="M20.2,32.4c-1,0.1-1.9-0.6-2.1-1.6c-0.1-1,0.6-1.9,1.6-2.1c1-0.1,1.9,0.6,2.1,1.6c0,0,0,0,0,0
			C21.9,31.4,21.2,32.3,20.2,32.4z"/>
		<path class="st17" d="M-14.2,43.3c0.3-0.9,1.5-5,1.5-5c0.1-0.6,0.6-1.2,1.2-1.2l3.3-0.5c0.6-0.1,1.3,0.2,1.5,0.9
			c0,0,1.2,1.9,2.1,3.3c0.4-1.5,1-3.7,1-3.7c0.1-0.7,0.6-1.2,1.3-1.2l4.2-0.6c0.7-0.1,1.3,0.2,1.6,0.8c0,0,2.2,3.7,2.7,4.4
			c0.5,0.8-0.7,1.6-1.2,0.8s-1.8-2.7-2.2-3.2c-0.3-0.5-0.5-0.4-0.5,0.1S3.8,49,4,50.2c0.2,1.2-1.8,1.5-2,0.3
			c-0.2-1.3-0.7-5.2-0.8-5.9c-0.1-0.6-0.4-0.6-0.3,0c0.1,0.7,0.7,4.7,0.8,5.9c0.2,1.3-1.8,1.5-2,0.3s-1.6-11.5-1.7-12
			s-0.3-0.5-0.5,0.1c-0.2,0.5-0.9,2.7-1.2,3.6C-3.7,42.8-4,43-4.4,43c-0.2,0-0.5-0.1-0.6-0.3c-0.5-0.8-1.9-2.8-2.2-3.3
			s-0.6-0.4-0.4,0.1c0,0.1,0.4,1.3,1,2.4c0.8,1.6,1.8,3.5,1.8,3.5l-1.9,0.3l0.8,6c0.1,0.5-0.2,1-0.7,1.1c-0.5,0.1-1-0.2-1.1-0.7
			c0,0,0-0.1,0-0.1c-0.2-1.3-0.8-5.9-0.8-5.9l-0.3,0c0,0,0.7,4.7,0.8,5.9c0.1,0.5-0.2,1-0.7,1.1c-0.5,0.1-1-0.2-1.1-0.7
			c0,0,0-0.1,0-0.1c-0.1-0.6-0.5-3.3-0.8-5.9l-1.9,0.3c0,0,0.5-2,0.8-3.7c0.2-1.3,0.3-2.6,0.3-2.7c0.1-0.4-0.2-0.5-0.4,0.1
			c-0.2,0.5-0.9,2.8-1.2,3.7S-14.5,44.2-14.2,43.3z"/>
		<path class="st8" d="M5.2,22.9c0.7-0.1,1.3,0.3,1.6,0.9c0,0,2.3,3.7,2.8,4.5c0.5,0.8-0.7,1.6-1.2,0.8c-0.5-0.8-1.9-2.7-2.2-3.2
			c-0.3-0.5-0.5-0.4-0.5,0.1c0.1,0.5,1.5,11,1.7,12.3c0.2,1.3-1.9,1.6-2,0.3s-0.7-5.3-0.8-6.1c-0.1-0.7-0.4-0.6-0.3,0
			c0.1,0.7,0.7,4.8,0.8,6.1s-1.9,1.6-2,0.3C2.8,37.5,1.3,27,1.3,26.5C1.2,26,1,26.1,0.8,26.6c-0.2,0.6-1,2.8-1.3,3.7
			s-1.7,0.5-1.4-0.4s1.4-5.1,1.4-5.1c0.1-0.7,0.6-1.2,1.3-1.3L5.2,22.9z"/>
		<path class="st8" d="M4.6,20.8c-0.1-1-1.1-1.7-2.1-1.6c-1,0.1-1.7,1.1-1.6,2.1C1,22.3,2,23.1,3,22.9C4,22.8,4.7,21.8,4.6,20.8z"/>
		<path class="st16" d="M15.3,21.5c0.7-0.1,1.3,0.3,1.6,0.9c0,0,2.3,3.7,2.8,4.5c0.5,0.8-0.7,1.6-1.2,0.8s-1.9-2.7-2.2-3.2
			c-0.3-0.5-0.5-0.4-0.5,0.1c0.1,0.5,1.5,11,1.7,12.3s-1.9,1.6-2,0.3c-0.2-1.3-0.7-5.3-0.8-6.1c-0.1-0.7-0.4-0.6-0.3,0
			c0.1,0.7,0.7,4.8,0.8,6.1s-1.9,1.6-2,0.3s-1.6-11.8-1.7-12.3c-0.1-0.5-0.3-0.5-0.5,0.1c-0.2,0.6-1,2.8-1.3,3.7S8,29.4,8.3,28.5
			c0.3-0.9,1.4-5.2,1.4-5.2c0.1-0.7,0.6-1.2,1.3-1.3L15.3,21.5z"/>
		<path class="st16" d="M14.7,19.4c-0.1-1-1.1-1.7-2.1-1.6c-1,0.1-1.7,1.1-1.6,2.1c0.1,1,1.1,1.7,2.1,1.6c0,0,0,0,0,0
			C14.1,21.4,14.8,20.4,14.7,19.4z"/>
		<path class="st18" d="M25.4,20.1c0.7-0.1,1.3,0.3,1.6,0.9c0,0,2.3,3.7,2.8,4.5s-0.7,1.6-1.2,0.8c-0.5-0.8-1.9-2.7-2.2-3.2
			c-0.3-0.5-0.5-0.4-0.5,0.1c0.1,0.5,1.5,11,1.7,12.3c0.2,1.3-1.9,1.6-2,0.3c-0.2-1.3-0.7-5.3-0.8-6.1c-0.1-0.7-0.4-0.6-0.3,0
			c0.1,0.7,0.7,4.8,0.8,6.1s-1.9,1.6-2,0.3c-0.2-1.3-1.6-11.8-1.7-12.3c-0.1-0.5-0.3-0.5-0.5,0.1s-1,2.8-1.3,3.7
			c-0.3,0.9-1.7,0.5-1.4-0.4c0.3-0.9,1.4-5.2,1.4-5.2c0.1-0.7,0.6-1.2,1.3-1.3L25.4,20.1z"/>
		<ellipse transform="matrix(0.9906 -0.1371 0.1371 0.9906 -2.2877 3.3142)" class="st18" cx="22.9" cy="18.3" rx="1.9" ry="1.9"/>
		<path class="st19" d="M45.6,17.3c0.7-0.1,1.3,0.3,1.6,0.9c0,0,2.3,3.7,2.8,4.5c0.5,0.8-0.7,1.6-1.2,0.8c-0.5-0.8-1.9-2.7-2.2-3.2
			S46,19.9,46,20.3s1.5,11,1.7,12.3c0.2,1.3-1.9,1.6-2,0.3c-0.2-1.3-0.7-5.3-0.8-6.1c-0.1-0.7-0.4-0.6-0.3,0
			c0.1,0.7,0.7,4.8,0.8,6.1c0.2,1.3-1.9,1.6-2,0.3C43.2,32,41.7,21.5,41.6,21c-0.1-0.5-0.3-0.5-0.5,0.1c-0.2,0.6-1,2.8-1.3,3.7
			s-1.7,0.5-1.4-0.4s1.4-5.2,1.4-5.2c0.1-0.7,0.6-1.2,1.3-1.3L45.6,17.3z"/>
		<path class="st19" d="M45,15.2c-0.1-1-1.1-1.7-2.1-1.6c-1,0.1-1.7,1.1-1.6,2.1c0.1,1,1.1,1.7,2.1,1.6C44.4,17.2,45.1,16.2,45,15.2
			z"/>
		<path class="st13" d="M64.8,23.6c-0.1,0-0.1,0.2-0.1,0.5c0.1,0.7,0.7,4.8,0.8,6.1s-1.9,1.6-2,0.3c-0.2-1.3-1.6-11.8-1.7-12.3
			c-0.1-0.5-0.3-0.5-0.5,0.1c-0.2,0.6-1,2.8-1.3,3.7c-0.3,0.9-1.7,0.5-1.4-0.4c0.3-0.9,1.4-5.2,1.4-5.2c0.1-0.6,0.6-1.1,1.2-1.3
			l2.2-0.3L64.8,23.6z"/>
		<path class="st13" d="M63.1,10.8c-1,0.1-1.7,1.1-1.6,2.1c0.1,1,1.1,1.7,2.1,1.6L63.1,10.8z"/>
		<path class="st14" d="M49,57.5c0.3-0.9,1.5-5,1.5-5c0.1-0.6,0.6-1.2,1.2-1.2l3.3-0.5c0.6-0.1,1.3,0.3,1.5,0.9c0,0,1.2,1.9,2.1,3.3
			c0.4-1.5,1-3.7,1-3.7c0.1-0.7,0.6-1.2,1.3-1.2l4.2-0.6c0.7-0.1,1.3,0.2,1.6,0.8c0,0,2.2,3.7,2.7,4.4c0.5,0.8-0.7,1.6-1.2,0.8
			c-0.5-0.8-1.8-2.7-2.2-3.2c-0.3-0.5-0.5-0.4-0.5,0.1c0.1,0.5,1.5,10.8,1.7,12c0.2,1.2-1.8,1.5-2,0.3c-0.2-1.3-0.7-5.2-0.8-5.9
			c-0.1-0.6-0.4-0.6-0.3,0c0.1,0.7,0.7,4.7,0.8,5.9c0.2,1.3-1.8,1.5-2,0.3c-0.2-1.2-1.6-11.5-1.7-12S61,52.5,60.8,53
			c-0.2,0.5-0.9,2.7-1.2,3.6c-0.1,0.3-0.4,0.5-0.7,0.5c-0.2,0-0.5-0.1-0.6-0.3c-0.5-0.8-1.9-2.8-2.2-3.3s-0.6-0.4-0.4,0.1
			c0,0.1,0.4,1.3,1,2.4c0.8,1.6,1.8,3.5,1.8,3.5l-1.9,0.3c0,0,0.7,5.4,0.8,6c0.1,0.5-0.2,1-0.7,1.1c-0.5,0.1-1-0.2-1.1-0.7
			c0,0,0-0.1,0-0.1c-0.2-1.3-0.8-5.9-0.8-5.9l-0.3,0c0,0,0.7,4.7,0.8,5.9c0.1,0.5-0.2,1-0.7,1.1s-1-0.2-1.1-0.7c0,0,0-0.1,0-0.1
			c-0.1-0.6-0.5-3.3-0.8-5.9l-1.9,0.3c0,0,0.5-2,0.8-3.7c0.2-1.3,0.3-2.6,0.3-2.7c0.1-0.4-0.2-0.5-0.4,0.1s-0.9,2.8-1.2,3.7
			C50,58.9,48.8,58.4,49,57.5z"/>
		<path class="st14" d="M53.3,50.8c-1,0.1-1.9-0.6-2.1-1.6c-0.1-1,0.6-1.9,1.6-2.1c1-0.1,1.9,0.6,2.1,1.6c0,0,0,0,0,0
			C55,49.7,54.3,50.6,53.3,50.8z"/>
		<path class="st14" d="M63,49.4c-1,0.1-1.9-0.6-2.1-1.6c-0.1-1,0.6-1.9,1.6-2.1c1-0.1,1.9,0.6,2.1,1.6c0,0,0,0,0,0
			C64.7,48.4,64,49.3,63,49.4C63,49.4,63,49.4,63,49.4z"/>
		<path class="st15" d="M29.9,60.2c0.3-0.9,1.5-5,1.5-5c0.1-0.6,0.6-1.2,1.2-1.2l3.3-0.5c0.6-0.1,1.3,0.3,1.5,0.9
			c0,0,1.2,1.9,2.1,3.3c0.4-1.5,1-3.7,1-3.7c0.1-0.7,0.6-1.2,1.3-1.2l4.2-0.6c0.7-0.1,1.3,0.2,1.6,0.8c0,0,2.2,3.7,2.7,4.4
			s-0.7,1.6-1.2,0.8c-0.5-0.8-1.8-2.7-2.2-3.2c-0.3-0.5-0.5-0.4-0.5,0.1c0.1,0.5,1.5,10.8,1.7,12c0.2,1.2-1.8,1.5-2,0.3
			c-0.2-1.3-0.7-5.2-0.8-5.9c-0.1-0.6-0.4-0.6-0.3,0c0.1,0.7,0.7,4.7,0.8,5.9c0.2,1.3-1.8,1.5-2,0.3c-0.2-1.2-1.6-11.5-1.7-12
			s-0.3-0.5-0.5,0.1c-0.2,0.5-0.9,2.7-1.2,3.6c-0.1,0.3-0.4,0.5-0.7,0.5c-0.2,0-0.5-0.1-0.6-0.3c-0.5-0.8-1.9-2.8-2.2-3.3
			c-0.3-0.5-0.6-0.4-0.4,0.1c0,0.1,0.4,1.3,1,2.4c0.8,1.6,1.8,3.5,1.8,3.5l-1.9,0.3l0.8,6c0.1,0.5-0.2,1-0.7,1.1
			c-0.5,0.1-1-0.2-1.1-0.7c0,0,0-0.1,0-0.1c-0.2-1.3-0.8-5.9-0.8-5.9l-0.3,0c0,0,0.7,4.7,0.8,5.9c0.1,0.5-0.2,1-0.7,1.1
			s-1-0.2-1.1-0.7c0,0,0-0.1,0-0.1c-0.1-0.6-0.5-3.3-0.8-5.9l-1.9,0.3c0,0,0.5-2,0.8-3.7c0.2-1.3,0.3-2.6,0.3-2.7
			c0.1-0.4-0.2-0.5-0.4,0.1s-0.9,2.8-1.2,3.7C30.8,61.5,29.6,61,29.9,60.2z"/>
		<path class="st15" d="M34.1,53.4c-1,0.1-1.9-0.6-2.1-1.6c-0.1-1,0.6-1.9,1.6-2.1c1-0.1,1.9,0.6,2.1,1.6c0,0,0,0,0,0
			C35.8,52.3,35.1,53.3,34.1,53.4C34.1,53.4,34.1,53.4,34.1,53.4z"/>
		<path class="st15" d="M43.8,52.1c-1,0.1-1.9-0.6-2.1-1.6c-0.1-1,0.6-1.9,1.6-2.1c1-0.1,1.9,0.6,2.1,1.6c0,0,0,0,0,0
			C45.5,51,44.8,51.9,43.8,52.1z"/>
		<path class="st16" d="M8.1,63.2c0.3-0.9,1.5-5,1.5-5c0.1-0.6,0.6-1.2,1.2-1.2l3.3-0.5c0.6-0.1,1.3,0.3,1.5,0.9
			c0,0,1.2,1.9,2.1,3.3c0.4-1.5,1-3.7,1-3.7c0.1-0.7,0.6-1.2,1.3-1.2l4.2-0.6c0.7-0.1,1.3,0.2,1.6,0.8c0,0,2.2,3.7,2.7,4.4
			c0.5,0.8-0.7,1.6-1.2,0.8c-0.5-0.8-1.8-2.7-2.2-3.2c-0.3-0.5-0.5-0.4-0.5,0.1s1.5,10.8,1.7,12c0.2,1.2-1.8,1.5-2,0.3
			s-0.7-5.2-0.8-5.9c-0.1-0.6-0.4-0.6-0.3,0c0.1,0.7,0.7,4.7,0.8,5.9c0.2,1.3-1.8,1.5-2,0.3s-1.6-11.5-1.7-12
			c-0.1-0.5-0.3-0.5-0.5,0.1c-0.2,0.5-0.9,2.7-1.2,3.6c-0.1,0.3-0.4,0.5-0.7,0.5c-0.2,0-0.5-0.1-0.6-0.3c-0.5-0.8-1.9-2.8-2.2-3.3
			c-0.3-0.5-0.6-0.4-0.4,0.1c0,0.1,0.4,1.3,1,2.4c0.8,1.6,1.8,3.5,1.8,3.5l-1.9,0.3c0,0,0.7,5.4,0.8,6c0.1,0.5-0.2,1-0.7,1.1
			c-0.5,0.1-1-0.2-1.1-0.7c0,0,0-0.1,0-0.1c-0.2-1.3-0.8-5.9-0.8-5.9l-0.3,0c0,0,0.7,4.7,0.8,5.9c0.1,0.5-0.2,1-0.7,1.1
			s-1-0.2-1.1-0.7c0,0,0-0.1,0-0.1c-0.1-0.6-0.5-3.3-0.8-5.9l-1.9,0.3c0,0,0.5-2,0.8-3.7c0.2-1.3,0.3-2.6,0.3-2.7
			c0.1-0.4-0.2-0.5-0.4,0.1s-0.9,2.8-1.2,3.7S7.8,64.1,8.1,63.2z"/>
		<path class="st16" d="M12.3,56.4c-1,0.1-1.9-0.6-2.1-1.6c-0.1-1,0.6-1.9,1.6-2.1c1-0.1,1.9,0.6,2.1,1.6c0,0,0,0,0,0
			C14,55.4,13.3,56.3,12.3,56.4C12.3,56.4,12.3,56.4,12.3,56.4z"/>
		<path class="st16" d="M23.3,54.9c-1,0.1-1.9-0.6-2.1-1.6s0.6-1.9,1.6-2.1s1.9,0.6,2.1,1.6c0,0,0,0,0,0
			C25,53.8,24.3,54.8,23.3,54.9z"/>
		<path class="st20" d="M-11.1,65.8c0.3-0.9,1.5-5,1.5-5c0.1-0.6,0.6-1.2,1.2-1.2l3.3-0.5c0.6-0.1,1.3,0.2,1.5,0.9
			c0,0,1.2,1.9,2.1,3.3c0.4-1.5,1-3.7,1-3.7c0.1-0.7,0.6-1.2,1.3-1.2L5,57.7c0.7-0.1,1.3,0.2,1.6,0.8c0,0,2.2,3.7,2.7,4.4
			c0.5,0.8-0.7,1.6-1.2,0.8c-0.5-0.8-1.8-2.7-2.2-3.2s-0.5-0.4-0.5,0.1s1.5,10.8,1.7,12c0.2,1.3-1.8,1.5-2,0.3
			c-0.2-1.3-0.7-5.2-0.8-5.9c-0.1-0.6-0.4-0.6-0.3,0c0.1,0.7,0.7,4.7,0.8,5.9s-1.8,1.5-2,0.3c-0.2-1.2-1.6-11.5-1.7-12
			c-0.1-0.5-0.3-0.5-0.5,0.1s-1,2.7-1.2,3.6c-0.1,0.3-0.4,0.5-0.7,0.5c-0.2,0-0.5-0.1-0.6-0.3c-0.5-0.8-1.9-2.8-2.2-3.3
			c-0.3-0.5-0.6-0.4-0.4,0.1c0,0.1,0.4,1.3,1,2.4c0.8,1.6,1.8,3.5,1.8,3.5l-1.9,0.3l0.8,6c0.1,0.5-0.2,1-0.7,1.1s-1-0.2-1.1-0.7
			c0,0,0-0.1,0-0.1c-0.2-1.3-0.8-5.9-0.8-5.9l-0.3,0c0,0,0.7,4.7,0.8,5.9c0.1,0.5-0.2,1-0.7,1.1c-0.5,0.1-1-0.2-1.1-0.7
			c0,0,0-0.1,0-0.1C-6.7,74-7,71.3-7.4,68.7l-1.9,0.3c0,0,0.5-2,0.8-3.7c0.2-1.3,0.3-2.6,0.3-2.7c0.1-0.4-0.2-0.5-0.4,0.1
			c-0.2,0.5-0.9,2.8-1.2,3.7C-10.2,67.2-11.4,66.7-11.1,65.8z"/>
		<path class="st20" d="M2.8,57.7c-1,0.1-1.9-0.6-2.1-1.6c0,0,0,0,0,0c-0.1-1,0.6-1.9,1.6-2.1c1-0.1,1.9,0.6,2.1,1.6
			C4.5,56.7,3.8,57.6,2.8,57.7z"/>
		<path class="st7" d="M54.4,39c-0.7,0.1-1.2,0.6-1.3,1.3c0,0-1.2,4.2-1.5,5.1c-0.3,0.9,1.1,1.3,1.4,0.4s1.1-3.1,1.3-3.7
			c0.2-0.6,0.4-0.6,0.5-0.1c0.1,0.5,1.5,11,1.7,12.3c0.2,1.3,2.2,1,2-0.3c-0.2-1.3-0.7-5.3-0.8-6.1c-0.1-0.7,0.3-0.7,0.3,0
			s0.7,4.8,0.8,6.1c0.2,1.3,2.2,1,2-0.3s-1.6-11.8-1.7-12.3c-0.1-0.5,0.1-0.5,0.5-0.1c0.3,0.5,1.7,2.4,2.2,3.2s1.7,0,1.2-0.7
			c-0.5-0.8-2.8-4.6-2.8-4.6c-0.3-0.6-0.9-1-1.6-0.9L54.4,39z"/>
		<path class="st7" d="M54.4,36.8c-0.1-1,0.6-2,1.6-2.1c1-0.1,2,0.6,2.1,1.6c0.1,1-0.6,2-1.6,2.1C55.5,38.6,54.6,37.8,54.4,36.8z"/>
		<path class="st8" d="M44.3,40.4c-0.7,0.1-1.2,0.6-1.3,1.3c0,0-1.2,4.2-1.5,5.1c-0.3,0.9,1.1,1.3,1.4,0.4c0.3-0.9,1.1-3.1,1.3-3.7
			c0.2-0.6,0.4-0.6,0.5-0.1c0.1,0.5,1.5,11,1.7,12.3c0.2,1.3,2.2,1,2-0.3c-0.2-1.3-0.7-5.3-0.8-6.1c-0.1-0.7,0.3-0.7,0.3,0
			c0.1,0.7,0.7,4.8,0.8,6.1c0.2,1.3,2.2,1,2-0.3c-0.2-1.3-1.6-11.8-1.7-12.3c-0.1-0.5,0.1-0.5,0.5-0.1s1.7,2.4,2.2,3.2
			c0.5,0.8,1.7,0,1.2-0.7s-2.8-4.6-2.8-4.6c-0.3-0.6-0.9-1-1.6-0.9L44.3,40.4z"/>
		<path class="st8" d="M44.3,38.2c-0.1-1,0.6-2,1.6-2.1s2,0.6,2.1,1.6c0.1,1-0.6,2-1.6,2.1C45.4,40,44.5,39.2,44.3,38.2
			C44.3,38.2,44.3,38.2,44.3,38.2z"/>
		<path class="st9" d="M34.2,41.8c-0.7,0.1-1.2,0.6-1.3,1.3c0,0-1.2,4.2-1.5,5.1c-0.3,0.9,1.1,1.3,1.4,0.4c0.3-0.9,1.1-3.1,1.3-3.7
			c0.2-0.6,0.4-0.6,0.5-0.1c0.1,0.5,1.5,11,1.7,12.3c0.2,1.3,2.2,1,2-0.3c-0.2-1.3-0.7-5.3-0.8-6.1c-0.1-0.7,0.3-0.7,0.3,0
			c0.1,0.7,0.7,4.8,0.8,6.1s2.2,1,2-0.3C40.5,55.2,39,44.7,39,44.2s0.1-0.5,0.5-0.1c0.3,0.5,1.7,2.4,2.2,3.2c0.5,0.8,1.7,0,1.2-0.7
			c-0.5-0.8-2.8-4.6-2.8-4.6c-0.3-0.6-0.9-1-1.6-0.9L34.2,41.8z"/>
		<path class="st9" d="M34.2,39.6c-0.1-1,0.6-2,1.6-2.1c1-0.1,2,0.6,2.1,1.6c0.1,1-0.6,2-1.6,2.1C35.3,41.4,34.4,40.6,34.2,39.6
			C34.2,39.6,34.2,39.6,34.2,39.6z"/>
		<path class="st10" d="M24.1,43.2c-0.7,0.1-1.2,0.6-1.3,1.3c0,0-1.2,4.2-1.5,5.1c-0.3,0.9,1.1,1.3,1.4,0.4c0.3-0.9,1.1-3.1,1.3-3.7
			c0.2-0.6,0.4-0.6,0.5-0.1c0.1,0.5,1.5,11,1.7,12.3c0.2,1.3,2.2,1,2-0.3c-0.2-1.3-0.7-5.3-0.8-6.1c-0.1-0.7,0.3-0.7,0.3,0
			c0.1,0.7,0.7,4.8,0.8,6.1c0.2,1.3,2.2,1,2-0.3s-1.6-11.8-1.7-12.3c-0.1-0.5,0.1-0.5,0.5-0.1c0.3,0.5,1.7,2.4,2.2,3.2
			c0.5,0.8,1.7,0,1.2-0.7S30,43.5,30,43.5c-0.3-0.6-0.9-1-1.6-0.9L24.1,43.2z"/>
		<path class="st10" d="M24.1,41c-0.1-1,0.6-2,1.6-2.1c1-0.1,2,0.6,2.1,1.6c0.1,1-0.6,2-1.6,2.1C25.2,42.7,24.3,42,24.1,41z"/>
		<path class="st11" d="M14,44.6c-0.7,0.1-1.2,0.6-1.3,1.3c0,0-1.2,4.2-1.5,5.1c-0.3,0.9,1.1,1.3,1.4,0.4c0.3-0.9,1.1-3.1,1.3-3.7
			c0.2-0.6,0.4-0.6,0.5-0.1c0.1,0.5,1.5,11,1.7,12.3c0.2,1.3,2.2,1,2-0.3s-0.7-5.3-0.8-6.1c-0.1-0.7,0.3-0.7,0.3,0
			c0.1,0.7,0.7,4.8,0.8,6.1c0.2,1.3,2.2,1,2-0.3S18.8,47.5,18.8,47c-0.1-0.5,0.1-0.5,0.5-0.1c0.3,0.5,1.7,2.4,2.2,3.2
			c0.5,0.8,1.7,0,1.2-0.7c-0.5-0.8-2.8-4.6-2.8-4.6c-0.3-0.6-0.9-1-1.6-0.9L14,44.6z"/>
		<ellipse transform="matrix(0.9906 -0.1371 0.1371 0.9906 -5.6275 2.5743)" class="st11" cx="15.9" cy="42.2" rx="1.9" ry="1.9"/>
		<path class="st12" d="M3.9,46c-0.7,0.1-1.2,0.6-1.3,1.3c0,0-1.2,4.2-1.5,5.1c-0.3,0.9,1.1,1.3,1.4,0.4s1.1-3.1,1.3-3.7
			C4,48.5,4.2,48.5,4.3,49C4.4,49.5,5.8,60,6,61.3c0.2,1.3,2.2,1,2-0.3c-0.2-1.3-0.7-5.3-0.8-6.1c-0.1-0.7,0.3-0.7,0.3,0
			c0.1,0.7,0.7,4.8,0.8,6.1s2.2,1,2-0.3c-0.2-1.3-1.6-11.8-1.7-12.3c-0.1-0.5,0.1-0.5,0.5-0.1c0.3,0.5,1.7,2.4,2.2,3.2
			c0.5,0.8,1.7,0,1.2-0.7c-0.5-0.8-2.8-4.6-2.8-4.6c-0.3-0.6-0.9-1-1.6-0.9L3.9,46z"/>
		<path class="st12" d="M3.9,43.8c-0.1-1,0.6-2,1.6-2.1c1-0.1,2,0.6,2.1,1.6c0.1,1-0.6,2-1.6,2.1C5,45.5,4.1,44.8,3.9,43.8z"/>
		<path class="st13" d="M67.9,46c-0.1,0-0.1,0.2-0.1,0.5c0.1,0.7,0.7,4.8,0.8,6.1s-1.9,1.6-2,0.3C66.5,51.6,65,41.1,65,40.6
			s-0.3-0.5-0.5,0.1s-1,2.8-1.3,3.7c-0.3,0.9-1.7,0.5-1.4-0.4c0.3-0.9,1.4-5.1,1.4-5.1c0.1-0.6,0.6-1.1,1.2-1.3c0,0,2.2-0.3,2.2-0.3
			L67.9,46z"/>
		<path class="st13" d="M66.2,33.3c-1,0.1-1.7,1.1-1.6,2.1c0.1,1,1.1,1.7,2.1,1.6L66.2,33.3z"/>
		<path class="st16" d="M12.1,76.5c-0.4-0.6-2.3-3.6-2.3-3.6c-0.2-0.5-0.7-0.8-1.2-0.7l-2.7,0.4c-0.5,0.1-0.9,0.5-1,1
			c0,0-0.5,1.8-0.9,3c-0.7-1.1-1.6-2.7-1.6-2.7c-0.2-0.5-0.7-0.8-1.3-0.7l-3.4,0.5c-0.5,0.1-1,0.5-1,1c0,0-0.9,3.4-1.2,4.1
			c-0.2,0.7,0.9,1.1,1.1,0.3c0.2-0.7,0.9-2.5,1-3c0.2-0.5,0.3-0.4,0.4-0.1c0.1,0.4,1.2,8.8,1.4,9.8s1.8,0.8,1.6-0.2
			c-0.2-1-0.6-4.2-0.7-4.8c-0.1-0.5,0.2-0.6,0.3,0c0.1,0.6,0.5,3.8,0.7,4.9c0.1,1,1.8,0.8,1.6-0.2c-0.2-1-1.3-9.4-1.4-9.8
			s0.1-0.4,0.4-0.1s1.3,1.9,1.8,2.6c0.1,0.2,0.4,0.3,0.7,0.2c0.2,0,0.3-0.2,0.4-0.4c0.2-0.7,0.8-2.6,1-3.1c0.1-0.4,0.4-0.4,0.3,0
			C6,75,6,76,5.8,77c-0.3,1.4-0.6,3.1-0.6,3.1l1.6-0.2c0,0,0.6,4.4,0.7,4.9c0,0.4,0.4,0.7,0.8,0.7c0.4,0,0.7-0.4,0.7-0.8
			c0,0,0-0.1,0-0.1c-0.1-1-0.7-4.8-0.7-4.8l0.3,0c0,0,0.5,3.8,0.7,4.8c0,0.4,0.4,0.7,0.8,0.7c0.4,0,0.7-0.4,0.7-0.8c0,0,0-0.1,0-0.1
			c-0.1-0.5-0.4-2.7-0.7-4.8l1.6-0.2c0,0-0.8-1.5-1.4-2.8c-0.5-1-0.8-2-0.9-2.1c-0.1-0.3,0-0.4,0.3,0s1.4,2,1.8,2.7
			C11.7,77.7,12.5,77.1,12.1,76.5z"/>
		<path class="st16" d="M7.3,72.1c0.8-0.1,1.4-0.9,1.3-1.7c-0.1-0.8-0.9-1.4-1.7-1.3c-0.8,0.1-1.4,0.9-1.3,1.7c0,0,0,0,0,0
			C5.7,71.6,6.5,72.2,7.3,72.1C7.3,72.1,7.3,72.1,7.3,72.1z"/>
		<path class="st21" d="M27.8,74.3c-0.4-0.6-2.3-3.6-2.3-3.6c-0.2-0.5-0.7-0.8-1.2-0.7l-2.7,0.4c-0.5,0.1-0.9,0.5-1,1
			c0,0-0.5,1.8-0.9,3c-0.7-1.1-1.6-2.7-1.6-2.7c-0.2-0.5-0.7-0.8-1.3-0.7l-3.4,0.5c-0.5,0.1-1,0.5-1,1c0,0-0.9,3.4-1.2,4.1
			c-0.2,0.7,0.9,1.1,1.1,0.3c0.2-0.7,0.9-2.5,1-3c0.2-0.5,0.3-0.4,0.4-0.1c0.1,0.4,1.2,8.8,1.4,9.8c0.1,1,1.8,0.8,1.6-0.2
			S16,79.3,16,78.7c-0.1-0.5,0.2-0.6,0.3,0c0.1,0.5,0.5,3.8,0.7,4.8c0.1,1,1.8,0.8,1.6-0.2s-1.3-9.4-1.4-9.8
			c-0.1-0.4,0.1-0.4,0.4-0.1s1.3,1.9,1.8,2.6c0.1,0.2,0.4,0.3,0.7,0.2c0.2,0,0.4-0.2,0.4-0.4c0.2-0.7,0.8-2.6,1-3.1s0.4-0.4,0.3,0
			c0,0.1-0.1,1.1-0.2,2.1c-0.2,1.5-0.6,3.1-0.6,3.1l1.6-0.2c0,0,0.6,4.4,0.7,4.9c0,0.4,0.4,0.7,0.8,0.7c0.4,0,0.7-0.4,0.7-0.8
			c0,0,0-0.1,0-0.1c-0.1-1-0.7-4.8-0.7-4.8l0.3,0c0,0,0.5,3.8,0.7,4.9c0,0.4,0.4,0.7,0.8,0.6c0.4,0,0.7-0.4,0.6-0.8c0,0,0,0,0,0
			c-0.1-0.5-0.4-2.7-0.7-4.8l1.6-0.2c0,0-0.8-1.5-1.4-2.8c-0.5-1-0.8-2-0.9-2.1c-0.1-0.3,0-0.4,0.3,0s1.4,2,1.8,2.7
			C27.3,75.6,28.2,74.9,27.8,74.3z"/>
		<path class="st21" d="M23,69.9c0.8-0.1,1.4-0.9,1.3-1.7c-0.1-0.8-0.9-1.4-1.7-1.3c-0.8,0.1-1.4,0.9-1.3,1.7c0,0,0,0,0,0
			C21.4,69.5,22.2,70.1,23,69.9C23,69.9,23,69.9,23,69.9z"/>
		<path class="st21" d="M15.1,71c0.8-0.1,1.4-0.9,1.3-1.7c-0.1-0.8-0.9-1.4-1.7-1.3c-0.8,0.1-1.4,0.9-1.3,1.7
			C13.5,70.6,14.2,71.1,15.1,71C15,71,15.1,71,15.1,71z"/>
		<path class="st3" d="M44.5,72c-0.4-0.6-2.3-3.6-2.3-3.6c-0.2-0.5-0.7-0.8-1.2-0.7l-2.7,0.4c-0.5,0.1-0.9,0.5-1,1
			c0,0-0.5,1.8-0.9,3.1c-0.7-1.1-1.6-2.7-1.6-2.7c-0.2-0.5-0.7-0.8-1.3-0.7l-3.4,0.5c-0.5,0.1-1,0.5-1,1c0,0-0.9,3.4-1.2,4.1
			c-0.2,0.7,0.9,1.1,1.1,0.3c0.2-0.7,0.9-2.5,1-3s0.3-0.4,0.4-0.1c0.1,0.4,1.2,8.8,1.4,9.8s1.8,0.8,1.6-0.2c-0.1-1-0.6-4.2-0.7-4.8
			c-0.1-0.5,0.2-0.6,0.3,0c0.1,0.6,0.5,3.8,0.7,4.8s1.8,0.8,1.6-0.2c-0.1-1-1.3-9.4-1.4-9.8c-0.1-0.4,0.1-0.4,0.4-0.1
			c0.3,0.4,1.3,1.9,1.8,2.6c0.1,0.2,0.4,0.3,0.7,0.2c0.2,0,0.3-0.2,0.4-0.4c0.2-0.7,0.8-2.6,1-3.1s0.4-0.4,0.3,0
			c0,0.1-0.1,1.1-0.2,2.1c-0.3,1.4-0.6,3.1-0.6,3.1l1.6-0.2c0,0,0.6,4.4,0.7,4.9c0,0.4,0.4,0.7,0.8,0.7c0.4,0,0.7-0.4,0.7-0.8
			c0,0,0-0.1,0-0.1c-0.1-1-0.7-4.8-0.7-4.8l0.3,0c0,0,0.5,3.8,0.7,4.8c0,0.4,0.4,0.7,0.8,0.7c0.4,0,0.7-0.4,0.7-0.8c0,0,0-0.1,0-0.1
			c-0.1-0.5-0.4-2.7-0.7-4.8l1.6-0.2c0,0-0.8-1.5-1.4-2.8c-0.5-1-0.8-2-0.9-2.1c-0.1-0.3,0-0.4,0.3,0c0.3,0.4,1.4,2,1.8,2.7
			C44,73.2,44.9,72.6,44.5,72z"/>
		<path class="st3" d="M39.7,67.6c0.8-0.1,1.4-0.9,1.3-1.7c-0.1-0.8-0.9-1.4-1.7-1.3c-0.8,0.1-1.4,0.9-1.3,1.7c0,0,0,0,0,0
			C38.1,67.2,38.9,67.7,39.7,67.6C39.7,67.6,39.7,67.6,39.7,67.6z"/>
		<path class="st3" d="M31.8,68.7c0.8-0.1,1.4-0.9,1.3-1.7c-0.1-0.8-0.9-1.4-1.7-1.3c-0.8,0.1-1.4,0.9-1.3,1.7
			C30.2,68.3,31,68.8,31.8,68.7C31.8,68.7,31.8,68.7,31.8,68.7z"/>
		<path class="st4" d="M61.3,69.7c-0.4-0.6-2.3-3.6-2.3-3.6c-0.2-0.5-0.7-0.8-1.2-0.7L55,65.7c-0.5,0.1-0.9,0.5-1,1
			c0,0-0.5,1.8-0.9,3c-0.7-1.1-1.6-2.7-1.6-2.7c-0.2-0.5-0.7-0.8-1.3-0.7l-3.4,0.5c-0.5,0.1-1,0.5-1,1c0,0-0.9,3.4-1.2,4.1
			c-0.2,0.7,0.9,1.1,1.1,0.3c0.2-0.7,0.9-2.5,1-3c0.2-0.5,0.3-0.4,0.4-0.1c0.1,0.4,1.2,8.8,1.4,9.8s1.8,0.8,1.6-0.2
			c-0.1-1-0.6-4.2-0.7-4.8c-0.1-0.5,0.2-0.6,0.3,0c0.1,0.6,0.5,3.8,0.7,4.8s1.8,0.8,1.6-0.2c-0.2-1-1.3-9.4-1.4-9.8
			c-0.1-0.4,0.1-0.4,0.4-0.1c0.3,0.4,1.3,1.9,1.8,2.6c0.1,0.2,0.4,0.3,0.7,0.2c0.2,0,0.3-0.2,0.4-0.4c0.2-0.7,0.8-2.6,1-3.1
			c0.1-0.4,0.4-0.4,0.3,0c0,0.1-0.1,1.1-0.2,2.1c-0.3,1.4-0.6,3.1-0.6,3.1l1.6-0.2c0,0,0.6,4.4,0.7,4.9c0,0.4,0.4,0.7,0.8,0.7
			c0.4,0,0.7-0.4,0.7-0.8c0,0,0-0.1,0-0.1c-0.1-1-0.7-4.8-0.7-4.8l0.3,0c0,0,0.5,3.8,0.7,4.8c0,0.4,0.4,0.7,0.8,0.7
			c0.4,0,0.7-0.4,0.7-0.8c0,0,0-0.1,0-0.1c-0.1-0.5-0.4-2.7-0.7-4.8l1.6-0.2c0,0-0.8-1.4-1.4-2.7c-0.5-1-0.8-2-0.9-2.1
			c-0.1-0.3,0-0.4,0.3,0c0.3,0.4,1.4,2,1.8,2.7S61.7,70.3,61.3,69.7z"/>
		<path class="st4" d="M46.4,76.3c1-0.1,1.7-1.1,1.6-2.1c-0.1-1-1.1-1.7-2.1-1.6c-1,0.1-1.7,1.1-1.6,2.1c0,0,0,0,0,0
			C44.4,75.7,45.4,76.4,46.4,76.3z"/>
		<path class="st4" d="M48.5,66.4c0.8-0.1,1.4-0.9,1.3-1.7c-0.1-0.8-0.9-1.4-1.7-1.3c-0.8,0.1-1.4,0.9-1.3,1.7
			C46.9,65.9,47.7,66.5,48.5,66.4C48.5,66.4,48.5,66.4,48.5,66.4z"/>
		<path class="st5" d="M61.3,69.7c-0.4-0.6-2.3-3.6-2.3-3.6c-0.2-0.5-0.7-0.8-1.2-0.7L55,65.7c-0.5,0.1-0.9,0.5-1,1
			c0,0-0.5,1.8-0.9,3c-0.7-1.1-1.6-2.7-1.6-2.7c-0.2-0.5-0.7-0.8-1.3-0.7l-3.4,0.5c-0.5,0.1-1,0.5-1,1c0,0-0.9,3.4-1.2,4.1
			c-0.2,0.7,0.9,1.1,1.1,0.3c0.2-0.7,0.9-2.5,1-3c0.2-0.5,0.3-0.4,0.4-0.1c0.1,0.4,1.2,8.8,1.4,9.8s1.8,0.8,1.6-0.2
			c-0.1-1-0.6-4.2-0.7-4.8c-0.1-0.5,0.2-0.6,0.3,0c0.1,0.6,0.5,3.8,0.7,4.8s1.8,0.8,1.6-0.2c-0.2-1-1.3-9.4-1.4-9.8
			c-0.1-0.4,0.1-0.4,0.4-0.1c0.3,0.4,1.3,1.9,1.8,2.6c0.1,0.2,0.4,0.3,0.7,0.2c0.2,0,0.3-0.2,0.4-0.4c0.2-0.7,0.8-2.6,1-3.1
			c0.1-0.4,0.4-0.4,0.3,0c0,0.1-0.1,1.1-0.2,2.1c-0.3,1.4-0.6,3.1-0.6,3.1l1.6-0.2c0,0,0.6,4.4,0.7,4.9c0,0.4,0.4,0.7,0.8,0.7
			c0.4,0,0.7-0.4,0.7-0.8c0,0,0-0.1,0-0.1c-0.1-1-0.7-4.8-0.7-4.8l0.3,0c0,0,0.5,3.8,0.7,4.8c0,0.4,0.4,0.7,0.8,0.7
			c0.4,0,0.7-0.4,0.7-0.8c0,0,0-0.1,0-0.1c-0.1-0.5-0.4-2.7-0.7-4.8l1.6-0.2c0,0-0.8-1.4-1.4-2.7c-0.5-1-0.8-2-0.9-2.1
			c-0.1-0.3,0-0.4,0.3,0c0.3,0.4,1.4,2,1.8,2.7S61.7,70.3,61.3,69.7z"/>
		<path class="st5" d="M46.4,76.3c1-0.1,1.7-1.1,1.6-2.1c-0.1-1-1.1-1.7-2.1-1.6c-1,0.1-1.7,1.1-1.6,2.1c0,0,0,0,0,0
			C44.4,75.7,45.4,76.4,46.4,76.3z"/>
		<path class="st5" d="M48.5,66.4c0.8-0.1,1.4-0.9,1.3-1.7c-0.1-0.8-0.9-1.4-1.7-1.3c-0.8,0.1-1.4,0.9-1.3,1.7
			C46.9,65.9,47.7,66.5,48.5,66.4C48.5,66.4,48.5,66.4,48.5,66.4z"/>
		<path class="st6" d="M78,67.4c-0.4-0.6-2.3-3.6-2.3-3.6c-0.2-0.5-0.7-0.8-1.2-0.7l-2.7,0.4c-0.5,0.1-0.9,0.5-1,1
			c0,0-0.5,1.8-0.9,3c-0.7-1.1-1.6-2.7-1.6-2.7C68,64.3,67.5,64,67,64.1l-3.4,0.5c-0.5,0.1-1,0.5-1,1c0,0-0.9,3.4-1.2,4.1
			c-0.2,0.7,0.9,1.1,1.1,0.3c0.2-0.7,0.9-2.5,1-3c0.2-0.5,0.3-0.4,0.4-0.1c0.1,0.4,1.2,8.8,1.4,9.8s1.8,0.8,1.6-0.2
			c-0.1-1-0.6-4.2-0.7-4.8c-0.1-0.5,0.2-0.6,0.3,0c0.1,0.5,0.5,3.8,0.7,4.8s1.8,0.8,1.6-0.2c-0.1-1-1.3-9.4-1.4-9.8
			c-0.1-0.4,0.1-0.4,0.4-0.1s1.3,1.9,1.8,2.6c0.1,0.2,0.4,0.3,0.7,0.2c0.2,0,0.3-0.2,0.4-0.4c0.2-0.7,0.8-2.6,1-3.1
			c0.1-0.4,0.4-0.4,0.3,0c0,0.1-0.1,1.1-0.2,2.1C71.4,69.3,71,71,71,71l1.6-0.2c0,0,0.6,4.4,0.7,4.9c0,0.4,0.4,0.7,0.8,0.7
			c0.4,0,0.7-0.4,0.7-0.8c0,0,0-0.1,0-0.1c-0.1-1-0.7-4.8-0.7-4.8l0.3,0c0,0,0.5,3.8,0.7,4.8c0,0.4,0.4,0.7,0.8,0.7
			c0.4,0,0.7-0.4,0.7-0.8c0,0,0-0.1,0-0.1c-0.1-0.5-0.4-2.7-0.7-4.8l1.6-0.2c0,0-0.8-1.5-1.4-2.8c-0.5-1-0.8-2-0.9-2.1
			c-0.1-0.3,0-0.4,0.3,0c0.3,0.4,1.4,2,1.8,2.7S78.4,68,78,67.4z"/>
		<path class="st6" d="M66.8,73.4c1-0.1,1.7-1.1,1.6-2.1c-0.1-1-1.1-1.7-2.1-1.6c-1,0.1-1.7,1.1-1.6,2.1c0,0,0,0,0,0
			C64.9,72.9,65.8,73.6,66.8,73.4C66.8,73.4,66.8,73.4,66.8,73.4z"/>
		<path class="st6" d="M57.2,74.8c1-0.1,1.7-1.1,1.6-2.1c-0.1-1-1.1-1.7-2.1-1.6c-1,0.1-1.7,1.1-1.6,2.1c0,0,0,0,0,0
			C55.2,74.2,56.2,74.9,57.2,74.8z"/>
		<path class="st8" d="M1.6,70.9c0.7-0.1,1.3,0.3,1.6,0.9c0,0,2.3,3.7,2.8,4.5c0.5,0.8-0.7,1.6-1.2,0.8c-0.5-0.8-1.9-2.7-2.2-3.2
			S1.9,73.4,2,73.9c0.1,0.5,1.5,11,1.7,12.3c0.2,1.3-1.9,1.6-2,0.3s-0.7-5.3-0.8-6.1c-0.1-0.7-0.4-0.6-0.3,0
			c0.1,0.7,0.7,4.8,0.8,6.1s-1.9,1.6-2,0.3S-2.3,75-2.4,74.5C-2.5,74-2.7,74-2.9,74.6c-0.2,0.6-1,2.8-1.3,3.7
			c-0.3,0.9-1.7,0.5-1.4-0.4c0.3-0.9,1.4-5.1,1.4-5.1c0.1-0.7,0.6-1.2,1.3-1.3L1.6,70.9z"/>
		<path class="st8" d="M11.6,69.5c0.7-0.1,1.3,0.3,1.6,0.9c0,0,2.3,3.7,2.8,4.5c0.5,0.8-0.7,1.6-1.2,0.8c-0.5-0.8-1.9-2.7-2.2-3.2
			S12,72,12.1,72.5c0.1,0.5,1.5,11,1.7,12.3c0.2,1.3-1.9,1.6-2,0.3S11,79.7,10.9,79c-0.1-0.7-0.4-0.6-0.3,0s0.7,4.8,0.8,6.1
			s-1.9,1.6-2,0.3c-0.2-1.3-1.6-11.8-1.7-12.3c-0.1-0.5-0.3-0.5-0.5,0.1c-0.2,0.6-1,2.8-1.3,3.7c-0.3,0.9-1.7,0.5-1.4-0.4
			S6,71.3,6,71.3c0.1-0.7,0.6-1.2,1.3-1.3L11.6,69.5z"/>
		<path class="st8" d="M11,67.4c-0.1-1-1.1-1.7-2.1-1.6c-1,0.1-1.7,1.1-1.6,2.1c0.1,1,1.1,1.7,2.1,1.6C10.4,69.3,11.2,68.4,11,67.4
			C11,67.4,11,67.4,11,67.4z"/>
		<path class="st22" d="M21.7,68.1c0.7-0.1,1.3,0.3,1.6,0.9c0,0,2.3,3.7,2.8,4.5c0.5,0.8-0.7,1.6-1.2,0.8c-0.5-0.8-1.9-2.7-2.2-3.2
			c-0.3-0.5-0.5-0.4-0.5,0.1s1.5,11,1.7,12.3s-1.9,1.6-2,0.3c-0.2-1.3-0.7-5.3-0.8-6.1c-0.1-0.7-0.4-0.6-0.3,0
			c0.1,0.7,0.7,4.8,0.8,6.1c0.2,1.3-1.9,1.6-2,0.3c-0.2-1.3-1.6-11.8-1.7-12.3c-0.1-0.5-0.3-0.5-0.5,0.1c-0.2,0.6-1,2.8-1.3,3.7
			c-0.3,0.9-1.7,0.5-1.4-0.4c0.3-0.9,1.4-5.1,1.4-5.1c0.1-0.7,0.6-1.2,1.3-1.3L21.7,68.1z"/>
		<path class="st22" d="M21.1,66c-0.1-1-1.1-1.7-2.1-1.6s-1.7,1.1-1.6,2.1c0.1,1,1.1,1.7,2.1,1.6C20.5,67.9,21.3,67,21.1,66
			C21.1,66,21.1,66,21.1,66z"/>
		<path class="st18" d="M31.8,66.7c0.7-0.1,1.3,0.3,1.6,0.9c0,0,2.3,3.7,2.8,4.5c0.5,0.8-0.7,1.6-1.2,0.8c-0.5-0.8-1.9-2.7-2.2-3.2
			c-0.3-0.5-0.5-0.4-0.5,0.1c0.1,0.5,1.5,11,1.7,12.3s-1.9,1.6-2,0.3s-0.7-5.3-0.8-6.1c-0.1-0.7-0.4-0.6-0.3,0
			c0.1,0.7,0.7,4.8,0.8,6.1c0.2,1.3-1.9,1.6-2,0.3S28,70.8,27.9,70.3c-0.1-0.5-0.3-0.5-0.5,0.1c-0.2,0.6-1,2.8-1.3,3.7
			s-1.7,0.5-1.4-0.4s1.4-5.1,1.4-5.1c0.1-0.7,0.6-1.2,1.3-1.3L31.8,66.7z"/>
		<ellipse transform="matrix(0.9906 -0.1371 0.1371 0.9906 -8.6103 4.6375)" class="st18" cx="29.4" cy="64.8" rx="1.9" ry="1.9"/>
		<path class="st6" d="M41.9,65.3c0.7-0.1,1.3,0.3,1.6,0.9c0,0,2.3,3.7,2.8,4.5s-0.7,1.6-1.2,0.8s-1.9-2.7-2.2-3.2
			c-0.3-0.5-0.5-0.4-0.5,0.1c0.1,0.5,1.5,11,1.7,12.3c0.2,1.3-1.9,1.6-2,0.3c-0.2-1.3-0.7-5.3-0.8-6.1c-0.1-0.7-0.4-0.6-0.3,0
			c0.1,0.7,0.7,4.8,0.8,6.1c0.2,1.3-1.9,1.6-2,0.3c-0.2-1.3-1.6-11.8-1.7-12.3c-0.1-0.5-0.3-0.5-0.5,0.1c-0.2,0.6-1,2.8-1.3,3.7
			c-0.3,0.9-1.7,0.5-1.4-0.4s1.4-5.2,1.4-5.2c0.1-0.7,0.6-1.2,1.3-1.3L41.9,65.3z"/>
		<ellipse transform="matrix(0.9901 -0.14 0.14 0.9901 -8.4694 6.1783)" class="st6" cx="39.7" cy="63.3" rx="1.9" ry="1.9"/>
		<path class="st19" d="M52,63.9c0.7-0.1,1.3,0.3,1.6,0.9c0,0,2.3,3.7,2.8,4.5s-0.7,1.6-1.2,0.8s-1.9-2.7-2.2-3.2
			c-0.3-0.5-0.5-0.4-0.5,0.1s1.5,11,1.7,12.3c0.2,1.3-1.9,1.6-2,0.3c-0.2-1.3-0.7-5.3-0.8-6.1c-0.1-0.7-0.4-0.6-0.3,0
			c0.1,0.7,0.7,4.8,0.8,6.1c0.2,1.3-1.9,1.6-2,0.3c-0.2-1.3-1.6-11.8-1.7-12.3s-0.3-0.5-0.5,0.1s-1,2.8-1.3,3.7s-1.7,0.5-1.4-0.4
			s1.4-5.2,1.4-5.2c0.1-0.7,0.6-1.2,1.3-1.3L52,63.9z"/>
		<path class="st19" d="M51.4,61.8c-0.1-1-1.1-1.7-2.1-1.6c-1,0.1-1.7,1.1-1.6,2.1c0.1,1,1.1,1.7,2.1,1.6
			C50.8,63.7,51.5,62.8,51.4,61.8z"/>
		<path class="st23" d="M62.1,62.5c0.7-0.1,1.3,0.3,1.6,0.9c0,0,2.3,3.7,2.8,4.5s-0.7,1.6-1.2,0.8c-0.5-0.8-1.9-2.7-2.2-3.2
			s-0.5-0.4-0.5,0.1c0.1,0.5,1.5,11,1.7,12.3c0.2,1.3-1.9,1.6-2,0.3c-0.2-1.3-0.7-5.3-0.8-6.1c-0.1-0.7-0.4-0.6-0.3,0
			c0.1,0.7,0.7,4.8,0.8,6.1c0.2,1.3-1.9,1.6-2,0.3c-0.2-1.3-1.6-11.8-1.7-12.3c-0.1-0.5-0.3-0.5-0.5,0.1c-0.2,0.6-1,2.8-1.3,3.7
			c-0.3,0.9-1.7,0.5-1.4-0.4c0.3-0.9,1.4-5.1,1.4-5.1c0.1-0.7,0.6-1.2,1.3-1.3L62.1,62.5z"/>
		<path class="st23" d="M61.5,60.4c-0.1-1-1.1-1.7-2.1-1.6c-1,0.1-1.7,1.1-1.6,2.1c0.1,1,1.1,1.7,2.1,1.6
			C60.9,62.3,61.6,61.4,61.5,60.4C61.5,60.4,61.5,60.4,61.5,60.4z"/>
		<path class="st24" d="M71.3,70.1c-0.1,0-0.1,0.2-0.1,0.5c0.1,0.7,0.7,4.8,0.8,6.1c0.2,1.3-1.9,1.6-2,0.3
			c-0.2-1.3-1.6-11.8-1.7-12.3c-0.1-0.5-0.3-0.5-0.5,0.1s-1,2.8-1.3,3.7c-0.3,0.9-1.7,0.5-1.4-0.4c0.3-0.9,1.4-5.1,1.4-5.1
			c0.1-0.6,0.6-1.1,1.2-1.3c0,0,2.2-0.3,2.2-0.3L71.3,70.1z"/>
		<path class="st24" d="M69.5,57.4c-1,0.1-1.7,1.1-1.6,2.1c0.1,1,1.1,1.7,2.1,1.6L69.5,57.4z"/>
		<path class="st5" d="M82.3,5.5C81.8,4.7,79.5,1,79.5,1c-0.2-0.6-0.9-1-1.5-0.9l-3.3,0.5c-0.6,0.1-1.1,0.6-1.2,1.2
			c0,0-0.7,2.2-1.1,3.7c-0.8-1.4-2-3.3-2-3.3c-0.3-0.6-0.9-0.9-1.6-0.8L64.7,2c-0.7,0.1-1.2,0.6-1.3,1.2c0,0-1.1,4.1-1.4,5
			s1.1,1.3,1.4,0.4s1-3.1,1.2-3.6C64.8,4.5,65,4.5,65,5s1.5,10.8,1.7,12c0.2,1.2,2.2,1,2-0.3c-0.2-1.3-0.7-5.2-0.8-5.9
			c-0.1-0.6,0.3-0.7,0.3,0c0.1,0.7,0.6,4.7,0.8,5.9c0.2,1.3,2.2,1,2-0.3c-0.2-1.3-1.6-11.5-1.7-12s0.1-0.5,0.5-0.1s1.6,2.4,2.2,3.2
			c0.2,0.3,0.5,0.4,0.8,0.3c0.2-0.1,0.4-0.2,0.5-0.5c0.3-0.9,1-3.2,1.2-3.7s0.4-0.5,0.4-0.1c0,0.1-0.1,1.3-0.3,2.6
			c-0.3,1.8-0.8,3.8-0.8,3.8l1.9-0.3l0.8,6c0,0.5,0.5,0.9,1,0.8c0.5,0,0.9-0.5,0.8-1c0,0,0-0.1,0-0.1l-0.8-5.9l0.3,0
			c0,0,0.6,4.7,0.8,5.9c0,0.5,0.5,0.9,1,0.8s0.9-0.5,0.8-1c0,0,0-0.1,0-0.1c-0.1-0.6-0.5-3.3-0.8-5.9l1.9-0.3c0,0-1-1.8-1.7-3.4
			c-0.6-1.2-1-2.5-1-2.5c-0.2-0.4,0.1-0.5,0.4-0.1s1.7,2.5,2.2,3.3C81.8,7,82.9,6.2,82.3,5.5z"/>
		<path class="st14" d="M76.4,0.1C77.4,0,78.1-1,78-2c-0.1-1-1.1-1.7-2.1-1.6c-1,0.1-1.7,1.1-1.6,2.1c0,0,0,0,0,0
			C74.5-0.5,75.4,0.2,76.4,0.1C76.4,0.1,76.4,0.1,76.4,0.1z"/>
		<path class="st14" d="M66.8,1.4c1-0.1,1.7-1.1,1.6-2.1c-0.1-1-1.1-1.7-2.1-1.6c-1,0.1-1.7,1.1-1.6,2.1C64.8,0.9,65.7,1.6,66.8,1.4
			C66.7,1.4,66.7,1.4,66.8,1.4z"/>
		<path class="st15" d="M101.5,2.8C101,2,98.7-1.6,98.7-1.6c-0.2-0.6-0.9-1-1.5-0.9L93.9-2c-0.6,0.1-1.1,0.6-1.2,1.2
			c0,0-0.7,2.2-1.1,3.7c-0.8-1.4-2-3.3-2-3.3c-0.3-0.6-0.9-0.9-1.6-0.8l-4.2,0.6c-0.7,0.1-1.2,0.6-1.3,1.2c0,0-1.1,4.1-1.4,5
			c-0.3,0.9,1.1,1.3,1.4,0.4c0.3-0.9,1-3.1,1.2-3.6s0.4-0.5,0.5-0.1c0.1,0.5,1.5,10.8,1.7,12s2.2,1,2-0.3c-0.2-1.3-0.7-5.2-0.8-5.9
			c-0.1-0.6,0.3-0.7,0.3,0c0.1,0.7,0.6,4.7,0.8,5.9c0.2,1.3,2.2,1,2-0.3c-0.2-1.3-1.6-11.5-1.7-12c-0.1-0.5,0.1-0.5,0.5-0.1
			c0.3,0.5,1.6,2.4,2.2,3.2c0.2,0.3,0.5,0.4,0.8,0.3c0.2-0.1,0.4-0.2,0.5-0.5c0.3-0.9,1-3.2,1.2-3.7s0.4-0.5,0.4-0.1
			C94,1,94,2.2,93.7,3.5C93.4,5.2,93,7.3,93,7.3L94.9,7l0.8,6c0,0.5,0.5,0.9,1,0.8c0.5,0,0.9-0.5,0.8-1c0,0,0-0.1,0-0.1
			c-0.2-1.3-0.8-5.9-0.8-5.9l0.3,0c0,0,0.6,4.7,0.8,5.9c0,0.5,0.5,0.9,1,0.8c0.5,0,0.9-0.5,0.8-1c0,0,0-0.1,0-0.1
			c-0.1-0.6-0.5-3.3-0.8-5.9l1.9-0.3c0,0-1-1.8-1.7-3.4c-0.6-1.2-1-2.5-1-2.5c-0.2-0.4,0.1-0.5,0.4-0.1s1.7,2.5,2.2,3.3
			C101,4.4,102,3.6,101.5,2.8z"/>
		<path class="st15" d="M95.6-2.6c1-0.1,1.7-1.1,1.6-2.1c-0.1-1-1.1-1.7-2.1-1.6c-1,0.1-1.7,1.1-1.6,2.1C93.7-3.1,94.6-2.4,95.6-2.6
			C95.6-2.6,95.6-2.6,95.6-2.6z"/>
		<path class="st15" d="M85.9-1.2c1-0.1,1.7-1.1,1.6-2.1c-0.1-1-1.1-1.7-2.1-1.6c-1,0.1-1.7,1.1-1.6,2.1c0,0,0,0,0,0
			C84-1.8,84.9-1.1,85.9-1.2z"/>
		<path class="st16" d="M123.3-0.2c-0.5-0.8-2.8-4.4-2.8-4.4c-0.2-0.6-0.9-1-1.5-0.9L115.7-5c-0.6,0.1-1.1,0.6-1.2,1.2
			c0,0-0.7,2.2-1.1,3.7c-0.8-1.4-2-3.3-2-3.3c-0.3-0.6-0.9-0.9-1.6-0.8l-4.2,0.6c-0.6,0.1-1.2,0.6-1.3,1.2c0,0-1.1,4.1-1.4,5
			s1.1,1.3,1.4,0.4c0.3-0.9,1-3.1,1.2-3.6s0.4-0.5,0.5-0.1s1.5,10.8,1.7,12c0.2,1.2,2.2,1,2-0.3c-0.2-1.3-0.7-5.2-0.8-5.9
			c-0.1-0.6,0.3-0.7,0.3,0s0.6,4.7,0.8,5.9c0.2,1.3,2.2,1,2-0.3c-0.2-1.3-1.6-11.5-1.7-12c-0.1-0.5,0.1-0.5,0.5-0.1
			c0.3,0.5,1.6,2.4,2.2,3.2c0.2,0.3,0.5,0.4,0.8,0.3c0.2-0.1,0.4-0.2,0.5-0.5c0.3-0.9,1-3.2,1.2-3.7c0.2-0.5,0.5-0.5,0.4-0.1
			c0,0.1-0.1,1.3-0.3,2.6c-0.3,1.8-0.8,3.8-0.8,3.8l1.9-0.3c0,0,0.7,5.4,0.8,6c0,0.5,0.5,0.9,1,0.8c0.5,0,0.9-0.5,0.8-1
			c0,0,0-0.1,0-0.1c-0.2-1.3-0.8-5.9-0.8-5.9l0.3,0c0,0,0.6,4.7,0.8,5.9c0,0.5,0.5,0.9,1,0.8c0.5,0,0.9-0.5,0.8-1c0,0,0-0.1,0-0.1
			c-0.1-0.6-0.5-3.3-0.8-5.9l1.9-0.3c0,0-1-1.8-1.7-3.4c-0.6-1.2-1-2.5-1-2.5c-0.2-0.4,0.1-0.5,0.4-0.1s1.7,2.5,2.2,3.3
			S123.8,0.6,123.3-0.2z"/>
		<path class="st16" d="M117.4-5.6c1-0.1,1.7-1.1,1.6-2.1s-1.1-1.7-2.1-1.6c-1,0.1-1.7,1.1-1.6,2.1c0,0,0,0,0,0
			C115.5-6.1,116.4-5.4,117.4-5.6C117.4-5.6,117.4-5.6,117.4-5.6z"/>
		<path class="st16" d="M106.4-4.1c1-0.1,1.7-1.1,1.6-2.1c-0.1-1-1.1-1.7-2.1-1.6c-1,0.1-1.7,1.1-1.6,2.1c0,0,0,0,0,0
			C104.5-4.6,105.4-3.9,106.4-4.1z"/>
		<path class="st21" d="M142.5-2.9c-0.5-0.8-2.8-4.4-2.8-4.4c-0.2-0.6-0.9-1-1.5-0.9l-3.3,0.5c-0.6,0.1-1.1,0.6-1.2,1.2
			c0,0-0.7,2.2-1.1,3.7c-0.8-1.4-2-3.3-2-3.3c-0.3-0.6-0.9-0.9-1.6-0.8l-4.2,0.6c-0.7,0.1-1.2,0.6-1.3,1.2c0,0-1.1,4.1-1.4,5
			s1.1,1.3,1.4,0.4c0.3-0.9,1-3.1,1.2-3.6c0.2-0.5,0.4-0.5,0.5-0.1s1.5,10.8,1.7,12s2.2,1,2-0.3c-0.2-1.3-0.7-5.2-0.8-5.9
			c-0.1-0.6,0.3-0.7,0.3,0s0.6,4.7,0.8,5.9c0.2,1.3,2.2,1,2-0.3c-0.2-1.3-1.6-11.5-1.7-12c-0.1-0.5,0.1-0.5,0.5-0.1s1.6,2.4,2.2,3.2
			c0.2,0.3,0.5,0.4,0.8,0.3c0.2-0.1,0.4-0.2,0.5-0.5c0.3-0.9,1-3.2,1.2-3.7s0.4-0.5,0.4-0.1c0,0.1-0.1,1.3-0.3,2.6
			c-0.3,1.8-0.8,3.8-0.8,3.8l1.9-0.3l0.8,6c0,0.5,0.5,0.9,1,0.8c0.5,0,0.9-0.5,0.8-1c0,0,0-0.1,0-0.1c-0.2-1.3-0.8-5.9-0.8-5.9
			l0.3,0c0,0,0.6,4.7,0.8,5.9c0,0.5,0.5,0.9,1,0.8c0.5,0,0.9-0.5,0.8-1c0,0,0-0.1,0-0.1c-0.1-0.6-0.5-3.3-0.8-5.9l1.9-0.3
			c0,0-1-1.8-1.7-3.4c-0.6-1.2-1-2.5-1-2.5c-0.2-0.4,0.1-0.5,0.4-0.1c0.3,0.5,1.7,2.5,2.2,3.3S143-2.1,142.5-2.9z"/>
		<path class="st21" d="M136.6-8.2c1-0.1,1.7-1.1,1.6-2.1c-0.1-1-1.1-1.7-2.1-1.6c-1,0.1-1.7,1.1-1.6,2.1c0,0,0,0,0,0
			C134.6-8.8,135.6-8.1,136.6-8.2z"/>
		<path class="st21" d="M126.9-6.9c1-0.1,1.7-1.1,1.6-2.1c-0.1-1-1.1-1.7-2.1-1.6c-1,0.1-1.7,1.1-1.6,2.1c0,0,0,0,0,0
			C125-7.4,125.9-6.7,126.9-6.9C126.9-6.9,126.9-6.9,126.9-6.9z"/>
		<path class="st3" d="M163-5.7c-0.5-0.8-2.8-4.4-2.8-4.4c-0.2-0.6-0.9-1-1.5-0.9l-3.3,0.5c-0.6,0.1-1.1,0.6-1.2,1.2
			c0,0-0.7,2.2-1.1,3.7c-0.8-1.4-2-3.3-2-3.3c-0.3-0.6-0.9-0.9-1.6-0.9l-4.2,0.6c-0.7,0.1-1.2,0.6-1.3,1.2c0,0-1.1,4.1-1.4,5
			c-0.3,0.9,1.1,1.3,1.4,0.4s1-3.1,1.2-3.6c0.2-0.5,0.4-0.5,0.5-0.1c0.1,0.5,1.5,10.8,1.7,12s2.2,1,2-0.3c-0.2-1.3-0.7-5.2-0.8-5.9
			c-0.1-0.6,0.3-0.7,0.3,0s0.6,4.7,0.8,5.9c0.2,1.3,2.2,1,2-0.3c-0.2-1.3-1.6-11.5-1.7-12c-0.1-0.5,0.1-0.5,0.5-0.1s1.6,2.4,2.2,3.2
			c0.2,0.3,0.5,0.4,0.8,0.3c0.2-0.1,0.4-0.2,0.5-0.5c0.3-0.9,1-3.2,1.2-3.7c0.2-0.5,0.4-0.5,0.4-0.1c0,0.1-0.1,1.3-0.3,2.6
			c-0.3,1.8-0.8,3.8-0.8,3.8l1.9-0.3l0.8,6c0,0.5,0.5,0.9,1,0.8s0.9-0.5,0.8-1c0,0,0-0.1,0-0.1c-0.2-1.3-0.8-5.9-0.8-5.9l0.3,0
			c0,0,0.6,4.7,0.8,5.9c0,0.5,0.5,0.9,1,0.8c0.5,0,0.9-0.5,0.8-1c0,0,0-0.1,0-0.1c-0.1-0.6-0.5-3.3-0.8-5.9l1.9-0.3
			c0,0-1-1.8-1.7-3.4c-0.6-1.2-1-2.5-1.1-2.5c-0.2-0.4,0.1-0.5,0.4-0.1c0.3,0.5,1.7,2.5,2.2,3.3C162.4-4.2,163.5-4.9,163-5.7z"/>
		<path class="st3" d="M157-11.1c1-0.1,1.7-1.1,1.6-2.1s-1.1-1.7-2.1-1.6c-1,0.1-1.7,1.1-1.6,2.1c0,0,0,0,0,0
			C155.1-11.6,156-10.9,157-11.1z"/>
		<path class="st3" d="M147.4-9.7c1-0.1,1.7-1.1,1.6-2.1c-0.1-1-1.1-1.7-2.1-1.6c-1,0.1-1.7,1.1-1.6,2.1c0,0,0,0,0,0
			C145.4-10.3,146.4-9.6,147.4-9.7z"/>
		<path class="st10" d="M158.6-22.9c-0.7,0.1-1.2,0.6-1.3,1.3c0,0-1.2,4.2-1.5,5.1c-0.3,0.9,1.1,1.3,1.4,0.4
			c0.3-0.9,1.1-3.1,1.3-3.7c0.2-0.6,0.4-0.6,0.5-0.1c0.1,0.5,1.5,11,1.7,12.3c0.2,1.3,2.2,1,2-0.3c-0.2-1.3-0.7-5.3-0.8-6.1
			c-0.1-0.7,0.3-0.7,0.3,0c0.1,0.7,0.7,4.8,0.8,6.1s2.2,1,2-0.3s-1.6-11.8-1.7-12.3s0.1-0.5,0.5-0.1c0.3,0.5,1.7,2.4,2.2,3.2
			s1.7,0,1.2-0.7c-0.5-0.8-2.8-4.6-2.8-4.6c-0.3-0.6-0.9-1-1.6-0.9L158.6-22.9z"/>
		<path class="st11" d="M148.5-21.5c-0.7,0.1-1.2,0.6-1.3,1.3c0,0-1.2,4.2-1.5,5.1c-0.3,0.9,1.1,1.3,1.4,0.4s1.1-3.1,1.3-3.7
			c0.2-0.6,0.4-0.6,0.5-0.1s1.5,11,1.7,12.3s2.2,1,2-0.3s-0.7-5.3-0.8-6.1c-0.1-0.7,0.3-0.7,0.3,0c0.1,0.7,0.7,4.8,0.8,6.1
			s2.2,1,2-0.3s-1.6-11.8-1.7-12.3c-0.1-0.5,0.1-0.5,0.5-0.1s1.7,2.4,2.2,3.2c0.5,0.8,1.7,0,1.2-0.7c-0.5-0.8-2.8-4.6-2.8-4.6
			c-0.3-0.6-0.9-1-1.6-0.9L148.5-21.5z"/>
		<path class="st12" d="M138.4-20.1c-0.7,0.1-1.2,0.6-1.3,1.3c0,0-1.2,4.2-1.5,5.1c-0.3,0.9,1.1,1.3,1.4,0.4
			c0.3-0.9,1.1-3.1,1.3-3.7c0.2-0.6,0.4-0.6,0.5-0.1c0.1,0.5,1.5,11,1.7,12.3c0.2,1.3,2.2,1,2-0.3c-0.2-1.3-0.7-5.3-0.8-6.1
			c-0.1-0.7,0.3-0.7,0.3,0c0.1,0.7,0.7,4.8,0.8,6.1s2.2,1,2-0.3s-1.6-11.8-1.7-12.3c-0.1-0.5,0.1-0.5,0.5-0.1
			c0.3,0.5,1.7,2.4,2.2,3.2c0.5,0.8,1.7,0,1.2-0.7c-0.5-0.8-2.8-4.6-2.8-4.6c-0.3-0.6-0.9-1-1.6-0.9L138.4-20.1z"/>
		<path class="st8" d="M128.3-18.7c-0.7,0.1-1.2,0.6-1.3,1.3c0,0-1.2,4.2-1.5,5.1s1.1,1.3,1.4,0.4c0.3-0.9,1.1-3.1,1.3-3.7
			c0.2-0.6,0.4-0.6,0.5-0.1s1.5,11,1.7,12.3c0.2,1.3,2.2,1,2-0.3s-0.7-5.3-0.8-6.1c-0.1-0.7,0.3-0.7,0.3,0c0.1,0.7,0.7,4.8,0.8,6.1
			s2.2,1,2-0.3s-1.6-11.8-1.7-12.3c-0.1-0.5,0.1-0.5,0.5-0.1c0.3,0.5,1.7,2.4,2.2,3.2c0.5,0.8,1.7,0,1.2-0.7s-2.8-4.6-2.8-4.6
			c-0.3-0.6-0.9-1-1.6-0.9L128.3-18.7z"/>
		<path class="st8" d="M118.2-17.3c-0.7,0.1-1.2,0.6-1.3,1.3c0,0-1.2,4.2-1.5,5.1s1.1,1.3,1.4,0.4c0.3-0.9,1.1-3.1,1.3-3.7
			s0.4-0.6,0.5-0.1c0.1,0.5,1.5,11,1.7,12.3c0.2,1.3,2.2,1,2-0.3s-0.7-5.3-0.8-6.1c-0.1-0.7,0.3-0.7,0.3,0c0.1,0.7,0.7,4.8,0.8,6.1
			s2.2,1,2-0.3s-1.6-11.8-1.7-12.3c-0.1-0.5,0.1-0.5,0.5-0.1c0.3,0.5,1.7,2.4,2.2,3.2s1.7,0,1.2-0.7s-2.8-4.6-2.8-4.6
			c-0.3-0.6-0.9-1-1.6-0.9L118.2-17.3z"/>
		<path class="st8" d="M118.2-19.5c-0.1-1,0.6-2,1.6-2.1c0,0,0,0,0,0c1-0.1,2,0.6,2.1,1.6c0.1,1-0.6,2-1.6,2.1
			C119.3-17.7,118.4-18.4,118.2-19.5z"/>
		<path class="st22" d="M108.1-15.9c-0.7,0.1-1.2,0.6-1.3,1.3c0,0-1.2,4.2-1.5,5.1c-0.3,0.9,1.1,1.3,1.4,0.4
			c0.3-0.9,1.1-3.1,1.3-3.7s0.4-0.6,0.5-0.1s1.5,11,1.7,12.3s2.2,1,2-0.3s-0.7-5.3-0.8-6.1c-0.1-0.7,0.3-0.7,0.3,0
			c0.1,0.7,0.7,4.8,0.8,6.1s2.2,1,2-0.3s-1.6-11.8-1.7-12.3s0.1-0.5,0.5-0.1c0.3,0.5,1.7,2.4,2.2,3.2c0.5,0.8,1.7,0,1.2-0.7
			s-2.8-4.6-2.8-4.6c-0.3-0.6-0.9-1-1.6-0.9L108.1-15.9z"/>
		<path class="st22" d="M108.1-18.1c-0.1-1,0.6-2,1.6-2.1c1-0.1,2,0.6,2.1,1.6c0.1,1-0.6,2-1.6,2.1C109.2-16.3,108.3-17,108.1-18.1z
			"/>
		<path class="st18" d="M98-14.5c-0.7,0.1-1.2,0.6-1.3,1.3c0,0-1.2,4.2-1.5,5.1s1.1,1.3,1.4,0.4c0.3-0.9,1.1-3.1,1.3-3.7
			c0.2-0.6,0.4-0.6,0.5-0.1c0.1,0.5,1.5,11,1.7,12.3s2.2,1,2-0.3s-0.7-5.3-0.8-6.1c-0.1-0.7,0.3-0.7,0.3,0c0.1,0.7,0.7,4.8,0.8,6.1
			c0.2,1.3,2.2,1,2-0.3s-1.6-11.8-1.7-12.3s0.1-0.5,0.5-0.1s1.7,2.4,2.2,3.2c0.5,0.8,1.7,0,1.2-0.7c-0.5-0.8-2.8-4.6-2.8-4.6
			c-0.3-0.6-0.9-1-1.6-0.9L98-14.5z"/>
		<ellipse transform="matrix(0.9906 -0.1371 0.1371 0.9906 3.2646 13.537)" class="st18" cx="99.9" cy="-16.9" rx="1.9" ry="1.9"/>
		<path class="st6" d="M87.9-13.1c-0.7,0.1-1.2,0.6-1.3,1.3c0,0-1.2,4.2-1.5,5.1c-0.3,0.9,1.1,1.3,1.4,0.4s1.1-3.1,1.3-3.7
			c0.2-0.6,0.4-0.6,0.5-0.1c0.1,0.5,1.5,11,1.7,12.3s2.2,1,2-0.3s-0.7-5.3-0.8-6.1c-0.1-0.7,0.3-0.7,0.3,0c0.1,0.7,0.7,4.8,0.8,6.1
			c0.2,1.3,2.2,1,2-0.3s-1.6-11.8-1.7-12.3s0.1-0.5,0.5-0.1s1.7,2.4,2.2,3.2c0.5,0.8,1.7,0,1.2-0.7c-0.5-0.8-2.8-4.6-2.8-4.6
			c-0.3-0.6-0.9-1-1.6-0.9L87.9-13.1z"/>
		<ellipse transform="matrix(0.9906 -0.1371 0.1371 0.9906 2.9775 12.1662)" class="st6" cx="89.8" cy="-15.5" rx="1.9" ry="1.9"/>
		<path class="st19" d="M77.8-11.7c-0.7,0.1-1.2,0.6-1.3,1.3c0,0-1.2,4.2-1.5,5.1s1.1,1.3,1.4,0.4s1.1-3.1,1.3-3.7s0.4-0.6,0.5-0.1
			c0.1,0.5,1.5,11,1.7,12.3s2.2,1,2-0.3S81.2-2,81.1-2.7c-0.1-0.7,0.3-0.7,0.3,0c0.1,0.7,0.7,4.8,0.8,6.1c0.2,1.3,2.2,1,2-0.3
			S82.7-8.8,82.6-9.3c-0.1-0.5,0.1-0.5,0.5-0.1c0.3,0.5,1.7,2.4,2.2,3.2s1.7,0,1.2-0.7s-2.8-4.6-2.8-4.6c-0.3-0.6-0.9-1-1.6-0.9
			L77.8-11.7z"/>
		<path class="st19" d="M77.9-13.9c-0.1-1,0.6-2,1.6-2.1c1-0.1,2,0.6,2.1,1.6c0.1,1-0.6,2-1.6,2.1C79-12.1,78-12.9,77.9-13.9z"/>
		<path class="st23" d="M67.7-10.3c-0.7,0.1-1.2,0.6-1.3,1.3c0,0-1.2,4.2-1.5,5.1c-0.3,0.9,1.1,1.3,1.4,0.4s1.1-3.1,1.3-3.7
			s0.4-0.6,0.5-0.1c0.1,0.5,1.5,11,1.7,12.3s2.2,1,2-0.3S71.1-0.6,71-1.3c-0.1-0.7,0.3-0.7,0.3,0c0.1,0.7,0.7,4.8,0.8,6.1
			c0.2,1.3,2.2,1,2-0.3S72.6-7.3,72.5-7.9s0.1-0.5,0.5-0.1c0.3,0.5,1.7,2.4,2.2,3.2c0.5,0.8,1.7,0,1.2-0.7S73.7-10,73.7-10
			c-0.3-0.6-0.9-1-1.6-0.9L67.7-10.3z"/>
		<path class="st23" d="M67.8-12.5c-0.1-1,0.6-2,1.6-2.1c1-0.1,2,0.6,2.1,1.6c0.1,1-0.6,2-1.6,2.1C68.9-10.8,67.9-11.5,67.8-12.5z"
			/>
		<path class="st24" d="M61-0.5c0.1,0,0.2,0.1,0.2,0.5c0.1,0.7,0.7,4.8,0.8,6.1s2.2,1,2-0.3C63.9,4.5,62.5-6,62.4-6.5
			c-0.1-0.5,0.1-0.5,0.5-0.1s1.7,2.4,2.2,3.2s1.7,0,1.2-0.7c-0.5-0.8-2.8-4.6-2.8-4.6c-0.3-0.6-0.9-0.9-1.5-0.9l-2.2,0.3L61-0.5z"/>
		<path class="st24" d="M59.3-13.2c1-0.1,2,0.6,2.1,1.6c0.1,1-0.6,2-1.6,2.1L59.3-13.2z"/>
		<path class="st16" d="M145.9,21.2c0.3-0.9,1.5-5,1.5-5c0.1-0.6,0.6-1.2,1.2-1.2l3.3-0.5c0.6-0.1,1.3,0.2,1.5,0.9
			c0,0,1.2,1.9,2.1,3.3c0.4-1.5,1-3.7,1-3.7c0.1-0.6,0.6-1.2,1.3-1.2l4.2-0.6c0.7-0.1,1.3,0.2,1.6,0.8c0,0,2.2,3.7,2.7,4.4
			c0.5,0.8-0.7,1.6-1.2,0.8c-0.5-0.8-1.8-2.7-2.2-3.2s-0.5-0.4-0.5,0.1s1.5,10.8,1.7,12c0.2,1.2-1.8,1.5-2,0.3
			c-0.2-1.3-0.7-5.2-0.8-5.9c-0.1-0.6-0.4-0.6-0.3,0s0.7,4.7,0.8,5.9c0.2,1.3-1.8,1.5-2,0.3s-1.6-11.5-1.7-12
			c-0.1-0.5-0.3-0.5-0.5,0.1c-0.2,0.5-0.9,2.7-1.2,3.6c-0.1,0.3-0.4,0.5-0.7,0.5c-0.2,0-0.5-0.1-0.6-0.3c-0.5-0.8-1.9-2.8-2.2-3.3
			c-0.3-0.5-0.6-0.4-0.4,0.1c0,0.1,0.4,1.3,1,2.4c0.8,1.6,1.8,3.5,1.8,3.5l-1.9,0.3l0.8,6c0.1,0.5-0.2,1-0.7,1.1
			c-0.5,0.1-1-0.2-1.1-0.7c0,0,0-0.1,0-0.1c-0.2-1.3-0.8-5.9-0.8-5.9l-0.3,0c0,0,0.7,4.7,0.8,5.9c0.1,0.5-0.2,1-0.7,1.1
			s-1-0.2-1.1-0.7c0,0,0-0.1,0-0.1c-0.1-0.6-0.5-3.3-0.8-5.9l-1.9,0.3c0,0,0.5-2,0.8-3.7c0.2-1.3,0.3-2.6,0.3-2.7
			c0.1-0.4-0.2-0.5-0.4,0.1c-0.2,0.5-0.9,2.8-1.2,3.7S145.6,22.1,145.9,21.2z"/>
		<path class="st16" d="M150.1,14.4c-1,0.1-1.9-0.6-2.1-1.6c-0.1-1,0.6-1.9,1.6-2.1s1.9,0.6,2.1,1.6c0,0,0,0,0,0
			C151.8,13.4,151.1,14.3,150.1,14.4C150.1,14.4,150.1,14.4,150.1,14.4z"/>
		<path class="st16" d="M161.1,12.9c-1,0.1-1.9-0.6-2.1-1.6c-0.1-1,0.6-1.9,1.6-2.1c1-0.1,1.9,0.6,2.1,1.6c0,0,0,0,0,0
			C162.8,11.9,162.1,12.8,161.1,12.9C161.1,12.9,161.1,12.9,161.1,12.9z"/>
		<path class="st17" d="M126.7,23.8c0.3-0.9,1.5-5,1.5-5c0.1-0.6,0.6-1.2,1.2-1.2l3.3-0.5c0.6-0.1,1.3,0.3,1.5,0.9
			c0,0,1.2,1.9,2.1,3.3c0.4-1.5,1-3.7,1-3.7c0.1-0.7,0.6-1.2,1.3-1.2l4.2-0.6c0.7-0.1,1.3,0.2,1.6,0.8c0,0,2.2,3.7,2.7,4.4
			c0.5,0.8-0.7,1.6-1.2,0.8s-1.8-2.7-2.2-3.2c-0.3-0.5-0.5-0.4-0.5,0.1s1.5,10.8,1.7,12c0.2,1.2-1.8,1.5-2,0.3
			c-0.2-1.3-0.7-5.2-0.8-5.9c-0.1-0.6-0.4-0.6-0.3,0c0.1,0.7,0.7,4.7,0.8,5.9c0.2,1.3-1.8,1.5-2,0.3s-1.6-11.5-1.7-12
			s-0.3-0.5-0.5,0.1c-0.2,0.5-0.9,2.7-1.2,3.6c-0.1,0.3-0.4,0.5-0.7,0.5c-0.2,0-0.5-0.1-0.6-0.3c-0.5-0.8-1.9-2.8-2.2-3.3
			c-0.3-0.5-0.6-0.4-0.4,0.1c0,0.1,0.4,1.3,1,2.4c0.8,1.6,1.8,3.5,1.8,3.5l-1.9,0.3c0,0,0.7,5.4,0.8,6c0.1,0.5-0.2,1-0.7,1.1
			s-1-0.2-1.1-0.7c0,0,0-0.1,0-0.1c-0.2-1.3-0.8-5.9-0.8-5.9l-0.3,0c0,0,0.7,4.7,0.8,5.9c0.1,0.5-0.2,1-0.7,1.1
			c-0.5,0.1-1-0.2-1.1-0.7c0,0,0-0.1,0-0.1c-0.1-0.6-0.5-3.3-0.8-5.9l-1.9,0.3c0,0,0.5-2,0.8-3.7c0.2-1.3,0.3-2.6,0.3-2.7
			c0.1-0.4-0.2-0.5-0.4,0.1s-0.9,2.8-1.2,3.7S126.4,24.7,126.7,23.8z"/>
		<path class="st17" d="M131,17.1c-1,0.1-1.9-0.6-2.1-1.6c-0.1-1,0.6-1.9,1.6-2.1c1-0.1,1.9,0.6,2.1,1.6c0,0,0,0,0,0
			C132.7,16,132,17,131,17.1z"/>
		<path class="st17" d="M140.6,15.8c-1,0.1-1.9-0.6-2.1-1.6c-0.1-1,0.6-1.9,1.6-2.1c1-0.1,1.9,0.6,2.1,1.6c0,0,0,0,0,0
			C142.3,14.7,141.6,15.6,140.6,15.8C140.6,15.8,140.6,15.8,140.6,15.8z"/>
		<path class="st3" d="M106.3,26.7c0.3-0.9,1.5-5,1.5-5c0.1-0.6,0.6-1.2,1.2-1.2l3.3-0.5c0.6-0.1,1.3,0.2,1.5,0.9
			c0,0,1.2,1.9,2.1,3.3c0.4-1.5,1-3.7,1-3.7c0.1-0.7,0.6-1.2,1.3-1.2l4.2-0.6c0.7-0.1,1.3,0.2,1.6,0.8c0,0,2.2,3.7,2.7,4.4
			c0.5,0.8-0.7,1.6-1.2,0.8s-1.8-2.7-2.2-3.2s-0.5-0.4-0.5,0.1c0.1,0.5,1.5,10.8,1.7,12c0.2,1.2-1.8,1.5-2,0.3
			c-0.2-1.3-0.7-5.2-0.8-5.9c-0.1-0.6-0.4-0.6-0.3,0c0.1,0.7,0.7,4.7,0.8,5.9c0.2,1.3-1.8,1.5-2,0.3c-0.2-1.3-1.6-11.5-1.7-12
			c-0.1-0.5-0.3-0.5-0.5,0.1c-0.2,0.5-0.9,2.7-1.2,3.6c-0.1,0.3-0.4,0.5-0.7,0.5c-0.2,0-0.5-0.1-0.6-0.3c-0.5-0.8-1.9-2.8-2.2-3.3
			c-0.3-0.5-0.6-0.4-0.4,0.1c0,0.1,0.4,1.3,1,2.4c0.8,1.6,1.8,3.5,1.8,3.5l-1.9,0.3l0.8,6c0.1,0.5-0.2,1-0.7,1.1
			c-0.5,0.1-1-0.2-1.1-0.7c0,0,0-0.1,0-0.1c-0.2-1.3-0.8-5.9-0.8-5.9l-0.3,0c0,0,0.7,4.7,0.8,5.9c0.1,0.5-0.2,1-0.7,1.1
			c-0.5,0.1-1-0.2-1.1-0.7c0,0,0-0.1,0-0.1c-0.1-0.6-0.5-3.3-0.8-5.9l-1.9,0.3c0,0,0.5-2,0.8-3.7c0.2-1.3,0.3-2.6,0.3-2.7
			c0.1-0.4-0.2-0.5-0.4,0.1c-0.2,0.5-0.9,2.8-1.2,3.7S106,27.6,106.3,26.7z"/>
		<path class="st3" d="M110.5,19.9c-1,0.1-1.9-0.6-2.1-1.6c-0.1-1,0.6-1.9,1.6-2.1c1-0.1,1.9,0.6,2.1,1.6c0,0,0,0,0,0
			C112.2,18.9,111.5,19.8,110.5,19.9z"/>
		<path class="st3" d="M120.2,18.6c-1,0.1-1.9-0.6-2.1-1.6c-0.1-1,0.6-1.9,1.6-2.1c1-0.1,1.9,0.6,2.1,1.6c0,0,0,0,0,0
			C121.9,17.5,121.2,18.4,120.2,18.6C120.2,18.6,120.2,18.6,120.2,18.6z"/>
		<path class="st4" d="M85.8,29.5c0.3-0.9,1.5-5,1.5-5c0.1-0.6,0.6-1.2,1.2-1.2l3.3-0.5c0.6-0.1,1.3,0.3,1.5,0.9
			c0,0,1.2,1.9,2.1,3.3c0.4-1.5,1-3.7,1-3.7c0.1-0.7,0.6-1.2,1.3-1.2l4.2-0.6c0.7-0.1,1.3,0.2,1.6,0.8c0,0,2.2,3.7,2.7,4.4
			c0.5,0.8-0.7,1.6-1.2,0.8s-1.8-2.7-2.2-3.2s-0.5-0.4-0.5,0.1c0.1,0.5,1.5,10.8,1.7,12c0.2,1.2-1.8,1.5-2,0.3
			c-0.2-1.3-0.7-5.2-0.8-5.9c-0.1-0.6-0.4-0.6-0.3,0c0.1,0.7,0.7,4.7,0.8,5.9c0.2,1.3-1.8,1.5-2,0.3c-0.2-1.2-1.6-11.5-1.6-12
			c-0.1-0.5-0.3-0.5-0.5,0.1c-0.2,0.5-0.9,2.7-1.2,3.6c-0.1,0.3-0.4,0.5-0.7,0.5c-0.2,0-0.5-0.1-0.6-0.3c-0.5-0.8-1.9-2.8-2.2-3.3
			c-0.3-0.5-0.6-0.4-0.4,0.1c0,0.1,0.4,1.3,1,2.4c0.8,1.6,1.8,3.5,1.8,3.5l-1.9,0.3c0,0,0.7,5.4,0.8,6c0.1,0.5-0.2,1-0.7,1.1
			c-0.5,0.1-1-0.2-1.1-0.7c0,0,0-0.1,0-0.1c-0.2-1.3-0.8-5.9-0.8-5.9l-0.3,0c0,0,0.7,4.7,0.8,5.9c0.1,0.5-0.2,1-0.7,1.1
			c-0.5,0.1-1-0.2-1.1-0.7c0,0,0-0.1,0-0.1c-0.1-0.6-0.5-3.3-0.8-5.9l-1.9,0.3c0,0,0.5-2,0.8-3.7c0.2-1.3,0.3-2.6,0.3-2.7
			c0.1-0.4-0.2-0.5-0.4,0.1C88,26.8,87.3,29,87,29.9S85.5,30.4,85.8,29.5z"/>
		<path class="st4" d="M90,22.8c-1,0.1-1.9-0.6-2.1-1.6c-0.1-1,0.6-1.9,1.6-2.1s1.9,0.6,2.1,1.6c0,0,0,0,0,0
			C91.7,21.7,91,22.6,90,22.8z"/>
		<path class="st4" d="M99.7,21.4c-1,0.1-1.9-0.6-2.1-1.6c-0.1-1,0.6-1.9,1.6-2.1c1-0.1,1.9,0.6,2.1,1.6c0,0,0,0,0,0
			C101.4,20.4,100.7,21.3,99.7,21.4C99.7,21.4,99.7,21.4,99.7,21.4z"/>
		<path class="st5" d="M85.8,29.5c0.3-0.9,1.5-5,1.5-5c0.1-0.6,0.6-1.2,1.2-1.2l3.3-0.5c0.6-0.1,1.3,0.3,1.5,0.9
			c0,0,1.2,1.9,2.1,3.3c0.4-1.5,1-3.7,1-3.7c0.1-0.7,0.6-1.2,1.3-1.2l4.2-0.6c0.7-0.1,1.3,0.2,1.6,0.8c0,0,2.2,3.7,2.7,4.4
			c0.5,0.8-0.7,1.6-1.2,0.8s-1.8-2.7-2.2-3.2s-0.5-0.4-0.5,0.1c0.1,0.5,1.5,10.8,1.7,12c0.2,1.2-1.8,1.5-2,0.3
			c-0.2-1.3-0.7-5.2-0.8-5.9c-0.1-0.6-0.4-0.6-0.3,0c0.1,0.7,0.7,4.7,0.8,5.9c0.2,1.3-1.8,1.5-2,0.3c-0.2-1.2-1.6-11.5-1.6-12
			c-0.1-0.5-0.3-0.5-0.5,0.1c-0.2,0.5-0.9,2.7-1.2,3.6c-0.1,0.3-0.4,0.5-0.7,0.5c-0.2,0-0.5-0.1-0.6-0.3c-0.5-0.8-1.9-2.8-2.2-3.3
			c-0.3-0.5-0.6-0.4-0.4,0.1c0,0.1,0.4,1.3,1,2.4c0.8,1.6,1.8,3.5,1.8,3.5l-1.9,0.3c0,0,0.7,5.4,0.8,6c0.1,0.5-0.2,1-0.7,1.1
			c-0.5,0.1-1-0.2-1.1-0.7c0,0,0-0.1,0-0.1c-0.2-1.3-0.8-5.9-0.8-5.9l-0.3,0c0,0,0.7,4.7,0.8,5.9c0.1,0.5-0.2,1-0.7,1.1
			c-0.5,0.1-1-0.2-1.1-0.7c0,0,0-0.1,0-0.1c-0.1-0.6-0.5-3.3-0.8-5.9l-1.9,0.3c0,0,0.5-2,0.8-3.7c0.2-1.3,0.3-2.6,0.3-2.7
			c0.1-0.4-0.2-0.5-0.4,0.1C88,26.8,87.3,29,87,29.9S85.5,30.4,85.8,29.5z"/>
		<path class="st5" d="M90,22.8c-1,0.1-1.9-0.6-2.1-1.6c-0.1-1,0.6-1.9,1.6-2.1s1.9,0.6,2.1,1.6c0,0,0,0,0,0
			C91.7,21.7,91,22.6,90,22.8z"/>
		<path class="st5" d="M99.7,21.4c-1,0.1-1.9-0.6-2.1-1.6c-0.1-1,0.6-1.9,1.6-2.1c1-0.1,1.9,0.6,2.1,1.6c0,0,0,0,0,0
			C101.4,20.4,100.7,21.3,99.7,21.4C99.7,21.4,99.7,21.4,99.7,21.4z"/>
		<path class="st6" d="M65.3,32.3c0.3-0.9,1.5-5,1.5-5c0.1-0.6,0.6-1.2,1.2-1.2l3.3-0.5c0.6-0.1,1.3,0.2,1.5,0.9
			c0,0,1.2,1.9,2.1,3.3c0.4-1.5,1-3.7,1-3.7c0.1-0.7,0.6-1.2,1.3-1.2l4.2-0.6c0.7-0.1,1.3,0.2,1.6,0.8c0,0,2.2,3.7,2.7,4.4
			c0.5,0.8-0.7,1.6-1.2,0.8s-1.8-2.7-2.2-3.2c-0.3-0.5-0.5-0.4-0.5,0.1c0.1,0.5,1.5,10.8,1.7,12s-1.8,1.5-2,0.3
			c-0.2-1.3-0.7-5.2-0.8-5.9c-0.1-0.6-0.4-0.6-0.3,0c0.1,0.7,0.7,4.7,0.8,5.9c0.2,1.3-1.8,1.5-2,0.3s-1.6-11.5-1.7-12
			s-0.3-0.5-0.5,0.1c-0.2,0.5-0.9,2.7-1.2,3.6c-0.1,0.3-0.4,0.5-0.7,0.5c-0.2,0-0.5-0.1-0.6-0.3c-0.5-0.8-1.9-2.8-2.2-3.3
			C72,27.9,71.8,28,72,28.4c0,0.1,0.4,1.3,1,2.4c0.8,1.6,1.8,3.5,1.8,3.5l-1.9,0.3l0.8,6c0.1,0.5-0.2,1-0.7,1.1
			c-0.5,0.1-1-0.2-1.1-0.7c0,0,0-0.1,0-0.1c-0.2-1.3-0.8-5.9-0.8-5.9l-0.3,0c0,0,0.7,4.7,0.8,5.9c0.1,0.5-0.2,1-0.7,1.1
			c-0.5,0.1-1-0.2-1.1-0.7c0,0,0-0.1,0-0.1c-0.1-0.6-0.5-3.3-0.8-5.9l-1.9,0.3c0,0,0.5-2,0.8-3.7c0.2-1.3,0.3-2.6,0.3-2.7
			c0.1-0.4-0.2-0.5-0.4,0.1c-0.2,0.5-0.9,2.8-1.2,3.7C66.2,33.7,65,33.2,65.3,32.3z"/>
		<path class="st6" d="M69.5,25.6c-1,0.1-1.9-0.6-2.1-1.6C67.3,23,68,22.1,69,22c1-0.1,1.9,0.6,2.1,1.6c0,0,0,0,0,0
			C71.2,24.5,70.5,25.5,69.5,25.6z"/>
		<path class="st6" d="M79.2,24.3c-1,0.1-1.9-0.6-2.1-1.6c-0.1-1,0.6-1.9,1.6-2.1c1-0.1,1.9,0.6,2.1,1.6c0,0,0,0,0,0
			C80.9,23.2,80.2,24.1,79.2,24.3z"/>
		<path class="st8" d="M85.6,11.8c0.7-0.1,1.3,0.3,1.6,0.9c0,0,2.3,3.7,2.8,4.5c0.5,0.8-0.7,1.6-1.2,0.8c-0.5-0.8-1.9-2.7-2.2-3.2
			c-0.3-0.5-0.5-0.4-0.5,0.1c0.1,0.5,1.5,11,1.7,12.3c0.2,1.3-1.9,1.6-2,0.3c-0.2-1.3-0.7-5.3-0.8-6.1c-0.1-0.7-0.4-0.6-0.3,0
			c0.1,0.7,0.7,4.8,0.8,6.1c0.2,1.3-1.9,1.6-2,0.3c-0.2-1.3-1.6-11.8-1.7-12.3c-0.1-0.5-0.3-0.5-0.5,0.1c-0.2,0.6-1,2.8-1.3,3.7
			s-1.7,0.5-1.4-0.4s1.4-5.1,1.4-5.1c0.1-0.7,0.6-1.2,1.3-1.3L85.6,11.8z"/>
		<path class="st8" d="M84.9,9.7c-0.1-1-1.1-1.7-2.1-1.6c-1,0.1-1.7,1.1-1.6,2.1c0.1,1,1.1,1.7,2.1,1.6
			C84.4,11.6,85.1,10.7,84.9,9.7z"/>
		<path class="st10" d="M105.9,9c0.7-0.1,1.3,0.3,1.6,0.9c0,0,2.3,3.7,2.8,4.5s-0.7,1.6-1.2,0.8c-0.5-0.8-1.9-2.7-2.2-3.2
			s-0.5-0.4-0.5,0.1c0.1,0.5,1.5,11,1.7,12.3c0.2,1.3-1.9,1.6-2,0.3s-0.7-5.3-0.8-6.1c-0.1-0.7-0.4-0.6-0.3,0s0.7,4.8,0.8,6.1
			s-1.9,1.6-2,0.3c-0.2-1.3-1.6-11.8-1.7-12.3c-0.1-0.5-0.3-0.5-0.5,0.1s-1,2.8-1.3,3.7c-0.3,0.9-1.7,0.5-1.4-0.4
			c0.3-0.9,1.4-5.2,1.4-5.2c0.1-0.7,0.6-1.2,1.3-1.3L105.9,9z"/>
		<path class="st10" d="M105.2,6.9c-0.1-1-1.1-1.7-2.1-1.6c-1,0.1-1.7,1.1-1.6,2.1c0.1,1,1.1,1.7,2.1,1.6
			C104.7,8.9,105.4,7.9,105.2,6.9C105.2,6.9,105.2,6.9,105.2,6.9z"/>
		<path class="st12" d="M126,6.2c0.7-0.1,1.3,0.3,1.6,0.9c0,0,2.3,3.7,2.8,4.5s-0.7,1.6-1.2,0.8c-0.5-0.8-1.9-2.7-2.2-3.2
			c-0.3-0.5-0.5-0.4-0.5,0.1c0.1,0.5,1.5,11,1.7,12.3c0.2,1.3-1.9,1.6-2,0.3c-0.2-1.3-0.7-5.3-0.8-6.1c-0.1-0.7-0.4-0.6-0.3,0
			s0.7,4.8,0.8,6.1s-1.9,1.6-2,0.3c-0.2-1.3-1.6-11.8-1.7-12.3s-0.3-0.5-0.5,0.1s-1,2.8-1.3,3.7c-0.3,0.9-1.7,0.5-1.4-0.4
			c0.3-0.9,1.4-5.1,1.4-5.1c0.1-0.7,0.6-1.2,1.3-1.3L126,6.2z"/>
		<path class="st12" d="M125.3,4.1c-0.1-1-1.1-1.7-2.1-1.6s-1.7,1.1-1.6,2.1c0.1,1,1.1,1.7,2.1,1.6C124.8,6.1,125.5,5.1,125.3,4.1
			C125.3,4.1,125.3,4.1,125.3,4.1z"/>
		<path class="st8" d="M146.1,3.4c0.7-0.1,1.3,0.3,1.6,0.9c0,0,2.3,3.7,2.8,4.5s-0.7,1.6-1.2,0.8c-0.5-0.8-1.9-2.7-2.2-3.2
			c-0.3-0.5-0.5-0.4-0.5,0.1s1.5,11,1.7,12.3c0.2,1.3-1.9,1.6-2,0.3c-0.2-1.3-0.7-5.3-0.8-6.1c-0.1-0.7-0.4-0.6-0.3,0
			c0.1,0.7,0.7,4.8,0.8,6.1c0.2,1.3-1.9,1.6-2,0.3c-0.2-1.3-1.6-11.8-1.7-12.3c-0.1-0.5-0.3-0.5-0.5,0.1s-1,2.8-1.3,3.7
			c-0.3,0.9-1.7,0.5-1.4-0.4c0.3-0.9,1.4-5.2,1.4-5.2c0.1-0.7,0.6-1.2,1.3-1.3L146.1,3.4z"/>
		<path class="st8" d="M145.5,1.3c-0.1-1-1.1-1.7-2.1-1.6s-1.7,1.1-1.6,2.1c0.1,1,1.1,1.7,2.1,1.6C144.9,3.3,145.7,2.3,145.5,1.3
			C145.5,1.3,145.5,1.3,145.5,1.3z"/>
		<path class="st22" d="M156.2,2c0.7-0.1,1.3,0.3,1.6,0.9c0,0,2.3,3.7,2.8,4.5c0.5,0.8-0.7,1.6-1.2,0.8c-0.5-0.8-1.9-2.7-2.2-3.2
			s-0.5-0.4-0.5,0.1s1.5,11,1.7,12.3c0.2,1.3-1.9,1.6-2,0.3s-0.7-5.3-0.8-6.1c-0.1-0.7-0.4-0.6-0.3,0c0.1,0.7,0.7,4.8,0.8,6.1
			s-1.9,1.6-2,0.3c-0.2-1.3-1.6-11.8-1.7-12.3c-0.1-0.5-0.3-0.5-0.5,0.1s-1,2.8-1.3,3.7c-0.3,0.9-1.7,0.5-1.4-0.4
			c0.3-0.9,1.4-5.1,1.4-5.1c0.1-0.7,0.6-1.2,1.3-1.3L156.2,2z"/>
		<path class="st22" d="M155.6-0.1c-0.1-1-1.1-1.7-2.1-1.6s-1.7,1.1-1.6,2.1c0.1,1,1.1,1.7,2.1,1.6C155,1.9,155.7,0.9,155.6-0.1
			C155.6-0.1,155.6-0.1,155.6-0.1z"/>
		<path class="st18" d="M166.3,0.6c0.7-0.1,1.3,0.3,1.6,0.9c0,0,2.3,3.7,2.8,4.5s-0.7,1.6-1.2,0.8c-0.5-0.8-1.9-2.7-2.2-3.2
			s-0.5-0.4-0.5,0.1s1.5,11,1.7,12.3c0.2,1.3-1.9,1.6-2,0.3c-0.2-1.3-0.7-5.3-0.8-6.1c-0.1-0.7-0.4-0.6-0.3,0
			c0.1,0.7,0.7,4.8,0.8,6.1c0.2,1.3-1.9,1.6-2,0.3c-0.2-1.3-1.6-11.8-1.7-12.3s-0.3-0.5-0.5,0.1s-1,2.8-1.3,3.7
			c-0.3,0.9-1.7,0.5-1.4-0.4c0.3-0.9,1.4-5.2,1.4-5.2c0.1-0.7,0.6-1.2,1.3-1.3L166.3,0.6z"/>
		<path class="st13" d="M64.3,23.6c0.1,0,0.2,0.1,0.2,0.5c0.1,0.7,0.7,4.8,0.8,6.1c0.2,1.3,2.2,1,2-0.3s-1.6-11.8-1.7-12.3
			c-0.1-0.5,0.1-0.5,0.5-0.1s1.7,2.4,2.2,3.2c0.5,0.8,1.7,0,1.2-0.7s-2.8-4.6-2.8-4.6c-0.3-0.6-0.9-0.9-1.5-0.9c0,0-2.2,0.3-2.2,0.3
			L64.3,23.6z"/>
		<path class="st13" d="M62.6,10.9c1-0.1,2,0.6,2.1,1.6c0.1,1-0.6,2-1.6,2.1L62.6,10.9z"/>
		<path class="st16" d="M149,43.7c0.3-0.9,1.5-5,1.5-5c0.1-0.6,0.6-1.2,1.2-1.2L155,37c0.6-0.1,1.3,0.2,1.5,0.9c0,0,1.2,1.9,2.1,3.3
			c0.4-1.5,1-3.7,1-3.7c0.1-0.7,0.6-1.2,1.3-1.2l4.2-0.6c0.7-0.1,1.3,0.2,1.6,0.8c0,0,2.2,3.7,2.7,4.4c0.5,0.8-0.7,1.6-1.2,0.8
			c-0.5-0.8-1.8-2.7-2.2-3.2c-0.3-0.5-0.5-0.4-0.5,0.1c0.1,0.5,1.5,10.8,1.7,12c0.2,1.3-1.8,1.5-2,0.3c-0.2-1.3-0.7-5.2-0.8-5.9
			c-0.1-0.6-0.4-0.6-0.3,0s0.7,4.7,0.8,5.9c0.2,1.3-1.8,1.5-2,0.3c-0.2-1.3-1.6-11.5-1.7-12s-0.3-0.5-0.5,0.1
			c-0.2,0.5-0.9,2.7-1.2,3.6c-0.1,0.3-0.4,0.5-0.7,0.5c-0.2,0-0.5-0.1-0.6-0.3c-0.5-0.8-1.9-2.8-2.2-3.3c-0.3-0.5-0.6-0.4-0.4,0.1
			c0,0.1,0.4,1.3,1,2.4c0.8,1.6,1.8,3.5,1.8,3.5l-1.9,0.3l0.8,6c0.1,0.5-0.2,1-0.7,1.1s-1-0.2-1.1-0.7c0,0,0-0.1,0-0.1
			c-0.2-1.3-0.8-5.9-0.8-5.9l-0.3,0c0,0,0.7,4.7,0.8,5.9c0.1,0.5-0.2,1-0.7,1.1c-0.5,0.1-1-0.2-1.1-0.7c0,0,0-0.1,0-0.1
			c-0.1-0.6-0.5-3.3-0.8-5.9l-1.9,0.3c0,0,0.5-2,0.8-3.7c0.2-1.3,0.3-2.6,0.3-2.7c0.1-0.4-0.2-0.5-0.4,0.1c-0.2,0.5-0.9,2.8-1.2,3.7
			C150,45,148.7,44.6,149,43.7z"/>
		<path class="st16" d="M153.3,36.9c-1,0.1-1.9-0.6-2.1-1.6c-0.1-1,0.6-1.9,1.6-2.1c1-0.1,1.9,0.6,2.1,1.6c0,0,0,0,0,0
			C155,35.9,154.3,36.8,153.3,36.9C153.3,36.9,153.3,36.9,153.3,36.9z"/>
		<path class="st20" d="M129.8,46.3c0.3-0.9,1.5-5,1.5-5c0.1-0.6,0.6-1.2,1.2-1.2l3.3-0.5c0.6-0.1,1.3,0.2,1.5,0.9
			c0,0,1.2,1.9,2.1,3.3c0.4-1.5,1-3.7,1-3.7c0.1-0.7,0.6-1.2,1.3-1.2l4.2-0.6c0.7-0.1,1.3,0.2,1.6,0.8c0,0,2.2,3.7,2.7,4.4
			c0.5,0.8-0.7,1.6-1.2,0.8s-1.8-2.7-2.2-3.2s-0.5-0.4-0.5,0.1c0.1,0.5,1.5,10.8,1.7,12c0.2,1.2-1.8,1.5-2,0.3
			c-0.2-1.3-0.7-5.2-0.8-5.9c-0.1-0.6-0.4-0.6-0.3,0c0.1,0.7,0.7,4.7,0.8,5.9c0.2,1.3-1.8,1.5-2,0.3c-0.2-1.2-1.6-11.5-1.7-12
			s-0.3-0.5-0.5,0.1c-0.2,0.5-0.9,2.7-1.2,3.6c-0.1,0.3-0.4,0.5-0.7,0.5c-0.2,0-0.5-0.1-0.6-0.3c-0.5-0.8-1.9-2.8-2.2-3.3
			s-0.6-0.4-0.4,0.1c0,0.1,0.4,1.3,1,2.4c0.8,1.6,1.8,3.5,1.8,3.5l-1.9,0.3c0,0,0.7,5.4,0.8,6c0.1,0.5-0.2,1-0.7,1.1
			c-0.5,0.1-1-0.2-1.1-0.7c0,0,0-0.1,0-0.1c-0.2-1.3-0.8-5.9-0.8-5.9l-0.3,0c0,0,0.7,4.7,0.8,5.9c0.1,0.5-0.2,1-0.7,1.1
			c-0.5,0.1-1-0.2-1.1-0.7c0,0,0-0.1,0-0.1c-0.1-0.6-0.5-3.3-0.8-5.9l-1.9,0.3c0,0,0.5-2,0.8-3.7c0.2-1.3,0.3-2.6,0.3-2.7
			c0.1-0.4-0.2-0.5-0.4,0.1c-0.2,0.5-0.9,2.8-1.2,3.7C130.8,47.7,129.6,47.2,129.8,46.3z"/>
		<path class="st20" d="M134.1,39.6c-1,0.1-1.9-0.6-2.1-1.6c-0.1-1,0.6-1.9,1.6-2.1c1-0.1,1.9,0.6,2.1,1.6c0,0,0,0,0,0
			C135.8,38.5,135.1,39.4,134.1,39.6z"/>
		<path class="st20" d="M143.8,38.2c-1,0.1-1.9-0.6-2.1-1.6c-0.1-1,0.6-1.9,1.6-2.1s1.9,0.6,2.1,1.6c0,0,0,0,0,0
			C145.5,37.2,144.8,38.1,143.8,38.2C143.8,38.2,143.8,38.2,143.8,38.2z"/>
		<path class="st3" d="M109.4,49.2c0.3-0.9,1.5-5,1.5-5c0.1-0.6,0.6-1.2,1.2-1.2l3.3-0.5c0.6-0.1,1.3,0.3,1.5,0.9
			c0,0,1.2,1.9,2.1,3.3c0.4-1.5,1-3.7,1-3.7c0.1-0.7,0.6-1.2,1.3-1.2l4.2-0.6c0.7-0.1,1.3,0.2,1.6,0.8c0,0,2.2,3.7,2.7,4.4
			c0.5,0.8-0.7,1.6-1.2,0.8c-0.5-0.8-1.8-2.7-2.2-3.2s-0.5-0.4-0.5,0.1s1.5,10.8,1.7,12c0.2,1.3-1.8,1.5-2,0.3
			c-0.2-1.3-0.7-5.2-0.8-5.9c-0.1-0.6-0.4-0.6-0.3,0c0.1,0.7,0.7,4.7,0.8,5.9c0.2,1.3-1.8,1.5-2,0.3c-0.2-1.2-1.6-11.5-1.7-12
			s-0.3-0.5-0.5,0.1c-0.2,0.5-0.9,2.7-1.2,3.6c-0.1,0.3-0.4,0.5-0.7,0.5c-0.2,0-0.5-0.1-0.6-0.3c-0.5-0.8-1.9-2.8-2.2-3.3
			c-0.3-0.5-0.6-0.4-0.4,0.1c0,0.1,0.4,1.3,1,2.4c0.8,1.6,1.8,3.5,1.8,3.5l-1.9,0.3l0.8,6c0.1,0.5-0.2,1-0.7,1.1
			c-0.5,0.1-1-0.2-1.1-0.7c0,0,0-0.1,0-0.1c-0.2-1.3-0.8-5.9-0.8-5.9l-0.3,0c0,0,0.7,4.7,0.8,5.9c0.1,0.5-0.2,1-0.7,1.1
			c-0.5,0.1-1-0.2-1.1-0.7c0,0,0-0.1,0-0.1c-0.1-0.6-0.5-3.3-0.8-5.9l-1.9,0.3c0,0,0.5-2,0.8-3.7c0.2-1.3,0.3-2.6,0.3-2.7
			c0.1-0.4-0.2-0.5-0.4,0.1s-0.9,2.8-1.2,3.7C110.3,50.5,109.1,50,109.4,49.2z"/>
		<path class="st3" d="M113.6,42.4c-1,0.1-1.9-0.6-2.1-1.6c-0.1-1,0.6-1.9,1.6-2.1c1-0.1,1.9,0.6,2.1,1.6c0,0,0,0,0,0
			C115.3,41.3,114.6,42.3,113.6,42.4z"/>
		<path class="st3" d="M123.3,41.1c-1,0.1-1.9-0.6-2.1-1.6c-0.1-1,0.6-1.9,1.6-2.1c1-0.1,1.9,0.6,2.1,1.6c0,0,0,0,0,0
			C125,40,124.3,40.9,123.3,41.1C123.3,41.1,123.3,41.1,123.3,41.1z"/>
		<path class="st4" d="M88.9,52c0.3-0.9,1.5-5,1.5-5c0.1-0.6,0.6-1.2,1.2-1.2l3.3-0.5c0.6-0.1,1.3,0.3,1.5,0.9c0,0,1.2,1.9,2.1,3.3
			c0.4-1.5,1-3.7,1-3.7c0.1-0.7,0.6-1.2,1.3-1.2l4.2-0.6c0.7-0.1,1.3,0.2,1.6,0.8c0,0,2.2,3.7,2.7,4.4c0.5,0.8-0.7,1.6-1.2,0.8
			c-0.5-0.8-1.8-2.7-2.2-3.2c-0.3-0.5-0.5-0.4-0.5,0.1c0.1,0.5,1.5,10.8,1.7,12c0.2,1.2-1.8,1.5-2,0.3c-0.2-1.3-0.7-5.2-0.8-5.9
			c-0.1-0.6-0.4-0.6-0.3,0s0.7,4.7,0.8,5.9s-1.8,1.5-2,0.3c-0.2-1.2-1.6-11.5-1.7-12c-0.1-0.5-0.3-0.5-0.5,0.1s-0.9,2.7-1.2,3.6
			c-0.1,0.3-0.4,0.5-0.7,0.5c-0.2,0-0.5-0.1-0.6-0.3c-0.5-0.8-1.9-2.8-2.2-3.3c-0.3-0.5-0.6-0.4-0.4,0.1c0,0.1,0.4,1.3,1,2.4
			c0.8,1.6,1.8,3.5,1.8,3.5l-1.9,0.3c0,0,0.7,5.4,0.8,6c0.1,0.5-0.2,1-0.7,1.1s-1-0.2-1.1-0.7c0,0,0-0.1,0-0.1
			c-0.2-1.3-0.8-5.9-0.8-5.9l-0.3,0c0,0,0.7,4.7,0.8,5.9c0.1,0.5-0.2,1-0.7,1.1c-0.5,0.1-1-0.2-1.1-0.7c0,0,0-0.1,0-0.1
			c-0.1-0.6-0.5-3.3-0.8-5.9l-1.9,0.3c0,0,0.5-2,0.8-3.7c0.2-1.3,0.3-2.6,0.3-2.7c0.1-0.4-0.2-0.5-0.4,0.1s-0.9,2.8-1.2,3.7
			C89.8,53.4,88.6,52.9,88.9,52z"/>
		<path class="st4" d="M93.1,45.2c-1,0.1-1.9-0.6-2.1-1.6c-0.1-1,0.6-1.9,1.6-2.1s1.9,0.6,2.1,1.6c0,0,0,0,0,0
			C94.8,44.2,94.1,45.1,93.1,45.2C93.1,45.2,93.1,45.2,93.1,45.2z"/>
		<path class="st4" d="M102.8,43.9c-1,0.1-1.9-0.6-2.1-1.6c-0.1-1,0.6-1.9,1.6-2.1c1-0.1,1.9,0.6,2.1,1.6c0,0,0,0,0,0
			C104.5,42.8,103.8,43.8,102.8,43.9C102.8,43.9,102.8,43.9,102.8,43.9z"/>
		<path class="st5" d="M88.9,52c0.3-0.9,1.5-5,1.5-5c0.1-0.6,0.6-1.2,1.2-1.2l3.3-0.5c0.6-0.1,1.3,0.3,1.5,0.9c0,0,1.2,1.9,2.1,3.3
			c0.4-1.5,1-3.7,1-3.7c0.1-0.7,0.6-1.2,1.3-1.2l4.2-0.6c0.7-0.1,1.3,0.2,1.6,0.8c0,0,2.2,3.7,2.7,4.4c0.5,0.8-0.7,1.6-1.2,0.8
			c-0.5-0.8-1.8-2.7-2.2-3.2c-0.3-0.5-0.5-0.4-0.5,0.1c0.1,0.5,1.5,10.8,1.7,12c0.2,1.2-1.8,1.5-2,0.3c-0.2-1.3-0.7-5.2-0.8-5.9
			c-0.1-0.6-0.4-0.6-0.3,0s0.7,4.7,0.8,5.9s-1.8,1.5-2,0.3c-0.2-1.2-1.6-11.5-1.7-12c-0.1-0.5-0.3-0.5-0.5,0.1s-0.9,2.7-1.2,3.6
			c-0.1,0.3-0.4,0.5-0.7,0.5c-0.2,0-0.5-0.1-0.6-0.3c-0.5-0.8-1.9-2.8-2.2-3.3c-0.3-0.5-0.6-0.4-0.4,0.1c0,0.1,0.4,1.3,1,2.4
			c0.8,1.6,1.8,3.5,1.8,3.5l-1.9,0.3c0,0,0.7,5.4,0.8,6c0.1,0.5-0.2,1-0.7,1.1s-1-0.2-1.1-0.7c0,0,0-0.1,0-0.1
			c-0.2-1.3-0.8-5.9-0.8-5.9l-0.3,0c0,0,0.7,4.7,0.8,5.9c0.1,0.5-0.2,1-0.7,1.1c-0.5,0.1-1-0.2-1.1-0.7c0,0,0-0.1,0-0.1
			c-0.1-0.6-0.5-3.3-0.8-5.9l-1.9,0.3c0,0,0.5-2,0.8-3.7c0.2-1.3,0.3-2.6,0.3-2.7c0.1-0.4-0.2-0.5-0.4,0.1s-0.9,2.8-1.2,3.7
			C89.8,53.4,88.6,52.9,88.9,52z"/>
		<path class="st5" d="M93.1,45.2c-1,0.1-1.9-0.6-2.1-1.6c-0.1-1,0.6-1.9,1.6-2.1s1.9,0.6,2.1,1.6c0,0,0,0,0,0
			C94.8,44.2,94.1,45.1,93.1,45.2C93.1,45.2,93.1,45.2,93.1,45.2z"/>
		<path class="st5" d="M102.8,43.9c-1,0.1-1.9-0.6-2.1-1.6c-0.1-1,0.6-1.9,1.6-2.1c1-0.1,1.9,0.6,2.1,1.6c0,0,0,0,0,0
			C104.5,42.8,103.8,43.8,102.8,43.9C102.8,43.9,102.8,43.9,102.8,43.9z"/>
		<path class="st6" d="M68.4,54.8c0.3-0.9,1.5-5,1.5-5c0.1-0.6,0.6-1.2,1.2-1.2l3.3-0.5c0.6-0.1,1.3,0.2,1.5,0.9
			c0,0,1.2,1.9,2.1,3.3c0.4-1.5,1-3.7,1-3.7c0.1-0.7,0.6-1.2,1.3-1.2l4.2-0.6c0.7-0.1,1.3,0.2,1.6,0.8c0,0,2.2,3.7,2.7,4.4
			c0.5,0.8-0.7,1.6-1.2,0.8s-1.8-2.7-2.2-3.2c-0.3-0.5-0.5-0.4-0.5,0.1c0.1,0.5,1.5,10.8,1.7,12c0.2,1.3-1.8,1.5-2,0.3
			c-0.2-1.3-0.7-5.2-0.8-5.9c-0.1-0.6-0.4-0.6-0.3,0c0.1,0.7,0.7,4.7,0.8,5.9c0.2,1.3-1.8,1.5-2,0.3s-1.6-11.5-1.7-12
			c-0.1-0.5-0.3-0.5-0.5,0.1C80,50.9,79.3,53.1,79,54c-0.1,0.3-0.4,0.5-0.7,0.5c-0.2,0-0.5-0.1-0.6-0.3c-0.5-0.8-1.9-2.8-2.2-3.3
			c-0.3-0.5-0.6-0.4-0.4,0.1c0,0.1,0.4,1.3,1,2.4c0.8,1.6,1.8,3.5,1.8,3.5L76,57.1l0.8,6c0.1,0.5-0.2,1-0.7,1.1s-1-0.2-1.1-0.7
			c0,0,0-0.1,0-0.1c-0.2-1.3-0.8-5.9-0.8-5.9l-0.3,0c0,0,0.7,4.7,0.8,5.9c0.1,0.5-0.2,1-0.7,1.1c-0.5,0.1-1-0.2-1.1-0.7
			c0,0,0-0.1,0-0.1c-0.1-0.6-0.5-3.3-0.8-5.9l-1.9,0.3c0,0,0.5-2,0.8-3.7c0.2-1.3,0.3-2.6,0.3-2.7c0.1-0.4-0.2-0.5-0.4,0.1
			c-0.2,0.5-0.9,2.8-1.2,3.7C69.4,56.2,68.1,55.7,68.4,54.8z"/>
		<path class="st6" d="M72.6,48.1c-1,0.1-1.9-0.6-2.1-1.6c-0.1-1,0.6-1.9,1.6-2.1c1-0.1,1.9,0.6,2.1,1.6c0,0,0,0,0,0
			C74.3,47,73.6,47.9,72.6,48.1z"/>
		<path class="st6" d="M82.3,46.7c-1,0.1-1.9-0.6-2.1-1.6c-0.1-1,0.6-1.9,1.6-2.1c1-0.1,1.9,0.6,2.1,1.6c0,0,0,0,0,0
			C84,45.7,83.3,46.6,82.3,46.7C82.3,46.7,82.3,46.7,82.3,46.7z"/>
		<path class="st11" d="M154.9,25.1c-0.7,0.1-1.2,0.6-1.3,1.3c0,0-1.2,4.2-1.5,5.1c-0.3,0.9,1.1,1.3,1.4,0.4
			c0.3-0.9,1.1-3.1,1.3-3.7c0.2-0.6,0.4-0.6,0.5-0.1c0.1,0.5,1.5,11,1.7,12.3c0.2,1.3,2.2,1,2-0.3s-0.7-5.3-0.8-6.1
			c-0.1-0.7,0.3-0.7,0.3,0c0.1,0.7,0.7,4.8,0.8,6.1c0.2,1.3,2.2,1,2-0.3s-1.6-11.8-1.7-12.3c-0.1-0.5,0.1-0.5,0.5-0.1
			c0.3,0.5,1.7,2.4,2.2,3.2c0.5,0.8,1.7,0,1.2-0.7c-0.5-0.8-2.8-4.6-2.8-4.6c-0.3-0.6-0.9-1-1.6-0.9L154.9,25.1z"/>
		<ellipse transform="matrix(0.9901 -0.14 0.14 0.9901 -1.5603 22.1811)" class="st11" cx="156.9" cy="22.2" rx="1.9" ry="1.9"/>
		<path class="st12" d="M144.8,26.5c-0.7,0.1-1.2,0.6-1.3,1.3c0,0-1.2,4.2-1.5,5.1c-0.3,0.9,1.1,1.3,1.4,0.4
			c0.3-0.9,1.1-3.1,1.3-3.7c0.2-0.6,0.4-0.6,0.5-0.1c0.1,0.5,1.5,11,1.7,12.3s2.2,1,2-0.3s-0.7-5.3-0.8-6.1c-0.1-0.7,0.3-0.7,0.3,0
			c0.1,0.7,0.7,4.8,0.8,6.1s2.2,1,2-0.3s-1.6-11.8-1.7-12.3c-0.1-0.5,0.1-0.5,0.5-0.1s1.7,2.4,2.2,3.2c0.5,0.8,1.7,0,1.2-0.7
			c-0.5-0.8-2.8-4.6-2.8-4.6c-0.3-0.6-0.9-1-1.6-0.9L144.8,26.5z"/>
		<path class="st12" d="M144.9,24.3c-0.1-1,0.6-2,1.6-2.1c1-0.1,2,0.6,2.1,1.6c0.1,1-0.6,2-1.6,2.1C146,26,145,25.3,144.9,24.3
			C144.9,24.3,144.9,24.3,144.9,24.3z"/>
		<path class="st8" d="M134.8,27.9c-0.7,0.1-1.2,0.6-1.3,1.3c0,0-1.2,4.2-1.5,5.1c-0.3,0.9,1.1,1.3,1.4,0.4c0.3-0.9,1.1-3.1,1.3-3.7
			c0.2-0.6,0.4-0.6,0.5-0.1c0.1,0.5,1.5,11,1.7,12.3c0.2,1.3,2.2,1,2-0.3s-0.7-5.3-0.8-6.1c-0.1-0.7,0.3-0.7,0.3,0s0.7,4.8,0.8,6.1
			s2.2,1,2-0.3c-0.2-1.3-1.6-11.8-1.7-12.3s0.1-0.5,0.5-0.1s1.7,2.4,2.2,3.2c0.5,0.8,1.7,0,1.2-0.7c-0.5-0.8-2.8-4.6-2.8-4.6
			c-0.3-0.6-0.9-1-1.6-0.9L134.8,27.9z"/>
		<path class="st8" d="M134.8,25.7c-0.1-1,0.6-2,1.6-2.1c1-0.1,2,0.6,2.1,1.6c0.1,1-0.6,2-1.6,2.1C135.9,27.4,134.9,26.7,134.8,25.7
			C134.8,25.7,134.8,25.7,134.8,25.7z"/>
		<path class="st8" d="M124.7,29.3c-0.7,0.1-1.2,0.6-1.3,1.3c0,0-1.2,4.2-1.5,5.1s1.1,1.3,1.4,0.4c0.3-0.9,1.1-3.1,1.3-3.7
			c0.2-0.6,0.4-0.6,0.5-0.1c0.1,0.5,1.5,11,1.7,12.3c0.2,1.3,2.2,1,2-0.3c-0.2-1.3-0.7-5.3-0.8-6.1c-0.1-0.7,0.3-0.7,0.3,0
			c0.1,0.7,0.7,4.8,0.8,6.1c0.2,1.3,2.2,1,2-0.3c-0.2-1.3-1.6-11.8-1.7-12.3c-0.1-0.5,0.1-0.5,0.5-0.1c0.3,0.5,1.7,2.4,2.2,3.2
			c0.5,0.8,1.7,0,1.2-0.7c-0.5-0.8-2.8-4.6-2.8-4.6c-0.3-0.6-0.9-1-1.6-0.9L124.7,29.3z"/>
		<path class="st8" d="M124.7,27.1c-0.1-1,0.6-2,1.6-2.1c1-0.1,2,0.6,2.1,1.6c0.1,1-0.6,2-1.6,2.1C125.8,28.8,124.8,28.1,124.7,27.1
			C124.7,27.1,124.7,27.1,124.7,27.1z"/>
		<path class="st22" d="M114.6,30.7c-0.7,0.1-1.2,0.6-1.3,1.3c0,0-1.2,4.2-1.5,5.1c-0.3,0.9,1.1,1.3,1.4,0.4
			c0.3-0.9,1.1-3.1,1.3-3.7c0.2-0.6,0.4-0.6,0.5-0.1c0.1,0.5,1.5,11,1.7,12.3s2.2,1,2-0.3s-0.7-5.3-0.8-6.1c-0.1-0.7,0.3-0.7,0.3,0
			c0.1,0.7,0.7,4.8,0.8,6.1s2.2,1,2-0.3c-0.2-1.3-1.6-11.8-1.7-12.3c-0.1-0.5,0.1-0.5,0.5-0.1c0.3,0.5,1.7,2.4,2.2,3.2
			c0.5,0.8,1.7,0,1.2-0.7c-0.5-0.8-2.8-4.6-2.8-4.6c-0.3-0.6-0.9-1-1.6-0.9L114.6,30.7z"/>
		<path class="st22" d="M114.6,28.5c-0.1-1,0.6-2,1.6-2.1c1-0.1,2,0.6,2.1,1.6c0.1,1-0.6,2-1.6,2.1
			C115.7,30.2,114.7,29.5,114.6,28.5z"/>
		<path class="st18" d="M104.5,32.1c-0.7,0.1-1.2,0.6-1.3,1.3c0,0-1.2,4.2-1.5,5.1s1.1,1.3,1.4,0.4c0.3-0.9,1.1-3.1,1.3-3.7
			c0.2-0.6,0.4-0.6,0.5-0.1s1.5,11,1.7,12.3c0.2,1.3,2.2,1,2-0.3c-0.2-1.3-0.7-5.3-0.8-6.1c-0.1-0.7,0.3-0.7,0.3,0s0.7,4.8,0.8,6.1
			s2.2,1,2-0.3c-0.2-1.3-1.6-11.8-1.7-12.3c-0.1-0.5,0.1-0.5,0.5-0.1c0.3,0.5,1.7,2.4,2.2,3.2s1.7,0,1.2-0.7
			c-0.5-0.8-2.8-4.6-2.8-4.6c-0.3-0.6-0.9-1-1.6-0.9L104.5,32.1z"/>
		<ellipse transform="matrix(0.9901 -0.14 0.14 0.9901 -3.0548 15.1913)" class="st18" cx="106.4" cy="29.3" rx="1.9" ry="1.9"/>
		<path class="st6" d="M94.4,33.5c-0.7,0.1-1.2,0.6-1.3,1.3c0,0-1.2,4.2-1.5,5.1c-0.3,0.9,1.1,1.3,1.4,0.4s1.1-3.1,1.3-3.7
			c0.2-0.6,0.4-0.6,0.5-0.1c0.1,0.5,1.5,11,1.7,12.3c0.2,1.3,2.2,1,2-0.3s-0.7-5.3-0.8-6.1c-0.1-0.7,0.3-0.7,0.3,0
			c0.1,0.7,0.7,4.8,0.8,6.1c0.2,1.3,2.2,1,2-0.3s-1.6-11.8-1.7-12.3s0.1-0.5,0.5-0.1s1.7,2.4,2.2,3.2s1.7,0,1.2-0.7
			c-0.5-0.8-2.8-4.6-2.8-4.6c-0.3-0.6-0.9-1-1.6-0.9L94.4,33.5z"/>
		<ellipse transform="matrix(0.9906 -0.1371 0.1371 0.9906 -3.3451 13.4895)" class="st6" cx="96.3" cy="31" rx="1.9" ry="1.9"/>
		<path class="st10" d="M84.3,34.9c-0.7,0.1-1.2,0.6-1.3,1.3c0,0-1.2,4.2-1.5,5.1c-0.3,0.9,1.1,1.3,1.4,0.4s1.1-3.1,1.3-3.7
			c0.2-0.6,0.4-0.6,0.5-0.1c0.1,0.5,1.5,11,1.7,12.3s2.2,1,2-0.3s-0.7-5.3-0.8-6.1c-0.1-0.7,0.3-0.7,0.3,0s0.7,4.8,0.8,6.1
			s2.2,1,2-0.3c-0.2-1.3-1.6-11.8-1.7-12.3c-0.1-0.5,0.1-0.5,0.5-0.1c0.3,0.5,1.7,2.4,2.2,3.2s1.7,0,1.2-0.7
			c-0.5-0.8-2.8-4.6-2.8-4.6c-0.3-0.6-0.9-1-1.6-0.9L84.3,34.9z"/>
		<path class="st10" d="M84.3,32.7c-0.1-1,0.6-2,1.6-2.1c1-0.1,2,0.6,2.1,1.6c0.1,1-0.6,2-1.6,2.1C85.4,34.4,84.5,33.7,84.3,32.7
			C84.3,32.7,84.3,32.7,84.3,32.7z"/>
		<path class="st11" d="M74.2,36.3c-0.7,0.1-1.2,0.6-1.3,1.3c0,0-1.2,4.2-1.5,5.1c-0.3,0.9,1.1,1.3,1.4,0.4c0.3-0.9,1.1-3.1,1.3-3.7
			c0.2-0.6,0.4-0.6,0.5-0.1s1.5,11,1.7,12.3c0.2,1.3,2.2,1,2-0.3c-0.2-1.3-0.7-5.3-0.8-6.1c-0.1-0.7,0.3-0.7,0.3,0s0.7,4.8,0.8,6.1
			c0.2,1.3,2.2,1,2-0.3C80.5,49.7,79,39.2,79,38.7s0.1-0.5,0.5-0.1c0.3,0.5,1.7,2.4,2.2,3.2s1.7,0,1.2-0.7c-0.5-0.8-2.8-4.6-2.8-4.6
			c-0.3-0.6-0.9-1-1.6-0.9L74.2,36.3z"/>
		<path class="st11" d="M74.2,34.1c-0.1-1,0.6-2,1.6-2.1c1-0.1,2,0.6,2.1,1.6c0.1,1-0.6,2-1.6,2.1C75.3,35.8,74.4,35.1,74.2,34.1
			C74.2,34.1,74.2,34.1,74.2,34.1z"/>
		<path class="st24" d="M67.5,46.1c0.1,0,0.2,0.1,0.2,0.5c0.1,0.7,0.7,4.8,0.8,6.1c0.2,1.3,2.2,1,2-0.3c-0.2-1.3-1.6-11.8-1.7-12.3
			c-0.1-0.5,0.1-0.5,0.5-0.1c0.3,0.5,1.7,2.4,2.2,3.2c0.5,0.8,1.7,0,1.2-0.7c-0.5-0.8-2.8-4.6-2.8-4.6c-0.3-0.6-0.9-0.9-1.5-0.9
			l-2.2,0.3L67.5,46.1z"/>
		<path class="st24" d="M65.7,33.4c1-0.1,2,0.6,2.1,1.6c0.1,1-0.6,1.9-1.6,2.1L65.7,33.4z"/>
		<path class="st14" d="M92.1,76.1c-0.5-0.8-2.8-4.4-2.8-4.4c-0.2-0.6-0.9-1-1.5-0.9l-3.3,0.5c-0.6,0.1-1.1,0.6-1.2,1.2
			c0,0-0.7,2.2-1.1,3.7c-0.8-1.4-2-3.3-2-3.3c-0.3-0.6-0.9-0.9-1.6-0.8l-4.2,0.6c-0.7,0.1-1.2,0.6-1.3,1.2c0,0-1.1,4.1-1.4,5
			c-0.3,0.9,1.1,1.3,1.4,0.4c0.3-0.9,1-3.1,1.2-3.6c0.2-0.5,0.4-0.5,0.5-0.1s1.5,10.8,1.7,12c0.2,1.3,2.2,1,2-0.3
			c-0.2-1.3-0.7-5.2-0.8-5.9c-0.1-0.6,0.3-0.7,0.3,0s0.6,4.7,0.8,5.9c0.2,1.3,2.2,1,2-0.3s-1.6-11.5-1.7-12
			c-0.1-0.5,0.1-0.5,0.5-0.1c0.3,0.5,1.6,2.4,2.2,3.2c0.2,0.3,0.5,0.4,0.8,0.3c0.2-0.1,0.4-0.2,0.5-0.5c0.3-0.9,1-3.2,1.2-3.7
			c0.2-0.5,0.4-0.5,0.4-0.1c0,0.1-0.1,1.3-0.3,2.6c-0.3,1.8-0.8,3.8-0.8,3.8l1.9-0.3l0.8,6c0,0.5,0.5,0.9,1,0.8c0.5,0,0.9-0.5,0.8-1
			c0,0,0-0.1,0-0.1c-0.2-1.3-0.8-5.9-0.8-5.9l0.3,0c0,0,0.6,4.7,0.8,5.9c0,0.5,0.5,0.9,1,0.8c0.5,0,0.9-0.5,0.8-1c0,0,0-0.1,0-0.1
			c-0.1-0.6-0.5-3.3-0.8-5.9l1.9-0.3c0,0-1-1.8-1.7-3.4c-0.6-1.2-1-2.5-1-2.5c-0.2-0.4,0.1-0.5,0.4-0.1c0.3,0.5,1.7,2.5,2.2,3.3
			C91.6,77.6,92.6,76.9,92.1,76.1z"/>
		<path class="st14" d="M86.2,70.7c1-0.1,1.7-1.1,1.6-2.1c-0.1-1-1.1-1.7-2.1-1.6c-1,0.1-1.7,1.1-1.6,2.1
			C84.3,70.2,85.2,70.9,86.2,70.7C86.2,70.7,86.2,70.7,86.2,70.7z"/>
		<path class="st14" d="M76.5,72.1c1-0.1,1.7-1.1,1.6-2.1S77,68.3,76,68.5c-1,0.1-1.7,1.1-1.6,2.1c0,0,0,0,0,0
			C74.6,71.5,75.5,72.2,76.5,72.1z"/>
		<path class="st15" d="M111.3,73.4c-0.5-0.8-2.8-4.4-2.8-4.4c-0.2-0.6-0.8-1-1.5-0.9l-3.3,0.5c-0.6,0.1-1.1,0.6-1.2,1.2
			c0,0-0.7,2.2-1.1,3.7c-0.8-1.4-2-3.3-2-3.3c-0.3-0.6-0.9-0.9-1.6-0.8L93.6,70c-0.7,0.1-1.2,0.6-1.3,1.2c0,0-1.1,4.1-1.4,5
			c-0.3,0.9,1.1,1.3,1.4,0.4c0.3-0.9,1-3.1,1.2-3.6c0.2-0.5,0.4-0.5,0.5-0.1c0.1,0.5,1.5,10.8,1.7,12c0.2,1.2,2.2,1,2-0.3
			c-0.2-1.3-0.7-5.2-0.8-5.9c-0.1-0.6,0.3-0.7,0.3,0c0.1,0.7,0.6,4.7,0.8,5.9c0.2,1.3,2.2,1,2-0.3c-0.2-1.3-1.6-11.5-1.7-12
			c-0.1-0.5,0.1-0.5,0.5-0.1c0.3,0.5,1.6,2.4,2.2,3.2c0.2,0.3,0.5,0.4,0.8,0.3c0.2-0.1,0.4-0.2,0.5-0.5c0.3-0.9,1-3.2,1.2-3.7
			c0.2-0.5,0.4-0.5,0.4-0.1c0,0.1-0.1,1.3-0.3,2.6c-0.3,1.8-0.8,3.8-0.8,3.8l1.9-0.3l0.8,6c0,0.5,0.5,0.9,1,0.8c0.5,0,0.9-0.5,0.8-1
			c0,0,0-0.1,0-0.1c-0.2-1.3-0.8-5.9-0.8-5.9l0.3,0c0,0,0.6,4.7,0.8,5.9c0,0.5,0.5,0.9,1,0.8c0.5,0,0.9-0.5,0.8-1c0,0,0-0.1,0-0.1
			l-0.8-5.9l1.9-0.3c0,0-1-1.8-1.7-3.4c-0.6-1.2-1-2.5-1.1-2.5c-0.2-0.4,0.1-0.5,0.4-0.1c0.3,0.5,1.7,2.5,2.2,3.3
			S111.8,74.2,111.3,73.4z"/>
		<path class="st15" d="M105.4,68.1c1-0.1,1.7-1.1,1.6-2.1c-0.1-1-1.1-1.7-2.1-1.6c-1,0.1-1.7,1.1-1.6,2.1c0,0,0,0,0,0
			C103.5,67.5,104.4,68.2,105.4,68.1z"/>
		<path class="st15" d="M95.7,69.4c1-0.1,1.7-1.1,1.6-2.1s-1.1-1.7-2.1-1.6c-1,0.1-1.7,1.1-1.6,2.1C93.8,68.9,94.7,69.6,95.7,69.4
			C95.7,69.4,95.7,69.4,95.7,69.4z"/>
		<path class="st16" d="M133.1,70.4c-0.5-0.8-2.8-4.4-2.8-4.4c-0.2-0.6-0.9-1-1.5-0.9l-3.3,0.5c-0.6,0.1-1.1,0.6-1.2,1.2
			c0,0-0.7,2.2-1.1,3.7c-0.8-1.4-2-3.3-2-3.3c-0.3-0.6-0.9-0.9-1.6-0.8l-4.2,0.6c-0.7,0.1-1.2,0.6-1.3,1.2c0,0-1.1,4.1-1.4,5
			c-0.3,0.9,1.1,1.3,1.4,0.4c0.3-0.9,1-3.1,1.2-3.6s0.4-0.5,0.5-0.1c0.1,0.5,1.5,10.8,1.7,12s2.2,1,2-0.3c-0.2-1.3-0.7-5.2-0.8-5.9
			c-0.1-0.6,0.3-0.7,0.3,0c0.1,0.7,0.6,4.7,0.8,5.9c0.2,1.3,2.2,1,2-0.3c-0.2-1.3-1.6-11.5-1.7-12s0.1-0.5,0.5-0.1
			c0.3,0.5,1.6,2.4,2.2,3.2c0.2,0.3,0.5,0.4,0.8,0.3c0.2-0.1,0.4-0.2,0.5-0.5c0.3-0.9,1-3.2,1.2-3.7c0.2-0.5,0.4-0.5,0.4-0.1
			c0,0.1-0.1,1.3-0.3,2.6c-0.3,1.8-0.8,3.8-0.8,3.8l1.9-0.3l0.8,6c0,0.5,0.5,0.9,1,0.8c0.5,0,0.9-0.5,0.8-1c0,0,0-0.1,0-0.1
			c-0.2-1.3-0.8-5.9-0.8-5.9l0.3,0c0,0,0.6,4.7,0.8,5.9c0,0.5,0.5,0.9,1,0.8c0.5,0,0.9-0.5,0.8-1c0,0,0-0.1,0-0.1
			c-0.1-0.6-0.5-3.3-0.8-5.9l1.9-0.3c0,0-1-1.8-1.7-3.4c-0.6-1.2-1-2.5-1-2.5c-0.2-0.4,0.1-0.5,0.4-0.1c0.3,0.5,1.7,2.5,2.2,3.3
			C132.5,72,133.6,71.2,133.1,70.4z"/>
		<path class="st16" d="M127.2,65.1c1-0.1,1.7-1.1,1.6-2.1c-0.1-1-1.1-1.7-2.1-1.6c-1,0.1-1.7,1.1-1.6,2.1c0,0,0,0,0,0
			C125.2,64.5,126.2,65.2,127.2,65.1z"/>
		<path class="st16" d="M116.2,66.6c1-0.1,1.7-1.1,1.6-2.1c-0.1-1-1.1-1.7-2.1-1.6c-1,0.1-1.7,1.1-1.6,2.1c0,0,0,0,0,0
			C114.3,66,115.2,66.7,116.2,66.6C116.2,66.6,116.2,66.6,116.2,66.6z"/>
		<path class="st21" d="M152.3,67.8c-0.5-0.8-2.8-4.4-2.8-4.4c-0.2-0.6-0.9-1-1.5-0.9l-3.3,0.5c-0.6,0.1-1.1,0.6-1.2,1.2
			c0,0-0.7,2.2-1.1,3.7c-0.8-1.4-2-3.3-2-3.3c-0.3-0.6-0.9-0.9-1.6-0.8l-4.2,0.6c-0.7,0.1-1.2,0.6-1.3,1.2c0,0-1.1,4.1-1.4,5
			s1.1,1.3,1.4,0.4s1-3.1,1.2-3.6c0.2-0.5,0.4-0.5,0.5-0.1s1.5,10.8,1.7,12c0.2,1.2,2.2,1,2-0.3c-0.2-1.3-0.7-5.2-0.8-5.9
			c-0.1-0.6,0.3-0.7,0.3,0c0.1,0.7,0.6,4.7,0.8,5.9c0.2,1.3,2.2,1,2-0.3c-0.2-1.3-1.6-11.5-1.7-12c-0.1-0.5,0.1-0.5,0.5-0.1
			c0.3,0.5,1.6,2.4,2.2,3.2c0.2,0.3,0.5,0.4,0.8,0.3c0.2-0.1,0.4-0.2,0.5-0.5c0.3-0.9,1-3.2,1.2-3.7s0.4-0.5,0.4-0.1
			c0,0.1-0.1,1.3-0.3,2.6c-0.3,1.8-0.8,3.8-0.8,3.8l1.9-0.3c0,0,0.7,5.4,0.8,6c0,0.5,0.5,0.9,1,0.8c0.5,0,0.9-0.5,0.8-1
			c0,0,0-0.1,0-0.1c-0.2-1.3-0.8-5.9-0.8-5.9l0.3,0c0,0,0.6,4.7,0.8,5.9c0,0.5,0.5,0.9,1,0.8c0.5,0,0.9-0.5,0.8-1c0,0,0-0.1,0-0.1
			c-0.1-0.6-0.5-3.3-0.8-5.9l1.9-0.3c0,0-1-1.8-1.7-3.4c-0.6-1.2-1-2.5-1-2.5c-0.2-0.4,0.1-0.5,0.4-0.1c0.3,0.5,1.7,2.5,2.2,3.3
			C151.7,69.3,152.8,68.5,152.3,67.8z"/>
		<path class="st21" d="M146.3,62.4c1-0.1,1.7-1.1,1.6-2.1c-0.1-1-1.1-1.7-2.1-1.6c-1,0.1-1.7,1.1-1.6,2.1c0,0,0,0,0,0
			C144.4,61.9,145.3,62.6,146.3,62.4z"/>
		<path class="st21" d="M136.7,63.8c1-0.1,1.7-1.1,1.6-2.1c-0.1-1-1.1-1.7-2.1-1.6c-1,0.1-1.7,1.1-1.6,2.1c0,0,0,0,0,0
			C134.7,63.2,135.7,63.9,136.7,63.8C136.7,63.8,136.7,63.8,136.7,63.8z"/>
		<path class="st3" d="M172.7,64.9c-0.5-0.8-2.8-4.4-2.8-4.4c-0.2-0.6-0.9-1-1.5-0.9l-3.3,0.5c-0.6,0.1-1.1,0.6-1.2,1.2
			c0,0-0.7,2.2-1.1,3.7c-0.8-1.4-2-3.3-2-3.3c-0.3-0.6-0.9-0.9-1.6-0.8l-4.2,0.6c-0.7,0.1-1.2,0.6-1.3,1.2c0,0-1.1,4.1-1.4,5
			s1.1,1.3,1.4,0.4c0.3-0.9,1-3.1,1.2-3.6s0.4-0.5,0.5-0.1c0.1,0.5,1.5,10.8,1.7,12c0.2,1.3,2.2,1,2-0.3c-0.2-1.3-0.7-5.2-0.8-5.9
			c-0.1-0.6,0.3-0.7,0.3,0c0.1,0.7,0.6,4.7,0.8,5.9c0.2,1.3,2.2,1,2-0.3c-0.2-1.3-1.6-11.5-1.7-12c-0.1-0.5,0.1-0.5,0.5-0.1
			s1.7,2.4,2.2,3.1c0.2,0.3,0.5,0.4,0.8,0.3c0.2-0.1,0.4-0.2,0.5-0.5c0.3-0.9,1-3.2,1.2-3.7c0.2-0.5,0.4-0.5,0.4-0.1
			c0,0.1-0.1,1.3-0.3,2.6c-0.3,1.8-0.8,3.8-0.8,3.8l1.9-0.3l0.8,6c0,0.5,0.5,0.9,1,0.8c0.5,0,0.9-0.5,0.8-1c0,0,0-0.1,0-0.1
			c-0.2-1.3-0.8-5.9-0.8-5.9l0.3,0c0,0,0.6,4.7,0.8,5.9c0,0.5,0.5,0.9,1,0.8c0.5,0,0.9-0.5,0.8-1c0,0,0-0.1,0-0.1
			c-0.1-0.6-0.5-3.3-0.8-5.9l1.9-0.3c0,0-1-1.8-1.7-3.4c-0.6-1.2-1-2.5-1-2.5c-0.2-0.4,0.1-0.5,0.4-0.1c0.3,0.5,1.7,2.5,2.2,3.3
			C172.2,66.5,173.2,65.7,172.7,64.9z"/>
		<path class="st3" d="M157.1,60.9c1-0.1,1.7-1.1,1.6-2.1c-0.1-1-1.1-1.7-2.1-1.6c-1,0.1-1.7,1.1-1.6,2.1c0,0,0,0,0,0
			C155.2,60.4,156.1,61.1,157.1,60.9z"/>
		<path class="st7" d="M81.9,59.8c0.7-0.1,1.3,0.3,1.6,0.9c0,0,2.3,3.7,2.8,4.5c0.5,0.8-0.7,1.6-1.2,0.8c-0.5-0.8-1.9-2.7-2.2-3.2
			c-0.3-0.5-0.5-0.4-0.5,0.1c0.1,0.5,1.5,11,1.7,12.3c0.2,1.3-1.9,1.6-2,0.3c-0.2-1.3-0.7-5.3-0.8-6.1c-0.1-0.7-0.4-0.6-0.3,0
			c0.1,0.7,0.7,4.8,0.8,6.1s-1.9,1.6-2,0.3C79.5,74.4,78,63.9,78,63.4s-0.3-0.5-0.5,0.1s-1,2.8-1.3,3.7c-0.3,0.9-1.7,0.5-1.4-0.4
			c0.3-0.9,1.4-5.2,1.4-5.2c0.1-0.7,0.6-1.2,1.3-1.3L81.9,59.8z"/>
		<path class="st7" d="M81.3,57.6c-0.1-1-1.1-1.7-2.1-1.6c-1,0.1-1.7,1.1-1.6,2.1c0.1,1,1.1,1.7,2.1,1.6
			C80.7,59.6,81.4,58.7,81.3,57.6z"/>
		<path class="st8" d="M92,58.4c0.7-0.1,1.3,0.3,1.6,0.9c0,0,2.3,3.7,2.8,4.5c0.5,0.8-0.7,1.6-1.2,0.8c-0.5-0.8-1.9-2.7-2.2-3.2
			s-0.5-0.4-0.5,0.1c0.1,0.5,1.5,11,1.7,12.3c0.2,1.3-1.9,1.6-2,0.3c-0.2-1.3-0.7-5.3-0.8-6.1c-0.1-0.7-0.4-0.6-0.3,0
			c0.1,0.7,0.7,4.8,0.8,6.1c0.2,1.3-1.9,1.6-2,0.3C89.6,73,88.1,62.5,88.1,62s-0.3-0.5-0.5,0.1c-0.2,0.6-1,2.8-1.3,3.7
			c-0.3,0.9-1.7,0.5-1.4-0.4c0.3-0.9,1.4-5.2,1.4-5.2c0.1-0.7,0.6-1.2,1.3-1.3L92,58.4z"/>
		<path class="st8" d="M91.4,56.2c-0.1-1-1.1-1.7-2.1-1.6c-1,0.1-1.7,1.1-1.6,2.1c0.1,1,1.1,1.7,2.1,1.6
			C90.8,58.2,91.5,57.3,91.4,56.2C91.4,56.2,91.4,56.2,91.4,56.2z"/>
		<path class="st9" d="M102.1,57c0.7-0.1,1.3,0.3,1.6,0.9c0,0,2.3,3.7,2.8,4.5s-0.7,1.6-1.2,0.8c-0.5-0.8-1.9-2.7-2.2-3.2
			c-0.3-0.5-0.5-0.4-0.5,0.1c0.1,0.5,1.5,11,1.7,12.3c0.2,1.3-1.9,1.6-2,0.3c-0.2-1.3-0.7-5.3-0.8-6.1c-0.1-0.7-0.4-0.6-0.3,0
			c0.1,0.7,0.7,4.8,0.8,6.1s-1.9,1.6-2,0.3s-1.6-11.8-1.7-12.3c-0.1-0.5-0.3-0.5-0.5,0.1s-1,2.8-1.3,3.7c-0.3,0.9-1.7,0.5-1.4-0.4
			s1.4-5.1,1.4-5.1c0.1-0.7,0.6-1.2,1.3-1.3L102.1,57z"/>
		<path class="st9" d="M101.5,54.8c-0.1-1-1.1-1.7-2.1-1.6c-1,0.1-1.7,1.1-1.6,2.1c0.1,1,1.1,1.7,2.1,1.6
			C100.9,56.8,101.6,55.9,101.5,54.8z"/>
		<path class="st10" d="M112.2,55.6c0.7-0.1,1.3,0.3,1.6,0.9c0,0,2.3,3.7,2.8,4.5c0.5,0.8-0.7,1.6-1.2,0.8c-0.5-0.8-1.9-2.7-2.2-3.2
			c-0.3-0.5-0.5-0.4-0.5,0.1c0.1,0.5,1.5,11,1.7,12.3c0.2,1.3-1.9,1.6-2,0.3c-0.2-1.3-0.7-5.3-0.8-6.1c-0.1-0.7-0.4-0.6-0.3,0
			s0.7,4.8,0.8,6.1c0.2,1.3-1.9,1.6-2,0.3c-0.2-1.3-1.6-11.8-1.7-12.3c-0.1-0.5-0.3-0.5-0.5,0.1c-0.2,0.6-1,2.8-1.3,3.7
			c-0.3,0.9-1.7,0.5-1.4-0.4c0.3-0.9,1.4-5.2,1.4-5.2c0.1-0.7,0.6-1.2,1.3-1.3L112.2,55.6z"/>
		<path class="st10" d="M111.6,53.4c-0.1-1-1.1-1.7-2.1-1.6s-1.7,1.1-1.6,2.1c0.1,1,1.1,1.7,2.1,1.6c0,0,0,0,0,0
			C111,55.4,111.7,54.5,111.6,53.4z"/>
		<path class="st11" d="M122.3,54.2c0.7-0.1,1.3,0.3,1.6,0.9c0,0,2.3,3.7,2.8,4.5s-0.7,1.6-1.2,0.8c-0.5-0.8-1.9-2.7-2.2-3.2
			c-0.3-0.5-0.5-0.4-0.5,0.1c0.1,0.5,1.5,11,1.7,12.3c0.2,1.3-1.9,1.6-2,0.3c-0.2-1.3-0.7-5.3-0.8-6.1c-0.1-0.7-0.4-0.6-0.3,0
			c0.1,0.7,0.7,4.8,0.8,6.1c0.2,1.3-1.9,1.6-2,0.3c-0.2-1.3-1.6-11.8-1.7-12.3c-0.1-0.5-0.3-0.5-0.5,0.1c-0.2,0.6-1,2.8-1.3,3.7
			c-0.3,0.9-1.7,0.5-1.4-0.4c0.3-0.9,1.4-5.2,1.4-5.2c0.1-0.7,0.6-1.2,1.3-1.3L122.3,54.2z"/>
		
			<ellipse transform="matrix(0.9906 -0.1371 0.1371 0.9906 -6.0396 16.9221)" class="st11" cx="119.8" cy="52.3" rx="1.9" ry="1.9"/>
		<path class="st12" d="M132.4,52.8c0.7-0.1,1.3,0.3,1.6,0.9c0,0,2.3,3.7,2.8,4.5s-0.7,1.6-1.2,0.8c-0.5-0.8-1.9-2.7-2.2-3.2
			c-0.3-0.5-0.5-0.4-0.5,0.1c0.1,0.5,1.5,11,1.7,12.3c0.2,1.3-1.9,1.6-2,0.3c-0.2-1.3-0.7-5.3-0.8-6.1c-0.1-0.7-0.4-0.6-0.3,0
			s0.7,4.8,0.8,6.1s-1.9,1.6-2,0.3c-0.2-1.3-1.6-11.8-1.7-12.3s-0.3-0.5-0.5,0.1c-0.2,0.6-1,2.8-1.3,3.7c-0.3,0.9-1.7,0.5-1.4-0.4
			c0.3-0.9,1.4-5.1,1.4-5.1c0.1-0.7,0.6-1.2,1.3-1.3L132.4,52.8z"/>
		<path class="st12" d="M131.8,50.7c-0.1-1-1.1-1.7-2.1-1.6c-1,0.1-1.7,1.1-1.6,2.1c0.1,1,1.1,1.7,2.1,1.6
			C131.2,52.6,131.9,51.7,131.8,50.7z"/>
		<path class="st8" d="M142.5,51.4c0.7-0.1,1.3,0.3,1.6,0.9c0,0,2.3,3.7,2.8,4.5c0.5,0.8-0.7,1.6-1.2,0.8c-0.5-0.8-1.9-2.7-2.2-3.2
			c-0.3-0.5-0.5-0.4-0.5,0.1c0.1,0.5,1.5,11,1.7,12.3s-1.9,1.6-2,0.3c-0.2-1.3-0.7-5.3-0.8-6.1c-0.1-0.7-0.4-0.6-0.3,0
			c0.1,0.7,0.7,4.8,0.8,6.1c0.2,1.3-1.9,1.6-2,0.3c-0.2-1.3-1.6-11.8-1.7-12.3c-0.1-0.5-0.3-0.5-0.5,0.1c-0.2,0.6-1,2.8-1.3,3.7
			c-0.3,0.9-1.7,0.5-1.4-0.4c0.3-0.9,1.4-5.2,1.4-5.2c0.1-0.7,0.6-1.2,1.3-1.3L142.5,51.4z"/>
		<path class="st8" d="M141.9,49.3c-0.1-1-1.1-1.7-2.1-1.6c-1,0.1-1.7,1.1-1.6,2.1c0.1,1,1.1,1.7,2.1,1.6c0,0,0,0,0,0
			C141.3,51.2,142,50.3,141.9,49.3z"/>
		<path class="st8" d="M152.6,50c0.7-0.1,1.3,0.3,1.6,0.9c0,0,2.3,3.7,2.8,4.5c0.5,0.8-0.7,1.6-1.2,0.8s-1.9-2.7-2.2-3.2
			c-0.3-0.5-0.5-0.4-0.5,0.1c0.1,0.5,1.5,11,1.7,12.3c0.2,1.3-1.9,1.6-2,0.3s-0.7-5.3-0.8-6.1c-0.1-0.7-0.4-0.6-0.3,0
			s0.7,4.8,0.8,6.1s-1.9,1.6-2,0.3s-1.6-11.8-1.7-12.3s-0.3-0.5-0.5,0.1s-1,2.8-1.3,3.7c-0.3,0.9-1.7,0.5-1.4-0.4
			c0.3-0.9,1.4-5.1,1.4-5.1c0.1-0.7,0.6-1.2,1.3-1.3L152.6,50z"/>
		<path class="st8" d="M152,47.9c-0.1-1-1.1-1.7-2.1-1.6s-1.7,1.1-1.6,2.1c0.1,1,1.1,1.7,2.1,1.6C151.4,49.8,152.1,48.9,152,47.9
			C152,47.9,152,47.9,152,47.9z"/>
		<path class="st22" d="M162.7,48.6c0.7-0.1,1.3,0.3,1.6,0.9c0,0,2.3,3.7,2.8,4.5c0.5,0.8-0.7,1.6-1.2,0.8c-0.5-0.8-1.9-2.7-2.2-3.2
			c-0.3-0.5-0.5-0.4-0.5,0.1s1.5,11,1.7,12.3c0.2,1.3-1.9,1.6-2,0.3c-0.2-1.3-0.7-5.3-0.8-6.1c-0.1-0.7-0.4-0.6-0.3,0
			s0.7,4.8,0.8,6.1c0.2,1.3-1.9,1.6-2,0.3c-0.2-1.3-1.6-11.8-1.7-12.3s-0.3-0.5-0.5,0.1c-0.2,0.6-1,2.8-1.3,3.7
			c-0.3,0.9-1.7,0.5-1.4-0.4c0.3-0.9,1.4-5.2,1.4-5.2c0.1-0.7,0.6-1.2,1.3-1.3L162.7,48.6z"/>
		<path class="st22" d="M162.1,46.5c-0.1-1-1.1-1.7-2.1-1.6s-1.7,1.1-1.6,2.1c0.1,1,1.1,1.7,2.1,1.6c0,0,0,0,0,0
			C161.5,48.4,162.2,47.5,162.1,46.5z"/>
		<path class="st13" d="M70.8,70.2c0.1,0,0.2,0.1,0.2,0.5c0.1,0.7,0.7,4.8,0.8,6.1c0.2,1.3,2.2,1,2-0.3s-1.6-11.8-1.7-12.3
			c-0.1-0.5,0.1-0.5,0.5-0.1c0.3,0.5,1.7,2.4,2.2,3.2c0.5,0.8,1.7,0,1.2-0.7c-0.5-0.8-2.8-4.6-2.8-4.6c-0.3-0.6-0.9-0.9-1.5-0.9
			l-2.2,0.3L70.8,70.2z"/>
		<path class="st13" d="M69,57.5c1-0.1,2,0.6,2.1,1.6c0.1,1-0.6,1.9-1.6,2.1L69,57.5z"/>
		<path class="st8" d="M129.9,12.7c0.3-0.1,0.5-0.3,0.5-0.5c0.3-1,1.1-3.6,1.3-4.2s0.5-0.6,0.4-0.1c0,0.1-0.1,1.5-0.3,2.9
			c-0.3,2-0.8,4.3-0.8,4.3l2.1-0.3l0.9,6.7c0.2,1.4,2.1,1.1,1.9-0.3c-0.2-1.4-0.9-6.6-0.9-6.6l0.4,0c0,0,0.7,5.2,0.9,6.6
			c0.2,1.4,2.1,1.1,1.9-0.3c-0.1-0.7-0.5-3.7-0.9-6.6l2.1-0.3c0,0-1.1-2-1.9-3.8c-0.6-1.4-1.1-2.8-1.2-2.9c-0.2-0.4,0.1-0.6,0.4-0.1
			c0.4,0.5,1.8,2.8,2.4,3.7c0.6,0.9,1.7,0,1.2-0.8c-0.6-0.9-3.1-5-3.1-5c-0.2-0.7-0.9-1.1-1.6-1L132,4.7c-0.7,0.1-1.2,0.7-1.3,1.4
			l-1.9,5.9l0.3,0.4l0.7-0.1l0.6-0.1l0.1-0.4"/>
		<path class="st8" d="M133.6,4.2c1-0.1,1.8-1,1.7-2.1c-0.1-1-1-1.8-2.1-1.7c-1,0.1-1.8,1-1.7,2.1c0,0,0,0,0,0.1
			C131.7,3.6,132.6,4.3,133.6,4.2z"/>
		<circle class="st8" cx="129.7" cy="11.9" r="0.8"/>
		<path class="st11" d="M109.7,15.5c0.3-0.1,0.5-0.3,0.5-0.5c0.3-1,1.1-3.6,1.3-4.2c0.2-0.6,0.5-0.6,0.4-0.1c0,0.1-0.1,1.5-0.3,2.9
			c-0.3,2-0.8,4.3-0.8,4.3l2.1-0.3l0.9,6.7c0.2,1.4,2.1,1.1,1.9-0.3c-0.2-1.4-0.9-6.6-0.9-6.6l0.4-0.1c0,0,0.7,5.2,0.9,6.6
			c0.2,1.4,2.1,1.1,1.9-0.3c-0.1-0.7-0.5-3.7-0.9-6.6l2.1-0.3c0,0-1.1-2-1.9-3.8c-0.6-1.4-1.1-2.8-1.2-2.9c-0.2-0.4,0.1-0.6,0.4-0.1
			c0.4,0.5,1.8,2.8,2.4,3.7c0.6,0.9,1.7,0,1.2-0.8c-0.6-0.9-3.1-5-3.1-5c-0.2-0.7-0.9-1.1-1.6-1l-3.6,0.5c-0.7,0.1-1.3,0.7-1.3,1.4
			l-1.9,5.9l0.3,0.4l0.7-0.1l0.6-0.1l0.1-0.4"/>
		<path class="st11" d="M113.5,6.9c1-0.1,1.8-1,1.7-2.1c-0.1-1-1-1.8-2.1-1.7c-1,0.1-1.8,1-1.7,2.1c0,0,0,0,0,0.1
			C111.5,6.3,112.5,7.1,113.5,6.9z"/>
		<circle class="st11" cx="109.5" cy="14.7" r="0.8"/>
		<path class="st9" d="M89.6,18.3c0.3-0.1,0.5-0.3,0.5-0.5c0.3-1,1.1-3.6,1.3-4.2c0.2-0.6,0.5-0.6,0.4-0.1c0,0.1-0.1,1.5-0.3,2.9
			c-0.3,2-0.8,4.3-0.8,4.3l2.1-0.3l0.9,6.7c0.2,1.4,2.1,1.1,1.9-0.3c-0.2-1.4-0.9-6.6-0.9-6.6l0.4,0c0,0,0.7,5.2,0.9,6.6
			s2.1,1.1,1.9-0.3c-0.1-0.7-0.5-3.7-0.9-6.6l2.1-0.3c0,0-1.1-2-1.9-3.8c-0.6-1.4-1.1-2.7-1.2-2.9c-0.2-0.4,0.1-0.6,0.4-0.1
			c0.4,0.5,1.8,2.8,2.4,3.7c0.6,0.9,1.7,0,1.2-0.8c-0.6-0.9-3.1-4.9-3.1-4.9c-0.2-0.7-0.9-1.1-1.6-1l-3.6,0.5
			c-0.7,0.1-1.2,0.7-1.3,1.4l-1.9,5.9l0.3,0.4l0.7-0.1l0.6-0.1l0.1-0.4"/>
		<path class="st9" d="M93.3,9.7c1-0.1,1.8-1,1.7-2.1c-0.1-1-1-1.8-2.1-1.7c-1,0.1-1.8,1-1.7,2.1c0,0,0,0,0,0.1
			C91.3,9.1,92.3,9.9,93.3,9.7z"/>
		<circle class="st9" cx="89.4" cy="17.5" r="0.8"/>
		<path class="st7" d="M69.3,21.1c0.3-0.1,0.5-0.3,0.5-0.5c0.3-1,1.1-3.6,1.3-4.2c0.2-0.6,0.5-0.6,0.4-0.1c0,0.1-0.1,1.5-0.3,2.9
			c-0.3,2-0.8,4.3-0.8,4.3l2.1-0.3l0.9,6.7c0.2,1.4,2.1,1.1,1.9-0.3c-0.2-1.4-0.9-6.6-0.9-6.6l0.4,0c0,0,0.7,5.2,0.9,6.6
			c0.2,1.4,2.1,1.1,1.9-0.3c-0.1-0.7-0.5-3.7-0.9-6.6l2.1-0.3c0,0-1.1-2-1.9-3.8c-0.6-1.4-1.1-2.7-1.2-2.9c-0.2-0.4,0.1-0.6,0.4-0.1
			c0.4,0.5,1.8,2.8,2.4,3.7c0.6,0.9,1.7,0,1.2-0.8s-3.1-5-3.1-5c-0.2-0.7-0.9-1.1-1.6-1l-3.6,0.5c-0.7,0.1-1.2,0.7-1.3,1.4l-1.9,5.9
			l0.3,0.4l0.7-0.1l0.6-0.1l0.1-0.4"/>
		<path class="st7" d="M73,12.6c1-0.1,1.8-1,1.7-2.1c-0.1-1-1-1.8-2.1-1.7c-1,0.1-1.8,1-1.7,2.1c0,0,0,0,0,0.1
			C71.1,11.9,72,12.7,73,12.6z"/>
		<circle class="st7" cx="69.1" cy="20.3" r="0.8"/>
		<path class="st23" d="M49.6,23.9c0.3-0.1,0.5-0.3,0.5-0.5c0.3-1,1.1-3.6,1.3-4.2c0.2-0.6,0.5-0.6,0.4-0.1c0,0.1-0.1,1.5-0.3,2.9
			c-0.3,2-0.8,4.3-0.8,4.3l2.1-0.3l0.9,6.7c0.2,1.4,2.1,1.1,1.9-0.3c-0.2-1.4-0.9-6.6-0.9-6.6l0.4,0c0,0,0.7,5.2,0.9,6.6
			c0.2,1.4,2.1,1.1,1.9-0.3c-0.1-0.7-0.5-3.7-0.9-6.6l2.1-0.3c0,0-1.1-2-1.9-3.8c-0.6-1.4-1.1-2.8-1.2-2.9c-0.2-0.4,0.1-0.6,0.4-0.1
			c0.4,0.5,1.8,2.8,2.4,3.7c0.6,0.9,1.7,0,1.2-0.8c-0.6-0.9-3.1-5-3.1-5c-0.2-0.7-0.9-1.1-1.6-1l-3.6,0.5c-0.7,0.1-1.2,0.7-1.3,1.4
			l-1.9,5.9l0.3,0.4l0.7-0.1l0.6-0.1l0.1-0.4"/>
		<path class="st23" d="M53.3,15.4c1-0.1,1.8-1,1.7-2.1c-0.1-1-1-1.8-2.1-1.7c-1,0.1-1.8,1-1.7,2.1c0,0,0,0,0,0.1
			C51.4,14.7,52.3,15.5,53.3,15.4z"/>
		<circle class="st23" cx="49.4" cy="23.1" r="0.8"/>
		<path class="st6" d="M29.4,26.7c0.3-0.1,0.5-0.3,0.5-0.5c0.3-1,1.1-3.6,1.3-4.2s0.5-0.6,0.4-0.1c0,0.1-0.1,1.5-0.3,2.9
			c-0.3,2-0.8,4.3-0.8,4.3l2.1-0.3l0.9,6.7c0.2,1.4,2.1,1.1,1.9-0.3c-0.2-1.4-0.9-6.6-0.9-6.6l0.4,0c0,0,0.7,5.2,0.9,6.6
			c0.2,1.4,2.1,1.1,1.9-0.3c-0.1-0.7-0.5-3.7-0.9-6.6l2.1-0.3c0,0-1.1-2-1.9-3.8c-0.6-1.4-1.1-2.7-1.2-2.9c-0.2-0.4,0.1-0.6,0.4-0.1
			c0.4,0.5,1.8,2.8,2.4,3.7c0.6,0.9,1.7,0,1.2-0.8s-3.1-5-3.1-5c-0.2-0.7-0.9-1.1-1.6-1l-3.6,0.5c-0.7,0.1-1.2,0.7-1.3,1.4l-1.9,5.9
			l0.3,0.4l0.7-0.1l0.6-0.1l0.1-0.4"/>
		<path class="st6" d="M33.1,18.1c1-0.1,1.8-1,1.7-2.1c-0.1-1-1-1.8-2.1-1.7c-1,0.1-1.8,1-1.7,2.1c0,0,0,0,0,0.1
			C31.1,17.5,32.1,18.2,33.1,18.1z"/>
		<circle class="st6" cx="29.2" cy="25.9" r="0.8"/>
	</g>
</g>
<polygon class="st25" points="74.2,3.3 66.3,3.3 53.9,3.3 52.6,6.7 49.7,8.8 47.5,11.7 46.1,12.4 43.9,11 41.8,11.7 41,12.4 
	39.6,14.5 38.1,14.5 37.4,13.1 32.3,15.2 30.9,18 28,18 26.6,19.4 22.2,22.3 17.9,21.6 14.3,23.7 13.5,24.4 12.8,27.2 8.5,27.9 
	7.8,33.2 13.6,33.2 21.4,33.2 27.9,33.2 30.2,32.9 37.4,30.7 51.2,30.7 59.1,31.5 62.7,31.5 64.2,34.3 65.6,32.9 68.5,35.7 
	68.5,38.5 83,38.5 87.3,39.2 90.5,42.3 97.4,49 104.7,56.2 106.9,58.3 111.2,56.9 117,57.6 117.7,56.2 121.3,48.4 124.2,45.6 
	130.8,41.3 137.3,39.9 140.9,40.6 144.5,35.7 143.8,33.6 141.6,32.9 138,35 135.1,35.7 132.9,33.6 131.6,32.3 134.7,32.9 
	136.6,34.1 140.2,31.6 140.9,27.9 138.7,27.2 136.4,26.1 134,24.3 136.7,25.1 139.1,25.6 138.6,23.7 139.2,23.7 139.8,23.7 
	140.5,26.5 147.4,26.5 151.7,21.6 153.2,21.6 153.9,18.7 151,13.8 148.9,15.9 148.1,19.2 147.4,16.6 148.1,13.8 146,13.8 
	142.4,14.5 137.3,14.5 136.1,12.4 136.1,8.9 136.5,7.7 137.3,8.9 137.3,12.3 138.7,13.4 140.4,13.4 141.1,12.5 142,12.8 146.4,11.3 
	146.4,11.3 147.7,11.1 147.4,10.2 146.2,8 148.8,10.3 149.8,10.9 151.1,10.8 151.7,11.7 153.2,11 150.8,3.3 143.8,3.3 139.4,3.3 
	133,3.3 116.2,3.3 108.9,3.3 101,3.3 95.1,3.3 89.3,3.3 80.8,3.3 "/>
</svg>
